<svg width="237" height="158" viewBox="0 0 237 158" fill="none" xmlns="http://www.w3.org/2000/svg">
<g clip-path="url(#clip0_1_9552)">
<path d="M236.036 157.503H0.752075V0.647461H236.036V157.503Z" fill="#96D0F0"/>
<g style="mix-blend-mode:multiply">
<path d="M236.016 85.8987H229.213V80.2911V77.8991V74.6639H219.997V77.8991H217.449V80.2911H212.449V76.4874H211.488V75.0757H210.704V73.5463H203.332V75.0757H202.547V76.4874H201.587V87.0751H199.038V74.311H189.783V72.8993H182.293V74.311H173.098V81.9969H171.411V78.7618H164.255V81.9969H157.471V95.2709H147.569V66.2917H143.177V61.6253H115.041V66.2917V92.173H112.002V76.4874H111.061V75.0757H110.277V73.5463H102.885V75.0757H102.101V76.4874H101.14V80.2911H96.1597V77.8991H93.5912V74.6639H84.3955V77.8991V80.2911V85.8987H76.1802V63.3507H69.0825V61.8213H63.1807V58.8411H62.3965V61.8213H60.4946V56.9392H59.7299V61.8213H55.6909V63.3507H48.6127V99.2903H42.9659V90.0946H34.3585V71.468H33.182V36.9205H31.2606V35.4891H28.8489L26.7902 14.5097C26.7313 13.8038 25.6726 13.7842 25.5941 14.5097L23.2021 35.4891H20.7708V36.9205H18.8493V71.468H17.6925V77.3305H15.673V73.0757H13.6143V70.9582H4.30094V73.0757H2.24221V77.3305H1.00697V86.6046H0.752075V107.878H30.1822H33.182H34.3585H42.9659H48.6127H76.1802H84.3955H85.3759H93.5912H101.14H105.551H110.434H112.002H115.041H119.649H143.177H147.059H147.569H157.471H158.255H173.098H174.352H199.038H201.587H208.037H208.547H212.449H219.997H228.213H229.213H236.016V85.8987Z" fill="#E3E3E3"/>
</g>
<g style="mix-blend-mode:multiply">
<path d="M59.2404 72.6841H54.6132V64.959H59.2404V72.6841Z" fill="#F7F7F7"/>
</g>
<g style="mix-blend-mode:multiply">
<path d="M65.6124 72.6837H60.9852V64.9585H65.6124V72.6837Z" fill="#F7F7F7"/>
</g>
<g style="mix-blend-mode:multiply">
<path d="M72.0042 72.6834H67.377V64.9583H72.0042V72.6834Z" fill="#F7F7F7"/>
</g>
<g style="mix-blend-mode:multiply">
<path d="M59.2404 82.1536H54.6132V74.4285H59.2404V82.1536Z" fill="#F7F7F7"/>
</g>
<g style="mix-blend-mode:multiply">
<path d="M65.6124 82.1541H60.9852V74.429H65.6124V82.1541Z" fill="#F7F7F7"/>
</g>
<g style="mix-blend-mode:multiply">
<path d="M72.0042 82.1531H67.377V74.428H72.0042V82.1531Z" fill="#F7F7F7"/>
</g>
<g style="mix-blend-mode:multiply">
<path d="M59.2404 91.7803H54.6132V84.0552H59.2404V91.7803Z" fill="#F7F7F7"/>
</g>
<g style="mix-blend-mode:multiply">
<path d="M65.6124 91.7808H60.9852V84.0557H65.6124V91.7808Z" fill="#F7F7F7"/>
</g>
<g style="mix-blend-mode:multiply">
<path d="M72.0042 91.7808H67.377V84.0557H72.0042V91.7808Z" fill="#F7F7F7"/>
</g>
<g style="mix-blend-mode:multiply">
<path d="M91.1596 84.3695H87.8656V76.6248H91.1596V84.3695Z" fill="#F7F7F7"/>
</g>
<g style="mix-blend-mode:multiply">
<path d="M91.1596 93.5066H87.8656V85.7815H91.1596V93.5066Z" fill="#F7F7F7"/>
</g>
<g style="mix-blend-mode:multiply">
<path d="M101.413 86.0357H96.3547V82.6829H101.413V86.0357Z" fill="#F7F7F7"/>
</g>
<g style="mix-blend-mode:multiply">
<path d="M101.413 90.9966H96.3547V87.6438H101.413V90.9966Z" fill="#F7F7F7"/>
</g>
<g style="mix-blend-mode:multiply">
<path d="M101.413 95.8792H96.3547V92.5264H101.413V95.8792Z" fill="#F7F7F7"/>
</g>
<g style="mix-blend-mode:multiply">
<path d="M101.413 100.839H96.3547V97.4863H101.413V100.839Z" fill="#F7F7F7"/>
</g>
<g style="mix-blend-mode:multiply">
<path d="M91.1596 98.7409H87.8656V95.5254H91.1596V98.7409Z" fill="#F7F7F7"/>
</g>
<g style="mix-blend-mode:multiply">
<path d="M79.7892 91.7615H76.4756V86.8794H79.7892V91.7615Z" fill="#F7F7F7"/>
</g>
<g style="mix-blend-mode:multiply">
<path d="M84.7095 91.7606H81.3763V86.8784H84.7095V91.7606Z" fill="#F7F7F7"/>
</g>
<g style="mix-blend-mode:multiply">
<path d="M105.238 80.781H103.218V77.8008H105.238V80.781Z" fill="#F7F7F7"/>
</g>
<g style="mix-blend-mode:multiply">
<path d="M108.041 80.7815H106.022V77.8013H108.041V80.7815Z" fill="#F7F7F7"/>
</g>
<g style="mix-blend-mode:multiply">
<path d="M110.726 80.7815H108.706V77.8013H110.726V80.7815Z" fill="#F7F7F7"/>
</g>
<g style="mix-blend-mode:multiply">
<path d="M105.238 84.6048H103.218V81.6245H105.238V84.6048Z" fill="#F7F7F7"/>
</g>
<g style="mix-blend-mode:multiply">
<path d="M108.041 84.6048H106.022V81.6245H108.041V84.6048Z" fill="#F7F7F7"/>
</g>
<g style="mix-blend-mode:multiply">
<path d="M110.726 84.6048H108.706V81.6245H110.726V84.6048Z" fill="#F7F7F7"/>
</g>
<g style="mix-blend-mode:multiply">
<path d="M105.238 88.5848H103.218V85.585H105.238V88.5848Z" fill="#F7F7F7"/>
</g>
<g style="mix-blend-mode:multiply">
<path d="M108.041 88.5843H106.022V85.5845H108.041V88.5843Z" fill="#F7F7F7"/>
</g>
<g style="mix-blend-mode:multiply">
<path d="M110.726 88.5843H108.706V85.5845H110.726V88.5843Z" fill="#F7F7F7"/>
</g>
<g style="mix-blend-mode:multiply">
<path d="M105.238 92.408H103.218V89.4277H105.238V92.408Z" fill="#F7F7F7"/>
</g>
<g style="mix-blend-mode:multiply">
<path d="M108.041 92.408H106.022V89.4277H108.041V92.408Z" fill="#F7F7F7"/>
</g>
<g style="mix-blend-mode:multiply">
<path d="M110.726 92.408H108.706V89.4277H110.726V92.408Z" fill="#F7F7F7"/>
</g>
<g style="mix-blend-mode:multiply">
<path d="M105.238 95.9573H103.218V92.9771H105.238V95.9573Z" fill="#F7F7F7"/>
</g>
<g style="mix-blend-mode:multiply">
<path d="M108.041 95.9568H106.022V92.9766H108.041V95.9568Z" fill="#F7F7F7"/>
</g>
<g style="mix-blend-mode:multiply">
<path d="M110.726 95.9568H108.706V92.9766H110.726V95.9568Z" fill="#F7F7F7"/>
</g>
<g style="mix-blend-mode:multiply">
<path d="M105.238 99.7806H103.218V96.8003H105.238V99.7806Z" fill="#F7F7F7"/>
</g>
<g style="mix-blend-mode:multiply">
<path d="M108.041 99.7806H106.022V96.8003H108.041V99.7806Z" fill="#F7F7F7"/>
</g>
<g style="mix-blend-mode:multiply">
<path d="M110.726 99.7806H108.706V96.8003H110.726V99.7806Z" fill="#F7F7F7"/>
</g>
<g style="mix-blend-mode:multiply">
<path d="M79.7892 97.9566H76.4756V93.0745H79.7892V97.9566Z" fill="#F7F7F7"/>
</g>
<g style="mix-blend-mode:multiply">
<path d="M84.7095 97.9571H81.3763V93.075H84.7095V97.9571Z" fill="#F7F7F7"/>
</g>
<g style="mix-blend-mode:multiply">
<path d="M59.2404 101.231H54.6132V93.5061H59.2404V101.231Z" fill="#F7F7F7"/>
</g>
<g style="mix-blend-mode:multiply">
<path d="M65.6124 101.231H60.9852V93.5056H65.6124V101.231Z" fill="#F7F7F7"/>
</g>
<g style="mix-blend-mode:multiply">
<path d="M72.0042 101.232H67.377V93.5066H72.0042V101.232Z" fill="#F7F7F7"/>
</g>
<g style="mix-blend-mode:screen">
<path d="M51.9062 77.9386C51.3572 77.9386 50.9062 77.4876 50.9062 76.919V65.9783C50.9062 65.4097 51.3572 64.9587 51.9062 64.9587C52.4748 64.9587 52.9257 65.4097 52.9257 65.9783V76.919C52.9257 77.4876 52.4748 77.9386 51.9062 77.9386Z" fill="#3D3D3D"/>
</g>
<g style="mix-blend-mode:screen">
<path d="M51.9062 77.9384C51.3572 77.9384 50.9062 77.4874 50.9062 76.9188V69.8799C50.9062 69.3113 51.3572 68.8604 51.9062 68.8604C52.4748 68.8604 52.9257 69.3113 52.9257 69.8799V76.9188C52.9257 77.4874 52.4748 77.9384 51.9062 77.9384Z" fill="#3D3D3D"/>
</g>
<g style="mix-blend-mode:screen">
<path d="M51.9062 77.9385C51.3572 77.9385 50.9062 77.4876 50.9062 76.9189V75.3896C50.9062 74.8406 51.3572 74.3896 51.9062 74.3896C52.4748 74.3896 52.9257 74.8406 52.9257 75.3896V76.9189C52.9257 77.4876 52.4748 77.9385 51.9062 77.9385Z" fill="#3D3D3D"/>
</g>
<g style="mix-blend-mode:screen">
<path d="M51.9062 84.0558C51.3572 84.0558 50.9062 83.6048 50.9062 83.0362V81.5069C50.9062 80.9579 51.3572 80.4873 51.9062 80.4873C52.4748 80.4873 52.9257 80.9579 52.9257 81.5069V83.0362C52.9257 83.6048 52.4748 84.0558 51.9062 84.0558Z" fill="#8F8F8F"/>
</g>
<g style="mix-blend-mode:screen">
<path d="M86.3758 92.7415C85.8268 92.7415 85.3758 92.2905 85.3758 91.7415V80.7812C85.3758 80.2322 85.8268 79.7812 86.3758 79.7812C86.9444 79.7812 87.3953 80.2322 87.3953 80.7812V91.7415C87.3953 92.2905 86.9444 92.7415 86.3758 92.7415Z" fill="#3D3D3D"/>
</g>
<g style="mix-blend-mode:screen">
<path d="M86.3758 92.7419C85.8268 92.7419 85.3758 92.2909 85.3758 91.7419V84.6834C85.3758 84.1344 85.8268 83.6638 86.3758 83.6638C86.9444 83.6638 87.3953 84.1344 87.3953 84.6834V91.7419C87.3953 92.2909 86.9444 92.7419 86.3758 92.7419Z" fill="#3D3D3D"/>
</g>
<g style="mix-blend-mode:screen">
<path d="M86.3758 92.7415C85.8268 92.7415 85.3758 92.2905 85.3758 91.7415V90.2122C85.3758 89.6436 85.8268 89.1926 86.3758 89.1926C86.9444 89.1926 87.3953 89.6436 87.3953 90.2122V91.7415C87.3953 92.2905 86.9444 92.7415 86.3758 92.7415Z" fill="#3D3D3D"/>
</g>
<g style="mix-blend-mode:screen">
<path d="M86.3758 98.8594C85.8268 98.8594 85.3758 98.4085 85.3758 97.8399V96.3105C85.3758 95.7615 85.8268 95.3105 86.3758 95.3105C86.9444 95.3105 87.3953 95.7615 87.3953 96.3105V97.8399C87.3953 98.4085 86.9444 98.8594 86.3758 98.8594Z" fill="#8F8F8F"/>
</g>
<g style="mix-blend-mode:screen">
<path d="M160.196 94.9375C159.725 94.9375 159.333 94.565 159.333 94.0944V84.8399C159.333 84.3694 159.725 83.9968 160.196 83.9968C160.667 83.9968 161.039 84.3694 161.039 84.8399V94.0944C161.039 94.565 160.667 94.9375 160.196 94.9375Z" fill="#3D3D3D"/>
</g>
<g style="mix-blend-mode:screen">
<path d="M160.196 94.9378C159.725 94.9378 159.333 94.5653 159.333 94.0947V88.1342C159.333 87.6636 159.725 87.2715 160.196 87.2715C160.667 87.2715 161.039 87.6636 161.039 88.1342V94.0947C161.039 94.5653 160.667 94.9378 160.196 94.9378Z" fill="#3D3D3D"/>
</g>
<g style="mix-blend-mode:screen">
<path d="M160.196 94.9371C159.725 94.9371 159.333 94.5646 159.333 94.094V92.8C159.333 92.3294 159.725 91.9373 160.196 91.9373C160.667 91.9373 161.039 92.3294 161.039 92.8V94.094C161.039 94.5646 160.667 94.9371 160.196 94.9371Z" fill="#3D3D3D"/>
</g>
<g style="mix-blend-mode:screen">
<path d="M160.196 100.114C159.725 100.114 159.333 99.7215 159.333 99.2509V97.9569C159.333 97.4863 159.725 97.1138 160.196 97.1138C160.667 97.1138 161.039 97.4863 161.039 97.9569V99.2509C161.039 99.7215 160.667 100.114 160.196 100.114Z" fill="#8F8F8F"/>
</g>
<g style="mix-blend-mode:screen">
<path d="M214.175 95.1922C213.626 95.1922 213.175 94.7413 213.175 94.1727V83.232C213.175 82.6634 213.626 82.2124 214.175 82.2124C214.743 82.2124 215.194 82.6634 215.194 83.232V94.1727C215.194 94.7413 214.743 95.1922 214.175 95.1922Z" fill="#3D3D3D"/>
</g>
<g style="mix-blend-mode:screen">
<path d="M214.175 95.1925C213.626 95.1925 213.175 94.7416 213.175 94.173V87.1341C213.175 86.5655 213.626 86.1145 214.175 86.1145C214.743 86.1145 215.194 86.5655 215.194 87.1341V94.173C215.194 94.7416 214.743 95.1925 214.175 95.1925Z" fill="#3D3D3D"/>
</g>
<g style="mix-blend-mode:screen">
<path d="M214.175 95.1927C213.626 95.1927 213.175 94.7417 213.175 94.1731V92.6438C213.175 92.0948 213.626 91.6438 214.175 91.6438C214.743 91.6438 215.194 92.0948 215.194 92.6438V94.1731C215.194 94.7417 214.743 95.1927 214.175 95.1927Z" fill="#3D3D3D"/>
</g>
<g style="mix-blend-mode:screen">
<path d="M214.175 101.31C213.626 101.31 213.175 100.859 213.175 100.29V98.761C213.175 98.212 213.626 97.7415 214.175 97.7415C214.743 97.7415 215.194 98.212 215.194 98.761V100.29C215.194 100.859 214.743 101.31 214.175 101.31Z" fill="#8F8F8F"/>
</g>
<g style="mix-blend-mode:multiply">
<path d="M8.65446 79.6828H5.87027V74.6438H8.65446V79.6828Z" fill="#F7F7F7"/>
</g>
<g style="mix-blend-mode:multiply">
<path d="M13.3214 79.683H10.5372V74.644H13.3214V79.683Z" fill="#F7F7F7"/>
</g>
<g style="mix-blend-mode:multiply">
<path d="M8.65446 86.4274H5.87027V81.3884H8.65446V86.4274Z" fill="#F7F7F7"/>
</g>
<g style="mix-blend-mode:multiply">
<path d="M13.3214 86.4274H10.5372V81.3884H13.3214V86.4274Z" fill="#F7F7F7"/>
</g>
<g style="mix-blend-mode:multiply">
<path d="M8.65446 92.938H5.87027V87.8794H8.65446V92.938Z" fill="#F7F7F7"/>
</g>
<g style="mix-blend-mode:multiply">
<path d="M13.3214 92.938H10.5372V87.8794H13.3214V92.938Z" fill="#F7F7F7"/>
</g>
<g style="mix-blend-mode:multiply">
<path d="M8.65446 99.6625H5.87027V94.6235H8.65446V99.6625Z" fill="#F7F7F7"/>
</g>
<g style="mix-blend-mode:multiply">
<path d="M13.3214 99.6628H10.5372V94.6238H13.3214V99.6628Z" fill="#F7F7F7"/>
</g>
<g style="mix-blend-mode:screen">
<path d="M21.3596 51.724C20.791 51.724 20.34 51.2534 20.34 50.7044V39.7637C20.34 39.1951 20.791 38.7441 21.3596 38.7441C21.9086 38.7441 22.3595 39.1951 22.3595 39.7637V50.7044C22.3595 51.2534 21.9086 51.724 21.3596 51.724Z" fill="#3D3D3D"/>
</g>
<g style="mix-blend-mode:screen">
<path d="M21.3596 51.7238C20.791 51.7238 20.34 51.2532 20.34 50.7042V43.6457C20.34 43.0967 20.791 42.6458 21.3596 42.6458C21.9086 42.6458 22.3595 43.0967 22.3595 43.6457V50.7042C22.3595 51.2532 21.9086 51.7238 21.3596 51.7238Z" fill="#3D3D3D"/>
</g>
<g style="mix-blend-mode:screen">
<path d="M21.3596 51.7237C20.791 51.7237 20.34 51.2532 20.34 50.7042V49.1748C20.34 48.6062 20.791 48.1553 21.3596 48.1553C21.9086 48.1553 22.3595 48.6062 22.3595 49.1748V50.7042C22.3595 51.2532 21.9086 51.7237 21.3596 51.7237Z" fill="#3D3D3D"/>
</g>
<g style="mix-blend-mode:screen">
<path d="M21.3596 57.8211C20.791 57.8211 20.34 57.3701 20.34 56.8211V55.2918C20.34 54.7232 20.791 54.2722 21.3596 54.2722C21.9086 54.2722 22.3595 54.7232 22.3595 55.2918V56.8211C22.3595 57.3701 21.9086 57.8211 21.3596 57.8211Z" fill="#8F8F8F"/>
</g>
<g style="mix-blend-mode:multiply">
<path d="M26.1043 44.4686H23.1044V38.9983H26.1043V44.4686Z" fill="#F7F7F7"/>
</g>
<g style="mix-blend-mode:multiply">
<path d="M30.2017 44.4689H27.2018V38.9985H30.2017V44.4689Z" fill="#F7F7F7"/>
</g>
<g style="mix-blend-mode:multiply">
<path d="M26.1043 51.2724H23.1044V45.802H26.1043V51.2724Z" fill="#F7F7F7"/>
</g>
<g style="mix-blend-mode:multiply">
<path d="M30.2017 51.2726H27.2018V45.8022H30.2017V51.2726Z" fill="#F7F7F7"/>
</g>
<g style="mix-blend-mode:multiply">
<path d="M26.1043 57.9589H23.1044V52.4885H26.1043V57.9589Z" fill="#F7F7F7"/>
</g>
<g style="mix-blend-mode:multiply">
<path d="M30.2017 57.9586H27.2018V52.4883H30.2017V57.9586Z" fill="#F7F7F7"/>
</g>
<g style="mix-blend-mode:multiply">
<path d="M26.1043 64.7621H23.1044V59.2917H26.1043V64.7621Z" fill="#F7F7F7"/>
</g>
<g style="mix-blend-mode:multiply">
<path d="M30.2017 64.7619H27.2018V59.2915H30.2017V64.7619Z" fill="#F7F7F7"/>
</g>
<g style="mix-blend-mode:multiply">
<path d="M26.1043 71.3703H23.1044V65.8999H26.1043V71.3703Z" fill="#F7F7F7"/>
</g>
<g style="mix-blend-mode:multiply">
<path d="M30.2017 71.3703H27.2018V65.8999H30.2017V71.3703Z" fill="#F7F7F7"/>
</g>
<g style="mix-blend-mode:multiply">
<path d="M26.1043 78.1535H23.1044V72.6831H26.1043V78.1535Z" fill="#F7F7F7"/>
</g>
<g style="mix-blend-mode:multiply">
<path d="M30.2017 78.1535H27.2018V72.6831H30.2017V78.1535Z" fill="#F7F7F7"/>
</g>
<g style="mix-blend-mode:multiply">
<path d="M26.1043 84.84H23.1044V79.3696H26.1043V84.84Z" fill="#F7F7F7"/>
</g>
<g style="mix-blend-mode:multiply">
<path d="M30.2017 84.84H27.2018V79.3696H30.2017V84.84Z" fill="#F7F7F7"/>
</g>
<g style="mix-blend-mode:multiply">
<path d="M26.1043 91.6437H23.1044V86.1733H26.1043V91.6437Z" fill="#F7F7F7"/>
</g>
<g style="mix-blend-mode:multiply">
<path d="M30.2017 91.6437H27.2018V86.1733H30.2017V91.6437Z" fill="#F7F7F7"/>
</g>
<g style="mix-blend-mode:multiply">
<path d="M26.1043 98.9762H23.1044V93.5059H26.1043V98.9762Z" fill="#F7F7F7"/>
</g>
<g style="mix-blend-mode:multiply">
<path d="M30.2017 98.976H27.2018V93.5056H30.2017V98.976Z" fill="#F7F7F7"/>
</g>
<g style="mix-blend-mode:multiply">
<path d="M166.863 92.0553H162.256V84.3105H166.863V92.0553Z" fill="#F7F7F7"/>
</g>
<g style="mix-blend-mode:multiply">
<path d="M173.235 92.0553H168.627V84.3105H173.235V92.0553Z" fill="#F7F7F7"/>
</g>
<g style="mix-blend-mode:multiply">
<path d="M179.648 81.7023H175.472V76.2319H179.648V81.7023Z" fill="#F7F7F7"/>
</g>
<g style="mix-blend-mode:multiply">
<path d="M185.608 81.7033H181.432V76.2329H185.608V81.7033Z" fill="#F7F7F7"/>
</g>
<g style="mix-blend-mode:multiply">
<path d="M191.429 81.7023H187.273V76.2319H191.429V81.7023Z" fill="#F7F7F7"/>
</g>
<g style="mix-blend-mode:multiply">
<path d="M197.389 81.7033H193.233V76.2329H197.389V81.7033Z" fill="#F7F7F7"/>
</g>
<g style="mix-blend-mode:multiply">
<path d="M179.648 89.4672H175.472V83.9968H179.648V89.4672Z" fill="#F7F7F7"/>
</g>
<g style="mix-blend-mode:multiply">
<path d="M185.608 89.4672H181.432V83.9968H185.608V89.4672Z" fill="#F7F7F7"/>
</g>
<g style="mix-blend-mode:multiply">
<path d="M191.429 89.4672H187.273V83.9968H191.429V89.4672Z" fill="#F7F7F7"/>
</g>
<g style="mix-blend-mode:multiply">
<path d="M197.389 89.4672H193.233V83.9968H197.389V89.4672Z" fill="#F7F7F7"/>
</g>
<g style="mix-blend-mode:multiply">
<path d="M205.077 83.017H202.999V77.5466H205.077V83.017Z" fill="#F7F7F7"/>
</g>
<g style="mix-blend-mode:multiply">
<path d="M208.155 83.0167H206.077V77.5464H208.155V83.0167Z" fill="#F7F7F7"/>
</g>
<g style="mix-blend-mode:multiply">
<path d="M211.351 83.017H209.273V77.5466H211.351V83.017Z" fill="#F7F7F7"/>
</g>
<g style="mix-blend-mode:multiply">
<path d="M224.369 80.9186H222.29V75.4482H224.369V80.9186Z" fill="#F7F7F7"/>
</g>
<g style="mix-blend-mode:multiply">
<path d="M227.506 80.9183H225.408V75.448H227.506V80.9183Z" fill="#F7F7F7"/>
</g>
<g style="mix-blend-mode:multiply">
<path d="M224.369 87.6828H222.29V82.2124H224.369V87.6828Z" fill="#F7F7F7"/>
</g>
<g style="mix-blend-mode:multiply">
<path d="M227.506 87.6828H225.408V82.2124H227.506V87.6828Z" fill="#F7F7F7"/>
</g>
<g style="mix-blend-mode:multiply">
<path d="M224.369 94.3685H222.29V88.8982H224.369V94.3685Z" fill="#F7F7F7"/>
</g>
<g style="mix-blend-mode:multiply">
<path d="M227.506 94.3685H225.408V88.8982H227.506V94.3685Z" fill="#F7F7F7"/>
</g>
<g style="mix-blend-mode:multiply">
<path d="M224.369 100.075H222.29V96.0947H224.369V100.075Z" fill="#F7F7F7"/>
</g>
<g style="mix-blend-mode:multiply">
<path d="M227.506 100.075H225.408V96.0947H227.506V100.075Z" fill="#F7F7F7"/>
</g>
<g style="mix-blend-mode:multiply">
<path d="M205.077 89.6229H202.999V84.1526H205.077V89.6229Z" fill="#F7F7F7"/>
</g>
<g style="mix-blend-mode:multiply">
<path d="M208.155 89.6242H206.077V84.1538H208.155V89.6242Z" fill="#F7F7F7"/>
</g>
<g style="mix-blend-mode:multiply">
<path d="M211.351 89.6239H209.273V84.1536H211.351V89.6239Z" fill="#F7F7F7"/>
</g>
<g style="mix-blend-mode:multiply">
<path d="M205.077 96.5836H202.999V91.1133H205.077V96.5836Z" fill="#F7F7F7"/>
</g>
<g style="mix-blend-mode:multiply">
<path d="M208.155 96.5846H206.077V91.1143H208.155V96.5846Z" fill="#F7F7F7"/>
</g>
<g style="mix-blend-mode:multiply">
<path d="M211.351 96.5846H209.273V91.1143H211.351V96.5846Z" fill="#F7F7F7"/>
</g>
<g style="mix-blend-mode:multiply">
<path d="M205.077 100.858H202.999V98.2896H205.077V100.858Z" fill="#F7F7F7"/>
</g>
<g style="mix-blend-mode:multiply">
<path d="M208.155 100.859H206.077V98.2903H208.155V100.859Z" fill="#F7F7F7"/>
</g>
<g style="mix-blend-mode:multiply">
<path d="M211.351 100.858H209.273V98.2896H211.351V100.858Z" fill="#F7F7F7"/>
</g>
<g style="mix-blend-mode:multiply">
<path d="M179.648 97.2123H175.472V91.7419H179.648V97.2123Z" fill="#F7F7F7"/>
</g>
<g style="mix-blend-mode:multiply">
<path d="M185.608 97.2118H181.432V91.7415H185.608V97.2118Z" fill="#F7F7F7"/>
</g>
<g style="mix-blend-mode:multiply">
<path d="M191.429 97.2123H187.273V91.7419H191.429V97.2123Z" fill="#F7F7F7"/>
</g>
<g style="mix-blend-mode:multiply">
<path d="M197.389 97.2118H193.233V91.7415H197.389V97.2118Z" fill="#F7F7F7"/>
</g>
<g style="mix-blend-mode:multiply">
<path d="M166.863 99.8003H162.256V93.8594H166.863V99.8003Z" fill="#F7F7F7"/>
</g>
<g style="mix-blend-mode:multiply">
<path d="M173.235 99.8008H168.627V93.8599H173.235V99.8008Z" fill="#F7F7F7"/>
</g>
<g style="mix-blend-mode:screen">
<path d="M117.983 77.8597C117.434 77.8597 116.983 77.3891 116.983 76.8401V65.8994C116.983 65.3308 117.434 64.8799 117.983 64.8799C118.552 64.8799 119.003 65.3308 119.003 65.8994V76.8401C119.003 77.3891 118.552 77.8597 117.983 77.8597Z" fill="#3D3D3D"/>
</g>
<g style="mix-blend-mode:screen">
<path d="M117.983 77.86C117.434 77.86 116.983 77.3895 116.983 76.8405V69.7819C116.983 69.2329 117.434 68.782 117.983 68.782C118.552 68.782 119.003 69.2329 119.003 69.7819V76.8405C119.003 77.3895 118.552 77.86 117.983 77.86Z" fill="#3D3D3D"/>
</g>
<g style="mix-blend-mode:screen">
<path d="M117.983 77.86C117.434 77.86 116.983 77.3894 116.983 76.8404V75.3111C116.983 74.7425 117.434 74.2915 117.983 74.2915C118.552 74.2915 119.003 74.7425 119.003 75.3111V76.8404C119.003 77.3894 118.552 77.86 117.983 77.86Z" fill="#3D3D3D"/>
</g>
<g style="mix-blend-mode:screen">
<path d="M117.983 83.9578C117.434 83.9578 116.983 83.5068 116.983 82.9578V81.4285C116.983 80.8599 117.434 80.4089 117.983 80.4089C118.552 80.4089 119.003 80.8599 119.003 81.4285V82.9578C119.003 83.5068 118.552 83.9578 117.983 83.9578Z" fill="#8F8F8F"/>
</g>
<g style="mix-blend-mode:multiply">
<path d="M125.08 73.076H120.452V65.3508H125.08V73.076Z" fill="#F7F7F7"/>
</g>
<g style="mix-blend-mode:multiply">
<path d="M131.454 73.076H126.827V65.3508H131.454V73.076Z" fill="#F7F7F7"/>
</g>
<g style="mix-blend-mode:multiply">
<path d="M137.844 73.0753H133.217V65.3501H137.844V73.0753Z" fill="#F7F7F7"/>
</g>
<g style="mix-blend-mode:multiply">
<path d="M125.08 83.4866H120.452V75.7615H125.08V83.4866Z" fill="#F7F7F7"/>
</g>
<g style="mix-blend-mode:multiply">
<path d="M131.454 83.4866H126.827V75.7615H131.454V83.4866Z" fill="#F7F7F7"/>
</g>
<g style="mix-blend-mode:multiply">
<path d="M137.844 83.4871H133.217V75.762H137.844V83.4871Z" fill="#F7F7F7"/>
</g>
<g style="mix-blend-mode:multiply">
<path d="M146.59 75.7619H144.493V68.0171H146.59V75.7619Z" fill="#F7F7F7"/>
</g>
<g style="mix-blend-mode:multiply">
<path d="M146.59 84.8395H144.493V77.0947H146.59V84.8395Z" fill="#F7F7F7"/>
</g>
<g style="mix-blend-mode:multiply">
<path d="M146.59 94.4669H144.493V86.7417H146.59V94.4669Z" fill="#F7F7F7"/>
</g>
<g style="mix-blend-mode:multiply">
<path d="M146.59 100.546H144.493V96.6831H146.59V100.546Z" fill="#F7F7F7"/>
</g>
<g style="mix-blend-mode:multiply">
<path d="M125.08 94.016H120.452V86.2712H125.08V94.016Z" fill="#F7F7F7"/>
</g>
<g style="mix-blend-mode:multiply">
<path d="M131.454 94.016H126.827V86.2712H131.454V94.016Z" fill="#F7F7F7"/>
</g>
<g style="mix-blend-mode:multiply">
<path d="M137.844 94.016H133.217V86.2712H137.844V94.016Z" fill="#F7F7F7"/>
</g>
<g style="mix-blend-mode:multiply">
<path d="M125.08 98.9571H120.452V95.5259H125.08V98.9571Z" fill="#F7F7F7"/>
</g>
<g style="mix-blend-mode:multiply">
<path d="M131.454 98.9571H126.827V95.5259H131.454V98.9571Z" fill="#F7F7F7"/>
</g>
<g style="mix-blend-mode:multiply">
<path d="M137.844 98.9566H133.217V95.5254H137.844V98.9566Z" fill="#F7F7F7"/>
</g>
<path d="M236.036 122.407H0.752075V157.504H236.036V122.407Z" fill="#737375"/>
<g style="mix-blend-mode:screen">
<path d="M14.8297 141.249H6.37909C6.10459 141.249 5.88892 141.034 5.88892 140.759V139.151C5.88892 138.877 6.10459 138.661 6.37909 138.661H14.8297C15.0846 138.661 15.3003 138.877 15.3003 139.151V140.759C15.3003 141.034 15.0846 141.249 14.8297 141.249Z" fill="#D9D9D9"/>
</g>
<g style="mix-blend-mode:screen">
<path d="M27.8491 141.249H19.3985C19.124 141.249 18.9083 141.034 18.9083 140.759V139.151C18.9083 138.877 19.124 138.661 19.3985 138.661H27.8491C28.104 138.661 28.3197 138.877 28.3197 139.151V140.759C28.3197 141.034 28.104 141.249 27.8491 141.249Z" fill="#D9D9D9"/>
</g>
<g style="mix-blend-mode:screen">
<path d="M41.6133 141.249H33.1627C32.8882 141.249 32.6725 141.034 32.6725 140.759V139.151C32.6725 138.877 32.8882 138.661 33.1627 138.661H41.6133C41.8682 138.661 42.0839 138.877 42.0839 139.151V140.759C42.0839 141.034 41.8682 141.249 41.6133 141.249Z" fill="#D9D9D9"/>
</g>
<g style="mix-blend-mode:screen">
<path d="M54.6318 141.249H46.1812C45.9067 141.249 45.691 141.034 45.691 140.759V139.151C45.691 138.877 45.9067 138.661 46.1812 138.661H54.6318C54.8867 138.661 55.1023 138.877 55.1023 139.151V140.759C55.1023 141.034 54.8867 141.249 54.6318 141.249Z" fill="#D9D9D9"/>
</g>
<g style="mix-blend-mode:screen">
<path d="M68.0236 141.249H59.573C59.3181 141.249 59.1024 141.034 59.1024 140.759V139.151C59.1024 138.877 59.3181 138.661 59.573 138.661H68.0236C68.2981 138.661 68.5137 138.877 68.5137 139.151V140.759C68.5137 141.034 68.2981 141.249 68.0236 141.249Z" fill="#D9D9D9"/>
</g>
<g style="mix-blend-mode:screen">
<path d="M81.042 141.249H72.5914C72.3365 141.249 72.1208 141.034 72.1208 140.759V139.151C72.1208 138.877 72.3365 138.661 72.5914 138.661H81.042C81.3165 138.661 81.5322 138.877 81.5322 139.151V140.759C81.5322 141.034 81.3165 141.249 81.042 141.249Z" fill="#D9D9D9"/>
</g>
<g style="mix-blend-mode:screen">
<path d="M94.8062 141.249H86.3556C86.1007 141.249 85.885 141.034 85.885 140.759V139.151C85.885 138.877 86.1007 138.661 86.3556 138.661H94.8062C95.0807 138.661 95.2964 138.877 95.2964 139.151V140.759C95.2964 141.034 95.0807 141.249 94.8062 141.249Z" fill="#D9D9D9"/>
</g>
<g style="mix-blend-mode:screen">
<path d="M107.825 141.249H99.3746C99.1001 141.249 98.8844 141.034 98.8844 140.759V139.151C98.8844 138.877 99.1001 138.661 99.3746 138.661H107.825C108.1 138.661 108.315 138.877 108.315 139.151V140.759C108.315 141.034 108.1 141.249 107.825 141.249Z" fill="#D9D9D9"/>
</g>
<g style="mix-blend-mode:screen">
<path d="M122.238 141.249H113.767C113.512 141.249 113.297 141.034 113.297 140.759V139.151C113.297 138.877 113.512 138.661 113.767 138.661H122.238C122.492 138.661 122.708 138.877 122.708 139.151V140.759C122.708 141.034 122.492 141.249 122.238 141.249Z" fill="#D9D9D9"/>
</g>
<g style="mix-blend-mode:screen">
<path d="M135.942 141.249H127.472C127.217 141.249 127.002 141.034 127.002 140.759V139.151C127.002 138.877 127.217 138.661 127.472 138.661H135.942C136.197 138.661 136.413 138.877 136.413 139.151V140.759C136.413 141.034 136.197 141.249 135.942 141.249Z" fill="#D9D9D9"/>
</g>
<g style="mix-blend-mode:screen">
<path d="M150.138 141.249H141.687C141.413 141.249 141.197 141.034 141.197 140.759V139.151C141.197 138.877 141.413 138.661 141.687 138.661H150.138C150.393 138.661 150.608 138.877 150.608 139.151V140.759C150.608 141.034 150.393 141.249 150.138 141.249Z" fill="#D9D9D9"/>
</g>
<g style="mix-blend-mode:screen">
<path d="M163.921 141.249H155.451C155.196 141.249 154.98 141.034 154.98 140.759V139.151C154.98 138.877 155.196 138.661 155.451 138.661H163.921C164.176 138.661 164.392 138.877 164.392 139.151V140.759C164.392 141.034 164.176 141.249 163.921 141.249Z" fill="#D9D9D9"/>
</g>
<g style="mix-blend-mode:screen">
<path d="M177.784 141.249H169.333C169.059 141.249 168.843 141.034 168.843 140.759V139.151C168.843 138.877 169.059 138.661 169.333 138.661H177.784C178.039 138.661 178.254 138.877 178.254 139.151V140.759C178.254 141.034 178.039 141.249 177.784 141.249Z" fill="#D9D9D9"/>
</g>
<g style="mix-blend-mode:screen">
<path d="M191.803 141.249H183.333C183.078 141.249 182.862 141.034 182.862 140.759V139.151C182.862 138.877 183.078 138.661 183.333 138.661H191.803C192.058 138.661 192.274 138.877 192.274 139.151V140.759C192.274 141.034 192.058 141.249 191.803 141.249Z" fill="#D9D9D9"/>
</g>
<g style="mix-blend-mode:screen">
<path d="M205.743 141.249H197.292C197.037 141.249 196.822 141.034 196.822 140.759V139.151C196.822 138.877 197.037 138.661 197.292 138.661H205.743C206.017 138.661 206.233 138.877 206.233 139.151V140.759C206.233 141.034 206.017 141.249 205.743 141.249Z" fill="#D9D9D9"/>
</g>
<g style="mix-blend-mode:screen">
<path d="M219.624 141.249H211.154C210.899 141.249 210.683 141.034 210.683 140.759V139.151C210.683 138.877 210.899 138.661 211.154 138.661H219.624C219.879 138.661 220.095 138.877 220.095 139.151V140.759C220.095 141.034 219.879 141.249 219.624 141.249Z" fill="#D9D9D9"/>
</g>
<g style="mix-blend-mode:screen">
<path d="M233.624 141.249H225.173C224.918 141.249 224.703 141.034 224.703 140.759V139.151C224.703 138.877 224.918 138.661 225.173 138.661H233.624C233.898 138.661 234.114 138.877 234.114 139.151V140.759C234.114 141.034 233.898 141.249 233.624 141.249Z" fill="#D9D9D9"/>
</g>
<path d="M236.036 107.878H0.752075V112.995H236.036V107.878Z" fill="#75B856"/>
<path d="M236.036 119.525H0.752075V112.996H236.036V119.525Z" fill="#D9D9D9"/>
<path d="M236.036 122.407H0.752075V119.524H236.036V122.407Z" fill="#B3B3B3"/>
<g style="mix-blend-mode:screen">
<path d="M226.253 123.093C226.253 180.855 177.961 227.677 118.395 227.677C58.8292 227.677 10.5372 180.855 10.5372 123.093C10.5372 65.3308 58.8292 18.5093 118.395 18.5093C177.961 18.5093 226.253 65.3308 226.253 123.093Z" fill="#262626"/>
</g>
<g style="mix-blend-mode:screen">
<path d="M213.272 123.093C213.272 173.895 170.784 215.089 118.394 215.089C66.0039 215.089 23.5155 173.895 23.5155 123.093C23.5155 72.2917 66.0039 31.0974 118.394 31.0974C170.784 31.0974 213.272 72.2917 213.272 123.093Z" fill="#262626"/>
</g>
<g style="mix-blend-mode:screen">
<path d="M192.41 123.093C192.41 162.738 159.275 194.874 118.394 194.874C77.5135 194.874 44.3777 162.738 44.3777 123.093C44.3777 83.4476 77.5135 51.3118 118.394 51.3118C159.275 51.3118 192.41 83.4476 192.41 123.093Z" fill="#262626"/>
</g>
<g style="mix-blend-mode:screen">
<path d="M173.392 123.093C173.392 152.543 148.765 176.424 118.394 176.424C88.0227 176.424 63.3963 152.543 63.3963 123.093C63.3963 93.6433 88.0227 69.762 118.394 69.762C148.765 69.762 173.392 93.6433 173.392 123.093Z" fill="#262626"/>
</g>
<g style="mix-blend-mode:screen">
<path d="M158.904 123.093C158.904 144.778 140.767 162.366 118.396 162.366C96.0242 162.366 77.8877 144.778 77.8877 123.093C77.8877 101.388 96.0242 83.8201 118.396 83.8201C140.767 83.8201 158.904 101.388 158.904 123.093Z" fill="#262626"/>
</g>
<g style="mix-blend-mode:screen">
<path d="M146.276 123.093C146.276 138.014 133.786 150.131 118.395 150.131C103.003 150.131 90.5137 138.014 90.5137 123.093C90.5137 108.172 103.003 96.0549 118.395 96.0549C133.786 96.0549 146.276 108.172 146.276 123.093Z" fill="#262626"/>
</g>
<path d="M15.1432 110.642C14.7903 110.642 14.4962 110.348 14.4962 109.995V98.1136C14.4962 97.7607 14.7903 97.4666 15.1432 97.4666C15.4961 97.4666 15.7902 97.7607 15.7902 98.1136V109.995C15.7902 110.348 15.4961 110.642 15.1432 110.642Z" fill="#B0957C"/>
<path d="M21.0264 90.2907C21.0264 96.9375 18.4775 102.31 15.3011 102.31C12.1444 102.31 9.59549 96.9375 9.59549 90.2907C9.59549 83.6636 12.1444 78.2913 15.3011 78.2913C18.4775 78.2913 21.0264 83.6636 21.0264 90.2907Z" fill="#75B856"/>
<g style="mix-blend-mode:screen">
<path d="M16.3392 85.7811C15.5549 88.6241 13.6922 90.5848 12.1629 90.1731C10.6336 89.7417 10.0453 87.0948 10.8296 84.2518C11.5943 81.4087 13.4766 79.448 14.9863 79.8598C16.5157 80.2911 17.1235 82.9185 16.3392 85.7811Z" fill="#262626"/>
</g>
<path d="M222.114 110.642C221.761 110.642 221.487 110.348 221.487 109.995V98.1136C221.487 97.7607 221.761 97.4666 222.114 97.4666C222.487 97.4666 222.761 97.7607 222.761 98.1136V109.995C222.761 110.348 222.487 110.642 222.114 110.642Z" fill="#B0957C"/>
<path d="M227.998 90.2907C227.998 96.9375 225.449 102.31 222.292 102.31C219.116 102.31 216.567 96.9375 216.567 90.2907C216.567 83.6636 219.116 78.2913 222.292 78.2913C225.449 78.2913 227.998 83.6636 227.998 90.2907Z" fill="#75B856"/>
<g style="mix-blend-mode:screen">
<path d="M223.312 85.7811C222.527 88.6241 220.665 90.5848 219.135 90.1731C217.606 89.7417 217.018 87.0948 217.802 84.2518C218.586 81.4087 220.449 79.448 221.978 79.8598C223.488 80.2911 224.096 82.9185 223.312 85.7811Z" fill="#262626"/>
</g>
<path d="M211.919 62.5461H24.8683V110.956H211.919V62.5461Z" fill="#58585A"/>
<path d="M145.177 110.956H91.6108V39.8218H145.177V110.956Z" fill="#96D0F0"/>
<path d="M211.919 94.9172H24.8683V110.956H211.919V94.9172Z" fill="#D9DADC"/>
<path d="M192.273 94.9172H44.515V110.956H192.273V94.9172Z" fill="#96D0F0"/>
<path d="M98.1013 110.956H97.1014V39.8218H98.1013V110.956Z" fill="#58585A"/>
<path d="M45.515 110.956H44.515V97.2119H45.515V110.956Z" fill="#58585A"/>
<path d="M146.178 110.956H145.178V97.2119H146.178V110.956Z" fill="#58585A"/>
<path d="M192.273 110.956H191.273V97.2119H192.273V110.956Z" fill="#58585A"/>
<path d="M91.6117 110.956H90.6117V97.2119H91.6117V110.956Z" fill="#58585A"/>
<path d="M139.687 110.956H138.687V39.8218H139.687V110.956Z" fill="#58585A"/>
<path d="M118.884 110.956H117.904V39.8218H118.884V110.956Z" fill="#58585A"/>
<path d="M129.335 110.956H128.335V39.8218H129.335V110.956Z" fill="#58585A"/>
<path d="M145.177 46.3901H91.6108V39.8218H145.177V46.3901Z" fill="#58585A"/>
<path d="M108.159 110.956H107.159V39.8218H108.159V110.956Z" fill="#58585A"/>
<path d="M145.177 59.2917V60.2917H91.6108V59.2917H145.177Z" fill="#58585A"/>
<path d="M145.177 73.1931V74.1931H91.6108V73.1931H145.177Z" fill="#58585A"/>
<path d="M145.177 86.2517V87.2517H91.6108V86.2517H145.177Z" fill="#58585A"/>
<g style="mix-blend-mode:screen">
<path d="M102.258 58.1939H99.7087C99.493 58.1939 99.3165 58.0174 99.3165 57.8018V49.1551C99.3165 48.9394 99.493 48.7629 99.7087 48.7629H102.258C102.473 48.7629 102.65 48.9394 102.65 49.1551V57.8018C102.65 58.0174 102.473 58.1939 102.258 58.1939Z" fill="#404040"/>
</g>
<g style="mix-blend-mode:screen">
<path d="M102.258 71.4288H99.7087C99.493 71.4288 99.3165 71.2523 99.3165 71.0366V62.3899C99.3165 62.1547 99.493 61.9978 99.7087 61.9978H102.258C102.473 61.9978 102.65 62.1547 102.65 62.3899V71.0366C102.65 71.2523 102.473 71.4288 102.258 71.4288Z" fill="#404040"/>
</g>
<g style="mix-blend-mode:screen">
<path d="M102.258 84.8201H99.7087C99.493 84.8201 99.3165 84.6437 99.3165 84.428V75.7813C99.3165 75.5656 99.493 75.3892 99.7087 75.3892H102.258C102.473 75.3892 102.65 75.5656 102.65 75.7813V84.428C102.65 84.6437 102.473 84.8201 102.258 84.8201Z" fill="#404040"/>
</g>
<g style="mix-blend-mode:screen">
<path d="M102.395 92.2316H99.5714C99.4342 92.2316 99.3165 92.1139 99.3165 91.9767V88.3494C99.3165 88.2121 99.4342 88.0945 99.5714 88.0945H102.395C102.532 88.0945 102.65 88.2121 102.65 88.3494V91.9767C102.65 92.1139 102.532 92.2316 102.395 92.2316Z" fill="#404040"/>
</g>
<g style="mix-blend-mode:screen">
<path d="M112.923 92.2316H110.099C109.962 92.2316 109.844 92.1139 109.844 91.9767V88.3494C109.844 88.2121 109.962 88.0945 110.099 88.0945H112.923C113.06 88.0945 113.178 88.2121 113.178 88.3494V91.9767C113.178 92.1139 113.06 92.2316 112.923 92.2316Z" fill="#404040"/>
</g>
<g style="mix-blend-mode:screen">
<path d="M123.1 92.2316H120.276C120.139 92.2316 120.022 92.1139 120.022 91.9767V88.3494C120.022 88.2121 120.139 88.0945 120.276 88.0945H123.1C123.237 88.0945 123.355 88.2121 123.355 88.3494V91.9767C123.355 92.1139 123.237 92.2316 123.1 92.2316Z" fill="#404040"/>
</g>
<g style="mix-blend-mode:screen">
<path d="M133.629 92.2316H130.805C130.668 92.2316 130.551 92.1139 130.551 91.9767V88.3494C130.551 88.2121 130.668 88.0945 130.805 88.0945H133.629C133.766 88.0945 133.884 88.2121 133.884 88.3494V91.9767C133.884 92.1139 133.766 92.2316 133.629 92.2316Z" fill="#404040"/>
</g>
<g style="mix-blend-mode:screen">
<path d="M112.786 58.1939H110.237C110.021 58.1939 109.844 58.0174 109.844 57.8018V49.1551C109.844 48.9394 110.021 48.7629 110.237 48.7629H112.786C113.001 48.7629 113.178 48.9394 113.178 49.1551V57.8018C113.178 58.0174 113.001 58.1939 112.786 58.1939Z" fill="#404040"/>
</g>
<g style="mix-blend-mode:screen">
<path d="M112.786 71.4288H110.237C110.021 71.4288 109.844 71.2523 109.844 71.0366V62.3899C109.844 62.1547 110.021 61.9978 110.237 61.9978H112.786C113.001 61.9978 113.178 62.1547 113.178 62.3899V71.0366C113.178 71.2523 113.001 71.4288 112.786 71.4288Z" fill="#404040"/>
</g>
<g style="mix-blend-mode:screen">
<path d="M112.786 84.8201H110.237C110.021 84.8201 109.844 84.6437 109.844 84.428V75.7813C109.844 75.5656 110.021 75.3892 110.237 75.3892H112.786C113.001 75.3892 113.178 75.5656 113.178 75.7813V84.428C113.178 84.6437 113.001 84.8201 112.786 84.8201Z" fill="#404040"/>
</g>
<g style="mix-blend-mode:screen">
<path d="M122.963 58.1939H120.414C120.198 58.1939 120.022 58.0174 120.022 57.8018V49.1551C120.022 48.9394 120.198 48.7629 120.414 48.7629H122.963C123.178 48.7629 123.355 48.9394 123.355 49.1551V57.8018C123.355 58.0174 123.178 58.1939 122.963 58.1939Z" fill="#404040"/>
</g>
<g style="mix-blend-mode:screen">
<path d="M122.963 71.4288H120.414C120.198 71.4288 120.022 71.2523 120.022 71.0366V62.3899C120.022 62.1547 120.198 61.9978 120.414 61.9978H122.963C123.178 61.9978 123.355 62.1547 123.355 62.3899V71.0366C123.355 71.2523 123.178 71.4288 122.963 71.4288Z" fill="#404040"/>
</g>
<g style="mix-blend-mode:screen">
<path d="M122.963 84.8201H120.414C120.198 84.8201 120.022 84.6437 120.022 84.428V75.7813C120.022 75.5656 120.198 75.3892 120.414 75.3892H122.963C123.178 75.3892 123.355 75.5656 123.355 75.7813V84.428C123.355 84.6437 123.178 84.8201 122.963 84.8201Z" fill="#404040"/>
</g>
<g style="mix-blend-mode:screen">
<path d="M133.726 58.1939H131.177C130.961 58.1939 130.785 58.0174 130.785 57.8018V49.1551C130.785 48.9394 130.961 48.7629 131.177 48.7629H133.726C133.941 48.7629 134.118 48.9394 134.118 49.1551V57.8018C134.118 58.0174 133.941 58.1939 133.726 58.1939Z" fill="#404040"/>
</g>
<g style="mix-blend-mode:screen">
<path d="M133.726 71.4288H131.177C130.961 71.4288 130.785 71.2523 130.785 71.0366V62.3899C130.785 62.1547 130.961 61.9978 131.177 61.9978H133.726C133.941 61.9978 134.118 62.1547 134.118 62.3899V71.0366C134.118 71.2523 133.941 71.4288 133.726 71.4288Z" fill="#404040"/>
</g>
<g style="mix-blend-mode:screen">
<path d="M133.726 84.8201H131.177C130.961 84.8201 130.785 84.6437 130.785 84.428V75.7813C130.785 75.5656 130.961 75.3892 131.177 75.3892H133.726C133.941 75.3892 134.118 75.5656 134.118 75.7813V84.428C134.118 84.6437 133.941 84.8201 133.726 84.8201Z" fill="#404040"/>
</g>
<path d="M168.49 112.996H163.921V97.2119H168.49V112.996Z" fill="#58585A"/>
<g style="mix-blend-mode:screen">
<path d="M104.983 109.839H100.434C99.8067 109.839 99.3165 109.329 99.3165 108.721V100.545C99.3165 99.9177 99.8067 99.4275 100.434 99.4275H104.983C105.61 99.4275 106.101 99.9177 106.101 100.545V108.721C106.101 109.329 105.61 109.839 104.983 109.839Z" fill="#404040"/>
</g>
<g style="mix-blend-mode:screen">
<path d="M115.453 109.839H110.885C110.277 109.839 109.767 109.329 109.767 108.721V100.545C109.767 99.9177 110.277 99.4275 110.885 99.4275H115.453C116.081 99.4275 116.571 99.9177 116.571 100.545V108.721C116.571 109.329 116.081 109.839 115.453 109.839Z" fill="#404040"/>
</g>
<g style="mix-blend-mode:screen">
<path d="M125.884 109.839H121.316C120.708 109.839 120.198 109.329 120.198 108.721V100.545C120.198 99.9177 120.708 99.4275 121.316 99.4275H125.884C126.512 99.4275 127.002 99.9177 127.002 100.545V108.721C127.002 109.329 126.512 109.839 125.884 109.839Z" fill="#404040"/>
</g>
<g style="mix-blend-mode:screen">
<path d="M136.354 109.839H131.786C131.158 109.839 130.668 109.329 130.668 108.721V100.545C130.668 99.9177 131.158 99.4275 131.786 99.4275H136.354C136.962 99.4275 137.472 99.9177 137.472 100.545V108.721C137.472 109.329 136.962 109.839 136.354 109.839Z" fill="#404040"/>
</g>
<g style="mix-blend-mode:screen">
<path d="M65.0236 109.917H48.7105C48.2204 109.917 47.8086 109.525 47.8086 109.015V100.486C47.8086 99.9764 48.2204 99.5647 48.7105 99.5647H65.0236C65.5137 99.5647 65.9255 99.9764 65.9255 100.486V109.015C65.9255 109.525 65.5137 109.917 65.0236 109.917Z" fill="#404040"/>
</g>
<g style="mix-blend-mode:screen">
<path d="M87.9044 109.917H75.3952C74.9638 109.917 74.5913 109.564 74.5913 109.133V100.369C74.5913 99.9372 74.9638 99.5647 75.3952 99.5647H87.9044C88.3554 99.5647 88.7083 99.9372 88.7083 100.369V109.133C88.7083 109.564 88.3554 109.917 87.9044 109.917Z" fill="#404040"/>
</g>
<g style="mix-blend-mode:screen">
<path d="M172.019 109.917H188.312C188.822 109.917 189.214 109.525 189.214 109.015V100.486C189.214 99.9764 188.822 99.5647 188.312 99.5647H172.019C171.509 99.5647 171.097 99.9764 171.097 100.486V109.015C171.097 109.525 171.509 109.917 172.019 109.917Z" fill="#404040"/>
</g>
<g style="mix-blend-mode:screen">
<path d="M149.119 109.917H161.628C162.079 109.917 162.432 109.564 162.432 109.133V100.369C162.432 99.9372 162.079 99.5647 161.628 99.5647H149.119C148.687 99.5647 148.315 99.9372 148.315 100.369V109.133C148.315 109.564 148.687 109.917 149.119 109.917Z" fill="#404040"/>
</g>
<path d="M66.4155 106.957H26.7506C25.7114 106.957 24.8683 107.819 24.8683 108.859V111.564H68.3174V108.859C68.3174 107.819 67.4547 106.957 66.4155 106.957Z" fill="#66A14B"/>
<g style="mix-blend-mode:screen">
<path d="M66.4161 108.682H26.6139C26.2609 108.682 25.9668 108.388 25.9668 108.035V108.015C25.9668 107.663 26.2609 107.368 26.6139 107.368H66.4161C66.7886 107.368 67.0827 107.663 67.0827 108.015V108.035C67.0827 108.388 66.7886 108.682 66.4161 108.682Z" fill="#262626"/>
</g>
<path d="M68.3174 112.995H24.8683V110.133H68.3174V112.995Z" fill="#937D66"/>
<path d="M170.372 106.957H210.037C211.077 106.957 211.92 107.819 211.92 108.859V111.564H168.49V108.859C168.49 107.819 169.333 106.957 170.372 106.957Z" fill="#66A14B"/>
<g style="mix-blend-mode:screen">
<path d="M170.372 108.682H210.174C210.527 108.682 210.821 108.388 210.821 108.035V108.015C210.821 107.663 210.527 107.368 210.174 107.368H170.372C169.999 107.368 169.705 107.663 169.705 108.015V108.035C169.705 108.388 169.999 108.682 170.372 108.682Z" fill="#262626"/>
</g>
<path d="M168.49 112.995H211.92V110.133H168.49V112.995Z" fill="#937D66"/>
<path d="M72.8665 112.996H68.3177V97.2119H72.8665V112.996Z" fill="#58585A"/>
<g style="mix-blend-mode:multiply">
<path d="M198.233 98.702H38.5541V97.2119H198.233V98.702Z" fill="#CCCCCC"/>
</g>
<path d="M128.629 110.957H108.159V112.996H128.629V110.957Z" fill="#ECECEC"/>
<path d="M42.3189 74.4089C42.3189 74.0168 41.868 73.958 41.2994 73.9187C40.0641 73.8207 39.2603 73.409 39.2406 72.1933C39.2014 69.7621 43.5738 69.7621 43.5542 72.1933C43.0444 72.1933 42.6719 72.1933 42.1817 72.1933C42.1817 71.4483 40.672 71.5071 40.6131 72.1737C40.5935 72.6051 41.0053 72.6835 41.5151 72.7423C42.6327 72.86 43.7306 73.0168 43.7306 74.4089C43.7306 76.7814 39.1426 76.8402 39.1622 74.3697C39.6524 74.3697 40.0641 74.3697 40.5543 74.3697C40.5543 75.0952 42.3189 75.0756 42.3189 74.4089Z" fill="white"/>
<path d="M49.4755 76.0951C48.9788 76.0951 48.4886 76.0951 48.005 76.0951V73.8206H46.26V76.0951C45.7698 76.0951 45.2796 76.0951 44.7894 76.0951V70.4482C45.2796 70.4482 45.7698 70.4482 46.26 70.4482V72.507H48.005V70.4482C48.4886 70.4482 48.9788 70.4482 49.4755 70.4482V76.0951Z" fill="white"/>
<path fill-rule="evenodd" clip-rule="evenodd" d="M50.5726 73.2916C50.5726 69.3898 56.3566 69.3898 56.3566 73.2916C56.3566 77.1934 50.5726 77.1934 50.5726 73.2916ZM54.8665 73.2916C54.8665 71.2525 52.0431 71.2525 52.0431 73.2916C52.0431 75.3307 54.8665 75.3307 54.8665 73.2916Z" fill="white"/>
<path fill-rule="evenodd" clip-rule="evenodd" d="M57.437 76.0951C57.437 74.2128 57.437 72.3305 57.437 70.4482C58.2408 70.4482 59.0839 70.4482 59.9074 70.4482C62.6132 70.4678 62.6132 74.6441 59.9074 74.6441H58.8683V76.0951C58.3846 76.0951 57.9075 76.0951 57.437 76.0951ZM59.9074 71.7423C59.5741 71.7423 59.2016 71.7423 58.8683 71.7423C58.8683 72.2129 58.8683 72.8991 58.8683 73.3501H59.9074C60.6917 73.3501 60.7505 71.7619 59.9074 71.7423Z" fill="white"/>
<path fill-rule="evenodd" clip-rule="evenodd" d="M63.0241 76.0951C63.0241 74.2128 63.0241 72.3305 63.0241 70.4482C63.828 70.4482 64.6711 70.4482 65.4946 70.4482C68.2003 70.4678 68.2003 74.6441 65.4946 74.6441H64.4554V76.0951C63.9717 76.0951 63.4946 76.0951 63.0241 76.0951ZM65.4946 71.7423C65.1612 71.7423 64.7887 71.7423 64.4554 71.7423C64.4554 72.2129 64.4554 72.8991 64.4554 73.3501H65.4946C66.2788 73.3501 66.3377 71.7619 65.4946 71.7423Z" fill="white"/>
<path d="M71.0035 74.8206C71.0035 75.3108 71.0035 75.6049 71.0035 76.0951C70.0427 76.0951 69.1016 76.0951 68.1408 76.0951C68.1408 75.6049 68.1408 75.3108 68.1408 74.8206H68.8467V71.7031H68.1997C68.1997 71.2325 68.1997 70.9384 68.1997 70.4482C69.1212 70.4482 70.0231 70.4482 70.9446 70.4482C70.9446 70.9384 70.9446 71.2325 70.9446 71.7031H70.278V74.8206H71.0035Z" fill="white"/>
<path d="M73.4351 73.3301V76.0946C72.9253 76.0946 72.4286 76.0946 71.9449 76.0946V70.4282H72.4547L75.3173 73.2124V70.4478C75.801 70.4478 76.2912 70.4478 76.7879 70.4478V76.0946H76.2781L73.4351 73.3301Z" fill="white"/>
<path d="M80.7685 70.3896C81.9057 70.3896 83.0821 70.9779 83.3566 72.3896H81.9449C81.7097 71.8994 81.3371 71.7033 80.7685 71.7033C79.847 71.7033 79.3568 72.4092 79.3568 73.2719C79.3568 74.213 79.9058 74.8208 80.7685 74.8208C81.3371 74.8208 81.7097 74.664 81.9646 74.1346H80.7685V72.8797H83.4351C83.4743 73.4483 83.4743 73.9777 83.2782 74.5267C82.8665 75.7031 81.8077 76.1541 80.7685 76.1541C79.3372 76.1541 77.8863 75.1934 77.8667 73.2719C77.8863 71.3504 79.3372 70.3896 80.7685 70.3896Z" fill="white"/>
<path d="M57.3573 80.0947H57.867V85.7611C57.3703 85.7611 56.8802 85.7611 56.3965 85.7611V83.2318L55.2005 84.4867H55.024L53.8476 83.2318V85.7611C53.3509 85.7611 52.8542 85.7611 52.3575 85.7611V80.0947H52.9065L55.1025 82.5456L57.3573 80.0947Z" fill="white"/>
<path fill-rule="evenodd" clip-rule="evenodd" d="M62.5534 85.0359H60.3378L60.0045 85.7614H58.5928V85.5457L61.1221 80.0361H61.7495L64.2985 85.5457V85.7614H62.8867L62.5534 85.0359ZM61.4358 82.3105L60.8084 83.7811H62.0633L61.4358 82.3105Z" fill="white"/>
<path d="M66.4751 84.4476H68.5142C68.5142 84.9378 68.5142 85.2711 68.5142 85.7613C67.3574 85.7613 66.1613 85.7613 65.0241 85.7613V80.1145C65.4947 80.1145 65.9849 80.1145 66.4751 80.1145C66.4751 83.0359 66.4751 82.0556 66.4751 84.4476Z" fill="white"/>
<path d="M70.9455 84.4476H72.9846C72.9846 84.9378 72.9846 85.2711 72.9846 85.7613C71.8278 85.7613 70.6318 85.7613 69.4946 85.7613V80.1145C69.9848 80.1145 70.4553 80.1145 70.9455 80.1145C70.9455 83.0359 70.9455 82.0556 70.9455 84.4476Z" fill="white"/>
<path d="M84.4933 68.9781H38.5541V68.2527H84.4933V68.9781Z" fill="white"/>
<g style="mix-blend-mode:multiply">
<path d="M97.1008 110.956H91.6108V39.8218H97.1008V110.956Z" fill="#BFBFBF"/>
</g>
<g style="mix-blend-mode:multiply">
<path d="M145.176 110.956H139.686V39.8218H145.176V110.956Z" fill="#BFBFBF"/>
</g>
<path d="M198.233 97.2123H38.5541V92.8203H198.233V97.2123Z" fill="#ECECEC"/>
<path d="M106.453 106.957H74.5724C73.6313 106.957 72.8666 107.721 72.8666 108.663V111.564H108.159V108.663C108.159 107.721 107.394 106.957 106.453 106.957Z" fill="#66A14B"/>
<g style="mix-blend-mode:screen">
<path d="M106.572 108.682H74.3573C74.024 108.682 73.7691 108.427 73.7691 108.094V107.957C73.7691 107.623 74.024 107.368 74.3573 107.368H106.572C106.885 107.368 107.16 107.623 107.16 107.957V108.094C107.16 108.427 106.885 108.682 106.572 108.682Z" fill="#262626"/>
</g>
<path d="M108.159 112.995H72.8666V110.133H108.159V112.995Z" fill="#937D66"/>
<path d="M130.061 106.957H162.197C163.157 106.957 163.922 107.721 163.922 108.682V111.564H128.335V108.682C128.335 107.721 129.1 106.957 130.061 106.957Z" fill="#66A14B"/>
<g style="mix-blend-mode:screen">
<path d="M129.943 108.682H162.412C162.745 108.682 163.02 108.408 163.02 108.094V107.957C163.02 107.623 162.745 107.368 162.412 107.368H129.943C129.609 107.368 129.355 107.623 129.355 107.957V108.094C129.355 108.408 129.609 108.682 129.943 108.682Z" fill="#262626"/>
</g>
<path d="M128.335 112.995H163.922V110.133H128.335V112.995Z" fill="#937D66"/>
<g style="mix-blend-mode:screen">
<path d="M136.903 44.9398H99.8655C98.8852 44.9398 98.0813 44.1556 98.0813 43.1556V42.7046C98.0813 41.7243 98.8852 40.9204 99.8655 40.9204H136.903C137.903 40.9204 138.687 41.7243 138.687 42.7046V43.1556C138.687 44.1556 137.903 44.9398 136.903 44.9398Z" fill="#333333"/>
</g>
<g style="mix-blend-mode:screen">
<path d="M28.005 82.9773C27.0835 82.9773 26.3384 82.3695 26.3384 81.6244V67.1153C26.3384 66.3702 27.0835 65.782 28.005 65.782C28.9266 65.782 29.6716 66.3702 29.6716 67.1153V81.6244C29.6716 82.3695 28.9266 82.9773 28.005 82.9773Z" fill="#262626"/>
</g>
<g style="mix-blend-mode:screen">
<path d="M28.005 82.9772C27.0835 82.9772 26.3384 82.3694 26.3384 81.6243V72.2914C26.3384 71.5463 27.0835 70.9385 28.005 70.9385C28.9266 70.9385 29.6716 71.5463 29.6716 72.2914V81.6243C29.6716 82.3694 28.9266 82.9772 28.005 82.9772Z" fill="#262626"/>
</g>
<g style="mix-blend-mode:screen">
<path d="M28.005 82.9775C27.0835 82.9775 26.3384 82.3697 26.3384 81.6246V79.6051C26.3384 78.86 27.0835 78.2522 28.005 78.2522C28.9266 78.2522 29.6716 78.86 29.6716 79.6051V81.6246C29.6716 82.3697 28.9266 82.9775 28.005 82.9775Z" fill="#262626"/>
</g>
<g style="mix-blend-mode:screen">
<path d="M28.005 91.0748C27.0835 91.0748 26.3384 90.467 26.3384 89.7415V87.7024C26.3384 86.977 27.0835 86.3691 28.005 86.3691C28.9266 86.3691 29.6716 86.977 29.6716 87.7024V89.7415C29.6716 90.467 28.9266 91.0748 28.005 91.0748Z" fill="#262626"/>
</g>
<g style="mix-blend-mode:screen">
<path d="M207.684 82.9773C206.763 82.9773 206.018 82.3695 206.018 81.6244V67.1153C206.018 66.3702 206.763 65.782 207.684 65.782C208.606 65.782 209.351 66.3702 209.351 67.1153V81.6244C209.351 82.3695 208.606 82.9773 207.684 82.9773Z" fill="#262626"/>
</g>
<g style="mix-blend-mode:screen">
<path d="M207.684 82.9769C206.763 82.9769 206.018 82.3691 206.018 81.624V72.2911C206.018 71.546 206.763 70.9382 207.684 70.9382C208.606 70.9382 209.351 71.546 209.351 72.2911V81.624C209.351 82.3691 208.606 82.9769 207.684 82.9769Z" fill="#262626"/>
</g>
<g style="mix-blend-mode:screen">
<path d="M207.684 82.9772C206.763 82.9772 206.018 82.3694 206.018 81.6244V79.6048C206.018 78.8598 206.763 78.252 207.684 78.252C208.606 78.252 209.351 78.8598 209.351 79.6048V81.6244C209.351 82.3694 208.606 82.9772 207.684 82.9772Z" fill="#262626"/>
</g>
<g style="mix-blend-mode:screen">
<path d="M207.684 91.0756C206.763 91.0756 206.018 90.4677 206.018 89.7423V87.7031C206.018 86.9777 206.763 86.3699 207.684 86.3699C208.606 86.3699 209.351 86.9777 209.351 87.7031V89.7423C209.351 90.4677 208.606 91.0756 207.684 91.0756Z" fill="#262626"/>
</g>
<g style="mix-blend-mode:screen">
<path d="M69.7488 112.466C69.2194 112.466 68.7881 112.054 68.7881 111.525V99.9173C68.7881 99.3879 69.2194 98.9565 69.7488 98.9565C70.2782 98.9565 70.69 99.3879 70.69 99.9173V111.525C70.69 112.054 70.2782 112.466 69.7488 112.466Z" fill="#262626"/>
</g>
<g style="mix-blend-mode:screen">
<path d="M165.47 112.466C164.941 112.466 164.509 112.054 164.509 111.525V99.9173C164.509 99.3879 164.941 98.9565 165.47 98.9565C165.999 98.9565 166.431 99.3879 166.431 99.9173V111.525C166.431 112.054 165.999 112.466 165.47 112.466Z" fill="#262626"/>
</g>
<g style="mix-blend-mode:multiply">
<path d="M30.5941 105.839H26.5354C26.2217 105.839 25.9668 105.584 25.9668 105.27V104.231C25.9668 103.917 26.2217 103.662 26.5354 103.662H30.5941C30.9078 103.662 31.1627 103.917 31.1627 104.231V105.27C31.1627 105.584 30.9078 105.839 30.5941 105.839Z" fill="#E6E6E6"/>
</g>
<g style="mix-blend-mode:multiply">
<path d="M36.6717 105.839H32.613C32.2993 105.839 32.0444 105.584 32.0444 105.27V104.231C32.0444 103.917 32.2993 103.662 32.613 103.662H36.6717C36.9854 103.662 37.2403 103.917 37.2403 104.231V105.27C37.2403 105.584 36.9854 105.839 36.6717 105.839Z" fill="#E6E6E6"/>
</g>
<g style="mix-blend-mode:multiply">
<path d="M198.293 105.839H194.234C193.921 105.839 193.666 105.584 193.666 105.27V104.231C193.666 103.917 193.921 103.662 194.234 103.662H198.293C198.607 103.662 198.862 103.917 198.862 104.231V105.27C198.862 105.584 198.607 105.839 198.293 105.839Z" fill="#E6E6E6"/>
</g>
<g style="mix-blend-mode:multiply">
<path d="M209.704 105.839H205.646C205.332 105.839 205.077 105.584 205.077 105.27V104.231C205.077 103.917 205.332 103.662 205.646 103.662H209.704C210.018 103.662 210.273 103.917 210.273 104.231V105.27C210.273 105.584 210.018 105.839 209.704 105.839Z" fill="#E6E6E6"/>
</g>
<g style="mix-blend-mode:multiply">
<path d="M206.664 103.153H202.606C202.292 103.153 202.037 102.898 202.037 102.584V101.525C202.037 101.212 202.292 100.957 202.606 100.957H206.664C206.978 100.957 207.233 101.212 207.233 101.525V102.584C207.233 102.898 206.978 103.153 206.664 103.153Z" fill="#E6E6E6"/>
</g>
<g style="mix-blend-mode:multiply">
<path d="M36.6717 97.6826H32.613C32.2993 97.6826 32.0444 97.4277 32.0444 97.0943V96.0552C32.0444 95.7415 32.2993 95.4866 32.613 95.4866H36.6717C36.9854 95.4866 37.2403 95.7415 37.2403 96.0552V97.0943C37.2403 97.4277 36.9854 97.6826 36.6717 97.6826Z" fill="#E6E6E6"/>
</g>
<g style="mix-blend-mode:multiply">
<path d="M33.5932 103.153H29.5345C29.2208 103.153 28.9659 102.898 28.9659 102.584V101.525C28.9659 101.212 29.2208 100.957 29.5345 100.957H33.5932C33.9069 100.957 34.1618 101.212 34.1618 101.525V102.584C34.1618 102.898 33.9069 103.153 33.5932 103.153Z" fill="#E6E6E6"/>
</g>
<path d="M203.43 66.1348H148.922C148.53 66.1348 148.216 65.8014 148.216 65.4093C148.216 65.0172 148.53 64.6838 148.922 64.6838H203.43C203.841 64.6838 204.155 65.0172 204.155 65.4093C204.155 65.8014 203.841 66.1348 203.43 66.1348Z" fill="#ECECEC"/>
<path d="M88.6898 66.1348H34.1824C33.7903 66.1348 33.4765 65.8014 33.4765 65.4093C33.4765 65.0172 33.7903 64.6838 34.1824 64.6838H88.6898C89.082 64.6838 89.4153 65.0172 89.4153 65.4093C89.4153 65.8014 89.082 66.1348 88.6898 66.1348Z" fill="#ECECEC"/>
</g>
<defs>
<clipPath id="clip0_1_9552">
<rect x="0.752075" y="0.647461" width="235.284" height="156.856" rx="10" fill="white"/>
</clipPath>
</defs>
</svg>
