<svg width="211" height="187" viewBox="0 0 211 187" fill="none" xmlns="http://www.w3.org/2000/svg">
<path d="M66.4381 66.204H15.656C15.656 65.0761 15.9944 63.9764 16.6429 63.0459C17.3196 62.1436 18.2501 61.4669 19.3216 61.1003C20.3649 60.762 21.5209 60.762 22.5924 61.1003C23.6639 61.4387 24.5944 62.1154 25.2711 63.0177C26.0042 62.6511 26.8501 62.4819 27.696 62.5665C28.5419 62.6511 29.3314 62.9613 30.0081 63.4688C29.9705 63.1681 29.9517 62.858 29.9517 62.5384C29.9517 59.465 31.1078 56.4761 33.1943 54.1922C35.2527 51.9082 38.1287 50.4984 41.2022 50.2164C44.2756 49.9345 47.3208 50.8086 49.8021 52.6696C52.2552 54.5588 53.9188 57.2655 54.4828 60.3108C55.6106 59.6058 56.9077 59.2112 58.2329 59.1548C59.5582 59.0984 60.8834 59.3803 62.0677 59.9443C63.2801 60.5364 64.2952 61.4105 65.0565 62.5102C65.8178 63.6098 66.2971 64.8787 66.4381 66.204ZM106.28 27.8001H55.4978C55.4978 26.6722 55.8362 25.5726 56.4847 24.6703C57.1614 23.7398 58.0919 23.0631 59.1352 22.7247C60.2067 22.3582 61.3627 22.3581 62.4342 22.6965C63.5057 23.0349 64.4362 23.7115 65.0847 24.642C65.846 24.2473 66.6919 24.0782 67.5378 24.1628C68.3837 24.2474 69.1732 24.5575 69.8499 25.0932C69.8123 24.7736 69.7935 24.4635 69.7935 24.1628C69.7935 21.0611 70.9496 18.0723 73.0361 15.7883C75.0945 13.5044 77.9705 12.0945 81.044 11.8126C84.1174 11.5306 87.1626 12.4048 89.6157 14.294C92.097 16.1549 93.7606 18.8618 94.2964 21.907C95.4524 21.2021 96.7213 20.8074 98.0747 20.751C99.4 20.6946 100.725 20.9483 101.909 21.5404C103.122 22.1325 104.137 23.0067 104.898 24.1063C105.66 25.1778 106.139 26.4466 106.308 27.7719L106.28 27.8001ZM130.783 46.6636H181.593C181.593 45.564 181.255 44.4643 180.578 43.5338C179.929 42.6315 178.999 41.9548 177.928 41.5882C176.856 41.2499 175.728 41.2499 174.657 41.5882C173.585 41.9266 172.655 42.6034 171.978 43.5057C171.217 43.1391 170.371 42.9699 169.553 43.0545C168.707 43.1391 167.918 43.4492 167.241 43.9567C167.241 43.6466 167.269 43.3364 167.269 43.0263C167.269 39.9529 166.085 36.9922 164.027 34.7365C161.94 32.4808 159.092 31.0709 156.047 30.789C152.974 30.507 149.928 31.381 147.475 33.242C145.022 35.0748 143.358 37.7817 142.795 40.7988C141.638 40.1221 140.37 39.6991 139.016 39.6427C137.691 39.5863 136.366 39.8682 135.181 40.4321C133.997 41.0243 132.954 41.8984 132.193 42.9981C131.431 44.0977 130.952 45.3384 130.811 46.6636H130.783ZM199.893 175.409C199.752 165.851 191.011 167.74 191.011 167.74C190.165 164.779 188.501 162.101 186.217 160.014C183.933 157.927 181.142 156.518 178.125 155.954C167.467 153.839 161.912 169.263 161.912 169.263C161.912 169.263 161.996 163.99 156.16 163.341C150.351 162.693 149.703 169.263 149.703 169.263C149.703 169.263 147.193 165.597 142.343 167.091C137.465 168.586 137.606 172.815 137.606 172.815C137.606 172.815 133.18 170.785 131.431 175.409H199.893ZM175.362 151.273C175.362 151.64 175.446 151.978 175.644 152.26C175.841 152.542 176.123 152.768 176.433 152.909C176.771 153.05 177.11 153.078 177.476 153.021C177.815 152.937 178.125 152.767 178.379 152.514C178.604 152.288 178.773 151.978 178.858 151.611C178.914 151.273 178.886 150.935 178.745 150.596C178.604 150.286 178.379 150.004 178.097 149.807C177.815 149.61 177.476 149.525 177.11 149.525C176.659 149.525 176.208 149.694 175.869 150.032C175.531 150.371 175.362 150.822 175.362 151.273ZM182.947 147.015C182.947 147.156 183.003 147.297 183.059 147.41C183.144 147.523 183.257 147.608 183.369 147.664C183.51 147.72 183.651 147.748 183.792 147.72C183.933 147.692 184.046 147.608 184.159 147.523C184.244 147.41 184.328 147.297 184.356 147.156C184.385 147.015 184.356 146.874 184.3 146.733C184.244 146.621 184.159 146.508 184.046 146.423C183.933 146.339 183.792 146.31 183.651 146.31C183.454 146.31 183.285 146.395 183.144 146.508C183.031 146.649 182.947 146.818 182.947 147.015ZM200.626 165.569C200.626 165.71 200.654 165.851 200.739 165.964C200.823 166.076 200.908 166.161 201.049 166.217C201.19 166.274 201.331 166.302 201.472 166.274C201.584 166.246 201.725 166.161 201.81 166.076C201.923 165.964 201.979 165.851 202.007 165.71C202.036 165.569 202.036 165.428 201.979 165.287C201.923 165.174 201.838 165.061 201.697 164.977C201.584 164.92 201.444 164.864 201.331 164.864C201.133 164.864 200.964 164.948 200.823 165.061C200.682 165.202 200.626 165.371 200.626 165.569ZM72.9515 175.409C72.8388 165.851 64.0696 167.74 64.0696 167.74C63.2237 164.779 61.5601 162.101 59.3044 160.014C57.0204 157.927 54.2008 156.518 51.1837 155.954C40.5536 153.839 34.9707 169.263 34.9707 169.263C34.9707 169.263 35.0553 163.99 29.2468 163.341C23.4101 162.693 22.7616 169.263 22.7616 169.263C22.7616 169.263 20.2803 165.597 15.4023 167.091C10.5242 168.586 10.6652 172.815 10.6652 172.815C10.6652 172.815 6.23836 170.785 4.49017 175.409H72.9515ZM38.7772 144.562C38.7772 144.901 38.8618 145.239 39.0592 145.549C39.2566 145.831 39.5385 146.057 39.8487 146.198C40.1871 146.31 40.5254 146.367 40.8638 146.282C41.2304 146.226 41.5405 146.057 41.7661 145.803C42.0199 145.549 42.189 145.239 42.2736 144.901C42.33 144.562 42.3018 144.196 42.1608 143.886C42.0199 143.547 41.7943 143.293 41.5123 143.096C41.2303 142.899 40.892 142.786 40.5254 142.786C40.2999 142.786 40.0743 142.833 39.8487 142.927C39.6419 143.021 39.454 143.143 39.2848 143.293C39.1156 143.463 38.984 143.66 38.89 143.886C38.8148 144.092 38.7772 144.318 38.7772 144.562ZM10.2141 163.792C10.2141 163.933 10.2705 164.074 10.3269 164.187C10.4115 164.3 10.5242 164.413 10.6652 164.441C10.778 164.497 10.919 164.525 11.06 164.497C11.201 164.469 11.3137 164.413 11.4265 164.3C11.5111 164.215 11.5957 164.074 11.6239 163.933C11.6521 163.792 11.6239 163.651 11.5675 163.539C11.5111 163.398 11.4265 163.285 11.3138 163.228C11.201 163.144 11.06 163.087 10.919 163.087C10.825 163.087 10.7404 163.106 10.6652 163.144C10.5712 163.181 10.496 163.238 10.4397 163.313C10.3645 163.369 10.3081 163.445 10.2705 163.539C10.2329 163.614 10.2141 163.698 10.2141 163.792ZM16.079 143.491C16.079 143.632 16.1354 143.773 16.1918 143.886C16.2764 143.998 16.3891 144.083 16.5019 144.139C16.6429 144.196 16.7839 144.224 16.9249 144.196C17.0659 144.167 17.1786 144.083 17.2914 143.998C17.376 143.886 17.4606 143.773 17.4888 143.632C17.517 143.491 17.4888 143.35 17.4324 143.209C17.376 143.096 17.2914 142.983 17.1786 142.899C17.0659 142.814 16.9249 142.786 16.7839 142.786C16.5865 142.786 16.4173 142.87 16.2764 142.983C16.1636 143.124 16.079 143.293 16.079 143.491Z" fill="#F9F7F1"/>
<path d="M205.955 97.8405L129.063 87.295C129.063 87.295 130.614 73.0839 140.624 73.7606C141.047 63.7508 149.957 59.8314 156.386 64.8222C160.559 49.2859 177.561 51.0905 183.511 61.3823C199.978 58.3089 205.053 72.9711 202.402 78.6105C212.948 82.3606 210.664 98.7146 210.664 98.7146L205.955 97.8405Z" fill="#7B5CFD"/>
<path d="M162.11 175.099C162.025 175.719 161.433 176.114 160.813 176.03C160.221 175.917 159.798 175.353 159.911 174.733L162.11 175.099ZM180.663 100.435L180.24 99.3912C180.24 99.3912 180.25 99.3912 180.268 99.3912L180.663 100.435ZM190.024 82.276C190.165 81.6838 190.786 81.3172 191.378 81.4581C191.998 81.5991 192.365 82.2196 192.196 82.8399L190.024 82.276ZM159.854 174.704L170.456 111.121L172.684 111.488L162.082 175.071L159.854 174.704ZM170.456 111.121C170.879 108.555 171.95 106.158 173.586 104.156L175.334 105.566C173.952 107.286 173.05 109.316 172.684 111.488L170.456 111.121ZM173.586 104.156C175.193 102.126 177.308 100.576 179.733 99.6169L180.55 101.703C178.52 102.521 176.716 103.846 175.334 105.566L173.586 104.156ZM179.733 99.6169L180.24 99.3912L181.114 101.478L180.579 101.703L179.733 99.6169ZM180.268 99.3912C182.158 98.6581 183.821 97.4739 185.146 95.9513L186.866 97.4174C185.287 99.222 183.314 100.604 181.114 101.506L180.268 99.3912ZM185.146 95.9231C186.472 94.4005 187.43 92.5676 187.938 90.622L190.109 91.1579C189.545 93.47 188.417 95.6129 186.838 97.4174L185.146 95.9231ZM187.938 90.594L190.053 82.2477L192.224 82.8117L190.109 91.1579L187.938 90.594ZM170.484 121.808C170.935 122.23 170.964 122.964 170.541 123.415C170.089 123.866 169.385 123.894 168.933 123.443L170.484 121.808ZM161.518 114.928L160.728 115.773C160.728 115.755 160.728 115.745 160.728 115.745L161.518 114.928ZM156.583 101.28C156.471 100.66 156.893 100.068 157.514 99.9834C158.134 99.8706 158.698 100.294 158.811 100.886L156.583 101.28ZM168.933 123.499L160.728 115.773L162.279 114.138L170.484 121.836L168.933 123.499ZM160.7 115.802C159.431 114.561 158.557 112.954 158.275 111.206L160.503 110.811C160.7 112.108 161.32 113.264 162.279 114.166L160.7 115.802ZM158.247 111.206L156.555 101.309L158.783 100.942L160.474 110.811L158.247 111.206ZM177.759 102.916C177.646 103.508 177.082 103.931 176.462 103.846C175.842 103.762 175.419 103.198 175.503 102.578L177.759 102.916ZM180.127 71.7022C180.212 71.0819 180.804 70.6588 181.425 70.7434C182.017 70.828 182.468 71.4202 182.355 72.0405L180.127 71.7022ZM175.531 102.578L180.127 71.7022L182.355 72.0123L177.787 102.916L175.531 102.578Z" fill="#F9F7F1"/>
<path fill-rule="evenodd" clip-rule="evenodd" d="M174.489 106.808C174.911 106.385 174.911 105.652 174.46 105.229L165.522 96.4594C164.338 95.3033 163.407 93.9217 162.787 92.3991C162.167 90.8765 161.856 89.2128 161.913 87.5774L162.138 77.6804C162.167 77.0601 161.687 76.5243 161.039 76.5243C160.418 76.4961 159.911 77.0038 159.883 77.6241L159.657 87.521C159.601 89.4666 159.967 91.4122 160.7 93.245C161.434 95.0496 162.533 96.685 163.943 98.0666L172.881 106.836C173.332 107.259 174.037 107.259 174.489 106.808Z" fill="#F9F7F1"/>
<path d="M14.077 116.986L90.9692 106.441C90.9692 106.441 89.4184 92.2581 79.4368 92.9348C79.0138 82.8968 70.0755 78.9776 63.6467 83.9684C59.4736 68.432 42.471 70.2648 36.5215 80.5283C20.0829 77.4549 15.0075 92.1172 17.6298 97.7565C7.08424 101.507 9.36816 117.861 9.36816 117.861L14.077 116.986Z" fill="#7B5CFD"/>
<path d="M56.9086 174.535C57.0214 175.156 56.5984 175.72 55.9781 175.832C55.386 175.917 54.7938 175.522 54.681 174.902L56.9086 174.535ZM39.8214 119.834L39.4267 120.877C39.4079 120.877 39.3985 120.877 39.3985 120.877L39.8214 119.834ZM39.3139 119.608L39.7086 118.565C39.7274 118.565 39.7368 118.565 39.7368 118.565L39.3139 119.608ZM27.7533 101.985C27.5841 101.393 27.9506 100.773 28.571 100.632C29.1631 100.463 29.7834 100.829 29.9244 101.45L27.7533 101.985ZM54.7092 174.874L47.3217 130.633L49.5493 130.267L56.9368 174.507L54.7092 174.874ZM47.3217 130.633C46.9552 128.462 46.0529 126.432 44.6712 124.712L46.4194 123.302C48.0548 125.304 49.1263 127.701 49.5493 130.267L47.3217 130.633ZM44.6712 124.712C43.2896 122.992 41.485 121.667 39.4267 120.849L40.2726 118.734C42.6693 119.693 44.784 121.272 46.4194 123.274L44.6712 124.712ZM39.4267 120.849L38.9191 120.652L39.765 118.565L40.3008 118.762L39.4267 120.849ZM38.8909 120.652C36.6916 119.777 34.7178 118.368 33.1388 116.591L34.8306 115.097C36.1841 116.619 37.8477 117.804 39.7368 118.537L38.8909 120.652ZM33.1388 116.591C31.5598 114.815 30.4319 112.672 29.8398 110.36L32.0392 109.796C32.5185 111.77 33.4772 113.602 34.8306 115.125L33.1388 116.591ZM29.8398 110.332L27.7251 101.985L29.9244 101.422L32.0392 109.796L29.8398 110.332ZM51.0719 142.617C50.5925 143.04 49.8876 143.04 49.4647 142.56C49.0417 142.109 49.0699 141.404 49.5211 140.981L51.0719 142.617ZM58.5158 134.073L59.3053 134.891V134.919L58.5158 134.073ZM61.1945 120.031C61.3072 119.411 61.8712 118.988 62.4915 119.101C63.1118 119.214 63.5348 119.777 63.422 120.398L61.1945 120.031ZM49.5211 140.953L57.7545 133.255L59.3053 134.891L51.0719 142.617L49.5211 140.953ZM57.7263 133.255C58.685 132.353 59.3053 131.197 59.5027 129.9L61.7302 130.267C61.4482 132.043 60.5741 133.65 59.2771 134.891L57.7263 133.255ZM59.5027 129.9L61.1945 120.031L63.422 120.398L61.7302 130.295L59.5027 129.9ZM44.4457 121.638C44.5303 122.231 44.1073 122.823 43.487 122.907C42.8667 122.992 42.3027 122.569 42.2181 121.949L44.4457 121.638ZM37.6221 91.1015C37.5093 90.4812 37.9323 89.9172 38.5526 89.8045C39.1729 89.7199 39.7368 90.1428 39.8496 90.7631L37.6221 91.1015ZM42.2181 121.977L37.6221 91.1015L39.8496 90.7631L44.4457 121.667L42.2181 121.977Z" fill="#F9F7F1"/>
<path fill-rule="evenodd" clip-rule="evenodd" d="M45.5444 125.981C45.9955 126.404 46.7004 126.432 47.1516 125.981L56.0899 117.212C57.4997 115.859 58.5994 114.195 59.3325 112.39C60.0656 110.586 60.4322 108.64 60.3758 106.667L60.1502 96.7696C60.122 96.1492 59.6145 95.6699 58.9942 95.6699C58.3738 95.6981 57.8663 96.2055 57.8945 96.8259L58.1201 106.723C58.1765 108.387 57.8663 110.022 57.246 111.545C56.6256 113.067 55.6952 114.449 54.5391 115.605L55.3004 116.423H55.3286L54.5391 115.605L45.5726 124.374C45.1214 124.797 45.1214 125.53 45.5444 125.981Z" fill="#F9F7F1"/>
<path d="M149.28 128.773L88.6012 127.955C88.6012 127.955 88.432 116.789 96.2707 116.366C95.6503 108.528 102.192 104.636 107.662 107.879C109.41 95.4161 122.775 95.2186 128.387 102.606C140.85 98.6586 146.179 109.543 144.712 114.167C153.228 116.084 153.03 128.998 153.03 128.998L149.28 128.773Z" fill="#F8F7FF"/>
<path d="M123.424 174.761C123.395 175.24 123.001 175.607 122.493 175.607C122.014 175.579 121.647 175.156 121.675 174.676L123.424 174.761ZM135.464 118.283C135.548 117.776 135.971 117.437 136.451 117.494C136.93 117.578 137.296 118.001 137.212 118.481L135.464 118.283ZM121.647 174.733L123.029 142.561L124.777 142.645L123.395 174.789L121.647 174.733ZM123.029 142.589C123.114 140.559 123.734 138.585 124.805 136.865L126.3 137.795C125.397 139.262 124.89 140.925 124.805 142.645L123.029 142.589ZM124.777 136.893C125.849 135.173 127.343 133.735 129.119 132.776L129.965 134.327C128.471 135.145 127.202 136.357 126.3 137.824L124.777 136.893ZM129.091 132.776L129.514 132.551L130.36 134.102L129.965 134.327L129.091 132.776ZM129.486 132.551C130.868 131.789 132.052 130.69 132.954 129.393L134.42 130.38C133.349 131.93 131.967 133.199 130.332 134.102L129.486 132.551ZM132.954 129.393C133.828 128.067 134.42 126.573 134.618 124.994L136.366 125.22C136.112 127.081 135.464 128.829 134.42 130.38L132.954 129.393ZM134.59 125.022L135.435 118.34L137.184 118.537L136.338 125.22L134.59 125.022ZM124.016 150.935C124.382 151.217 124.495 151.781 124.185 152.176C123.903 152.57 123.367 152.655 122.973 152.345L124.016 150.935ZM111.243 136.301C111.102 135.85 111.384 135.342 111.835 135.201C112.314 135.06 112.794 135.342 112.935 135.793L111.243 136.301ZM122.944 152.345L115.839 147.157L116.882 145.719L123.988 150.935L122.944 152.345ZM115.839 147.128C114.711 146.311 113.893 145.155 113.498 143.801L115.19 143.294C115.472 144.281 116.064 145.126 116.882 145.719L115.839 147.128ZM113.498 143.801L111.243 136.273L112.935 135.765L115.162 143.294L113.498 143.801ZM127.879 135.483C127.851 135.962 127.456 136.357 126.976 136.329C126.497 136.329 126.102 135.906 126.102 135.427L127.879 135.483ZM126.751 111.037C126.751 110.557 127.146 110.163 127.653 110.191C128.133 110.191 128.527 110.586 128.499 111.093L126.751 111.037ZM126.131 135.427L126.751 111.037L128.527 111.065L127.907 135.483L126.131 135.427ZM125.538 137.598C125.905 137.88 125.99 138.444 125.708 138.839C125.397 139.205 124.833 139.29 124.467 138.98L125.538 137.598ZM111.581 117.607C111.525 117.127 111.891 116.704 112.371 116.648C112.85 116.591 113.301 116.958 113.329 117.437L111.581 117.607ZM124.467 139.036L116.685 133.086L117.756 131.677L125.538 137.626L124.467 139.036ZM116.685 133.086C115.472 132.156 114.457 131 113.696 129.647L115.247 128.801C115.867 129.929 116.713 130.915 117.756 131.705L116.685 133.086ZM113.696 129.647C112.963 128.293 112.483 126.827 112.342 125.304L114.091 125.135C114.232 126.404 114.626 127.645 115.247 128.772L113.696 129.647ZM112.342 125.304L111.581 117.607L113.329 117.437L114.091 125.135L112.342 125.304Z" fill="#F9F7F1"/>
<path d="M49.069 175.381C49.069 175.381 58.4867 161.931 53.9752 159.027C49.4637 156.151 42.9503 175.325 42.9503 175.325L49.069 175.381ZM191.941 175.381C191.941 175.381 201.359 161.903 196.847 159.027C192.336 156.123 185.823 175.297 185.823 175.297L191.941 175.381Z" fill="#834DAD"/>
<path d="M187.909 175.184C195.663 157.928 196.058 150.117 192.308 147.185C188.558 144.28 180.043 171.969 180.043 171.969C180.043 171.969 181.678 156.574 175.898 155.7C170.146 154.826 174.065 175.381 174.065 175.381L187.909 175.184Z" fill="#AF92DE"/>
<path d="M190.784 154.008C190.84 153.867 191.009 153.783 191.15 153.839C191.291 153.895 191.348 154.064 191.291 154.205L190.784 154.008ZM183.622 175.325C183.594 175.466 183.453 175.579 183.312 175.55C183.143 175.522 183.058 175.353 183.086 175.212L183.622 175.325ZM191.038 154.121C191.291 154.234 191.291 154.234 191.291 154.234C191.291 154.252 191.291 154.271 191.291 154.29C191.273 154.328 191.254 154.375 191.235 154.431C191.179 154.563 191.103 154.751 191.009 154.995C190.812 155.474 190.53 156.179 190.192 157.025C189.515 158.717 188.641 161.001 187.71 163.426C186.78 165.851 185.85 168.36 185.088 170.503C184.355 172.674 183.791 174.423 183.622 175.325L183.058 175.212C183.227 174.281 183.819 172.477 184.581 170.334C185.314 168.163 186.272 165.653 187.175 163.228C188.105 160.803 189.008 158.52 189.684 156.828C189.994 155.954 190.276 155.277 190.474 154.769C190.568 154.525 190.643 154.346 190.699 154.234C190.718 154.158 190.737 154.102 190.756 154.064C190.756 154.046 190.765 154.036 190.784 154.036C190.784 154.036 190.784 154.036 191.038 154.121ZM175.163 159.704C175.163 159.563 175.276 159.422 175.445 159.422C175.586 159.422 175.727 159.535 175.727 159.704H175.163ZM177.419 175.099C177.447 175.24 177.391 175.409 177.221 175.466C177.08 175.494 176.911 175.438 176.883 175.268L177.419 175.099ZM175.445 159.704C175.727 159.676 175.727 159.676 175.727 159.676C175.727 159.676 175.727 159.685 175.727 159.704C175.727 159.704 175.727 159.713 175.727 159.732C175.727 159.751 175.727 159.779 175.727 159.817C175.746 159.911 175.755 160.042 175.755 160.211C175.755 160.522 175.783 161.001 175.812 161.593C175.868 162.749 175.981 164.356 176.093 166.048C176.234 167.768 176.404 169.573 176.629 171.208C176.855 172.815 177.109 174.225 177.419 175.099L176.883 175.297C176.545 174.338 176.291 172.9 176.065 171.264C175.84 169.629 175.671 167.796 175.558 166.104C175.417 164.384 175.304 162.777 175.248 161.621C175.219 161.029 175.191 160.55 175.191 160.24C175.191 160.07 175.182 159.939 175.163 159.845C175.163 159.807 175.163 159.77 175.163 159.732C175.163 159.713 175.163 159.704 175.163 159.704C175.163 159.704 175.163 159.704 175.445 159.704Z" fill="#834DAD"/>
<path d="M30.1497 175.156C21.2113 155.334 20.7884 146.339 25.1025 143.012C29.4165 139.656 39.2008 171.462 39.2008 171.462C39.2008 171.462 37.3398 153.755 43.9378 152.739C50.564 151.753 46.0525 175.41 46.0525 175.41L30.1497 175.156Z" fill="#AF92DE"/>
<path d="M26.2586 151.048C26.174 150.879 26.2586 150.681 26.4278 150.625C26.5969 150.569 26.7943 150.653 26.8507 150.822L26.2586 151.048ZM35.7326 175.156C35.7608 175.325 35.648 175.494 35.4507 175.523C35.2815 175.579 35.1123 175.466 35.0841 175.269L35.7326 175.156ZM26.5687 150.907C26.8789 150.794 26.8789 150.794 26.8789 150.794C26.8789 150.794 26.8789 150.804 26.8789 150.822C26.8789 150.822 26.8789 150.832 26.8789 150.851C26.8977 150.888 26.9259 150.945 26.9635 151.02C27.0199 151.17 27.1045 151.386 27.2173 151.668C27.4428 152.232 27.753 153.022 28.1477 154.009C28.909 155.954 29.9523 158.605 30.9956 161.368C32.0671 164.159 33.1386 167.064 34.0127 169.545C34.8585 172.026 35.5353 174.085 35.7326 175.156L35.0841 175.297C34.9149 174.254 34.2664 172.224 33.3923 169.742C32.5182 167.289 31.4467 164.385 30.4035 161.594C29.332 158.83 28.3169 156.18 27.5274 154.234C27.1609 153.276 26.8225 152.458 26.6251 151.922C26.5123 151.64 26.4184 151.424 26.3432 151.274C26.3244 151.198 26.3056 151.142 26.2868 151.104C26.2868 151.086 26.2774 151.067 26.2586 151.048C26.2586 151.048 26.2586 151.048 26.5687 150.907ZM44.1634 157.308C44.1634 157.138 44.3044 156.998 44.5018 156.998C44.671 157.026 44.812 157.167 44.812 157.336L44.1634 157.308ZM42.8382 175.269C42.7818 175.438 42.6126 175.523 42.4434 175.466C42.2742 175.41 42.1615 175.213 42.2179 175.043L42.8382 175.269ZM44.4736 157.336C44.8119 157.364 44.812 157.364 44.812 157.364C44.812 157.383 44.812 157.392 44.812 157.392C44.812 157.43 44.812 157.467 44.812 157.505C44.7932 157.618 44.7837 157.768 44.7837 157.956C44.7555 158.323 44.7274 158.887 44.6992 159.563C44.6428 160.889 44.53 162.75 44.3608 164.695C44.2198 166.669 44.0224 168.784 43.7687 170.645C43.5149 172.534 43.2047 174.197 42.8382 175.269L42.2179 175.071C42.5844 174.056 42.8664 172.421 43.1202 170.56C43.3739 168.699 43.5713 166.612 43.7123 164.667C43.8815 162.693 43.9942 160.86 44.0506 159.535C44.0788 158.859 44.107 158.295 44.1352 157.928C44.1352 157.74 44.1446 157.59 44.1634 157.477C44.1634 157.439 44.1634 157.402 44.1634 157.364C44.1634 157.364 44.1634 157.355 44.1634 157.336C44.1634 157.336 44.1634 157.336 44.4736 157.336Z" fill="#834DAD"/>
<path d="M204.121 174.817C204.431 174.817 204.685 175.071 204.685 175.381C204.685 175.691 204.431 175.945 204.121 175.945V174.817ZM1.021 175.945C0.710831 175.945 0.457062 175.691 0.457062 175.381C0.457062 175.071 0.710831 174.817 1.021 174.817V175.945ZM204.121 175.945C121.664 190.45 77.2486 190.05 1.021 175.945V174.817H204.121V175.945Z" fill="#9571CE"/>
<path d="M101.938 37.1897C104.194 28.9281 101.036 25.3471 92.1538 24.6704C83.2436 23.9655 77.7453 26.475 78.4784 31.4376C79.2397 36.372 83.6384 39.5019 83.6384 39.5019L101.938 37.1897Z" fill="#B07FFF"/>
<path d="M99.3721 36.0331C101.12 29.6043 98.6954 26.841 91.7872 26.3053C84.879 25.7696 80.5931 27.715 81.1853 31.5497C81.7774 35.3845 85.1892 37.8377 85.1892 37.8377L99.3721 36.0331Z" fill="#833ACD"/>
<path d="M85.8652 31.0145V83.0372H100.866L100.612 77.5671L100.556 76.2701L100.274 69.6156L100.217 68.3187L99.9071 61.6643L99.8789 60.3672L99.5688 53.7128L99.5124 52.4157L99.2304 45.7332L99.174 44.4643L98.892 37.7817L98.8356 36.4846L98.6947 33.3267L96.7773 32.4808L95.0573 31.7194L88.1773 30.3096L85.8652 31.0145Z" fill="#F9F7F1"/>
<path d="M85.8652 36.4851V37.7822H98.892L98.8356 36.4851H85.8652ZM85.8652 44.4648V45.7337H99.2304L99.174 44.4648H85.8652ZM85.8652 52.4162V53.7133H99.5688L99.5124 52.4162H85.8652ZM85.8652 60.3677V61.6648H99.9071L99.8789 60.3677H85.8652ZM85.8652 68.3192V69.6161H100.274L100.217 68.3192H85.8652ZM85.8652 76.2706V77.5676H100.612L100.556 76.2706H85.8652Z" fill="#CFD7FF"/>
<path d="M111.863 68.5444C111.046 71.0257 107.549 78.3004 107.408 80.0486C107.239 82.0223 112.145 87.267 113.724 86.3365C114.824 85.688 118.461 79.1182 120.435 74.2402C121.337 72.0408 121.873 70.208 121.704 69.4185C121.591 68.9956 121.281 67.8677 120.773 66.3169C118.405 58.7884 112.004 40.7707 107.38 37.1897L104.56 53.6566C104.56 53.6566 106.083 56.3635 107.803 59.4087C108.762 61.1287 109.749 62.9615 110.538 64.4841C110.707 64.7943 110.848 65.1045 110.989 65.3582C111.44 66.1477 111.807 66.9936 112.032 67.8395C112.014 68.0838 111.957 68.3282 111.863 68.5726V68.5444Z" fill="#B07FFF"/>
<path d="M106.28 98.0941C106.28 98.0941 108.677 98.7426 109.438 97.6993C110.171 96.6843 110.876 92.06 110.876 92.06C110.876 92.06 111.637 91.6935 112.201 89.0148C112.765 86.3362 113.076 82.445 110.651 80.9788C109.128 79.0896 106.703 80.0765 106.703 80.0765L106.618 83.5165L106.28 98.0941Z" fill="#FF99A8"/>
<path d="M106.28 98.123C106.28 98.123 108.676 98.7433 109.438 97.7001C110.171 96.685 110.876 92.0607 110.876 92.0607C109.184 92.3427 109.325 91.0739 109.438 88.1414C108.902 88.9027 108.112 90.6509 108.451 88.1414C108.789 85.6037 109.015 82.8404 107.407 83.0378C107.097 83.1224 106.815 83.2635 106.618 83.5172L106.28 98.123Z" fill="#F76984"/>
<path d="M107.408 37.1893L98.6956 33.3264L100.867 83.037H108.198L107.408 37.1893ZM75.6872 34.2006V83.0652H85.8943V31.0425L85.2176 31.2399L75.6872 34.2006Z" fill="#B07FFF"/>
<path d="M75.6586 52.4156V83.0372H85.8658V66.1192C82.5668 59.8032 79.7189 53.0361 79.014 47.4531L75.6586 52.4156Z" fill="#833ACD"/>
<path d="M85.8655 66.1191V83.0371H96.2701C92.4636 77.6234 88.9954 71.9558 85.8655 66.1191Z" fill="#D6CCFF"/>
<path d="M107.774 48.0454V59.3805C108.733 61.1005 109.748 62.9333 110.537 64.4841C110.932 58.45 107.774 48.0454 107.774 48.0454ZM112.06 67.8395C112.022 68.0839 111.966 68.3188 111.891 68.5444C112.004 68.347 114.203 65.4145 114.287 64.1175C114.316 63.2434 112.314 64.4559 110.988 65.33C111.44 66.1195 111.806 66.9654 112.06 67.8395ZM120.462 74.2402C121.337 72.0408 121.901 70.1798 121.731 69.4185C121.619 68.9674 121.308 67.8677 120.801 66.2887C120.096 67.2192 119.645 68.3188 119.447 69.4748C119.278 70.2925 119.306 71.1385 119.476 71.9562C119.645 72.7739 119.983 73.5353 120.462 74.2402Z" fill="#833ACD"/>
<path d="M101.289 36.1181C101.289 35.9772 101.43 35.8362 101.571 35.8362C101.74 35.8362 101.853 35.9772 101.853 36.1181H101.289ZM101.853 50.6676C101.853 50.8086 101.74 50.9496 101.571 50.9496C101.43 50.9496 101.289 50.8086 101.289 50.6676H101.853ZM101.853 36.1181V50.6676H101.289V36.1181H101.853ZM83.0176 36.1181C83.0176 35.9772 83.1586 35.8362 83.2996 35.8362C83.4687 35.8362 83.5815 35.9772 83.5815 36.1181H83.0176ZM83.5815 50.6676C83.5815 50.8086 83.4687 50.9496 83.2996 50.9496C83.1586 50.9496 83.0176 50.8086 83.0176 50.6676H83.5815ZM83.5815 36.1181V50.6676H83.0176V36.1181H83.5815Z" fill="#F9F7F1"/>
<path d="M65.2262 164.526H75.8281C75.8281 164.526 83.2438 139.6 84.6537 134.073C86.0635 128.547 88.9396 119.806 88.9396 119.806L89.3061 127.842L89.3343 128.716C88.0373 134.637 90.4058 165.569 90.4058 165.569H102.136L104.419 134.581L105.322 122.259L108.17 83.5168L108.198 83.0374H75.6872C75.3206 84.5036 74.8694 87.3515 74.4465 90.7351C73.2058 100.294 71.8806 114.251 71.8806 114.251C71.8806 114.251 70.1888 119.242 68.1305 130.802C66.0721 142.363 65.2262 164.526 65.2262 164.526Z" fill="#3E2863"/>
<path d="M74.4465 90.7351C79.1835 91.8066 86.712 95.0491 86.712 95.0491L94.1277 92.0603C94.1277 92.0603 91.0543 86.6183 91.7874 85.1239C92.4641 83.714 100.387 83.3476 108.17 83.5168L108.198 83.0374H75.6872C75.3206 84.5036 74.8694 87.3515 74.4465 90.7351ZM88.9396 119.806L89.3061 127.842C91.4491 119.073 95.4248 106.779 94.4943 102.042L88.9396 119.806ZM79.4373 127.729C78.7606 131.141 79.6065 134.214 81.3265 134.581C83.0465 134.947 85.0202 132.41 85.697 128.998C86.3737 125.558 85.5278 122.513 83.7796 122.146C82.0596 121.808 80.114 124.289 79.4373 127.729ZM103.856 134.665C104.044 134.665 104.241 134.637 104.448 134.581L105.35 122.259C105.124 122.118 104.842 122.033 104.589 122.033C102.812 121.921 101.233 124.656 101.036 128.152C100.81 131.648 102.079 134.553 103.856 134.665Z" fill="#30154C"/>
<path d="M100.98 166.725L111.018 171.293C111.384 171.462 111.723 171.716 111.948 172.083C112.146 172.421 112.287 172.816 112.287 173.239C112.287 173.803 112.061 174.339 111.638 174.761C111.243 175.156 110.708 175.382 110.144 175.382H91.816C91.5058 175.382 91.1674 175.325 90.8855 175.184C90.6035 175.043 90.3497 174.846 90.1242 174.592C89.9268 174.339 89.7858 174.028 89.7012 173.718C89.6448 173.408 89.6448 173.098 89.7012 172.759L91.111 166.556H100.049C100.36 166.528 100.67 166.613 100.98 166.725Z" fill="#281A47"/>
<path d="M90.463 164.187H102.672C103.123 164.187 103.462 164.554 103.462 165.005V166.584C103.462 167.035 103.123 167.402 102.672 167.402H90.463C90.0401 167.402 89.6735 167.035 89.6735 166.584V165.005C89.6735 164.554 90.0401 164.187 90.463 164.187Z" fill="#775699"/>
<path d="M75.4037 166.725L85.4417 171.293C85.8364 171.462 86.1466 171.716 86.3722 172.083C86.5977 172.421 86.7105 172.816 86.7105 173.239C86.7105 173.521 86.6541 173.793 86.5414 174.057C86.4286 174.32 86.2782 174.555 86.0902 174.761C85.8834 174.949 85.6484 175.1 85.3853 175.213C85.1221 175.325 84.8496 175.382 84.5676 175.382H66.2398C65.9296 175.382 65.5913 175.325 65.3093 175.184C65.0273 175.043 64.7736 174.846 64.5762 174.592C64.3506 174.339 64.2096 174.028 64.1532 173.718C64.0686 173.408 64.0687 173.098 64.125 172.759L65.5349 166.556H74.4732C74.7834 166.528 75.1217 166.613 75.4037 166.725Z" fill="#281A47"/>
<path d="M64.6611 164.187H76.8702C77.2932 164.187 77.6597 164.554 77.6597 165.005V166.584C77.6597 167.035 77.2932 167.401 76.8702 167.401H64.6611C64.2099 167.401 63.8716 167.035 63.8716 166.584V165.005C63.8716 164.554 64.2099 164.187 64.6611 164.187Z" fill="#775699"/>
<path d="M88.8847 25.1217C84.5988 25.7138 83.8375 22.0765 83.3299 19.9618C82.8506 17.8752 80.2283 13.2791 81.046 11.1644C81.8355 9.04962 83.6401 9.83907 83.6401 9.83907C83.6401 9.83907 81.8355 6.73753 83.1608 3.72049C84.4578 0.731649 86.9955 0.449656 91.3096 1.29555C95.6519 2.14145 104.929 2.16965 107.043 0.731622C109.158 -0.734602 110.117 3.12839 108.566 5.15855C107.015 7.1887 104.308 8.48569 104.308 8.48569C104.308 8.48569 106.564 7.63985 107.071 8.68312C107.579 9.6982 107.184 12.2922 102.137 13.4201C99.2892 14.0122 96.526 15.0837 93.9883 16.5217L88.8847 25.1217Z" fill="#50326D"/>
<path d="M86.9365 31.7191C86.9365 31.7191 87.3031 33.552 90.9969 34.4825C94.6624 35.4411 95.5083 33.6366 95.5083 33.6366L95.8185 31.7191L96.3824 27.9972L87.5569 22.3579V22.4142C87.6697 22.7338 87.7261 23.0722 87.7261 23.4293C87.9234 26.0798 86.9365 31.7191 86.9365 31.7191Z" fill="#F76984"/>
<path d="M87.5569 22.3579V22.386C87.5851 22.668 87.6415 23.0063 87.7261 23.4011C88.29 25.8824 90.0664 30.563 95.7903 31.7191L96.3824 27.969L87.5569 22.3579Z" fill="#CE3A5E"/>
<path d="M102.219 11.4744C103.375 14.3222 102.191 16.2114 102.219 17.8186C102.248 19.454 103.46 29.0408 97.0876 29.351C90.7434 29.6893 85.9218 21.174 85.9218 21.174L85.4142 20.5536C85.4142 20.5536 85.0195 21.9635 82.9047 21.033C80.7618 20.0743 81.4667 16.4651 83.0175 16.2396C84.5683 16.014 86.7959 19.0875 86.7959 19.0875L88.5159 12.4048C88.5159 12.4048 95.9316 13.5891 102.219 11.4744Z" fill="#FF99A8"/>
<path d="M92.6049 22.6405C91.759 22.6405 91.0541 22.133 91.0541 21.5126C91.0541 20.8923 91.759 20.3848 92.6049 20.3848C93.4508 20.3848 94.1275 20.8923 94.1275 21.5126C94.1275 22.133 93.4508 22.6405 92.6049 22.6405ZM100.613 22.6405C99.7668 22.6405 99.0619 22.133 99.0619 21.5126C99.0619 20.8923 99.7668 20.3848 100.613 20.3848C101.459 20.3848 102.135 20.8923 102.135 21.5126C102.135 22.133 101.459 22.6405 100.613 22.6405Z" fill="#FF859C"/>
<path d="M82.9894 18.7485C83.0176 18.8895 82.9048 19.0022 82.792 19.0304C82.651 19.0586 82.51 18.9741 82.4819 18.8331L82.9894 18.7485ZM84.3992 20.1865C84.2864 20.2429 84.1173 20.2148 84.0609 20.102C83.9763 19.9892 84.0045 19.82 84.1173 19.7636L84.3992 20.1865ZM82.5382 18.8331C82.4537 18.3256 82.5101 17.9308 82.7356 17.6771C82.9612 17.3951 83.2714 17.3669 83.5815 17.3951L83.4969 17.8743C83.2996 17.8743 83.1586 17.9027 83.1022 17.9872C83.0176 18.0718 82.933 18.2973 83.0176 18.7485L82.5382 18.8331ZM83.5815 17.3951C83.6943 17.3951 83.8071 17.4797 83.8917 17.5361C83.9857 17.5925 84.0797 17.677 84.1736 17.7898C84.3428 17.9872 84.5402 18.241 84.653 18.523C84.794 18.7767 84.8786 19.0869 84.8504 19.3971C84.8504 19.7072 84.7094 19.9891 84.4274 20.1865L84.1455 19.7636C84.2864 19.679 84.3428 19.538 84.371 19.3688C84.371 19.1715 84.3146 18.9458 84.2019 18.7202C84.0891 18.4947 83.9481 18.2692 83.8071 18.1282C83.7319 18.0342 83.6661 17.9684 83.6097 17.9308C83.5909 17.912 83.5721 17.9026 83.5533 17.9026C83.5345 17.8838 83.5251 17.8743 83.5251 17.8743L83.5815 17.3951ZM97.2287 18.241C97.2287 18.1 97.3415 17.9872 97.4825 17.9872C97.6234 17.9872 97.7362 18.1 97.7362 18.241H97.2287ZM97.4543 19.9891L97.2851 20.1583C97.2475 20.1019 97.2287 20.0455 97.2287 19.9891H97.4543ZM96.7493 21.6246C96.6084 21.6246 96.4956 21.5118 96.4956 21.3708C96.4956 21.2299 96.6084 21.117 96.7493 21.117V21.6246ZM97.6798 18.241V19.9891H97.1723V18.241H97.6798ZM97.6234 19.82L98.272 20.4685L97.9336 20.835L97.2569 20.1583L97.6234 19.82ZM98.3002 20.4967C98.3942 20.5907 98.4505 20.7034 98.4693 20.835L97.99 20.9197C97.99 20.8821 97.9712 20.8538 97.9336 20.835L98.3002 20.4967ZM98.4975 20.835C98.5163 20.9666 98.4975 21.0983 98.4411 21.2299L97.99 21.0324C98.0088 20.9948 98.0088 20.9573 97.99 20.9197L98.4975 20.835ZM98.4693 21.2299C98.4129 21.3614 98.3283 21.4647 98.2156 21.5399L97.9336 21.117C97.9712 21.0982 97.9994 21.07 98.0182 21.0324L98.4693 21.2299ZM98.2156 21.5399C98.1028 21.6151 97.9806 21.6528 97.849 21.6528V21.1452C97.8866 21.1452 97.9148 21.1358 97.9336 21.117L98.2156 21.5399ZM97.849 21.6528H96.8057V21.1734H97.849V21.6528Z" fill="#F76984"/>
<path d="M97.173 23.9089C97.3139 23.8525 97.4549 23.9089 97.5113 24.0499C97.5677 24.1626 97.5113 24.3035 97.3703 24.3599L97.173 23.9089ZM93.7896 23.6269C93.6769 23.5424 93.7051 23.3731 93.8178 23.2886C93.9024 23.204 94.0716 23.204 94.1562 23.3168L93.7896 23.6269ZM97.2857 24.1344C97.3703 24.3599 97.3703 24.3599 97.3703 24.3599C97.3515 24.3599 97.3421 24.3599 97.3421 24.3599C97.3233 24.3787 97.2951 24.3881 97.2576 24.3881C97.2012 24.4069 97.1166 24.4352 97.0038 24.4728C96.7782 24.5292 96.4681 24.5855 96.1298 24.6137C95.3967 24.6137 94.4945 24.4446 93.7896 23.6269L94.1562 23.2886C94.7482 23.9652 95.4813 24.1344 96.1016 24.1062C96.4117 24.1062 96.6937 24.0498 96.891 23.9934C96.985 23.9746 97.0602 23.9558 97.1166 23.937C97.1354 23.9182 97.1542 23.9089 97.173 23.9089C97.173 23.9089 97.173 23.9088 97.2857 24.1344Z" fill="#E5456C"/>
<path d="M93.3936 19.341C93.027 19.341 92.7451 19.0309 92.7451 18.6643C92.7451 18.2978 93.027 17.9876 93.3936 17.9876C93.7883 17.9876 94.0703 18.2978 94.0703 18.6643C94.0703 19.0309 93.7883 19.341 93.3936 19.341ZM99.625 18.6643C99.625 18.7959 99.6626 18.918 99.7378 19.0308C99.813 19.1436 99.9164 19.2282 100.048 19.2846C100.161 19.341 100.292 19.3598 100.443 19.341C100.574 19.3034 100.687 19.2376 100.781 19.1436C100.875 19.0496 100.941 18.9369 100.978 18.8053C100.997 18.6549 100.978 18.5234 100.922 18.4106C100.866 18.279 100.781 18.1756 100.668 18.1004C100.556 18.0252 100.433 17.9876 100.302 17.9876C100.104 17.9876 99.9352 18.0439 99.8224 18.1849C99.6814 18.2977 99.625 18.467 99.625 18.6643ZM95.1418 15.8447C95.3109 15.9011 95.3673 16.0702 95.3109 16.2112C95.2545 16.3522 95.0854 16.4368 94.9444 16.3804L95.1418 15.8447ZM91.8992 16.4368C91.7582 16.4932 91.589 16.4368 91.5044 16.2958C91.448 16.1549 91.5044 15.9856 91.6454 15.9292L91.8992 16.4368ZM94.9162 16.3522C94.4369 16.1548 93.9293 16.042 93.3936 16.0702V15.5063C93.9857 15.4781 94.5778 15.5909 95.1418 15.8447L94.9162 16.3522ZM93.3936 16.042C92.886 16.0702 92.3503 16.183 91.8992 16.4086L91.6454 15.901C92.1811 15.6472 92.7732 15.5062 93.3936 15.478V16.042ZM98.7509 16.3522C98.6099 16.4085 98.4408 16.3239 98.3844 16.1829C98.328 16.042 98.3844 15.8728 98.5254 15.8164L98.7509 16.3522ZM102.022 15.9292C102.163 15.9856 102.219 16.1549 102.163 16.2958C102.078 16.4368 101.909 16.4932 101.768 16.4368L102.022 15.9292ZM98.5536 15.8447C99.0893 15.5909 99.7096 15.4781 100.302 15.5063L100.274 16.0702C99.766 16.0702 99.2303 16.1548 98.7509 16.3522L98.5536 15.8447ZM100.33 15.5063C100.922 15.5344 101.514 15.6754 102.05 15.9292L101.796 16.4368C101.345 16.2112 100.837 16.0984 100.302 16.0702L100.33 15.5063Z" fill="#50326D"/>
<path d="M90.264 96.1199C86.4293 94.6537 82.4818 96.4866 80.085 99.0525C78.8726 100.35 78.1113 101.788 77.9421 102.972C77.8575 103.536 77.9139 104.043 78.1113 104.466C78.3086 104.861 78.6188 105.199 79.1545 105.453L78.6752 106.496C77.9421 106.13 77.4064 105.594 77.0962 104.946C76.786 104.269 76.7296 103.536 76.8424 102.803C77.0398 101.308 77.9421 99.701 79.2391 98.2911C81.8332 95.4997 86.2601 93.385 90.687 95.0767L90.264 96.1199ZM79.1545 105.453C79.7185 105.735 80.1132 105.763 80.4234 105.679C80.7336 105.594 81.0155 105.397 81.3257 105.03C81.6359 104.664 81.9178 104.184 82.1998 103.564C82.4818 102.972 82.7637 102.295 83.0739 101.59C83.6942 100.18 84.4273 98.6013 85.5552 97.4452C86.7394 96.2328 88.2903 95.4433 90.4896 95.5279L90.4332 96.6558C88.5722 96.5712 87.3316 97.2197 86.3729 98.2066C85.386 99.2217 84.7375 100.631 84.1171 102.041C83.807 102.718 83.525 103.423 83.2149 104.071C82.9047 104.692 82.5945 105.284 82.1998 105.763C81.805 106.243 81.2975 106.637 80.6772 106.778C80.0568 106.919 79.3801 106.807 78.6752 106.468L79.1545 105.453ZM90.4896 95.5279C94.7191 95.7253 98.0745 97.8118 100.612 101.28C103.15 104.72 104.87 109.542 105.913 115.266L104.813 115.463C103.798 109.824 102.107 105.199 99.7099 101.957C97.3132 98.7141 94.2679 96.8532 90.4332 96.6558L90.4896 95.5279ZM105.913 115.266C106.928 120.792 110.932 127.052 116.318 131.986C121.703 136.92 128.358 140.389 134.533 140.473L134.505 141.601C127.935 141.517 121.055 137.851 115.556 132.804C110.058 127.785 105.885 121.3 104.813 115.463L105.913 115.266ZM134.533 140.502C140.877 140.586 147.813 139.881 153.199 139.148C155.878 138.781 158.19 138.415 159.797 138.133C160.615 137.992 161.235 137.879 161.686 137.795C161.912 137.757 162.081 137.729 162.194 137.71C162.25 137.691 162.288 137.682 162.306 137.682C162.325 137.682 162.335 137.682 162.335 137.682C162.335 137.682 162.344 137.682 162.363 137.682C162.363 137.682 162.363 137.682 162.476 138.218C162.56 138.782 162.56 138.782 162.56 138.782C162.56 138.782 162.551 138.782 162.532 138.782C162.494 138.8 162.447 138.81 162.391 138.81C162.278 138.829 162.109 138.866 161.883 138.922C161.432 139.007 160.812 139.12 159.994 139.261C158.359 139.543 156.047 139.909 153.34 140.276C147.954 141.009 140.933 141.714 134.505 141.629L134.533 140.502Z" fill="#281A47"/>
<path d="M91.1381 90.3115C91.1381 90.3115 95.1702 92.4826 95.1984 93.0183C95.2548 93.5258 96.3263 97.3042 95.1984 97.135C94.0706 96.994 90.4614 95.5842 90.4614 95.5842L89.7001 92.1724L91.1381 90.3115Z" fill="#F76984"/>
<path d="M89.4472 87.5488C91.0262 89.2406 94.2689 94.7108 94.9174 96.0643C95.5941 97.4177 96.9757 99.8707 95.8479 100.773C95.5659 100.999 95.1712 101.14 94.7764 101.14C94.3817 101.14 94.0151 100.999 93.7049 100.773C93.7049 100.773 93.2256 101.816 90.9417 101.563C88.6295 101.309 87.699 100.068 87.699 100.068C87.3043 99.9835 86.9377 99.8144 86.6276 99.5324C86.3456 99.2504 86.1482 98.884 86.0636 98.4892C85.7817 97.0512 85.105 94.2878 85.2177 93.3574C85.3023 92.3987 85.2177 89.8892 85.2177 89.8892L89.4472 87.5488Z" fill="#FF99A8"/>
<path d="M68.2156 53.4586C68.272 56.0809 68.3848 59.1825 68.6386 62.0585C68.9487 65.1602 69.4281 67.9799 70.1894 69.6999C70.4431 70.2356 70.8661 71.1378 71.43 72.3221C74.4189 78.5817 81.2706 92.2289 83.2444 92.0597C85.5847 91.8905 90.6601 88.5915 90.4627 87.5483C90.2654 86.5332 79.0149 66.5136 78.7329 62.4533C78.451 58.4212 80.8477 35.6947 75.6595 34.1721C68.2156 37.9505 68.131 47.9038 68.2156 53.4586Z" fill="#B07FFF"/>
<path d="M68.6388 62.0589C68.9489 65.1605 69.4283 67.9802 70.1896 69.7002C70.4433 70.236 70.8663 71.1382 71.4302 72.3225C73.263 71.7021 74.2217 69.108 73.5732 66.3729C72.9246 63.4969 70.7817 61.5513 68.7797 62.0025L68.6388 62.0589Z" fill="#833ACD"/>
<path d="M173.049 154.967L182.58 172.279C182.58 172.279 184.554 172.082 185.089 172.279C185.625 172.449 187.543 175.691 187.543 175.691H181.001L164.816 161.227L173.049 154.967Z" fill="#252727"/>
<path d="M178.265 140.586C178.209 143.603 177.899 146.592 177.307 149.553C176.856 151.95 176.038 154.262 174.91 156.405C173.077 159.816 167.184 162.1 164.224 163.059C163.688 163.228 163.265 163.341 162.955 163.426C162.081 163.651 159.374 163.426 156.469 163.003C152.55 162.495 148.292 161.677 147.757 161.508C146.826 161.198 134.589 146.282 134.589 146.282C136.196 145.295 137.888 144.449 139.636 143.716C142.371 142.617 159.966 144.562 161.686 144.449C163.378 144.308 167.184 139.797 167.184 139.797L178.265 140.586ZM163.97 149.102C163.97 149.102 157.992 154.6 157.456 156.066C156.892 157.532 155.539 172.026 155.539 172.026C155.539 172.026 150.294 171.377 151.309 175.719C151.309 175.719 157.992 174.507 159.289 174.056C160.558 173.605 165.154 160.296 165.154 160.296L170.822 158.096L163.97 149.102Z" fill="#424242"/>
<path d="M130.614 154.798C130.614 154.798 129.768 159.873 129.627 161.537C129.627 161.537 128.555 163.539 126.723 164.131C124.89 164.751 121.986 172.815 121.986 172.815H118.743C118.743 172.815 118.461 175.381 120.266 176.03C120.858 176.199 121.478 176.284 122.098 176.227C122.719 176.171 123.311 176.002 123.875 175.692C124.298 175.551 129.007 169.178 130.106 168.671C131.206 168.163 133.659 168.642 134.589 168.191C135.492 167.74 140.652 163.342 140.652 163.342L135.999 155.503L130.614 154.798Z" fill="#252727"/>
<path d="M136.929 146.705C136.817 147.72 136.422 148.707 135.801 149.525C135.209 150.371 134.392 151.019 133.461 151.442C129.908 149.158 127.23 145.747 125.82 141.771C125.463 140.756 125.2 139.712 125.03 138.641C124.523 135.568 124.777 132.381 125.792 129.421C125.904 129.11 126.074 128.772 126.384 128.716C126.948 128.603 127.145 129.421 127.117 129.985C127.089 132.945 127.765 135.906 129.119 138.556C130.811 142.024 133.546 144.872 136.929 146.705ZM193.605 133.368C193.529 133.725 193.407 134.073 193.238 134.411C193.153 134.637 192.984 134.863 192.787 135.032C192.307 135.426 190.644 136.075 188.586 136.836C184.948 138.162 180.098 139.769 178.237 140.587C177.974 140.68 177.73 140.821 177.504 141.009C176.912 141.799 173.303 142.673 173.303 142.673L167.128 139.91C167.128 139.91 168.707 129.844 170.173 128.434C171.639 127.052 179.845 124.74 181.254 125.642C182.636 126.516 184.751 128.434 186.358 128.716C187.965 128.969 193.21 127.221 193.492 127.391C193.802 127.56 194.056 131.084 193.605 133.368Z" fill="#424242"/>
<path d="M178.718 141.63L164.817 138.331L164.197 140.586L178.267 144.167L178.718 141.63Z" fill="#FF5656"/>
<path d="M170.173 128.461C170.173 128.461 162.616 133.932 161.77 136.131C160.896 138.33 161.573 142.672 162.983 142.672C164.392 142.701 169.44 141.939 170.173 140.671C171.047 139.204 172.851 131.168 172.626 130.125C172.372 129.054 170.173 128.461 170.173 128.461Z" fill="#161818"/>
<path d="M150.041 177.524H144.459C144.459 177.524 140.144 171.66 140.06 171.378C139.975 171.124 140.511 167.909 140.511 167.909C140.511 167.909 133.039 159.93 131.093 156.123C130.868 155.7 130.699 155.249 130.614 154.798C130.558 153.642 131.206 152.007 132.024 150.456C132.776 149.027 133.622 147.645 134.562 146.311C134.562 146.311 140.144 147.326 141.526 148.003C142.908 148.679 146.968 154.065 146.968 154.065C146.968 154.065 147.617 160.437 147.758 161.537C147.899 162.637 144.966 168.502 144.966 168.502L145.417 172.985C146.235 173.126 147.053 173.351 147.814 173.69C148.632 174.141 150.041 177.524 150.041 177.524Z" fill="#424242"/>
<path d="M134.193 151.668C132.614 152.57 131.092 156.123 131.092 156.123C130.866 155.7 130.697 155.249 130.612 154.798C130.556 153.642 131.204 152.006 132.022 150.456L134.193 151.668ZM159.909 153.078C159.711 153.388 156.497 158.689 156.469 163.031C152.549 162.496 148.32 161.706 147.756 161.509L147.136 155.616C147.136 155.616 149.109 158.633 150.068 159.366C151.027 160.099 153.649 160.578 154.382 160.578C155.115 160.578 157.484 156.067 157.484 156.067L159.909 153.078ZM177.306 149.553C176.855 151.95 176.037 154.262 174.909 156.405C173.076 159.817 167.183 162.101 164.223 163.06L164.166 163.003L165.153 160.268L170.821 158.069C170.821 158.069 176.714 151.302 177.306 149.553ZM179.872 138.613C179.336 138.641 178.039 137.739 178.236 137.542C178.8 137.26 179.374 137.034 179.956 136.865C179.768 136.808 179.599 136.714 179.449 136.583C179.298 136.432 179.195 136.263 179.139 136.075C179.618 136.019 188.585 136.865 188.585 136.865C184.975 138.19 180.097 139.769 178.236 140.615C178.265 139.882 179.872 138.613 179.872 138.613ZM129.09 138.557C127.793 139.008 126.355 139.036 125.001 138.67C124.494 135.568 124.747 132.41 125.762 129.449C125.875 129.139 126.044 128.801 126.355 128.744C126.919 128.631 127.116 129.421 127.116 129.985C127.06 132.974 127.764 135.906 129.09 138.557Z" fill="#FFA034"/>
<path d="M191.462 127.842C191.462 127.842 192.9 126.601 193.323 126.545C193.746 126.46 193.689 128.462 193.689 128.462C193.689 128.462 192.533 129.365 192.026 128.914C191.716 128.632 191.518 128.237 191.462 127.842ZM180.522 130.464C180.663 131.169 181.114 131.649 181.565 131.564C182.016 131.479 182.27 130.859 182.129 130.154C182.016 129.449 181.537 128.97 181.086 129.055C180.634 129.111 180.381 129.759 180.522 130.464Z" fill="#161818"/>
<path d="M179.789 129.985C180.015 130.21 180.297 130.351 180.579 130.38C180.889 130.408 181.199 130.351 181.481 130.21C181.255 130.013 180.974 129.872 180.663 129.816C180.353 129.787 180.043 129.844 179.789 129.985Z" fill="#F9F7F1"/>
<path d="M193.604 133.368C193.529 133.726 193.407 134.073 193.238 134.412C192.392 134.665 191.49 134.75 190.615 134.637C189.854 134.553 189.121 134.327 188.444 133.989C187.768 133.622 187.175 133.143 186.668 132.579C186.649 132.56 186.64 132.541 186.64 132.522C186.64 132.522 186.64 132.513 186.64 132.494C186.64 132.475 186.64 132.457 186.64 132.438C186.64 132.419 186.649 132.4 186.668 132.381C186.687 132.381 186.696 132.372 186.696 132.353C186.715 132.353 186.734 132.353 186.753 132.353C186.771 132.353 186.79 132.353 186.809 132.353C186.828 132.372 186.837 132.381 186.837 132.381C187.937 133.34 189.318 133.876 190.756 133.932C191.743 133.961 192.702 133.763 193.604 133.368Z" fill="#252727"/>
</svg>
