<svg width="251" height="213" viewBox="0 0 251 213" fill="none" xmlns="http://www.w3.org/2000/svg">
<path d="M123.708 182.971C191.841 182.971 247.062 189.627 247.062 197.836C247.062 206.045 191.841 212.7 123.708 212.7C55.5757 212.7 0.355225 206.045 0.355225 197.836C0.355225 189.627 55.5757 182.971 123.708 182.971Z" fill="#6A5177"/>
<path d="M116.165 103.546C116.165 103.546 116.032 114.306 111.95 124.179C111.95 124.179 107.668 142.46 109.953 148.14L149.666 147.918C149.666 147.918 143.21 124.201 140.792 120.185C140.792 120.185 135.112 105.321 135.023 102.215L133.027 105.765C133.027 105.765 132.516 111.511 131.917 112.198C131.917 112.198 128.789 118.344 124.374 111.533C124.374 111.533 118.14 103.014 116.165 103.546Z" fill="#DECDCD"/>
<path d="M137.241 111.755C137.241 111.755 134.291 122.959 128.145 122.848L121.268 119.52L118.827 126.619L119.049 138.378L110.175 148.583C110.175 148.583 108.067 135.915 112.171 125.51C112.171 125.51 116.254 106.319 116.165 103.546C116.165 103.546 119.959 105.654 121.268 107.318L123.264 109.98C123.264 109.98 128.7 119.098 131.473 111.755L133.026 106.208L134.357 102.215L137.241 110.424" fill="#BA9898"/>
<path d="M40.5118 26.1176C40.5118 26.1176 38.271 29.268 38.515 32.3297C38.515 32.3297 31.5265 35.7463 36.2965 42.5352C36.2965 42.5352 41.8651 51.9863 42.2866 54.5155C42.2866 54.5155 42.0648 63.6561 45.8364 55.1811C45.8364 55.1811 48.4765 48.3257 48.0549 38.9854L49.8298 40.0947C49.8298 40.0947 59.9909 70.4227 60.7009 76.0358L60.2571 83.1352L56.2637 106.43C56.2637 106.43 54.5332 118.522 59.3697 128.616C59.3697 128.616 55.4206 151.379 53.8233 153.242C53.8233 153.242 39.5356 138.067 37.1839 145.034C37.1839 145.034 32.5027 167.397 52.0484 182.084L55.1544 185.412C55.1544 185.412 26.335 190.226 20.9882 179.644C20.9882 179.644 9.40724 170.547 17.4385 154.795C25.4698 139.044 17.4385 153.908 17.4385 153.908C17.4385 153.908 24.5602 146.454 19.4352 145.699C19.4352 145.699 10.3169 147.518 9.45161 161.895C9.45161 161.895 5.21412 183.282 28.3096 188.962L39.6243 190.293C39.6243 190.293 34.9653 199.056 42.2866 197.17C49.608 195.285 41.3992 197.17 41.3992 197.17L49.1642 195.395L63.8069 194.952C63.8069 194.952 68.3328 197.059 69.7971 194.952C69.7971 194.952 73.5686 197.814 75.1217 194.508C75.1217 194.508 78.5604 196.15 77.784 191.624L81.5555 190.958C81.5555 190.958 79.0929 195.95 85.1053 194.064L101.966 193.621C101.966 193.621 114.856 196.904 109.953 188.962C109.953 188.962 105.05 182.772 99.9698 188.296C99.9698 188.296 81.9327 190.137 87.102 186.077C87.102 186.077 109.82 154.44 103.031 147.097C102.188 147.474 99.4817 139.487 82.6648 157.68C82.6648 157.68 86.7248 127.13 87.7676 123.735C87.7676 123.735 95.6879 140.175 97.7512 138.378L95.5326 108.427L91.9829 101.771C91.9829 101.771 86.3033 82.7137 82.8867 79.1418C79.4701 75.5699 83.3304 80.2511 83.3304 80.2511C83.3304 80.2511 80.1578 69.7572 80.2244 66.274C80.2244 66.274 82.1546 62.9239 80.89 62.2805C80.89 62.2805 85.549 59.4851 81.1118 50.9658C76.6747 42.4464 80.6681 50.0783 80.6681 50.0783C80.6681 50.0783 80.4906 36.2344 80.2244 33.439L81.9993 35.4357C81.9993 35.4357 82.7536 43.7332 90.8736 44.9756C90.8736 44.9756 93.2031 45.5302 90.4299 41.204C90.4299 41.204 88.4553 33.3059 89.5424 28.1144C89.5424 28.1144 91.3173 22.3239 83.996 20.5712C83.996 20.5712 83.6188 12.784 74.2342 21.4586C74.2342 21.4586 63.3188 16.489 54.267 24.7865L52.2703 25.2302C52.2703 25.2302 42.4863 24.254 40.5118 26.1176Z" fill="#956729"/>
<path d="M42.5083 25.4518C42.5083 25.4518 39.8682 28.4691 42.952 33.8824C42.952 33.8824 45.6143 43.8217 45.1706 50.2999C45.1706 50.2999 45.814 58.3978 47.8329 46.7502L48.0548 38.5414L50.0515 40.3163C50.0515 40.3163 60.0573 70.3559 60.4788 76.2574C60.4788 76.2574 60.5232 82.6247 59.5914 86.4628C59.5914 86.4628 54.9989 109.181 56.0416 114.195C56.0416 114.195 57.2397 125.288 59.5914 129.281C59.5914 129.281 56.4854 148.184 53.8231 153.02C53.8231 153.02 62.5865 167.042 59.3695 172.766C59.3695 172.766 49.7631 176.249 37.1837 145.699C37.1837 145.699 32.0366 158.145 48.4985 179.421L55.8198 185.633L56.7072 187.408C56.7072 187.408 19.1023 197.192 11.67 166.554C11.67 166.554 11.2485 154.063 16.5509 149.914C16.5509 149.914 20.6331 144.079 14.9979 148.139C14.9979 148.139 7.98715 155.749 9.0077 169.882C9.0077 169.882 10.6938 189.494 39.4023 190.958L40.2897 190.736C40.2897 190.736 33.0571 198.324 44.2832 196.948L49.6078 195.173H63.363L64.0285 192.289C64.0285 192.289 62.1206 198.657 69.1313 194.952C69.1313 194.952 73.0582 198.523 75.1215 194.286C77.1847 190.048 74.4559 194.73 74.4559 194.73C74.4559 194.73 73.9678 189.25 70.9062 189.849L68.022 190.514C68.022 190.514 70.5068 162.028 64.2504 133.719C64.2504 133.719 57.3284 113.685 61.1444 107.318L65.3597 102.437L65.5816 86.9065C65.5816 86.9065 78.05 87.2615 82.2209 79.5852C82.2209 79.5852 71.3499 81.9591 68.6876 81.1382L67.3564 69.3797C67.3564 69.3797 76.9851 76.1686 79.7805 66.9393C79.7805 66.9393 68.3548 67.9377 72.9029 63.6114C72.9029 63.6114 68.5323 60.1283 71.3499 57.3994L72.0154 53.1841L65.8034 42.0912C65.8034 42.0912 61.7656 48.6582 58.0384 42.5349C58.0384 42.5349 56.086 37.0106 60.257 35.6573L59.5914 28.1141C59.5914 28.1141 61.1888 19.3285 54.9324 24.3425C54.9324 24.3425 50.6061 25.9177 48.0548 25.4518C48.0548 25.4518 43.1073 24.6531 42.5083 25.4518Z" fill="#805823"/>
<path d="M83.5525 100.662C83.5525 100.662 91.3397 120.762 92.8705 122.848L92.4268 109.98C92.4268 109.98 89.4095 106.83 91.0957 103.99L93.5361 97.5559L92.8705 95.781C92.8705 95.781 87.5238 88.8368 90.4301 85.7974C90.4301 85.7974 96.4646 87.0176 95.9766 96.4466C95.9766 96.4466 92.6487 104.788 94.2017 107.761C94.2017 107.761 99.0382 140.352 95.9766 137.712C95.9766 137.712 90.3857 128.505 87.7678 122.404L83.5525 100.662Z" fill="#805823"/>
<path d="M197.587 101.993L193.372 92.2313C193.372 92.2313 194.636 89.5024 193.594 88.016C193.594 88.016 196.322 86.9289 197.365 87.5723C197.365 87.5723 197.787 90.1014 200.471 90.9001L204.908 101.327L197.587 101.993Z" fill="#DF984C"/>
<path d="M196.922 101.993L192.928 91.7876C192.928 91.7876 194.459 90.0349 193.15 87.7942C193.15 87.7942 195.835 86.3743 197.809 87.3505C197.809 87.3505 197.787 89.6134 200.471 90.9002L205.13 101.106L204.465 101.549L199.584 91.5658C199.584 91.5658 197.321 89.6356 196.922 87.7942C196.922 87.7942 194.858 88.0604 194.259 88.4597C194.259 88.4597 195.236 90.7227 194.038 92.0095L198.031 101.993H196.922Z" fill="black"/>
<path d="M195.812 91.3439L197.809 96.4467C197.809 96.4467 198.963 97.4228 199.14 96.2248L196.922 91.1221C196.922 91.1221 195.945 90.1903 195.812 91.3439Z" fill="black"/>
<path d="M115.499 126.619C115.499 126.619 108.754 129.548 113.724 134.384C113.724 134.384 111.705 138.821 117.718 137.934C117.718 137.934 118.228 144.368 125.039 138.821C125.039 138.821 117.607 142.216 118.605 136.603C118.605 136.603 112.349 138.4 114.833 133.497C114.833 133.497 111.395 131.345 113.724 129.281C113.724 129.281 115.499 126.774 117.718 127.285L117.274 126.175L115.499 126.619Z" fill="black"/>
<path d="M117.94 138.822L115.722 143.259L116.609 143.702L118.384 139.709L117.94 138.822Z" fill="black"/>
<path d="M124.595 143.037C124.595 143.037 126.038 137.224 124.817 136.159C124.817 136.159 124.019 133.918 122.155 134.163C122.155 134.163 124.374 133.12 125.705 135.716C125.705 135.716 126.548 138.178 125.705 142.593L124.595 143.037Z" fill="black"/>
<path d="M95.7543 68.4924C98.3279 68.4924 100.413 71.665 100.413 75.5919C100.413 79.5188 98.3279 82.6914 95.7543 82.6914C93.1807 82.6914 91.0953 79.5188 91.0953 75.5919C91.0953 71.665 93.1807 68.4924 95.7543 68.4924Z" fill="black"/>
<path d="M83.1089 78.6978C83.1089 78.6978 87.302 84.5548 92.2051 100.44L91.5395 102.215C91.5395 102.215 85.9708 83.268 82.2214 79.3633L83.1089 78.6978Z" fill="black"/>
<path d="M82.975 89.5243C82.1319 87.1061 84.4392 84.0888 88.1221 82.7798C91.8271 81.4709 95.51 82.3805 96.3752 84.8209C97.2183 87.2392 94.911 90.2565 91.2281 91.5654C87.5231 92.8744 83.8402 91.9648 82.975 89.5243Z" fill="black"/>
<path d="M95.7541 69.158C98.0836 69.158 99.9694 71.9977 99.9694 75.4809C99.9694 78.9641 98.0836 81.8039 95.7541 81.8039C93.4246 81.8039 91.5388 78.9641 91.5388 75.4809C91.5388 71.9977 93.4246 69.158 95.7541 69.158Z" fill="#FFCE37"/>
<path d="M83.7073 89.5468C82.953 87.4836 84.9719 84.9322 88.2554 83.8451C91.5389 82.758 94.8224 83.5567 95.5989 85.5978C96.3532 87.661 94.3343 90.2124 91.0508 91.2995C87.7673 92.3866 84.4838 91.5879 83.7073 89.5468Z" fill="#FFA837"/>
<path d="M82.5753 95.6923C81.3773 94.2058 83.1965 91.6544 86.6353 89.9905C90.052 88.3266 93.8014 88.1934 94.9772 89.6799C96.1752 91.1442 94.356 93.6955 90.9394 95.3595C87.5006 97.0234 83.7512 97.1565 82.5753 95.6923Z" fill="black"/>
<path d="M83.2858 95.537C82.2431 94.2946 83.8627 92.1204 86.9021 90.7005C89.9638 89.2806 93.2916 89.1253 94.3344 90.3677C95.3771 91.6101 93.7797 93.7843 90.7181 95.2042C87.6786 96.6463 84.3507 96.7794 83.2858 95.537Z" fill="#FFCE37"/>
<path d="M93.5361 83.1352C93.5361 83.1352 87.1909 85.3982 89.0989 90.4565C89.0989 90.4565 90.4966 94.2281 92.6486 95.3374C94.8007 96.4467 93.3142 95.5593 93.3142 95.5593C93.3142 95.5593 93.0258 98.0219 92.4268 99.5527C92.4268 99.5527 88.5886 105.499 92.6486 110.424L93.5361 121.517L91.7612 125.732C91.7612 125.732 89.9863 130.746 92.8705 134.163C92.8705 134.163 99.016 146.498 99.5262 131.278L99.3044 99.109L105.96 88.4598C105.96 88.4598 107.735 80.961 104.185 76.7013C104.185 76.7013 99.9478 73.4178 99.7481 77.8106C99.7481 77.8106 94.4013 74.8599 93.5361 83.1352Z" fill="#956729"/>
<path d="M104.85 147.918C104.85 147.918 107.956 179.643 110.397 195.839C110.397 195.839 152.594 197.037 172.517 197.836L216.445 191.845L219.995 151.467C219.995 151.467 237.1 148.139 244.621 131.5C244.621 131.5 252.009 115.548 231.975 99.3306L165.64 103.324L156.1 146.586L104.85 147.918Z" fill="black"/>
<path d="M157.431 146.365L167.858 104.212L231.088 101.549C231.088 101.549 249.28 114.417 243.29 129.503C243.29 129.503 238.187 147.03 219.107 149.914L215.558 190.958L172.295 196.283L111.506 194.508L107.291 149.914L161.202 148.805L157.431 146.365Z" fill="#8E6049"/>
<path d="M184.941 159.011V156.57L189.378 157.014L192.262 162.338L201.802 163.004L204.021 158.345L206.683 158.567L206.461 160.342L204.465 160.564L202.024 165.666H191.375L188.713 159.454L184.941 159.011Z" fill="#FF9A37"/>
<path d="M231.975 100.662L218.885 150.802L157.431 147.696L166.527 103.768L231.975 100.662Z" fill="#523324"/>
<path d="M166.97 104.233C168.612 104.566 175.002 107.584 180.282 125.732L224.654 128.172L231.087 101.327L166.97 104.233Z" fill="#3C2519"/>
<path d="M165.861 103.546C165.861 103.546 176.288 110.202 178.507 121.073C178.507 121.073 181.901 134.184 175.179 141.705L170.964 145.699H172.739C172.739 145.699 180.726 141.484 180.726 128.172C180.726 128.172 181.835 114.639 167.858 103.102L165.861 103.546Z" fill="black"/>
<path d="M172.739 147.474L172.074 196.727L110.619 194.286L105.738 149.027L172.739 147.474Z" fill="#613F2E"/>
<path d="M156.987 146.586H172.517L219.995 149.471V151.467L173.183 148.361L149.444 148.583L156.987 146.586Z" fill="black"/>
<path d="M231.087 99.7744L218.219 150.58L219.551 150.358L232.197 100.662L231.087 99.7744Z" fill="black"/>
<path d="M171.851 147.252L172.073 197.392L173.404 196.505V147.03L171.851 147.252Z" fill="black"/>
<path d="M10.3388 155.239C10.3388 155.239 14.9313 142.903 21.4317 145.699C21.4317 145.699 24.1606 146.83 19.2132 152.798C19.2132 152.798 12.1802 162.582 16.7727 172.766C16.7727 172.766 22.2082 187.497 44.2831 186.077C44.2831 186.077 52.2478 186.121 55.8198 184.968L56.9291 185.855C56.9291 185.855 34.7432 189.472 27.2 184.968C27.2 184.968 10.5829 175.605 14.3323 161.451C14.3323 161.451 15.73 154.396 18.7694 151.024C18.7694 151.024 22.8073 147.208 19.8787 146.364C19.8787 146.364 14.6429 146.298 11.8918 155.017C11.8918 155.017 5.03641 169.149 14.776 180.753C14.776 180.753 20.5665 189.449 41.1771 190.071L39.4023 191.624C39.4023 191.624 17.4161 192.156 10.7825 176.315C10.7825 176.315 6.23444 168.328 10.3388 155.239Z" fill="black"/>
<path d="M77.5623 191.846C77.5623 191.846 81.5335 189.782 82.665 188.296C82.7094 188.251 81.8219 192.156 77.7841 192.955L77.5623 191.846Z" fill="black"/>
<path d="M93.98 158.123C93.98 158.123 82.3103 177.425 80.8904 191.846L81.7778 193.177C81.7778 193.177 83.4639 177.092 93.98 158.123Z" fill="black"/>
<path d="M47.1676 152.798C47.1676 152.798 61.7658 172.167 65.8037 186.521L65.5818 188.074C65.5818 188.074 61.9211 177.447 47.1676 152.798Z" fill="black"/>
<path d="M80.6679 65.8298C80.6679 65.8298 81.0894 72.4634 82.2209 75.3697L81.3335 76.479C81.3335 76.479 79.8026 68.1815 80.0023 66.2736L80.6679 65.8298Z" fill="black"/>
<path d="M56.2635 31.4417C56.2635 31.4417 57.9719 27.2708 60.4789 26.7827L60.7007 28.1139C60.7007 28.1139 57.506 30.4212 56.2635 31.4417Z" fill="black"/>
<path d="M58.039 43.4221C58.039 43.4221 55.2214 38.7409 59.592 35.2134C59.592 35.2134 63.0752 33.1057 64.6947 37.8757C64.6947 37.8757 66.159 42.0466 63.5854 44.5314C63.5854 44.5314 60.0579 47.2159 58.039 43.4221Z" fill="black"/>
<path d="M58.7477 42.6679C58.7477 42.6679 56.4847 38.8741 60.0123 36.0343C60.0123 36.0343 62.8298 34.3482 64.1388 38.1864C64.1388 38.1864 65.3147 41.5586 63.2514 43.5553C63.2514 43.5553 60.3894 45.7296 58.7477 42.6679Z" fill="#F9F7F1"/>
<path d="M72.6803 32.773C72.6803 32.773 70.6171 34.3926 72.0148 39.8725C72.0148 39.8725 73.0575 42.6236 76.0082 40.7599C76.0082 40.7599 78.2268 39.2069 77.1175 36.5446C77.1175 36.5446 76.0304 30.621 72.6803 32.773Z" fill="black"/>
<path d="M73.1467 33.594C73.1467 33.594 71.5272 34.8808 72.6143 39.2957C72.6143 39.2957 73.4351 41.5143 75.7647 40.0279C75.7647 40.0279 77.5173 38.7633 76.6521 36.6334C76.6521 36.6334 75.7868 31.8635 73.1467 33.594Z" fill="#F9F7F1"/>
<path d="M71.1277 25.8955L71.3495 27.4486C71.3495 27.4486 74.2337 27.1823 76.0086 28.336C76.0086 28.336 73.2353 25.5849 71.1277 25.8955Z" fill="black"/>
<path d="M54.4885 24.1208C54.4885 24.1208 52.3808 25.1192 50.2732 24.7864C50.2732 24.7864 41.3323 23.9655 39.4021 26.5613C39.4021 26.5613 38.1819 29.4676 38.071 31.664C38.071 31.664 32.5023 35.9903 34.2994 39.6509C34.2994 39.6509 41.1548 51.7866 42.0644 55.4029C42.0644 55.4029 42.0644 63.9666 45.836 56.5121C49.6076 49.0577 49.4079 35.3691 45.836 28.7799C45.836 28.7799 50.4063 48.3921 44.9486 55.4029C44.9486 55.4029 43.329 60.9493 42.9518 54.7373C42.9518 54.7373 39.9789 46.3732 35.4087 39.4291C35.4087 39.4291 33.9666 36.7224 38.071 33.217C38.071 33.217 39.2468 38.7191 40.5114 41.8695C40.5114 41.8695 37.4276 31.2869 40.7333 27.2269C40.7333 27.2269 42.2641 25.7182 46.5016 25.8957C46.5016 25.8957 51.9593 26.3172 54.7103 25.2301C54.7103 25.2301 59.2806 22.2572 60.4786 21.9023V20.793C60.4786 20.793 55.2872 23.1669 54.4885 24.1208Z" fill="black"/>
<path d="M57.8164 53.8498C57.8164 53.8498 58.4154 50.5885 62.4754 52.2968C62.4754 52.2968 61.4992 52.6961 60.7005 52.7405C60.7005 52.7405 63.7178 64.8539 77.7836 62.946C77.7836 62.946 78.6045 60.5055 77.7836 58.9525C77.7836 58.9525 68.6209 61.8367 70.2404 54.9591C70.2404 54.9591 73.2577 48.3699 78.6711 51.1875C78.6711 51.1875 85.704 52.8292 79.5585 58.0651L78.8929 58.5088C78.8929 58.5088 79.7582 61.2598 79.3366 62.2804C79.3366 62.2804 82.7311 60.5277 82.4426 56.2902C82.4426 56.2902 79.7138 49.9894 80.0022 46.5284C80.0022 46.5284 80.2462 34.3706 79.3366 31.8858L78.0055 28.7798C78.0055 28.7798 80.9118 31.4421 80.6678 37.4323C80.6678 37.4323 80.1575 49.2129 81.9989 52.2968C81.9989 52.2968 84.3063 55.9352 83.1082 59.1744C83.1082 59.1744 82.7976 61.2155 80.0022 63.3897L79.3366 63.8334L78.6711 63.1678L78.2273 64.2771C78.2273 64.2771 70.5067 65.9632 64.4721 60.5055C64.4721 60.5055 60.5674 56.4899 59.5912 52.9623C59.5912 52.9623 58.1492 53.2064 57.8164 53.8498Z" fill="black"/>
<path d="M81.1116 62.0584C81.1116 62.0584 83.2415 64.6541 79.3368 67.8267C79.3368 67.8267 76.4082 71.1102 65.8034 63.6114C65.8034 63.6114 61.3884 59.7954 60.0351 57.1775C60.0351 57.1775 70.2849 68.6476 77.7838 66.9393C77.7838 66.9393 79.958 66.1849 80.4461 64.4988C80.4461 64.4988 80.6014 63.4783 80.4461 62.5021L81.1116 62.0584Z" fill="black"/>
<path d="M70.24 31.2202C70.24 31.2202 71.4158 46.839 77.5613 51.4093L76.2302 51.6312C76.2302 51.6312 70.2844 46.1291 70.24 31.2202Z" fill="black"/>
<path d="M60.0351 21.9022C60.0351 21.9022 71.0171 18.419 75.5652 23.8989L74.6777 22.124C74.6777 22.124 81.0894 16.8438 82.2209 18.3524C82.2209 18.3524 85.7928 24.3204 86.8799 29.4453C86.8799 29.4453 85.4379 22.1906 84.4395 20.571C84.4395 20.571 87.8783 21.5028 89.0985 24.5645C89.0985 24.5645 89.4535 25.5628 88.8767 28.1142C88.8767 28.1142 88.3442 40.2942 91.3171 43.8661C91.3171 43.8661 92.5373 45.3526 89.3204 44.5317C89.3204 44.5317 84.1067 42.2687 83.3302 37.2104C83.3302 37.2104 81.6219 24.4757 80.2242 22.124C80.2242 22.124 81.9991 30.1775 81.9991 34.3262C81.9991 34.3262 79.1371 28.5801 77.1182 27.0049C77.1182 27.0049 80.1133 32.4626 80.4461 34.3262C80.4461 34.3262 81.7772 34.8587 82.4428 37.4322C82.4428 37.4322 83.7517 44.1545 90.4297 45.641C90.4297 45.641 93.8463 46.3288 91.7608 43.2006C91.7608 43.2006 89.3648 38.5193 89.7641 33.8825C89.7641 33.8825 89.6975 28.9351 89.7641 28.1142C89.7641 28.1142 90.7847 24.3204 89.0985 23.0115C89.0985 23.0115 85.5932 19.8389 84.4395 19.2399C84.4395 19.2399 83.907 18.8405 83.5521 18.1306C83.5521 18.1306 82.2653 16.1782 80.2242 17.2431C80.2242 17.2431 74.6556 19.9054 73.7903 20.7929C73.7903 20.7929 67.1124 18.0418 60.257 20.7929L60.0351 21.9022Z" fill="black"/>
<path d="M47.8328 37.8757L49.8295 39.4287L49.6076 40.538L48.0546 39.4287L47.8328 37.8757Z" fill="black"/>
<path d="M49.3856 40.0945C49.3856 40.0945 59.9683 69.5573 59.813 75.8137L61.8097 77.8104C61.8097 77.8104 58.9033 62.5688 50.0512 39.429L49.3856 40.0945Z" fill="black"/>
<path d="M59.8134 75.1479C59.8134 75.1479 61.8102 81.3599 76.8965 77.8102C76.8965 77.8102 81.4446 76.4568 81.9993 74.0386C81.9993 74.0386 83.7741 75.636 83.996 78.4757C83.996 78.4757 79.9138 84.6656 68.4659 84.6878C68.4659 84.6878 60.6565 84.1109 58.926 81.138C58.926 81.138 58.3048 75.8578 59.8134 75.1479Z" fill="black"/>
<path d="M59.813 77.1449C59.813 77.1449 59.4136 79.2748 59.5911 80.9165C59.5911 80.9165 66.9568 85.1096 75.3431 82.4695C75.3431 82.4695 81.2667 80.6281 82.6644 78.0324L81.9988 76.0356C81.9988 76.0356 70.684 84.555 59.813 77.1449Z" fill="#613F2E"/>
<path d="M90.8728 83.3569C90.8728 83.3569 84.1283 88.5706 91.7602 95.1154C91.7602 95.1154 95.2434 96.6019 93.7569 101.771C93.7569 101.771 96.397 98.0439 92.2039 94.228C92.2039 94.228 88.2548 90.2789 89.7635 87.5722C89.7635 87.5722 90.4069 83.6231 93.7569 84.2443C93.7569 84.2443 98.3716 87.1729 99.3034 93.5624C99.3034 93.5624 97.7948 79.7184 90.8728 83.3569Z" fill="black"/>
<path d="M93.314 83.3568C93.314 83.3568 93.3362 76.1243 98.6386 77.3667C98.6386 77.3667 103.275 77.5441 104.185 88.6814C104.185 88.6814 101.523 78.2319 97.7512 78.9197C97.7512 78.9197 94.623 78.7422 94.867 83.5787L93.314 83.3568Z" fill="black"/>
<path d="M99.5258 78.2539C99.5258 78.2539 98.8602 74.1051 102.188 75.1479C102.188 75.1479 108.578 76.1462 106.403 88.9031L105.072 91.1216C105.072 91.1216 107.513 85.8858 105.516 80.2506C105.516 80.2506 103.253 75.6359 101.744 76.479C101.744 76.479 100.302 76.3681 100.635 78.6976L99.5258 78.2539Z" fill="black"/>
<path d="M96.1979 103.768C96.1979 103.768 106.159 90.4786 106.403 88.2379V86.0193C106.27 87.3948 98.0172 101.15 96.6417 101.993L96.1979 103.768Z" fill="black"/>
<path d="M99.9693 98.4434C99.9693 98.4434 98.6381 112.465 99.5256 124.401C99.5256 124.401 101.167 136.714 98.6381 139.265C98.6381 139.265 97.5954 141.173 96.6414 139.709C96.6414 139.709 99.5921 136.714 98.86 132.831C98.86 132.831 97.0851 105.143 98.1944 100.218L99.9693 98.4434Z" fill="black"/>
<path d="M93.0925 95.5591C93.0925 95.5591 92.7819 99.1754 91.3176 101.771C91.3176 101.771 88.7662 107.229 92.8706 110.424C92.8706 110.424 90.5411 105.41 91.7613 103.324C91.7613 103.324 93.5362 98.3767 93.758 96.8902L93.0925 95.5591Z" fill="black"/>
<path d="M91.5388 107.761C91.5388 107.761 93.6242 126.597 94.2011 131.056L93.3136 110.202L91.5388 107.761Z" fill="black"/>
<path d="M62.9186 40.7603C63.5398 40.7603 64.0279 41.448 64.0279 42.3133C64.0279 43.1785 63.5398 43.8663 62.9186 43.8663C62.2974 43.8663 61.8093 43.1785 61.8093 42.3133C61.8093 41.448 62.2974 40.7603 62.9186 40.7603Z" fill="black"/>
<path d="M74.4555 38.0977C74.9436 38.0977 75.343 38.6967 75.343 39.4288C75.343 40.1609 74.9436 40.76 74.4555 40.76C73.9675 40.76 73.5681 40.1609 73.5681 39.4288C73.5681 38.6967 73.9675 38.0977 74.4555 38.0977Z" fill="black"/>
<path d="M59.5912 80.9165C59.5912 80.9165 57.4614 97.2896 55.154 107.539C55.154 107.539 54.0448 117.19 58.9256 129.503C58.9256 129.503 62.4754 138.489 63.1409 142.149L63.8065 139.709C63.8065 139.709 61.2551 131.323 60.0349 128.172C60.0349 128.172 55.9971 120.984 56.4852 107.983C56.4852 107.983 60.5674 85.5755 60.4786 81.8039L59.5912 80.9165Z" fill="black"/>
<path d="M63.141 140.596C63.141 140.596 69.109 178.645 64.2503 191.623C64.2503 191.623 61.943 193.376 63.5847 196.282C63.5847 196.282 64.8493 199.033 70.0186 195.839C70.0186 195.839 71.3941 198.856 75.7869 195.395C75.7869 195.395 79.0261 196.416 78.6711 193.176C78.6711 193.176 77.7393 190.048 74.8995 187.852C74.8995 187.852 70.8839 171.922 70.6842 162.56C70.6842 162.56 66.8239 120.407 68.2437 111.976C68.2437 111.976 66.7573 130.169 69.353 163.447C69.353 163.447 71.8157 182.816 73.7902 188.296C73.7902 188.296 77.7615 190.736 77.1181 193.398C77.1181 193.398 77.473 196.016 75.1214 193.398C75.1214 193.398 74.4336 195.617 72.4591 195.839C72.4591 195.839 69.9299 195.129 69.5749 193.176C69.5749 193.176 68.7762 196.726 65.5814 195.395C65.5814 195.395 63.5182 194.729 65.5814 191.402C65.5814 191.402 67.4894 185.478 67.3563 180.087C67.3563 180.087 67.6225 160.341 64.0284 139.265L63.141 140.596Z" fill="black"/>
<path d="M81.5553 167.219C81.5553 167.219 82.2431 159.743 83.552 157.901C83.552 157.901 96.7748 143.103 100.857 146.587C100.857 146.587 112.371 147.296 86.8799 185.634C86.8799 185.634 84.4838 189.294 87.1018 189.405L100.635 188.74C100.635 188.74 103.342 185.301 106.847 187.187C106.847 187.187 110.707 189.095 110.175 192.289C110.175 192.289 109.687 193.865 102.188 193.177L85.3269 193.62C85.3269 193.62 80.6235 195.75 81.999 190.514L80.6679 191.846C80.6679 191.846 79.7361 197.459 85.5487 194.73L102.854 194.064C102.854 194.064 111.506 195.329 111.284 191.846C111.284 191.846 110.796 186.898 105.738 185.855C105.738 185.855 102.854 184.591 100.413 187.187L88.6548 187.63C88.6548 187.63 86.059 188.562 89.0985 185.19C89.0985 185.19 99.9473 168.573 103.297 157.679C103.297 157.679 108.2 145.544 99.5258 145.034C99.5258 145.034 94.534 143.614 83.9957 155.683C83.9957 155.683 84.2842 139.199 88.211 124.844L87.3236 122.182C87.3236 122.182 85.5931 127.085 82.6646 155.017C82.6646 155.017 80.5569 163.758 81.5553 167.219Z" fill="black"/>
<path d="M59.1483 128.616C59.1483 128.616 58.1721 144.856 53.1581 153.02C53.1581 153.02 38.5377 136.336 36.2969 145.477C36.2969 145.477 30.9501 166.199 54.4893 184.968C54.4893 184.968 57.684 188.407 56.0423 188.961L46.9461 189.849C46.9461 189.849 39.6691 186.676 37.8499 194.286C37.8499 194.286 35.9419 198.168 43.1745 197.614L48.4991 196.283L64.0292 195.839L63.3636 194.729L48.9428 194.951C48.9428 194.951 37.8721 198.235 38.7373 194.508C39.6026 190.78 38.9592 193.842 38.9592 193.842C38.9592 193.842 40.6453 188.429 47.1679 191.18L57.5953 190.292C57.5953 190.292 59.7917 188.34 55.5986 184.08C55.5986 184.08 40.2238 173.365 37.8499 157.235C37.8499 157.235 34.633 141.129 40.9559 144.811C40.9559 144.811 50.6511 147.097 59.1483 163.669C59.1483 163.669 57.0184 156.925 54.933 154.351" fill="black"/>
<path d="M54.2665 155.017C54.2665 155.017 58.9034 143.902 59.5911 130.169L59.1474 127.95" fill="black"/>
<path d="M84.6619 116.192C84.6619 116.192 95.0448 140.019 97.9734 137.934L97.3078 139.931C97.3078 139.931 90.1639 135.183 84.6619 116.192Z" fill="black"/>
<path d="M93.092 121.738C93.092 121.738 91.3837 125.998 91.539 127.285C91.539 127.285 93.092 123.047 93.5358 123.957L93.3139 121.073" fill="black"/>
<path d="M110.841 87.6165C110.841 87.6165 102.144 80.6724 109.887 68.4923C109.887 68.4923 111.573 65.6747 112.327 68.2705C112.327 68.2705 115.721 74.2828 118.805 76.9451C118.805 76.9451 121.889 75.1481 125.062 75.614C125.062 75.614 129.388 68.0708 129.676 65.6082C129.676 65.6082 129.699 63.7446 131.695 64.9204C131.695 64.9204 139.771 70.844 136.221 83.6231C136.221 83.6231 138.151 89.5689 141.59 92.7414L144.008 93.8507L141.768 94.7382L144.186 96.5352L141.058 97.6445C141.058 97.6445 136.177 99.5747 134.047 104.988C134.047 104.988 133.115 108.027 132.849 109.425C132.849 109.425 133.293 113.086 129.854 114.994C129.854 114.994 126.482 116.702 123.708 111.2C122.288 108.981 120.469 106.386 116.076 104.078C116.076 104.078 111.484 102.015 109.221 103.413L110.153 101.194C110.153 101.194 108.067 100.662 106.603 101.416C106.603 101.416 108.6 97.9551 109.332 97.6445C109.332 97.6445 106.182 96.5352 105.804 96.7571C105.804 96.7571 112.216 92.5196 110.841 87.6165Z" fill="black"/>
<path d="M110.397 68.9359C110.397 68.9359 107.113 72.7075 107.734 78.9195C107.734 78.9195 107.801 84.1554 111.506 86.9064L112.171 85.7971L111.95 88.2376C111.95 88.2376 111.927 93.6065 108.178 95.7807L110.618 97.3337L108.622 99.996L111.506 100.218L111.062 101.771C111.062 101.771 115.166 101.948 117.718 103.768L116.609 101.771L115.277 102.215C115.277 102.215 115.455 100.284 117.718 100.44C117.718 100.44 118.494 100.551 119.271 101.327C119.271 101.327 117.962 101.15 117.496 101.327C117.496 101.327 118.738 104.5 120.38 105.764C120.38 105.764 123.375 109.403 128.589 107.983L129.254 107.539L129.033 106.874C129.033 106.874 124.107 107.739 123.93 102.658C123.93 102.658 124.44 100.085 128.367 99.7742C128.367 99.7742 131.584 99.5301 132.804 101.771C132.804 101.771 133.137 105.454 129.92 106.43V107.539C129.92 107.539 132.471 107.628 133.248 105.099C133.248 105.099 134.601 100.462 135.023 99.3305C135.023 99.3305 134.113 98.9533 133.692 99.5523C133.692 99.5523 135.134 97.1563 136.354 99.1086V99.7742L135.688 99.3305L135.023 101.105C135.023 101.105 138.107 97.1784 141.013 96.6682L142.344 96.2245L139.904 94.4496L141.9 93.784C141.9 93.784 137.596 92.2976 134.801 83.3567C134.801 83.3567 137.13 80.1619 135.91 74.0386C135.91 74.0386 133.78 67.2054 131.029 66.0517C131.029 66.0517 130.186 65.7855 130.364 67.6047C130.364 67.6047 127.657 73.8168 125.927 76.0354L127.036 76.9228C127.036 76.9228 122.865 75.3032 117.718 78.2539L116.609 78.9195L117.496 77.5884C117.496 77.5884 112.016 71.1545 111.506 68.9359C111.506 68.9359 110.973 68.47 110.397 68.9359Z" fill="#DECDCD"/>
<path opacity="0.8" d="M110.397 68.2705C110.397 68.2705 112.682 76.4793 117.053 80.029C117.053 80.029 121.601 83.0241 122.599 87.3503C122.599 87.3503 124.13 94.8269 125.261 99.3307L127.48 103.324L129.033 104.877L129.698 107.539C129.698 107.539 123.464 111.244 119.049 103.99C119.049 103.99 112.482 101.682 110.841 101.993L111.284 100.218L108.4 99.9962L110.619 97.5558L108.4 96.0028C108.4 96.0028 111.994 93.8508 112.172 86.0192L111.506 86.9066C111.506 86.9066 107.224 84.2887 107.734 75.8137C108.245 67.3387 108.311 70.7553 110.397 68.2705Z" fill="#BA9898"/>
<path d="M118.161 104.211L116.83 101.771C116.83 101.771 115.898 101.749 115.277 102.215C115.277 102.215 116.386 99.3526 119.271 101.105L117.939 101.549C117.939 101.549 118.649 103.923 119.271 104.877L118.161 104.211Z" fill="black"/>
<path d="M126.593 100.218C126.593 100.218 122.488 101.327 124.374 105.099C124.374 105.099 125.816 107.229 129.033 106.874L129.255 108.205H129.921V106.43C129.921 106.43 130.653 99.0866 126.593 100.218Z" fill="black"/>
<path d="M115.943 85.3534C115.943 85.3534 116.631 82.5358 118.827 82.4692L119.271 83.8004C119.271 83.8004 117.097 83.6229 115.943 85.3534Z" fill="black"/>
<path d="M128.145 81.3603L128.589 82.6915C128.589 82.6915 130.053 80.4285 132.804 82.6915C132.804 82.6915 131.14 79.9626 128.145 81.3603Z" fill="black"/>
<path d="M111.284 70.4893C111.284 70.4893 113.636 77.5887 115.499 79.1417L113.946 79.3636L114.39 80.9166L112.837 81.3603L113.503 82.6915L112.615 84.4663L112.837 82.6915L111.95 80.251H113.503L112.615 78.2543L113.725 78.4762C113.725 78.4762 110.729 72.7522 111.284 70.4893Z" fill="black"/>
<path d="M130.808 68.7144C130.808 68.7144 130.387 73.9502 128.59 76.7013L129.699 78.0324L131.252 77.3668L131.696 79.3636L133.47 79.8073L132.361 78.698L131.474 76.0357L130.143 77.145L129.921 76.7013C129.921 76.7013 131.052 73.5065 130.808 68.7144Z" fill="black"/>
<path d="M129.033 94.8935C129.033 94.8935 127.613 91.8541 129.477 88.4597C129.477 88.4597 131.407 85.4868 133.914 91.122C133.914 91.122 135.001 94.0061 133.47 95.3373C133.47 95.3373 131.007 96.735 129.033 94.8935Z" fill="black"/>
<path d="M130.364 88.4595C130.364 88.4595 128.589 90.7225 129.699 94.4497C129.699 94.4497 132.139 96.5574 133.914 93.7841C133.914 93.7841 132.627 86.5737 130.364 88.4595Z" fill="#F9F7F1"/>
<path d="M122.821 108.427C122.821 108.427 124.552 110.623 125.927 112.864C125.927 112.864 129.033 115.77 130.808 112.864C130.808 112.864 131.917 109.403 132.139 107.761C132.139 107.761 130.586 108.626 129.699 108.649C129.699 108.649 125.572 110.224 122.821 108.427Z" fill="#C27E7E"/>
<path d="M111.728 148.805L116.831 195.395H122.378L119.272 148.583L111.728 148.805Z" fill="#AE671B"/>
<path d="M111.062 148.805L116.165 195.395H121.712L118.606 148.583L111.062 148.805Z" fill="#FFCE37"/>
<path d="M155.213 148.362L156.544 196.727H162.534L162.978 148.14L155.213 148.362Z" fill="#A16A2F"/>
<path d="M154.547 148.362L155.878 196.727H161.868L162.312 148.14L154.547 148.362Z" fill="#FFCE37"/>
<path d="M154.103 79.5853L153.659 46.9722L154.99 80.029L154.103 79.5853Z" fill="#764B13"/>
<path d="M156.1 82.2474L155.878 60.949L157.209 84.0222L156.1 82.2474Z" fill="#764B13"/>
<path d="M163.421 51.1873L162.756 24.1206L164.087 50.2999L163.421 51.1873Z" fill="#764B13"/>
<path d="M161.202 56.29L160.759 37.2102L161.868 52.5184L161.202 56.29Z" fill="#764B13"/>
<path d="M153.437 19.2398L152.106 0.381836L152.328 13.0278L153.437 19.2398Z" fill="#764B13"/>
<path d="M175.623 41.2039L175.401 18.3525L176.51 36.9886L175.623 41.2039Z" fill="#764B13"/>
<path d="M182.057 43.2004L180.948 27.2266L181.17 37.432L182.057 43.2004Z" fill="#764B13"/>
<path d="M223.323 147.696C223.323 147.696 239.785 156.748 241.959 167.663L240.85 168.329C240.85 168.329 240.206 159.144 223.323 147.696Z" fill="#764B13"/>
<path d="M225.985 145.921C225.985 145.921 235.126 150.18 239.075 156.57C239.075 156.57 235.458 149.315 226.873 144.812L225.985 145.921Z" fill="#764B13"/>
<path d="M122.821 108.405C122.821 108.405 126.615 114.018 129.566 112.332C129.566 112.332 131.296 111.932 132.361 107.761C132.361 107.761 130.897 111.133 129.1 111.666C129.1 111.666 126.615 112.753 122.821 108.405Z" fill="black"/>
<path d="M115.721 103.546C115.721 103.546 116.032 108.516 114.612 113.086C114.612 113.086 107.89 134.584 108.622 146.808L108.844 148.139H110.175C110.175 148.139 108.533 139.132 112.66 123.824C112.881 122.515 117.163 109.115 116.831 103.768L115.721 103.546Z" fill="black"/>
<path d="M135.245 101.549C135.245 101.549 137.686 112.997 141.901 121.295C141.901 121.295 147.758 135.96 146.782 145.921L146.116 146.143C146.116 146.143 145.761 131.101 140.57 121.073C140.57 121.073 136 109.625 134.58 102.437L135.245 101.549Z" fill="black"/>
<path d="M117.319 98.3767C117.319 98.3767 113.88 94.2058 117.097 90.8335C117.097 90.8335 120.513 87.7275 123.043 95.7144C123.043 95.7144 122.421 97.0012 120.624 97.933C120.624 97.933 118.561 98.6651 117.319 98.3767Z" fill="black"/>
<path d="M117.763 97.711C117.763 97.711 115.211 94.0947 117.319 91.7208C117.319 91.7208 118.983 89.8572 120.625 91.7208C120.625 91.7208 122.289 94.2278 122.156 95.7143C122.156 95.7143 120.891 97.7776 117.763 97.711Z" fill="#F9F7F1"/>
<path d="M120.514 95.0488C120.935 95.0488 121.29 95.4925 121.29 96.0472C121.29 96.6018 120.935 97.0456 120.514 97.0456C120.092 97.0456 119.737 96.6018 119.737 96.0472C119.737 95.4925 120.092 95.0488 120.514 95.0488Z" fill="black"/>
<path d="M131.008 93.2739C131.385 93.2739 131.674 93.762 131.674 94.3832C131.674 95.0044 131.385 95.4925 131.008 95.4925C130.631 95.4925 130.342 95.0044 130.342 94.3832C130.342 93.762 130.631 93.2739 131.008 93.2739Z" fill="black"/>
<path d="M116.831 126.841C116.831 126.841 111.972 129.215 117.053 131.5H119.049C119.049 131.5 112.549 131.944 112.837 135.937C112.837 135.937 113.148 138.799 119.271 137.268C119.271 137.268 120.957 136.559 121.934 135.715C121.934 135.715 122.422 138.799 127.48 137.268C127.48 137.268 129.743 136.869 130.364 135.715C130.364 135.715 132.228 137.335 135.689 135.494C135.689 135.494 138.617 134.362 137.907 132.609C137.907 132.609 141.79 130.657 140.348 127.729L139.239 126.397C139.239 126.397 141.59 121.517 136.798 122.848C136.798 122.848 133.404 123.89 132.583 125.51C132.583 125.51 128.168 124.09 125.927 126.619C125.927 126.619 121.401 124.733 116.831 126.841Z" fill="#906125"/>
<path d="M153.659 78.6978C155.856 78.6978 157.653 81.9813 157.653 86.0191C157.653 90.0569 155.856 93.3404 153.659 93.3404C151.463 93.3404 149.666 90.0569 149.666 86.0191C149.666 81.9813 151.463 78.6978 153.659 78.6978Z" fill="#A16A2F"/>
<path d="M153.326 79.5852C155.101 79.5852 156.543 82.3584 156.543 85.7972C156.543 89.236 155.101 92.0093 153.326 92.0093C151.551 92.0093 150.109 89.236 150.109 85.7972C150.109 82.3584 151.551 79.5852 153.326 79.5852Z" fill="#FFEC6A"/>
<path d="M243.867 168.861C245.974 168.218 248.637 170.858 249.79 174.74C250.922 178.601 250.145 182.261 248.038 182.882C245.93 183.526 243.268 180.886 242.114 177.003C240.983 173.143 241.759 169.482 243.867 168.861Z" fill="#A16A2F"/>
<path d="M243.801 169.793C245.509 169.283 247.683 171.546 248.659 174.829C249.635 178.135 249.036 181.197 247.35 181.707C245.642 182.217 243.468 179.954 242.492 176.671C241.515 173.387 242.092 170.303 243.801 169.793Z" fill="#FFEC6A"/>
<path d="M164.752 49.8564C166.949 49.8564 168.746 53.4727 168.746 57.9543C168.746 62.4358 166.949 66.0521 164.752 66.0521C162.556 66.0521 160.759 62.4358 160.759 57.9543C160.759 53.4727 162.556 49.8564 164.752 49.8564Z" fill="#A16A2F"/>
<path d="M164.419 50.8325C166.194 50.8325 167.636 53.9163 167.636 57.7101C167.636 61.5039 166.194 64.5877 164.419 64.5877C162.644 64.5877 161.202 61.5039 161.202 57.7101C161.202 53.9163 162.644 50.8325 164.419 50.8325Z" fill="#FFCE37"/>
<path d="M178.84 34.7695C180.748 34.7695 182.279 37.9421 182.279 41.869C182.279 45.7959 180.748 48.9685 178.84 48.9685C176.932 48.9685 175.401 45.7959 175.401 41.869C175.401 37.9421 176.932 34.7695 178.84 34.7695Z" fill="#A16A2F"/>
<path d="M178.552 35.6353C180.083 35.6353 181.326 38.3197 181.326 41.6476C181.326 44.9755 180.083 47.6822 178.552 47.6822C177.021 47.6822 175.779 44.9755 175.779 41.6476C175.779 38.3197 177.021 35.6353 178.552 35.6353Z" fill="#FFEC6A"/>
<path d="M150.221 9.92163C152.129 9.92163 153.659 13.0942 153.659 17.0211C153.659 20.948 152.129 24.1206 150.221 24.1206C148.313 24.1206 146.782 20.948 146.782 17.0211C146.782 13.0942 148.313 9.92163 150.221 9.92163Z" fill="#A16A2F"/>
<path d="M149.932 10.7871C151.463 10.7871 152.705 13.4716 152.705 16.7995C152.705 20.1273 151.463 22.834 149.932 22.834C148.401 22.834 147.159 20.1273 147.159 16.7995C147.159 13.4716 148.401 10.7871 149.932 10.7871Z" fill="#FFCE37"/>
<path d="M110.841 147.696C110.841 147.696 110.774 143.813 116.387 143.259C116.387 143.259 119.826 142.327 119.493 145.255C119.493 145.255 123.065 142.149 127.48 142.593C127.48 142.593 130.387 135.383 137.464 135.05C137.464 135.05 135.933 132.521 140.126 130.613C140.126 130.613 144.63 128.394 148.113 129.503C148.113 129.503 143.631 126.819 149.666 125.288C149.666 125.288 141.834 126.464 145.451 122.848C145.451 122.848 148.113 119.697 153.216 119.52H155.878C155.878 119.52 151.53 116.991 156.987 115.748L161.646 115.526C161.646 115.526 155.656 112.287 164.309 111.977L170.521 112.642C170.521 112.642 167.526 105.143 177.398 108.871C177.398 108.871 189.955 112.731 182.723 117.301C182.723 117.301 192.751 120.119 193.594 125.732C193.594 125.732 198.12 127.773 199.806 129.503C199.806 129.503 201.004 124.822 207.571 132.609C207.571 132.609 213.029 141.218 204.687 139.487L204.021 140.596L204.687 141.706C204.687 141.706 208.458 143.081 211.564 150.58L171.852 146.586L110.841 147.696Z" fill="#D89134"/>
<path d="M151.174 132.787C151.662 134.651 149.111 136.913 145.495 137.823C141.878 138.755 138.551 137.978 138.062 136.093C137.597 134.229 140.148 131.966 143.764 131.056C147.381 130.125 150.708 130.901 151.174 132.787Z" fill="#A16A2F"/>
<path d="M151.174 131.899C151.663 133.763 149.111 136.026 145.495 136.936C141.879 137.867 138.551 137.091 138.063 135.205C137.597 133.342 140.148 131.079 143.764 130.169C147.381 129.237 150.709 130.014 151.174 131.899Z" fill="#FFCE37"/>
<path d="M142.167 138.489C142.832 140.308 140.525 142.837 137.042 144.124C133.537 145.433 130.164 145.011 129.477 143.192C128.811 141.373 131.118 138.844 134.602 137.557C138.107 136.27 141.479 136.692 142.167 138.489Z" fill="#A16A2F"/>
<path d="M142.167 137.823C142.832 139.642 140.525 142.172 137.042 143.458C133.537 144.767 130.164 144.346 129.477 142.526C128.811 140.707 131.118 138.178 134.602 136.891C138.107 135.605 141.479 136.026 142.167 137.823Z" fill="#FFDA6A"/>
<path d="M151.396 137.624C151.884 139.687 149.111 142.127 145.228 143.081C141.346 144.057 137.774 143.17 137.286 141.129C136.798 139.066 139.571 136.625 143.454 135.671C147.336 134.695 150.886 135.582 151.396 137.624Z" fill="#A56D31"/>
<path d="M150.93 137.512C151.374 139.398 148.823 141.639 145.184 142.526C141.568 143.392 138.262 142.593 137.796 140.707C137.33 138.821 139.904 136.581 143.542 135.715C147.159 134.828 150.464 135.627 150.93 137.512Z" fill="#FFDA6A"/>
<path d="M156.943 142.77C157.342 144.39 154.503 146.143 150.598 146.653C146.693 147.185 143.21 146.276 142.833 144.634C142.434 142.992 145.273 141.262 149.178 140.751C153.083 140.219 156.566 141.129 156.943 142.77Z" fill="#FFD34A"/>
<path d="M132.361 142.571C132.96 143.835 130.542 145.699 126.992 146.697C123.421 147.695 120.048 147.474 119.449 146.187C118.85 144.922 121.268 143.059 124.84 142.06C128.39 141.062 131.762 141.284 132.361 142.571Z" fill="#A16A2F"/>
<path d="M132.361 141.683C132.96 142.948 130.542 144.811 126.992 145.81C123.421 146.808 120.048 146.586 119.449 145.3C118.85 144.035 121.268 142.171 124.84 141.173C128.39 140.175 131.762 140.397 132.361 141.683Z" fill="#FFDA6A"/>
<path d="M141.413 145.477C141.59 146.875 138.751 147.895 135.046 147.762C131.34 147.629 128.19 146.387 128.035 144.989C127.857 143.591 130.697 142.571 134.402 142.704C138.107 142.837 141.235 144.079 141.413 145.477Z" fill="#A16A2F"/>
<path d="M141.701 144.634C141.878 146.032 139.017 147.052 135.311 146.919C131.606 146.786 128.478 145.544 128.301 144.146C128.123 142.748 130.963 141.728 134.668 141.861C138.373 141.994 141.524 143.236 141.701 144.634Z" fill="#FFCE37"/>
<path d="M122.222 132.853C122.554 133.874 120.891 135.249 118.494 135.915C116.098 136.581 113.88 136.27 113.547 135.249C113.214 134.207 114.878 132.831 117.274 132.166C119.67 131.522 121.889 131.811 122.222 132.853Z" fill="#FFCE37"/>
<path d="M126.348 127.618C126.548 128.904 124.329 130.236 121.378 130.59C118.405 130.945 115.832 130.191 115.632 128.904C115.41 127.618 117.629 126.286 120.602 125.931C123.553 125.576 126.126 126.331 126.348 127.618Z" fill="#FFCE37"/>
<path d="M130.697 133.785C130.986 134.695 129.499 135.871 127.414 136.447C125.306 137.024 123.354 136.736 123.065 135.826C122.777 134.917 124.241 133.719 126.349 133.164C128.456 132.587 130.409 132.875 130.697 133.785Z" fill="#FFCE37"/>
<path d="M140.126 127.795C140.37 128.86 138.573 130.08 136.11 130.524C133.648 130.99 131.429 130.479 131.185 129.415C130.941 128.35 132.738 127.129 135.223 126.686C137.686 126.22 139.882 126.73 140.126 127.795Z" fill="#FFCE37"/>
<path d="M131.917 130.013C132.183 131.078 130.364 132.299 127.901 132.742C125.439 133.208 123.242 132.698 122.976 131.633C122.732 130.568 124.529 129.348 127.014 128.904C129.477 128.438 131.673 128.949 131.917 130.013Z" fill="#FFCE37"/>
<path d="M139.127 123.18C139.704 123.89 138.816 125.51 137.13 126.774C135.422 128.039 133.58 128.483 133.004 127.773C132.405 127.063 133.314 125.465 135 124.201C136.687 122.936 138.528 122.47 139.127 123.18Z" fill="#FFCE37"/>
<path d="M133.115 126.508C133.293 127.307 131.939 128.217 130.098 128.549C128.256 128.882 126.615 128.505 126.437 127.706C126.26 126.908 127.613 125.998 129.455 125.665C131.296 125.355 132.916 125.732 133.115 126.508Z" fill="#FFCE37"/>
<path d="M164.242 136.78C164.064 138.711 160.936 140.02 157.209 139.709C153.482 139.398 150.598 137.579 150.753 135.649C150.908 133.719 154.058 132.41 157.786 132.72C161.513 133.053 164.397 134.872 164.242 136.78Z" fill="#FFCE37"/>
<path d="M137.442 132.61C137.641 133.497 136.133 134.54 134.047 134.917C131.962 135.294 130.12 134.895 129.898 133.985C129.699 133.098 131.207 132.055 133.293 131.678C135.356 131.278 137.22 131.7 137.442 132.61Z" fill="#FFCE37"/>
<path d="M163.798 132.476C163.576 134.406 160.381 135.605 156.676 135.161C152.971 134.717 150.153 132.787 150.375 130.857C150.619 128.949 153.814 127.751 157.519 128.194C161.224 128.638 164.042 130.546 163.798 132.476Z" fill="#A16A2F"/>
<path d="M163.798 131.589C163.576 133.519 160.381 134.717 156.676 134.274C152.971 133.83 150.153 131.9 150.375 129.97C150.619 128.062 153.814 126.864 157.519 127.307C161.224 127.751 164.042 129.659 163.798 131.589Z" fill="#FFDA6A"/>
<path d="M174.891 130.479C174.336 132.343 170.986 132.986 167.414 131.921C163.842 130.856 161.38 128.483 161.934 126.641C162.467 124.778 165.817 124.134 169.389 125.199C172.983 126.264 175.423 128.638 174.891 130.479Z" fill="#FFCE37"/>
<path d="M180.926 135.937C180.837 137.868 177.754 139.31 174.026 139.154C170.299 138.999 167.348 137.313 167.415 135.383C167.504 133.453 170.587 132.01 174.315 132.166C178.042 132.321 180.993 134.007 180.926 135.937Z" fill="#A16A2F"/>
<path d="M180.926 135.05C180.837 136.98 177.754 138.422 174.026 138.267C170.299 138.111 167.348 136.425 167.415 134.495C167.504 132.565 170.587 131.123 174.315 131.278C178.042 131.433 180.993 133.119 180.926 135.05Z" fill="#FFCE37"/>
<path d="M162.955 121.916C163.443 123.779 160.936 126.087 157.342 127.063C153.726 128.039 150.398 127.307 149.887 125.443C149.399 123.557 151.906 121.272 155.5 120.296C159.117 119.32 162.445 120.052 162.955 121.916Z" fill="#FFCE37"/>
<path d="M179.75 145.81C179.217 147.673 175.867 148.317 172.296 147.252C168.701 146.187 166.261 143.813 166.816 141.971C167.348 140.108 170.698 139.464 174.27 140.529C177.864 141.594 180.305 143.968 179.75 145.81Z" fill="#A16A2F"/>
<path d="M150.552 197.658C150.619 198.767 148.045 199.744 144.806 199.832C141.545 199.921 138.861 199.078 138.794 197.969C138.727 196.859 141.301 195.905 144.54 195.817C147.801 195.728 150.486 196.549 150.552 197.658Z" fill="#A16A2F"/>
<path d="M150.552 196.593C150.619 197.702 148.045 198.656 144.806 198.745C141.545 198.834 138.861 198.013 138.794 196.904C138.727 195.794 141.301 194.818 144.54 194.73C147.801 194.641 150.486 195.484 150.552 196.593Z" fill="#FFCE37"/>
<path d="M179.75 144.922C179.217 146.786 175.867 147.429 172.296 146.364C168.701 145.3 166.261 142.926 166.816 141.084C167.348 139.221 170.698 138.577 174.27 139.642C177.864 140.707 180.305 143.081 179.75 144.922Z" fill="#FFCE37"/>
<path d="M139.904 198.501C139.993 199.744 137.02 200.831 133.293 200.942C129.544 201.031 126.438 200.099 126.371 198.856C126.282 197.614 129.255 196.527 132.982 196.416C136.732 196.327 139.816 197.259 139.904 198.501Z" fill="#A16A2F"/>
<path d="M139.904 197.303C139.993 198.546 137.02 199.633 133.293 199.722C129.544 199.832 126.438 198.901 126.371 197.636C126.282 196.394 129.255 195.307 132.982 195.218C136.732 195.107 139.816 196.039 139.904 197.303Z" fill="#FFCE37"/>
<path d="M143.454 195.772C143.543 197.037 140.57 198.124 136.843 198.212C133.093 198.323 129.987 197.369 129.921 196.127C129.832 194.885 132.805 193.797 136.532 193.687C140.281 193.598 143.365 194.53 143.454 195.772Z" fill="#A16A2F"/>
<path d="M143.454 194.574C143.543 195.817 140.57 196.904 136.843 197.015C133.093 197.103 129.987 196.172 129.921 194.929C129.832 193.665 132.805 192.578 136.532 192.489C140.281 192.378 143.365 193.332 143.454 194.574Z" fill="#FFCE37"/>
<path d="M140.126 193.354C140.215 194.619 137.242 195.706 133.514 195.794C129.765 195.905 126.659 194.974 126.593 193.709C126.504 192.467 129.477 191.379 133.204 191.291C136.953 191.18 140.037 192.112 140.126 193.354Z" fill="#A16A2F"/>
<path d="M140.126 192.156C140.215 193.399 137.242 194.486 133.514 194.597C129.765 194.685 126.659 193.754 126.593 192.511C126.504 191.269 129.477 190.16 133.204 190.071C136.953 189.982 140.037 190.914 140.126 192.156Z" fill="#FFCE37"/>
<path d="M122.045 197.947C122.112 198.901 119.805 199.744 116.898 199.832C113.97 199.899 111.574 199.189 111.507 198.213C111.44 197.259 113.748 196.394 116.676 196.327C119.583 196.261 122.001 196.97 122.045 197.947Z" fill="#A16A2F"/>
<path d="M122.045 197.015C122.112 197.968 119.805 198.812 116.898 198.9C113.97 198.967 111.574 198.235 111.507 197.281C111.44 196.305 113.748 195.462 116.676 195.395C119.583 195.328 122.001 196.038 122.045 197.015Z" fill="#FFCE37"/>
<path d="M124.818 195.839C124.884 196.793 122.577 197.636 119.648 197.725C116.742 197.791 114.324 197.081 114.279 196.105C114.213 195.129 116.52 194.286 119.427 194.219C122.333 194.131 124.751 194.863 124.818 195.839Z" fill="#A16A2F"/>
<path d="M124.818 194.885C124.884 195.861 122.577 196.704 119.648 196.793C116.742 196.859 114.324 196.127 114.279 195.173C114.213 194.197 116.52 193.354 119.427 193.288C122.333 193.199 124.751 193.931 124.818 194.885Z" fill="#FFCE37"/>
<path d="M122.222 193.953C122.289 194.93 119.981 195.773 117.075 195.839C114.146 195.928 111.75 195.196 111.684 194.242C111.617 193.266 113.925 192.423 116.831 192.334C119.759 192.267 122.155 192.999 122.222 193.953Z" fill="#A16A2F"/>
<path d="M122.222 193.021C122.289 193.998 119.981 194.841 117.075 194.907C114.146 194.996 111.75 194.264 111.684 193.288C111.617 192.334 113.925 191.491 116.831 191.402C119.759 191.335 122.155 192.045 122.222 193.021Z" fill="#FFCE37"/>
<path d="M203.066 197.192C203.133 198.324 200.471 199.3 197.121 199.389C193.77 199.477 190.997 198.634 190.931 197.525C190.864 196.394 193.504 195.417 196.854 195.329C200.204 195.24 202.978 196.083 203.066 197.192Z" fill="#A16A2F"/>
<path d="M203.066 196.105C203.133 197.237 200.471 198.213 197.121 198.302C193.77 198.391 190.997 197.547 190.931 196.438C190.864 195.307 193.504 194.331 196.854 194.242C200.204 194.153 202.978 194.996 203.066 196.105Z" fill="#FFCE37"/>
<path d="M206.239 194.752C206.306 195.883 203.666 196.86 200.316 196.948C196.965 197.037 194.192 196.194 194.104 195.062C194.037 193.953 196.699 192.977 200.049 192.888C203.399 192.8 206.173 193.643 206.239 194.752Z" fill="#A16A2F"/>
<path d="M206.239 193.665C206.306 194.796 203.666 195.773 200.316 195.861C196.965 195.95 194.192 195.107 194.104 193.998C194.037 192.866 196.699 191.89 200.049 191.801C203.399 191.713 206.173 192.556 206.239 193.665Z" fill="#FFCE37"/>
<path d="M203.267 192.6C203.334 193.709 200.672 194.685 197.322 194.774C193.972 194.863 191.198 194.02 191.132 192.91C191.065 191.779 193.705 190.803 197.055 190.714C200.406 190.625 203.179 191.468 203.267 192.6Z" fill="#A16A2F"/>
<path d="M203.267 191.513C203.334 192.622 200.672 193.598 197.322 193.687C193.972 193.776 191.198 192.933 191.132 191.823C191.065 190.692 193.705 189.716 197.055 189.627C200.406 189.538 203.179 190.381 203.267 191.513Z" fill="#FFCE37"/>
<path d="M161.203 199.389C161.292 200.631 158.319 201.718 154.592 201.829C150.842 201.918 147.736 200.986 147.67 199.744C147.581 198.501 150.554 197.414 154.281 197.303C158.03 197.214 161.114 198.146 161.203 199.389Z" fill="#A16A2F"/>
<path d="M161.203 198.19C161.292 199.433 158.319 200.52 154.592 200.609C150.842 200.72 147.736 199.788 147.67 198.545C147.581 197.281 150.554 196.194 154.281 196.105C158.03 196.016 161.114 196.948 161.203 198.19Z" fill="#FFCE37"/>
<path d="M164.753 196.682C164.842 197.924 161.869 199.011 158.141 199.1C154.392 199.211 151.286 198.279 151.219 197.015C151.131 195.772 154.104 194.685 157.831 194.596C161.58 194.485 164.664 195.417 164.753 196.682Z" fill="#A16A2F"/>
<path d="M164.753 195.462C164.842 196.704 161.869 197.791 158.141 197.902C154.392 197.991 151.286 197.059 151.219 195.817C151.131 194.574 154.104 193.465 157.831 193.376C161.58 193.288 164.664 194.22 164.753 195.462Z" fill="#FFCE37"/>
<path d="M184.431 114.839C183.832 116.924 180.105 117.701 176.111 116.547C172.118 115.393 169.345 112.775 169.921 110.668C170.52 108.582 174.248 107.806 178.241 108.959C182.235 110.113 185.008 112.753 184.431 114.839Z" fill="#A16A2F"/>
<path d="M183.765 114.195C183.233 116.059 179.905 116.724 176.311 115.704C172.739 114.683 170.254 112.354 170.765 110.49C171.297 108.626 174.647 107.939 178.241 108.959C181.813 109.98 184.298 112.331 183.765 114.195Z" fill="#FFEC6A"/>
<path d="M157.564 120.851C157.608 121.649 154.747 123.158 151.175 124.179C147.625 125.221 144.696 125.399 144.674 124.578C144.63 123.757 147.492 122.271 151.041 121.228C154.613 120.207 157.542 120.03 157.564 120.851Z" fill="#A16A2F"/>
<path d="M157.564 120.185C157.608 120.984 154.747 122.493 151.175 123.513C147.625 124.556 144.696 124.733 144.674 123.912C144.63 123.092 147.492 121.605 151.041 120.562C154.613 119.542 157.542 119.364 157.564 120.185Z" fill="#FFDA6A"/>
<path d="M172.274 120.296C172.03 122.381 168.613 123.668 164.642 123.202C160.671 122.714 157.653 120.629 157.897 118.521C158.141 116.436 161.558 115.149 165.529 115.615C169.501 116.103 172.54 118.188 172.274 120.296Z" fill="#A16A2F"/>
<path d="M171.785 119.808C171.563 121.738 168.368 122.936 164.663 122.493C160.958 122.049 158.141 120.119 158.363 118.211C158.607 116.281 161.779 115.083 165.484 115.526C169.189 115.97 172.007 117.9 171.785 119.808Z" fill="#FFDA6A"/>
<path d="M187.914 133.053C186.428 134.273 183.3 132.898 180.948 129.992C178.596 127.085 177.931 123.735 179.417 122.515C180.926 121.295 184.054 122.67 186.383 125.577C188.735 128.483 189.423 131.833 187.914 133.053Z" fill="#FFCE37"/>
<path d="M192.285 125.953C191.398 127.307 188.558 127.018 185.962 125.31C183.344 123.602 181.947 121.095 182.834 119.741C183.699 118.388 186.539 118.676 189.157 120.407C191.775 122.115 193.173 124.6 192.285 125.953Z" fill="#FFCE37"/>
<path d="M199.295 142.77C199.118 144.701 195.99 146.01 192.262 145.699C188.535 145.388 185.651 143.569 185.806 141.639C185.962 139.709 189.112 138.4 192.839 138.71C196.566 139.043 199.451 140.862 199.295 142.77Z" fill="#FFCE37"/>
<path d="M199.14 130.324C199.007 131.966 196.367 133.053 193.239 132.787C190.11 132.521 187.692 130.99 187.825 129.348C187.958 127.729 190.599 126.619 193.727 126.886C196.855 127.152 199.273 128.683 199.14 130.324Z" fill="#F1C83A"/>
<path d="M184.01 121.871C184.143 123.824 181.237 125.577 177.51 125.843C173.782 126.109 170.676 124.733 170.543 122.803C170.41 120.873 173.316 119.098 177.044 118.854C180.749 118.588 183.877 119.941 184.01 121.871Z" fill="#A16A2F"/>
<path d="M184.01 120.984C184.143 122.936 181.237 124.689 177.51 124.955C173.782 125.221 170.676 123.846 170.543 121.916C170.41 119.985 173.316 118.211 177.044 117.967C180.749 117.7 183.877 119.054 184.01 120.984Z" fill="#FFCE37"/>
<path d="M189.999 134.54C190.132 136.47 187.226 138.245 183.499 138.511C179.771 138.755 176.643 137.402 176.51 135.471C176.377 133.541 179.305 131.766 183.01 131.5C186.738 131.256 189.866 132.609 189.999 134.54Z" fill="#A16A2F"/>
<path d="M189.999 133.652C190.132 135.582 187.226 137.357 183.499 137.623C179.771 137.867 176.643 136.514 176.51 134.584C176.377 132.654 179.305 130.879 183.01 130.612C186.738 130.368 189.866 131.722 189.999 133.652Z" fill="#FFDA6A"/>
<path d="M201.115 138.577C200.161 140.264 196.744 140.13 193.505 138.289C190.266 136.425 188.402 133.563 189.356 131.877C190.31 130.213 193.727 130.324 196.966 132.188C200.205 134.029 202.069 136.891 201.115 138.577Z" fill="#A16A2F"/>
<path d="M201.337 137.912C200.383 139.598 196.966 139.465 193.727 137.624C190.488 135.76 188.624 132.898 189.578 131.212C190.532 129.548 193.949 129.659 197.188 131.522C200.427 133.364 202.291 136.226 201.337 137.912Z" fill="#FFDA6A"/>
<path d="M210.1 153.021C208.613 154.241 205.485 152.865 203.133 149.959C200.782 147.053 200.116 143.702 201.603 142.482C203.111 141.262 206.239 142.638 208.569 145.544C210.921 148.45 211.608 151.8 210.1 153.021Z" fill="#A16A2F"/>
<path d="M210.544 152.133C209.058 153.353 205.93 151.978 203.578 149.071C201.226 146.165 200.561 142.815 202.047 141.595C203.556 140.374 206.684 141.75 209.013 144.656C211.365 147.563 212.053 150.913 210.544 152.133Z" fill="#FFCE37"/>
<path d="M208.17 138.355C206.861 139.376 204.199 138.156 202.202 135.627C200.227 133.075 199.695 130.191 201.004 129.171C202.313 128.128 204.975 129.348 206.95 131.899C208.946 134.429 209.479 137.313 208.17 138.355Z" fill="#FFDA6A"/>
<path d="M190.133 146.986C189.223 148.694 185.807 148.627 182.501 146.853C179.195 145.078 177.265 142.26 178.175 140.552C179.107 138.843 182.523 138.888 185.829 140.685C189.135 142.46 191.065 145.277 190.133 146.986Z" fill="#A16A2F"/>
<path d="M190.377 146.32C189.445 148.029 186.051 147.962 182.767 146.209C179.484 144.434 177.554 141.617 178.485 139.909C179.395 138.2 182.812 138.267 186.095 140.019C189.379 141.794 191.287 144.612 190.377 146.32Z" fill="#FFDA6A"/>
<path d="M201.048 147.451C200.649 149.004 197.831 149.692 194.747 148.938C191.664 148.206 189.489 146.32 189.866 144.745C190.266 143.192 193.083 142.504 196.167 143.258C199.251 143.99 201.425 145.876 201.048 147.451Z" fill="#A16A2F"/>
<path d="M201.092 146.853C200.693 148.428 197.897 149.093 194.836 148.361C191.774 147.629 189.6 145.743 189.977 144.168C190.376 142.615 193.172 141.927 196.233 142.682C199.295 143.414 201.469 145.277 201.092 146.853Z" fill="#FFCE37"/>
<path d="M168.324 141.262C168.923 143.103 166.549 145.544 162.999 146.72C159.472 147.895 156.1 147.363 155.501 145.522C154.902 143.68 157.275 141.24 160.825 140.064C164.353 138.888 167.725 139.42 168.324 141.262Z" fill="#A16A2F"/>
<path d="M168.324 140.374C168.923 142.216 166.549 144.656 162.999 145.832C159.472 147.008 156.1 146.476 155.501 144.634C154.902 142.793 157.275 140.352 160.825 139.176C164.353 138.001 167.725 138.533 168.324 140.374Z" fill="#FFEC6A"/>
<path d="M123.709 109.758C123.709 109.758 126.171 114.816 129.033 114.195C129.033 114.195 131.407 113.64 131.696 109.758C131.696 109.758 130.209 112.686 128.368 112.42C128.368 112.42 125.572 112.398 123.709 109.758Z" fill="#DECDCD"/>
<path d="M136.731 153.464C136.731 153.464 130.807 155.66 134.401 162.56C134.401 162.56 136.354 164.468 137.907 164.557V163.137C137.907 163.137 134.046 160.896 134.978 157.724C134.978 157.724 135.799 155.838 137.33 156.304C137.33 156.304 137.951 153.309 136.731 153.464Z" fill="#FFCE37"/>
</svg>
