<svg width="279" height="112" viewBox="0 0 279 112" fill="none" xmlns="http://www.w3.org/2000/svg">
<path d="M268.533 50.1944C270.044 49.0618 271.466 47.8128 272.802 46.4479C275.939 43.0065 277.986 38.6942 278.727 34.0767C279.467 27.6297 277.768 21.139 273.979 15.9116C271.801 11.6426 268.272 8.20109 263.959 6.15371C251.327 -2.64567 235.993 -3.21171 227.412 13.3851L226.758 14.2125C226.439 14.5901 226.134 14.9966 225.843 15.4322C225.277 15.65 224.667 15.8244 224.101 16.0422C203.366 17.5233 182.602 18.9027 161.808 20.1805C141.944 20.5726 148.74 20.3549 128.92 20.2677C107.879 20.2242 123.779 18.8738 102.739 19.1787C91.5875 19.7014 80.3923 19.1352 69.2842 17.5235C63.0114 16.6958 56.8257 15.0839 50.9885 12.6445C46.066 5.10841 37.2231 -0.467688 29.2949 1.27476C16.7928 4.01912 3.50665 14.6919 1.63352 27.2375C0.805854 30.3304 0.675202 33.5538 1.28506 36.7338C2.15629 41.2642 4.29077 45.4023 7.47074 48.7565C8.80662 50.1215 10.2587 51.3705 11.8269 52.5031C18.666 58.2096 17.6641 62.1734 13.0466 68.1413C-0.108901 85.4351 11.0863 107.565 31.5165 111.398C40.708 113.097 50.4221 109.176 57.6533 103.818C63.7519 99.3314 66.1042 92.4921 66.9319 85.348C74.163 79.5979 82.8317 80.0339 92.3281 80.2517C97.7733 80.2952 103.175 80.0337 108.576 79.4239C126.349 78.5091 117.768 78.6831 135.628 78.3782C153.967 78.0733 145.691 77.2456 163.899 77.2892C173.047 77.2892 182.239 77.7251 191.474 78.2914C196.309 78.4657 201.144 79.0753 205.892 80.2079C208.913 81.3985 211.846 82.7636 214.692 84.3028C215.345 91.4468 217.872 98.2421 223.927 102.555C231.289 107.869 241.177 111.441 250.281 109.481C270.494 105.212 281.21 82.8215 267.619 65.8326C262.958 59.9954 261.825 56.1187 268.533 50.1944Z" fill="#6F6F6E"/>
<path d="M252.154 44.0517C251.893 44.8358 251.632 45.6636 251.327 46.5348C250.935 48.0595 250.847 49.6711 251.152 51.2393C251.937 53.1996 253.113 54.9422 254.594 56.4233C254.637 55.2907 254.899 54.2015 255.378 53.1996C260.562 42.3093 277.028 38.9116 271.931 23.0117C267.444 9.11569 250.368 4.10632 237.866 10.989C232.378 14.169 228.326 19.3092 226.453 25.3642C224.841 27.8472 223.665 30.548 223.012 33.423C222.518 35.543 222.17 37.692 221.966 39.87C221.85 39.9572 221.734 40.0006 221.618 40.0006C221.502 40.0006 221.4 39.9572 221.313 39.87C217.915 36.1673 219.919 28.0215 222.707 21.6615C216.695 23.1861 210.51 23.8829 204.281 23.7958C192.563 24.362 180.757 24.6671 168.996 24.972L154.926 25.2332C133.145 26.4965 138.111 27.9776 116.287 28.1519C95.2031 28.3261 110.754 27.8034 89.6272 26.845C80.6536 26.5401 72.1592 24.885 63.2727 23.6218C60.1362 23.3604 57.1306 22.3582 54.4298 20.7465C55.301 24.4927 54.6911 28.4133 52.6873 31.724C52.6002 31.8692 52.4695 32 52.2952 32.1162C52.15 32.2324 51.9758 32.305 51.7725 32.334C51.1626 32.0726 50.8142 31.4189 50.5092 30.4605C50.4802 30.4315 50.4656 30.4028 50.4656 30.3738C50.4656 30.3447 50.4802 30.3156 50.5092 30.2866C50.5673 30.0833 50.6835 29.9089 50.8577 29.7637C50.8577 25.7125 49.9429 21.705 48.2005 18.0894C46.4145 14.4303 43.8443 11.2501 40.6643 8.76712C35.7855 5.50002 30.8195 4.19318 23.327 8.1137C15.3988 12.252 6.9915 18.307 5.77179 27.9341C4.50851 38.2581 10.215 43.2241 17.3591 49.2791C18.4045 50.0922 19.4065 50.9635 20.3648 51.8928C20.9747 48.6257 20.4955 45.2281 18.9709 42.2659C17.8818 40.4799 17.1848 38.4323 16.9235 36.3413C16.7057 35.2958 18.1868 33.7279 19.0144 34.8605C23.3705 40.6541 27.596 44.6183 25.1565 52.3722C24.4886 54.5503 23.69 56.6844 22.7607 58.7754C22.1944 62.3474 20.7133 65.7018 18.4046 68.5333C15.9651 73.717 15.2681 79.5543 16.4443 85.1737C19.9292 98.1986 31.0809 105.604 44.6285 100.899C48.2005 99.723 51.4676 97.8065 54.2119 95.1928C57.8711 92.4485 60.8332 88.8763 62.837 84.7815C64.8409 80.6432 65.8428 76.1128 65.7557 71.4953C65.9299 71.7277 66.0315 71.9746 66.0606 72.236C66.6269 72.4973 67.0625 73.107 67.1061 74.2396C67.1496 76.7662 67.1496 79.2495 66.9754 81.776C75.6441 74.5449 87.7976 76.8533 100.082 76.4177C121.95 75.59 107.095 74.8932 129.007 74.6318C150.918 74.3705 146.431 73.0201 168.56 73.4122C183.24 73.7171 200.752 72.1051 213.864 79.9026C213.69 77.6374 213.646 75.3725 213.646 73.1944L213.69 73.02C214.648 77.4197 216.478 81.6018 219.091 85.2609C219.73 86.684 220.427 88.0777 221.182 89.4427C222.881 94.4958 226.497 98.6777 231.245 101.074C235.819 103.426 241.003 104.384 246.143 103.861C251.283 103.295 256.162 101.248 260.126 97.9371C262.261 96.2818 264.09 94.2779 265.528 91.9691C266.486 88.0922 266.486 83.9973 265.528 80.1204C264.395 76.5048 262.827 73.1072 260.91 69.8401C258.035 67.1974 255.291 64.4094 252.677 61.4762C250.194 59.2982 248.277 56.4666 247.188 53.3302C246.753 51.5878 246.84 49.715 247.406 48.0161C248.06 46.535 248.974 45.1407 250.063 43.9645L250.368 43.6599C251.007 43.0501 251.704 42.4836 252.459 41.9609C253.069 41.6124 253.708 41.3076 254.376 41.0463C254.289 41.1334 254.216 41.2347 254.158 41.3509C254.071 41.4961 253.955 41.6126 253.81 41.6997C253.635 41.7868 253.461 41.8446 253.287 41.8737C253.548 42.6142 253.156 43.2241 252.154 44.0517Z" fill="#FFFEEE"/>
<path opacity="0.5" d="M252.154 44.0515C251.893 44.8356 251.631 45.6633 251.326 46.5345C250.934 48.0592 250.847 49.6709 251.152 51.2391C251.936 53.1993 253.112 54.9419 254.637 56.423C254.637 55.2904 254.898 54.2012 255.377 53.1993C259.603 44.3128 271.408 40.349 272.802 30.5913C270.188 31.8546 267.183 32.0285 264.438 31.1137C261.432 29.9811 258.165 29.807 255.203 28.6744C250.586 26.8013 244.531 32.9869 242.57 36.646C239.39 42.4397 238.65 49.3223 240.479 55.7258C241.743 59.6899 242.353 63.9155 242.178 68.0974C241.569 72.6277 235.426 81.1658 230.33 76.4612C227.542 73.8475 226.975 70.0576 224.841 67.0083C223.491 65.0481 222.794 68.5765 220.398 67.8796C207.809 64.264 195.655 65.658 182.848 66.2243C167.95 66.8777 153.008 66.2242 138.111 66.5727C123.213 66.8777 134.451 66.7904 119.336 67.5745C102.957 68.3587 123.43 69.0992 107.008 69.7526C99.5152 70.3189 91.9356 69.8834 84.4866 68.533C79.085 67.3568 73.2042 63.7412 67.5848 63.8718C63.3594 64.0025 60.9199 61.3455 58.2627 64.1335C55.5619 67.4441 52.1641 70.1884 48.3307 72.1051C47.1982 72.6278 46.022 72.8889 44.8022 72.9325C43.5825 72.9761 42.3628 72.7147 41.2302 72.2791C40.0976 71.7999 39.0957 71.103 38.2681 70.1882C37.4404 69.317 36.787 68.2717 36.3514 67.0955C33.3457 60.6049 32.4744 53.2429 31.3419 46.2295C30.1657 39.2162 27.9005 23.4469 17.8814 23.9261C14.4401 24.1874 10.9552 25.2332 8.7771 21.6612L8.38504 20.964C7.12176 23.0985 6.25054 25.4944 5.94562 28.021C4.68234 38.3015 10.3889 43.2676 17.5329 49.3226C18.5784 50.1648 19.5803 51.0504 20.5386 51.9797C21.1485 48.669 20.6693 45.3147 19.1447 42.309C18.0557 40.523 17.3587 38.5194 17.0973 36.3848C16.8795 35.3829 18.3606 33.771 19.1883 34.9036C23.3701 40.6537 27.5955 44.618 25.1997 52.3719C24.5027 54.55 23.6896 56.6841 22.7603 58.7751C22.194 62.3471 20.7129 65.7015 18.4041 68.533C15.9647 73.7168 15.2677 79.5541 16.4439 85.1735C19.9288 98.1983 31.0805 105.604 44.628 100.899C48.2001 99.7228 51.4672 97.8062 54.2115 95.1926C57.8707 92.4482 60.8328 88.876 62.8366 84.7812C64.8404 80.6429 65.8424 76.1126 65.7553 71.4951C65.9295 71.7274 66.0311 71.9743 66.0602 72.2357C66.6265 72.4971 67.0621 73.1067 67.1056 74.2393C67.1492 76.7659 67.1492 79.2492 67.0185 81.7758C75.6436 74.5446 87.7972 76.853 100.081 76.4174C121.993 75.5897 107.095 74.8929 129.006 74.6316C150.918 74.3702 146.431 73.0199 168.56 73.4119C183.24 73.7169 200.752 72.1051 213.864 79.9461C213.689 77.6374 213.646 75.3722 213.689 73.1941V73.0197C214.648 77.4194 216.521 81.6015 219.134 85.2607C219.744 86.6837 220.427 88.0775 221.182 89.4424C222.881 94.4955 226.496 98.6775 231.244 101.073C235.818 103.426 241.046 104.384 246.142 103.861C251.283 103.295 256.162 101.247 260.169 97.9368C262.26 96.2815 264.09 94.2776 265.527 91.9689C266.486 88.0919 266.486 83.9971 265.571 80.1201C264.395 76.5045 262.826 73.1069 260.91 69.8398C258.035 67.1971 255.305 64.4091 252.72 61.476C250.194 59.2979 248.277 56.4663 247.188 53.3299C246.752 51.5875 246.839 49.7147 247.406 48.0158C248.059 46.5347 248.974 45.1404 250.063 43.9643L250.368 43.6597C251.007 43.0498 251.704 42.4833 252.459 41.9606C253.069 41.6121 253.708 41.3074 254.376 41.046C254.288 41.1331 254.216 41.2344 254.158 41.3506C254.071 41.4958 253.954 41.6123 253.809 41.6994C253.635 41.7865 253.461 41.8444 253.286 41.8734C253.548 42.6139 253.156 43.2238 252.154 44.0515Z" fill="#C9CACC"/>
</svg>
