<svg width="54" height="55" viewBox="0 0 54 55" fill="none" xmlns="http://www.w3.org/2000/svg">
<path fill-rule="evenodd" clip-rule="evenodd" d="M10.4997 22.9366C15.2865 26.8951 16.2005 34.2256 12.2571 36.3573C8.06572 38.503 1.79059 34.629 0.479162 29.0631C-1.36773 21.3709 4.40686 17.891 10.4997 22.9366ZM13.6243 4.92555C17.3929 2.63788 22.534 6.99095 23.5523 13.2371C24.3347 18.2525 22.7599 22.6552 19.9036 23.481C16.1472 24.5238 12.1139 20.6882 10.6963 14.7136C9.91566 11.1912 11.3797 6.29722 13.6243 4.92555ZM15.5417 40.1521C16.7115 38.8414 18.6639 35.2468 19.9879 32.2685C21.8934 27.847 22.8199 26.6331 24.9132 25.5189C28.5353 23.5713 32.6025 25.0824 37.6985 30.1016C39.8096 32.2213 42.3294 34.2348 43.3403 34.5092C45.7897 35.2825 49.0245 39.6609 49.4415 42.6233C49.882 45.9991 47.6909 49.7733 45 50.5897C43.7785 50.9908 40.3839 51.1007 37.5493 50.8469C33.6305 50.4888 31.0861 50.965 27.3533 52.4212C18.4368 56.0795 15.5975 55.7431 13.1708 50.987C11.4854 47.5989 12.2757 43.9872 15.5417 40.1521ZM30.9432 1.70258C33.8398 0.127997 35.6325 1.02157 37.8515 5.04292C40.996 10.7536 39.3252 19.309 34.7561 20.6467C31.0825 21.6848 27.2877 17.67 26.7251 12.1444C26.2235 7.69378 28.0418 3.19449 30.9432 1.70258ZM45.2991 13.4953C46.979 12.4046 48.6965 11.9752 49.7949 12.3275C52.3269 13.0962 54.1279 17.0584 53.6683 20.6512C52.4579 30.01 43.0312 33.4484 41.0735 25.2648C40.0759 20.8424 41.9392 15.6768 45.2991 13.4953Z" fill="#F9F7F1"/>
</svg>
