<svg width="1259" height="680" viewBox="0 0 1259 680" fill="none" xmlns="http://www.w3.org/2000/svg">
<path d="M0.610352 0.947113L64.3589 56.6814C74.8408 65.9128 87.3663 73.1825 101.078 78.1443C114.791 83.1062 129.492 85.7025 144.391 85.7025C159.223 85.7025 173.925 83.1062 187.637 78.1443C201.415 73.1825 213.874 65.9128 224.356 56.6814L260.812 24.8333C264.504 21.6023 269.514 19.8137 274.788 19.8137C279.996 19.8137 285.006 21.6023 288.698 24.8333L289.094 25.1794C290.94 26.7949 292.456 28.7566 293.511 30.949C294.499 33.0838 295.093 35.3916 295.093 37.7571C295.093 40.1227 294.499 42.4305 293.511 44.5653C292.456 46.7577 290.94 48.7194 289.094 50.3349L173.199 151.649C153.884 168.554 143.006 191.517 143.006 215.461C143.006 239.347 153.884 262.31 173.199 279.273C192.581 296.177 218.819 305.697 246.177 305.697C273.602 305.697 299.839 296.177 319.155 279.273L672.837 -29.9779L750.628 -20.6889L621.812 91.9337C608.429 103.646 597.882 117.493 590.63 132.725C583.378 148.014 579.687 164.342 579.687 180.901C579.687 197.402 583.378 213.73 590.63 229.019C597.882 244.251 608.429 258.156 621.812 269.81C635.195 281.523 651.016 290.754 668.486 297.101C685.956 303.389 704.613 306.678 723.533 306.678C742.387 306.678 761.109 303.389 778.579 297.101C796.049 290.754 811.871 281.523 825.254 269.81L1022.1 97.7033C1024.08 95.9147 1026.52 94.53 1029.16 93.5491C1031.86 92.5683 1034.69 92.1068 1037.53 92.1068C1040.43 92.1068 1043.26 92.5683 1045.9 93.5491C1048.6 94.53 1050.98 95.9147 1053.02 97.7033C1055.06 99.4919 1056.65 101.569 1057.77 103.934C1058.89 106.242 1059.42 108.723 1059.42 111.262C1059.42 113.743 1058.89 116.224 1057.77 118.589C1056.65 120.897 1055.06 122.974 1053.02 124.763L761.769 379.548C754.187 386.183 748.188 394.03 744.101 402.627C740.014 411.223 737.904 420.512 737.904 429.859C737.904 439.148 740.014 448.437 744.101 457.034C748.188 465.688 754.187 473.477 761.769 480.112C769.284 486.69 778.25 491.94 788.138 495.517C797.961 499.094 808.575 500.94 819.254 500.94C829.868 500.94 840.482 499.094 850.305 495.517C860.193 491.94 869.159 486.69 876.74 480.112L1078.6 303.563C1080.77 301.659 1083.35 300.158 1086.18 299.12C1089.08 298.081 1092.11 297.562 1095.21 297.562C1098.24 297.562 1101.34 298.081 1104.18 299.12C1107.01 300.158 1109.58 301.659 1111.76 303.563C1113.93 305.467 1115.65 307.717 1116.84 310.255C1118.02 312.736 1118.62 315.39 1118.62 318.044C1118.62 320.756 1118.02 323.41 1116.84 325.891C1115.65 328.43 1113.93 330.68 1111.76 332.584L1108.2 335.642C1076.03 363.797 1057.97 401.992 1057.97 441.802C1057.97 481.612 1076.03 519.807 1108.2 547.963L1258.9 679.683V-84.0391" fill="#FFD394"/>
</svg>
