<svg width="1512" height="1022" viewBox="0 0 1512 1022" fill="none" xmlns="http://www.w3.org/2000/svg">
<path d="M1349.88 82.5938C1367.67 60.6144 1396.59 60.6144 1414.38 82.5938L1544.62 242.98C1562.42 264.89 1562.42 300.492 1544.62 322.401C1526.83 344.311 1497.92 344.311 1480.13 322.401L1349.88 162.015C1332.03 140.105 1332.03 104.503 1349.88 82.5938ZM94.9151 732.356C112.707 710.377 141.619 710.377 159.411 732.356L289.658 892.743C307.45 914.652 307.45 950.184 289.658 972.164C271.866 994.073 242.954 994.073 225.162 972.164L94.9151 811.777C77.066 789.868 77.066 754.265 94.9151 732.356ZM296.786 135.471C314.578 113.491 343.49 113.491 361.283 135.471L491.529 295.857C509.322 317.767 509.322 353.299 491.529 375.278C473.737 397.188 444.825 397.188 427.033 375.278L296.786 214.892C278.937 192.982 278.937 157.38 296.786 135.471ZM853.358 652.303C871.15 630.324 900.062 630.324 917.854 652.303L1048.1 812.69C1065.89 834.599 1065.89 870.131 1048.1 892.111C1030.31 914.02 1001.4 914.02 983.605 892.111L853.358 731.724C835.509 709.815 835.509 674.213 853.358 652.303Z" fill="#ABE4EF"/>
<path d="M1259.01 75.1433C1277.59 53.8332 1306.7 55.1636 1323.95 78.111L1468.79 270.217C1486.04 293.094 1484.96 328.938 1466.38 350.178C1447.8 371.417 1418.69 370.087 1401.44 347.21L1256.6 155.104C1239.3 132.224 1240.38 96.3801 1259.01 75.1433ZM-24.1963 671.575C-5.6164 650.265 23.4921 651.596 40.7381 674.543L185.578 866.649C202.826 889.526 201.748 925.3 183.168 946.61C164.59 967.849 135.482 966.519 118.234 943.642L-26.6063 751.536C-43.9118 728.657 -42.8315 692.812 -24.1963 671.575ZM197.159 79.9231C215.739 58.613 244.847 59.9434 262.093 82.8908L406.933 274.997C424.181 297.874 423.103 333.647 404.523 354.957C385.945 376.197 356.837 374.866 339.589 351.99L194.749 159.884C177.443 137.004 178.524 101.16 197.159 79.9231ZM741.829 625.877C760.409 604.567 789.518 605.898 806.764 628.845L951.604 820.951C968.852 843.828 967.773 879.601 949.194 900.911C930.616 922.151 901.507 920.82 884.259 897.944L739.419 705.838C722.114 682.958 723.194 647.114 741.829 625.877Z" fill="#90D6E2"/>
</svg>
