<svg width="118" height="19" viewBox="0 0 118 19" fill="none" xmlns="http://www.w3.org/2000/svg">
<path d="M9.71631 0.166242C7.82757 0.376102 6.30601 2.36977 6.88312 3.83879C7.40777 5.20288 9.92614 5.20329 11.3952 3.73427C13.3364 1.898 12.392 -0.201013 9.71631 0.166242ZM14.1758 4.10112C12.1297 4.36344 10.6607 5.57054 10.8705 6.88217C11.0804 7.879 12.497 8.56084 14.1758 8.50838C16.3269 8.40345 17.9533 6.8296 17.3237 5.46551C16.9565 4.67854 15.3825 3.99619 14.1758 4.10112ZM1.89895 3.57647C0.22007 4.20605 0.0102605 5.15042 0.902165 8.29831C1.26942 9.55747 1.26945 10.4497 1.05959 11.7613C0.849726 12.7057 0.744718 13.8075 0.849648 14.2273C1.00704 15.2241 2.21371 16.0635 3.31548 16.0635C4.36478 16.0111 5.93883 15.1188 6.30608 14.3318C6.41101 14.017 7.19796 13.2301 7.98494 12.6005C9.87368 11.0791 10.5032 9.76754 10.031 8.50838C9.71623 7.7214 9.34897 7.35405 7.93242 6.56707C6.98805 6.04242 5.88631 5.20329 5.46659 4.78357C4.31236 3.52441 3.10564 3.15675 1.89895 3.57647ZM14.4382 9.60994C12.5494 9.55747 11.0804 10.7117 11.2903 11.9709C11.5526 13.5448 14.3332 14.437 16.3793 13.5976C17.7959 13.0205 18.1631 12.4433 17.7959 11.394C17.3761 10.3971 15.9072 9.60994 14.4382 9.60994ZM9.50637 13.9122C6.67326 14.227 7.46023 17.5325 10.5557 18.3194C11.7624 18.5818 13.1265 18.1094 13.4938 17.3224C13.6512 16.9551 13.5461 16.378 13.2838 15.7484C12.6542 14.5417 10.9754 13.7023 9.50637 13.9122ZM42.7692 0.166242C40.828 0.376102 39.3066 2.36977 39.8837 3.83879C40.4608 5.20288 42.9266 5.20329 44.4481 3.73427C46.3893 1.898 45.3925 -0.201013 42.7692 0.166242ZM47.2288 4.10112C45.1302 4.36344 43.7136 5.57054 43.9234 6.88217C44.0808 7.879 45.4974 8.56084 47.1762 8.50838C49.3273 8.40345 51.0062 6.8296 50.3767 5.46551C50.0094 4.67854 48.383 3.99619 47.2288 4.10112ZM34.9519 3.57647C33.273 4.20605 33.0631 5.15042 33.9026 8.29831C34.2698 9.55747 34.3223 10.4497 34.06 11.7613C33.9026 12.7057 33.7977 13.8075 33.8502 14.2273C34.0076 15.2241 35.2142 16.0635 36.3684 16.0635C37.3652 16.0111 38.9392 15.1188 39.3065 14.3318C39.4639 14.017 40.1984 13.2301 40.9854 12.6005C42.8741 11.0791 43.5562 9.76754 43.0316 8.50838C42.7168 7.7214 42.3495 7.35405 40.933 6.56707C39.9886 6.04242 38.8867 5.20329 38.467 4.78357C37.3128 3.52441 36.1586 3.15675 34.9519 3.57647ZM47.4386 9.60994C45.6023 9.55747 44.0808 10.7117 44.2907 11.9709C44.553 13.5448 47.3337 14.437 49.4323 13.5976C50.8488 13.0205 51.216 12.4433 50.7963 11.394C50.3766 10.3971 48.9601 9.60994 47.4386 9.60994ZM42.5069 13.9122C39.6738 14.227 40.4608 17.5325 43.5562 18.3194C44.7629 18.5818 46.1269 18.1094 46.4942 17.3224C46.6516 16.9551 46.5992 16.378 46.2844 15.7484C45.7073 14.5417 44.0284 13.7023 42.5069 13.9122ZM75.7697 0.166242C73.8809 0.376102 72.307 2.36977 72.9366 3.83879C73.4613 5.20288 75.9795 5.20329 77.4485 3.73427C79.3897 1.898 78.4454 -0.201013 75.7697 0.166242ZM80.2292 4.10112C78.1831 4.36344 76.714 5.57054 76.9239 6.88217C77.1337 7.879 78.4978 8.56084 80.2292 8.50838C82.3802 8.40345 84.0067 6.8296 83.3771 5.46551C83.0098 4.67854 81.4359 3.99619 80.2292 4.10112ZM67.9524 3.57647C66.2736 4.20605 66.0636 5.15042 66.9555 8.29831C67.3228 9.55747 67.3228 10.4497 67.1129 11.7613C66.9031 12.7057 66.7982 13.8075 66.9031 14.2273C67.0605 15.2241 68.2672 16.0635 69.369 16.0635C70.4183 16.0111 71.9921 15.1188 72.3069 14.3318C72.4643 14.017 73.2513 13.2301 74.0383 12.6005C75.927 11.0791 76.5567 9.76754 76.0845 8.50838C75.7697 7.7214 75.4025 7.35405 73.9859 6.56707C73.0415 6.04242 71.8872 5.20329 71.5199 4.78357C70.3132 3.52441 69.1591 3.15675 67.9524 3.57647ZM80.4915 9.60994C78.6028 9.55747 77.1338 10.7117 77.3436 11.9709C77.6059 13.5448 80.3866 14.437 82.4327 13.5976C83.8492 13.0205 84.2166 12.4433 83.7968 11.394C83.4296 10.3971 81.9605 9.60994 80.4915 9.60994ZM75.5599 13.9122C72.7267 14.227 73.5137 17.5325 76.5566 18.3194C77.7633 18.5818 79.1799 18.1094 79.5471 17.3224C79.7045 16.9551 79.5996 16.378 79.3373 15.7484C78.7077 14.5417 77.0289 13.7023 75.5599 13.9122ZM108.823 0.166242C106.881 0.376102 105.36 2.36977 105.937 3.83879C106.462 5.20288 108.98 5.20329 110.501 3.73427C112.443 1.898 111.446 -0.201013 108.823 0.166242ZM113.23 4.10112C111.183 4.36344 109.714 5.57054 109.977 6.88217C110.134 7.879 111.551 8.56084 113.23 8.50838C115.381 8.40345 117.007 6.8296 116.43 5.46551C116.063 4.67854 114.436 3.99619 113.23 4.10112ZM100.953 3.57647C99.274 4.20605 99.0642 5.15042 99.9561 8.29831C100.323 9.55747 100.376 10.4497 100.113 11.7613C99.9035 12.7057 99.8511 13.8075 99.9036 14.2273C100.061 15.2241 101.268 16.0635 102.422 16.0635C103.419 16.0111 104.993 15.1188 105.36 14.3318C105.517 14.017 106.252 13.2301 107.039 12.6005C108.928 11.0791 109.61 9.76754 109.085 8.50838C108.77 7.7214 108.403 7.35405 106.986 6.56707C106.042 6.04242 104.94 5.20329 104.521 4.78357C103.366 3.52441 102.16 3.15675 100.953 3.57647ZM113.492 9.60994C111.603 9.55747 110.134 10.7117 110.344 11.9709C110.606 13.5448 113.387 14.437 115.433 13.5976C116.902 13.0205 117.269 12.4433 116.85 11.394C116.43 10.3971 115.013 9.60994 113.492 9.60994ZM108.56 13.9122C105.727 14.227 106.514 17.5325 109.61 18.3194C110.816 18.5818 112.18 18.1094 112.548 17.3224C112.705 16.9551 112.653 16.378 112.338 15.7484C111.761 14.5417 110.029 13.7023 108.56 13.9122Z" fill="#0F0901"/>
</svg>
