<svg width="1512" height="747" viewBox="0 0 1512 747" fill="none" xmlns="http://www.w3.org/2000/svg">
<path opacity="0.15" d="M211.862 719.822C210.122 723.543 214.287 725.68 216.819 730.153C220.51 736.763 226.31 737.317 228.894 734.626C231.478 731.895 228.261 728.174 229.948 724.928C231.53 721.643 237.331 720.376 237.647 717.051C237.964 713.766 233.165 711.351 224.623 714.518C218.77 716.616 213.813 716.181 211.862 719.822ZM203.794 727.699C208.54 726.709 213.075 727.699 213.918 730.074C214.815 732.449 211.598 734.982 206.852 735.972C202.107 737.001 197.625 735.972 196.781 733.636C195.937 731.301 199.101 728.688 203.794 727.699ZM212.6 709.927C215.342 713.014 219.666 714.439 222.303 713.133C224.992 711.866 224.886 708.264 222.303 705.177C219.719 702.089 215.237 700.664 212.6 702.01C209.964 703.316 209.911 706.918 212.6 709.927ZM198.468 717.131C203.583 717.843 207.222 720.416 206.641 722.87C206.009 725.324 201.421 726.789 196.306 726.076C191.191 725.403 187.553 722.83 188.133 720.376C188.766 717.922 193.248 716.458 198.468 717.131ZM199.312 715.23C203.741 717.21 208.751 717.051 210.333 714.874C211.915 712.737 209.805 709.372 205.27 707.393C200.788 705.454 195.832 705.573 194.25 707.75C192.668 709.927 194.777 713.291 199.312 715.23ZM1274.18 409.377C1269.17 417.492 1277.87 423.033 1282.14 433.602C1288.41 449.197 1301.23 451.453 1307.92 445.872C1314.57 440.251 1308.5 431.147 1313.41 424.181V424.023C1317.89 416.938 1331.34 415.077 1333.23 407.715C1335.13 400.353 1325.01 393.901 1304.65 399.6C1290.94 403.4 1279.77 401.54 1274.18 409.377ZM1253.51 425.685C1264.53 424.3 1274.39 427.506 1275.6 432.81C1276.76 438.153 1268.8 443.577 1257.78 445.002C1246.81 446.387 1236.84 443.181 1235.74 437.837C1234.58 432.493 1242.48 427.031 1253.51 425.685ZM1279.13 387.211C1284.25 394.613 1293.58 398.611 1300.01 396.157C1306.39 393.663 1307.34 385.588 1302.23 378.186C1297.11 370.745 1287.73 366.747 1281.35 369.201C1274.97 371.695 1273.96 379.77 1279.13 387.211ZM1244.59 400.907C1255.93 403.361 1263.31 409.813 1261.15 415.275C1258.99 420.777 1248.13 423.192 1236.84 420.658C1225.56 418.165 1218.12 411.713 1220.29 406.25C1222.45 400.788 1233.31 398.373 1244.59 400.907ZM1247.34 396.75C1256.77 402.015 1268.16 402.609 1272.65 398.017C1277.18 393.426 1273.17 385.47 1263.74 380.205C1254.3 374.941 1242.96 374.347 1238.42 378.938C1233.89 383.49 1237.9 391.486 1247.34 396.75ZM742.017 42.6857C741.121 36.59 733.316 35.64 725.776 30.5734C714.755 23.0923 706.055 25.0715 704.789 30.2568C703.576 35.4817 711.433 39.1233 711.908 44.5065C712.646 49.8897 705.633 54.5999 708.217 59.429C710.8 64.258 719.606 65.2476 728.887 56.4999C735.004 50.6813 742.702 48.7814 742.017 42.6857ZM746.341 27.5257C740.54 31.3256 733.211 32.0776 729.994 29.2673C726.778 26.4569 728.834 21.1528 734.687 17.3529C740.488 13.5926 747.765 12.8406 751.034 15.651C754.25 18.4613 752.247 23.8049 746.341 27.5257ZM749.716 57.054C743.124 54.0458 735.742 54.2834 733.158 57.3708C730.574 60.4582 733.844 65.6435 740.488 68.4143C747.185 71.185 754.461 71.1851 757.045 68.0977C759.629 64.9707 756.254 60.0227 749.716 57.054ZM763.478 39.7566C755.621 41.3003 748.186 39.4795 746.815 35.7191C745.497 31.9192 750.77 27.5652 758.627 26.0214C766.431 24.4777 773.866 26.259 775.185 30.0589C776.503 33.8193 771.283 38.1733 763.478 39.7566ZM763.795 42.9232C755.727 42.3295 748.819 45.021 748.292 48.9396C747.765 52.8583 753.987 56.4603 762.055 57.054C770.122 57.6082 777.083 54.8771 777.557 50.998C778.032 47.1189 771.863 43.4774 763.795 42.9232ZM42.8597 353.724C47.4473 355.149 50.3475 352.339 56.2006 350.795C64.7957 348.579 65.8503 344.502 62.6338 342.523C59.3645 340.583 54.4078 342.522 50.4002 341.177C46.34 339.91 45.0744 335.675 40.9087 335.239C36.743 334.843 33.5791 338.01 36.9011 344.343C39.1686 348.618 38.3249 352.141 42.8597 353.724ZM52.2985 359.978C51.3494 356.535 52.9313 353.368 55.937 352.893C58.9953 352.418 62.1065 354.872 63.0556 358.435C64.0048 361.997 62.3701 365.005 59.3645 365.48C56.3588 365.955 53.2477 363.422 52.2985 359.978ZM30.3098 352.616C34.4228 350.835 36.4793 347.827 34.9501 345.887C33.4736 343.908 28.9915 343.71 24.8785 345.491C20.8183 347.233 18.7618 350.241 20.2382 352.181C21.7674 354.16 26.3023 354.358 30.3098 352.616ZM38.5885 363.224C39.8013 359.622 43.2816 357.168 46.34 357.722C49.4511 358.237 50.9803 361.68 49.7675 365.282C48.6074 368.845 45.0744 371.299 41.9633 370.785C38.9049 370.27 37.3757 366.826 38.5885 363.224ZM36.2156 362.432C39.0104 359.345 39.1158 355.782 36.532 354.437C33.8955 353.051 29.4661 354.437 26.6714 357.524C23.8766 360.651 23.7712 364.174 26.4077 365.56C29.097 366.905 33.4736 365.48 36.2156 362.432ZM344.638 161.393C345.956 155.1 338.521 152.606 332.773 145.996C324.389 136.338 315.003 136.694 311.892 141.483C308.781 146.273 315.583 151.617 313.896 157.118C312.736 162.66 304.088 165.906 304.721 171.21C305.406 176.553 314.001 179.364 326.393 172.516C334.83 167.964 342.951 167.568 344.638 161.393ZM354.446 147.183C347.327 149.717 339.734 149.044 337.467 145.56C335.146 142.077 339.259 137.288 346.378 134.517C353.497 131.786 361.09 132.657 363.357 136.1C365.677 139.544 361.617 144.571 354.446 147.183ZM347.169 177.266C341.843 172.951 334.197 171.606 330.559 174.376C326.868 177.147 328.239 182.649 333.723 186.964C339.207 191.318 346.694 192.505 350.386 189.972C354.129 187.478 352.653 181.58 347.169 177.266ZM367.154 162.739C358.77 162.739 351.915 159.454 351.967 155.377C352.02 151.339 358.77 148.054 367.154 148.094C375.538 148.094 382.34 151.419 382.34 155.456C382.34 159.533 375.485 162.779 367.154 162.739ZM366.31 166.104C358.506 163.927 350.596 165.193 348.698 169.033C346.853 172.833 351.651 177.701 359.508 179.878C367.365 182.055 375.275 180.749 377.12 176.949C379.018 173.149 374.167 168.201 366.31 166.104ZM1127.85 295.261C1115.3 291.857 1107.92 299.774 1092.57 304.405C1070.06 311.252 1067.95 322.296 1076.96 327.363C1085.98 332.389 1099.06 326.373 1109.87 329.737H1110.08C1121.1 332.746 1125.26 343.789 1136.44 344.66C1147.62 345.491 1156.01 336.387 1145.57 319.802C1138.5 308.719 1140.13 299.14 1127.85 295.261ZM1101.48 279.586C1104.65 288.69 1100.9 297.319 1093.1 298.903C1085.24 300.486 1076.33 294.351 1073.17 285.089C1069.95 275.866 1073.69 267.395 1081.5 265.772C1089.3 264.189 1098.27 270.483 1101.48 279.586ZM1161.38 297.121C1150.89 302.188 1145.83 310.421 1150.36 315.527C1154.9 320.633 1166.87 320.673 1177.36 315.527C1187.86 310.421 1192.97 302.188 1188.59 297.082C1184.22 291.976 1171.93 292.015 1161.38 297.121ZM1137.45 269.572C1134.91 279.309 1126.06 286.118 1117.67 284.93C1109.29 283.743 1104.65 274.797 1107.18 265.06C1109.76 255.322 1118.62 248.514 1126.95 249.702C1135.28 250.889 1140.03 259.914 1137.45 269.572ZM1143.88 271.433C1137.02 279.903 1137.34 289.482 1144.62 292.847C1151.89 296.172 1163.39 291.976 1170.35 283.505C1177.36 275.035 1176.94 265.456 1169.61 262.131C1162.33 258.845 1150.84 262.962 1143.88 271.433ZM611.508 715.033C613.143 711.035 608.661 708.858 605.761 703.989C601.489 697.023 595.32 696.548 592.631 699.517C589.994 702.446 593.58 706.404 591.892 709.927C590.416 713.449 584.299 714.954 584.036 718.516C583.772 722.039 589.098 724.493 598.115 720.93C604.231 718.635 609.61 718.951 611.508 715.033ZM619.787 706.404C614.778 707.591 609.874 706.562 608.766 704.147C607.659 701.733 610.981 698.804 616.096 697.616C621.211 696.429 626.009 697.458 627.117 699.912C628.277 702.366 625.007 705.256 619.787 706.404ZM611.139 725.641C608.081 722.395 603.388 720.97 600.593 722.474C597.798 723.978 598.062 727.739 601.12 730.985C604.179 734.191 608.872 735.616 611.614 734.151C614.356 732.687 614.145 729.005 611.139 725.641ZM626.062 717.605C620.578 716.932 616.57 714.32 617.098 711.629C617.678 708.937 622.529 707.314 628.119 707.948C633.761 708.581 637.61 711.233 637.083 713.885C636.608 716.537 631.546 718.199 626.062 717.605ZM625.007 719.624C620.103 717.645 614.778 717.922 613.038 720.257C611.35 722.593 613.881 726.155 618.732 728.174C623.584 730.153 628.962 729.876 630.702 727.541C632.442 725.205 630.017 721.643 625.007 719.624ZM1464.8 489.096C1461.63 497.013 1470.6 501.208 1476.29 510.471C1484.78 524.008 1496.91 524.839 1502.08 519.06C1507.19 513.321 1500.02 505.563 1503.24 498.754V498.596C1506.09 491.669 1517.95 488.621 1518.42 481.694C1518.9 474.767 1508.51 470.017 1490.95 477.142C1479.03 481.971 1468.54 481.378 1464.8 489.096ZM1448.71 506.037C1458.52 503.662 1468.12 505.642 1470.12 510.391C1472.18 515.141 1465.85 520.881 1456.04 523.256C1446.29 525.631 1436.64 523.651 1434.64 518.902C1432.58 514.152 1438.96 508.412 1448.71 506.037ZM1465.38 468.355C1471.39 474.649 1480.62 477.38 1486.05 474.49C1491.43 471.601 1490.9 464.12 1484.94 457.945C1478.93 451.73 1469.65 448.92 1464.27 451.849C1458.84 454.739 1459.37 462.101 1465.38 468.355ZM1436.32 484.267C1447.03 485.454 1454.94 490.64 1453.94 495.825C1452.99 501.01 1443.44 504.296 1432.68 503.108C1421.87 501.961 1414.02 496.815 1415.02 491.63C1416.02 486.444 1425.51 483.119 1436.32 484.267ZM1438.06 480.269C1447.61 484.109 1458.1 483.515 1461.42 478.884C1464.74 474.292 1459.68 467.405 1450.14 463.486C1440.59 459.607 1430.15 460.24 1426.78 464.872C1423.46 469.463 1428.52 476.351 1438.06 480.269ZM56.7806 693.698C57.5189 703.673 70.0161 705.731 81.7223 714.479C98.8598 727.343 113.15 724.493 115.839 716.339C118.528 708.185 106.031 701.535 105.926 692.708V692.55C105.398 683.802 117.316 676.598 113.994 668.563C110.671 660.567 96.1705 658.311 80.0876 671.888C69.0669 681.15 56.7279 683.723 56.7806 693.698ZM47.7109 717.962C57.5716 712.222 69.7524 711.47 74.5509 716.26C79.2967 721.049 75.3946 729.599 65.534 735.339C55.6206 741.078 43.4398 741.83 38.694 737.041C33.8955 732.251 37.903 723.741 47.7109 717.962ZM45.9708 669.83C56.3061 675.134 68.3814 675.371 72.9163 670.384C77.4511 665.436 72.9163 657.044 62.4756 651.74C52.0349 646.436 40.065 646.238 35.5301 651.186C30.9426 656.174 35.6883 664.565 45.9708 669.83ZM21.5565 697.062C34.4755 695.044 46.34 698.447 48.0801 704.741C49.8202 710.995 40.7505 717.685 27.8314 719.664C14.9124 721.682 3.04799 718.278 1.30787 712.024C-0.432241 705.731 8.63745 699.081 21.5565 697.062ZM21.3456 691.877C34.4228 693.341 45.9708 689.423 47.0782 683.09C48.1855 676.757 38.7994 670.503 25.7222 669.038C12.6977 667.573 1.09695 671.492 -0.010395 677.825C-1.11774 684.158 8.32107 690.373 21.3456 691.877ZM818.107 163.175C817.791 172.397 829.181 174.97 838.883 183.718C853.332 196.542 866.778 194.761 870.1 187.439C873.422 180.076 862.718 173.228 863.456 165.154C863.878 157.039 875.584 151.141 873.369 143.542C871.155 135.942 858.077 133.092 841.836 144.61C830.921 152.289 819.162 153.991 818.107 163.175ZM807.403 184.984C817.106 180.274 828.232 180.274 832.239 184.984C836.247 189.655 831.712 197.295 822.01 201.965C812.307 206.676 801.181 206.676 797.121 201.965C793.113 197.295 797.859 189.695 807.403 184.984ZM810.725 140.613C819.689 146.115 830.71 147.025 835.403 142.711C840.149 138.356 836.721 130.4 827.757 124.938C818.846 119.475 807.772 118.526 803.079 122.84C798.333 127.194 801.761 135.15 810.725 140.613ZM785.467 164.204C797.542 163.095 808.089 166.935 809.038 172.793C809.934 178.651 800.917 184.232 788.842 185.341C776.819 186.449 766.22 182.61 765.271 176.751C764.375 170.893 773.392 165.312 785.467 164.204ZM785.836 159.414C797.648 161.512 808.721 158.583 810.514 152.843C812.307 147.104 804.187 140.771 792.375 138.673C780.51 136.536 769.437 139.504 767.644 145.244C765.851 150.944 773.972 157.316 785.836 159.414ZM57.888 68.3746C56.1479 63.8227 50.0838 63.9019 43.4398 60.7353C33.79 56.1042 27.5678 58.5187 27.4623 62.5165C27.3569 66.4748 34.0009 68.6122 35.2665 72.6496C36.743 76.6475 32.2081 80.9222 34.8446 84.3659C37.4812 87.77 44.4944 87.7304 50.0311 80.2097C53.8805 75.0244 59.259 73.0058 57.888 68.3746ZM58.7317 56.4603C55.0405 59.904 49.5038 61.1707 46.5509 59.3499C43.598 57.5291 44.2835 53.2542 48.0801 49.8501C51.8767 46.4065 57.308 45.1398 60.2609 47.0794C63.2138 49.0189 62.3701 52.977 58.7317 56.4603ZM66.0613 78.587C60.5773 76.9245 55.0405 77.7556 53.5641 80.4076C52.0876 83.0597 55.4624 86.5826 60.9464 88.2055C66.4304 89.8679 71.9671 89.0367 73.4436 86.3846C74.92 83.693 71.6507 80.2099 66.0613 78.587ZM73.6545 63.9809C67.9596 65.9205 62.001 65.2477 60.3136 62.5165C58.679 59.7853 61.9483 55.9854 67.6959 54.0459C73.4436 52.1064 79.2967 52.7792 80.9841 55.5103C82.6714 58.2811 79.3494 62.1602 73.6545 63.9809ZM74.4454 66.4748C68.2232 66.831 63.4247 69.5225 63.7411 72.5308C64.0048 75.539 69.2778 77.7558 75.5001 77.3995C81.775 77.0829 86.5735 74.3516 86.2571 71.3433C85.9935 68.335 80.7731 66.1581 74.4454 66.4748ZM1468.07 725.166C1466.17 720.416 1459.79 720.495 1452.83 717.289C1442.6 712.539 1436.11 715.112 1436.11 719.308C1436.06 723.464 1443.02 725.601 1444.44 729.876C1446.08 734.072 1441.39 738.544 1444.23 742.146C1447.03 745.748 1454.36 745.551 1460.05 737.634C1464.01 732.291 1469.54 729.995 1468.07 725.166ZM1468.65 712.658C1464.74 716.299 1459.05 717.685 1455.94 715.824C1452.83 713.924 1453.46 709.452 1457.36 705.85C1461.26 702.208 1466.96 700.823 1470.12 702.723C1473.23 704.583 1472.55 709.056 1468.65 712.658ZM1476.87 735.774C1471.07 734.072 1465.22 734.982 1463.8 737.832C1462.32 740.643 1465.85 744.244 1471.65 745.907C1477.4 747.569 1483.31 746.659 1484.73 743.849C1486.15 741.038 1482.62 737.436 1476.87 735.774ZM1484.52 720.535C1478.56 722.593 1472.29 721.96 1470.55 719.11C1468.75 716.22 1472.13 712.222 1477.87 710.164C1483.68 708.106 1490.06 708.739 1491.85 711.589C1493.59 714.479 1490.42 718.476 1484.52 720.535ZM1485.47 723.028C1478.93 723.424 1473.92 726.353 1474.45 729.48C1474.97 732.607 1480.35 734.863 1486.89 734.428C1493.43 734.032 1498.44 731.143 1497.97 727.976C1497.44 724.849 1491.9 722.593 1485.47 723.028ZM125.911 448.208C126.333 443.576 120.743 442.072 115.997 437.481C109.09 430.791 102.235 431.464 100.389 435.106C98.4907 438.748 103.711 442.389 103.078 446.466C102.604 450.582 96.5396 453.353 97.4361 457.193C98.3325 461.072 104.818 462.734 113.413 457.193C119.214 453.472 125.12 452.839 125.911 448.208ZM131.922 437.362C126.913 439.578 121.323 439.42 119.372 436.966C117.474 434.551 120.058 430.791 125.067 428.694C130.076 426.635 135.719 426.675 137.617 429.089C139.568 431.504 136.984 435.145 131.922 437.362ZM128.969 459.726C124.592 456.955 119.056 456.164 116.577 458.262C114.046 460.36 115.575 464.436 119.899 467.326C124.223 470.215 129.813 470.888 132.344 468.79C134.822 466.693 133.346 462.655 128.969 459.726ZM142.415 448.247C136.299 448.564 131.078 446.466 130.762 443.497C130.446 440.528 135.191 437.837 141.308 437.481C147.425 437.125 152.645 439.262 152.962 442.231C153.278 445.199 148.532 447.891 142.415 448.247ZM142.099 450.622C136.193 449.355 130.551 450.622 129.444 453.393C128.336 456.163 132.291 459.607 138.197 460.835C144.156 462.101 149.798 460.834 150.852 457.945C151.96 455.055 148.058 451.889 142.099 450.622ZM1462.42 354.199C1456.84 360.453 1463.16 365.955 1464.9 375.217C1467.43 388.834 1477.77 391.961 1484.31 387.963C1490.9 383.965 1487.42 375.811 1492.85 370.27C1497.81 364.768 1509.36 364.53 1512.2 358.553C1515.05 352.616 1507.67 346.323 1489.74 349.014C1477.45 350.993 1468.44 348.222 1462.42 354.199ZM1442.33 365.837C1451.77 365.837 1459.47 369.36 1459.52 373.951C1459.63 378.503 1452.19 382.224 1442.6 382.342C1433 382.501 1425.46 378.819 1425.41 374.228C1425.3 369.636 1432.9 365.916 1442.33 365.837ZM1470.33 336.11C1473.39 342.839 1480.51 347.154 1486.26 345.65C1491.95 344.146 1494.27 337.575 1491.27 330.846C1488.21 324.077 1481.09 319.802 1475.34 321.346C1469.54 322.89 1467.33 329.421 1470.33 336.11ZM1439.12 344.224C1448.13 347.431 1453.25 353.526 1450.51 357.88C1447.77 362.274 1438.27 363.185 1429.26 360.018C1420.24 356.851 1415.18 350.716 1417.87 346.243C1420.61 341.731 1430.31 341.058 1439.12 344.224ZM1442.18 341.058C1449.14 346.362 1458.52 347.945 1463.11 344.581C1467.7 341.216 1465.75 334.131 1458.68 328.787C1451.67 323.444 1442.33 321.9 1437.8 325.265C1433.21 328.669 1435.16 335.714 1442.18 341.058ZM1139.03 615.008C1137.18 607.487 1127.43 606.696 1117.46 600.956C1102.75 592.406 1092.31 595.612 1091.31 601.985C1090.3 608.398 1100.59 612.554 1101.8 619.243C1103.28 625.893 1095.15 632.187 1098.69 638.045C1102.17 643.863 1113.4 644.576 1124.05 633.137C1131.22 625.418 1140.35 622.568 1139.03 615.008ZM1142.77 595.889C1135.97 600.956 1126.9 602.421 1122.57 599.135C1118.25 595.85 1120.2 589.042 1127 584.015C1133.81 578.948 1142.88 577.484 1147.2 580.809C1151.52 584.134 1149.57 590.862 1142.77 595.889ZM1150.21 632.424C1141.72 629.139 1132.54 629.812 1129.69 633.928C1126.85 638.045 1131.49 644.061 1139.98 647.347C1148.47 650.632 1157.69 650.078 1160.54 645.843C1163.34 641.607 1158.75 635.67 1150.21 632.424ZM1165.34 609.981C1155.8 612.396 1146.3 610.614 1144.25 606.023C1142.14 601.431 1148.2 595.692 1157.75 593.238C1167.34 590.784 1176.78 592.525 1178.89 597.156C1180.95 601.787 1174.88 607.606 1165.34 609.981ZM1166.13 613.899C1156.06 613.702 1147.78 617.502 1147.57 622.37C1147.41 627.278 1155.48 631.395 1165.6 631.593C1175.73 631.751 1184.01 627.951 1184.16 623.043C1184.32 618.175 1176.25 614.058 1166.13 613.899ZM642.25 582.748C649.949 584.213 653.746 579.186 662.499 575.782C675.312 570.715 675.682 564.065 669.829 561.493C663.975 558.88 656.857 563.076 650.107 561.493C643.305 560.147 640.036 553.774 633.339 553.774C626.642 553.734 622.265 559.593 629.806 568.895C634.921 575.386 634.657 581.125 642.25 582.748ZM659.124 591.061C656.54 585.757 658.122 580.492 662.604 579.225C667.087 577.959 672.887 581.204 675.471 586.469C678.107 591.773 676.578 596.998 672.043 598.264C667.508 599.531 661.761 596.246 659.124 591.061ZM622.213 583.263C628.066 579.78 630.386 574.634 627.38 571.823C624.427 568.973 617.256 569.488 611.35 572.971C605.497 576.455 603.177 581.561 606.182 584.411C609.135 587.26 616.307 586.746 622.213 583.263ZM638.559 598.542C639.297 592.644 644.043 588.171 649.105 588.527C654.167 588.883 657.648 594.029 656.857 599.888C656.066 605.706 651.426 610.219 646.311 609.862C641.248 609.506 637.821 604.439 638.559 598.542ZM634.604 597.671C638.032 592.367 637.083 586.667 632.495 585.044C627.96 583.461 621.474 586.39 617.994 591.694C614.567 597.037 615.516 602.737 620.103 604.36C624.691 605.944 631.177 603.014 634.604 597.671ZM317.587 621.658C308.095 629.931 315.847 638.559 316.216 651.978C316.638 671.769 330.928 677.667 341 672.798C351.124 667.93 348.382 655.659 357.082 648.693C365.519 641.528 382.077 642.676 387.561 634.482C393.098 626.328 383.87 616.354 357.662 617.937C339.892 618.808 327.606 613.82 317.587 621.658ZM286.107 635.591C299.659 636.699 309.836 642.953 308.886 649.405C307.937 655.857 296.178 660.448 282.627 659.221C269.075 657.994 258.898 651.899 259.9 645.447C260.901 638.955 272.608 634.483 286.107 635.591ZM333.195 596.84C335.937 606.854 345.112 613.9 353.708 612.554C362.25 611.248 367.048 602.065 364.306 592.05C361.512 582.036 352.389 574.99 343.794 576.336C335.146 577.642 330.453 586.865 333.195 596.84ZM286.687 604.321C298.868 610.06 304.668 619.481 299.711 625.339C294.755 631.237 280.992 631.316 268.811 625.576C256.683 619.797 250.83 610.417 255.787 604.519C260.691 598.661 274.559 598.542 286.687 604.321ZM291.696 600.165C300.45 608.675 313.527 612.158 320.804 607.923C328.133 603.687 327.026 593.356 318.273 584.806C309.519 576.257 296.495 572.774 289.165 577.009C281.836 581.284 283.048 591.575 291.696 600.165ZM1311.72 267.791C1312.35 260.508 1303.44 258.212 1296.01 251.087C1284.93 240.598 1274.28 241.746 1271.38 247.485C1268.48 253.264 1276.81 258.885 1275.86 265.416C1275.23 271.868 1265.74 276.262 1267.22 282.357C1268.69 288.413 1278.97 290.986 1292.26 282.159C1301.28 276.143 1310.56 275.074 1311.72 267.791ZM1321.05 250.731C1313.14 254.254 1304.34 254.016 1301.33 250.216C1298.33 246.416 1302.18 240.479 1310.09 236.956C1317.94 233.433 1326.75 233.631 1329.75 237.471C1332.81 241.271 1328.91 247.208 1321.05 250.731ZM1316.78 285.88C1309.87 281.368 1301.12 280.378 1297.27 283.703C1293.42 287.028 1295.8 293.401 1302.7 297.953C1309.56 302.465 1318.36 303.455 1322.21 300.13C1326.06 296.765 1323.69 290.393 1316.78 285.88ZM1337.66 267.672C1328.07 268.306 1319.84 264.901 1319.31 260.389C1318.73 255.877 1326.12 251.443 1335.77 250.81C1345.42 250.177 1353.59 253.581 1354.17 258.133C1354.7 262.685 1347.31 267.079 1337.66 267.672ZM1337.24 271.433C1327.91 269.533 1319.05 271.631 1317.42 276.183C1315.73 280.695 1322 285.841 1331.28 287.78C1340.62 289.72 1349.48 287.582 1351.16 283.07C1352.8 278.557 1346.58 273.333 1337.24 271.433ZM281.836 479.28C291.274 483.634 299.079 478.132 312.683 476.232C332.563 473.501 336.728 464.792 330.506 459.528C324.284 454.264 312.314 457.549 304.193 453.472C295.862 449.593 294.966 440.053 286.054 437.956C277.09 435.858 268.231 442.27 273.03 457.034C276.141 466.851 272.66 474.569 281.836 479.28ZM299.817 495.39C299.237 487.592 304.246 481.021 310.89 480.744C317.482 480.467 323.493 486.603 324.178 494.48C324.864 502.317 319.749 508.848 313.158 509.125C306.566 509.402 300.397 503.227 299.817 495.39ZM254.837 473.54C264.593 470.77 270.551 464.634 268.073 459.924C265.647 455.214 255.839 453.631 246.031 456.48C236.276 459.291 230.318 465.386 232.743 470.097C235.169 474.807 245.082 476.351 254.837 473.54ZM268.336 499.032C272.608 491.392 281.361 486.919 287.9 488.977C294.438 491.036 296.284 498.913 292.013 506.512C287.741 514.152 278.935 518.625 272.397 516.566C265.858 514.508 263.907 506.671 268.336 499.032ZM263.38 496.657C270.709 490.64 272.766 482.882 267.598 479.161C262.378 475.44 252.043 477.459 244.555 483.515C237.067 489.532 235.169 497.29 240.389 501.011C245.61 504.771 255.839 502.752 263.38 496.657ZM728.465 357.603C733.791 362.393 741.121 359.939 751.298 361.087C766.22 362.789 772.021 357.366 769.331 352.537C766.642 347.708 757.098 347.826 752.721 343.433C748.134 339.158 750.559 332.389 744.917 329.144C739.275 325.898 730.891 328.946 729.573 340.187C728.465 347.866 723.561 352.616 728.465 357.603ZM736.006 372.289C738.168 366.747 743.757 362.907 748.661 364.016C753.512 365.084 755.674 370.468 753.512 376.088C751.403 381.709 745.708 385.43 740.91 384.361C736.111 383.292 733.844 377.909 736.006 372.289ZM711.328 348.618C719.132 348.42 725.301 345.175 725.09 341.414C724.932 337.614 718.446 334.725 710.642 334.923C702.838 335.16 696.669 338.406 696.879 342.127C697.038 345.887 703.471 348.816 711.328 348.618ZM712.488 369.082C717.972 364.451 725.618 362.908 729.573 365.56C733.58 368.212 732.262 374.07 726.778 378.661C721.294 383.292 713.648 384.876 709.693 382.224C705.738 379.572 706.951 373.674 712.488 369.082ZM709.798 366.509C717.181 363.739 720.819 358.435 718.499 354.912C716.126 351.428 708.058 350.874 700.781 353.803C693.505 356.693 689.761 361.878 692.134 365.401C694.559 368.924 702.574 369.399 709.798 366.509ZM899.313 695.36C896.834 688.156 887.343 688.038 877.219 682.892C862.296 675.411 852.435 679.013 852.013 685.227C851.644 691.481 861.979 694.964 863.72 701.377C865.829 707.67 858.552 714.201 862.507 719.664C866.409 725.166 877.43 725.205 886.552 713.608C892.721 705.81 901.211 702.604 899.313 695.36ZM901.106 676.598C895.042 681.823 886.394 683.684 881.912 680.715C877.377 677.786 878.695 671.136 884.812 665.871C890.929 660.647 899.524 658.786 904.059 661.755C908.541 664.684 907.222 671.452 901.106 676.598ZM911.81 711.549C903.32 708.779 894.462 709.926 892.141 714.043C889.769 718.12 894.778 723.741 903.162 726.472C911.546 729.203 920.511 728.095 922.883 723.978C925.204 719.862 920.194 714.281 911.81 711.549ZM924.255 689.106C915.238 691.877 905.851 690.729 903.479 686.335C901.106 681.981 906.326 676.123 915.343 673.313C924.36 670.463 933.746 671.65 936.119 676.044C938.439 680.477 933.271 686.256 924.255 689.106ZM925.362 692.827C915.607 693.183 907.908 697.3 908.224 702.01C908.541 706.76 916.661 710.283 926.627 709.966C936.541 709.649 944.081 705.493 943.765 700.783C943.396 696.073 935.117 692.51 925.362 692.827ZM512.375 186.291C518.808 186.132 520.231 181.58 525.979 177.424C534.416 171.289 532.729 166.064 527.456 165.035C522.182 163.966 517.806 168.439 512.164 168.399C506.469 168.399 501.934 164.164 496.713 165.312C491.493 166.42 489.964 171.685 498.559 177.662C504.359 181.699 505.941 186.251 512.375 186.291ZM527.983 189.734C524.344 186.093 523.975 181.699 527.086 179.957C530.198 178.216 535.682 179.76 539.32 183.401C542.958 187.043 543.327 191.436 540.216 193.178C537.105 194.92 531.621 193.376 527.983 189.734ZM496.872 190.012C500.563 186.33 500.563 181.937 497.452 180.235C494.341 178.572 488.857 180.235 485.324 183.876C481.843 187.518 481.685 191.991 484.744 193.693C487.855 195.395 493.339 193.693 496.872 190.012ZM514.273 199.195C513.06 194.484 515.38 190.209 519.388 189.616C523.448 189.062 527.719 192.386 528.932 197.097C530.145 201.847 527.772 206.121 523.764 206.676C519.704 207.269 515.486 203.826 514.273 199.195ZM511.003 199.195C512.058 194.484 509.632 190.249 505.572 189.734C501.512 189.259 497.346 192.505 496.292 197.374C495.29 202.282 497.715 206.359 501.776 206.873C505.889 207.388 509.896 203.905 511.003 199.195ZM1470.02 615.879C1466.33 619.837 1470.33 623.36 1471.34 629.258C1472.81 637.887 1479.35 639.984 1483.62 637.53C1487.84 635.076 1485.68 629.772 1489.05 626.487C1492.27 623.043 1499.65 622.925 1501.5 619.164C1503.4 615.364 1498.76 611.366 1487.31 612.989C1479.61 613.741 1473.87 611.999 1470.02 615.879ZM1457.1 623.083C1463.11 623.083 1468.17 625.418 1468.17 628.347C1468.17 631.276 1463.27 633.572 1457.1 633.572C1450.98 633.572 1446.08 631.237 1446.08 628.308C1446.08 625.378 1451.14 623.083 1457.1 623.083ZM1475.24 604.36C1477.08 608.675 1481.57 611.406 1485.26 610.535C1488.95 609.625 1490.42 605.429 1488.58 601.154C1486.73 596.879 1482.25 594.108 1478.56 594.979C1474.87 595.85 1473.39 600.085 1475.24 604.36ZM1455.31 609.347C1461 611.406 1464.16 615.325 1462.42 618.095C1460.63 620.827 1454.57 621.381 1448.87 619.283C1443.23 617.185 1440.01 613.306 1441.81 610.535C1443.55 607.804 1449.66 607.25 1455.31 609.347ZM1457.26 607.329C1461.69 610.733 1467.59 611.802 1470.55 609.704C1473.5 607.566 1472.34 603.054 1467.91 599.65C1463.53 596.246 1457.57 595.137 1454.67 597.275C1451.72 599.412 1452.88 603.885 1457.26 607.329ZM338.468 47.0001C325.708 43.5169 318.167 51.5126 302.506 56.2229C279.621 63.1103 277.406 74.312 286.581 79.4577C295.704 84.643 308.939 78.5473 319.96 81.9909H320.224C331.244 85.118 335.568 96.3594 346.958 97.2698C358.295 98.1802 366.89 88.8387 356.344 72.2933C349.225 60.6956 350.966 50.9979 338.468 47.0001ZM311.734 30.8902C314.898 40.1525 311.048 48.9002 303.086 50.4439C295.071 51.9876 286.054 45.773 282.89 36.4712C279.674 27.2089 283.523 18.5799 291.485 17.0758C299.448 15.6112 308.517 21.7071 311.734 30.8902ZM372.585 48.9792C361.828 54.125 356.661 62.5165 361.09 67.7018C365.519 72.9267 377.806 72.9663 388.563 67.7018C399.32 62.477 404.435 54.2042 400.058 49.0189C395.629 43.8336 383.342 43.8335 372.585 48.9792ZM348.382 20.9153C345.745 30.8901 336.676 37.7775 328.186 36.3921C319.696 35.0067 314.95 26.1006 317.64 16.1655C320.329 6.26985 329.346 -0.617526 337.836 0.688694C346.325 1.99491 351.071 11.0197 348.382 20.9153ZM354.92 22.8548C347.854 31.4442 348.171 41.1815 355.553 44.5856C362.935 47.9501 374.642 43.794 381.655 35.2046C388.668 26.5757 388.404 16.878 381.022 13.4739C373.64 10.0698 361.986 14.3446 354.92 22.8548ZM928.367 54.9166C933.693 48.148 926.627 42.6856 924.096 33.1067C920.458 19.0549 909.384 16.205 902.846 20.6778C896.254 25.1506 900.578 33.5818 895.464 39.4004C890.665 45.3378 878.695 46.1293 876.164 52.502C873.633 58.8748 881.859 65.0497 900.367 61.4477C912.917 59.1123 922.514 61.4873 928.367 54.9166ZM948.405 41.9337C938.545 42.4086 930.213 38.965 929.791 34.2151C929.317 29.4652 937.121 25.1903 946.823 24.6757C956.473 24.1611 964.963 27.6443 965.385 32.3546C965.859 37.1045 958.213 41.4587 948.405 41.9337ZM921.46 74.1141C917.769 67.2663 910.017 63.0707 904.111 64.8915C898.206 66.7122 896.413 73.6788 900.051 80.5661C903.689 87.4139 911.494 91.6096 917.399 89.7888C923.358 87.9284 925.098 81.0014 921.46 74.1141ZM953.362 64.2977C943.712 61.3686 937.912 55.2334 940.443 50.4835C942.921 45.7732 952.835 44.4272 962.484 47.3563C972.187 50.2854 977.934 56.4209 975.403 61.1707C972.925 65.8811 962.959 67.2664 953.362 64.2977ZM950.462 67.7809C942.763 62.5164 932.85 61.2894 928.42 65.0101C923.991 68.7309 926.522 76.0537 934.221 81.2785C941.972 86.5034 951.78 87.7305 956.262 84.0493C960.797 80.3286 958.16 73.0058 950.462 67.7809ZM417.354 414.998C420.465 418.56 425.685 417.294 432.54 418.679C442.559 420.658 447.252 417.333 445.723 413.85C444.246 410.367 437.866 409.931 435.282 406.725C432.593 403.559 434.913 398.967 431.433 396.513C427.953 394.059 421.888 395.602 419.779 403.202C418.303 408.348 414.506 411.277 417.354 414.998ZM420.992 425.487C422.996 421.766 427.267 419.51 430.431 420.5C433.647 421.489 434.597 425.329 432.593 429.05C430.536 432.77 426.318 434.987 423.101 433.958C419.885 432.968 419.094 429.129 420.992 425.487ZM406.491 407.873C411.87 408.19 416.404 406.329 416.721 403.717C416.985 401.144 413.03 398.809 407.44 398.492C401.904 398.176 397.58 400.036 397.316 402.648C397.052 405.221 401.165 407.556 406.491 407.873ZM405.278 421.885C409.444 419.115 414.875 418.442 417.301 420.46C419.727 422.479 418.303 426.437 414.032 429.287C409.813 432.137 404.435 432.731 402.009 430.712C399.583 428.693 401.007 424.735 405.278 421.885ZM403.696 419.946C408.969 418.402 412.133 415.077 410.762 412.544C409.391 410.011 404.065 409.179 398.845 410.723C393.572 412.306 390.408 415.631 391.779 418.204C393.098 420.777 398.476 421.568 403.696 419.946ZM1308.98 697.458C1312.67 695.36 1311.19 692.193 1312.67 687.919C1314.46 681.665 1310.61 679.013 1306.87 679.963C1303.13 680.952 1302.86 684.95 1299.54 686.692C1296.16 688.473 1291.05 687.167 1288.47 689.423C1285.93 691.719 1287.83 695.36 1296.27 696.35C1301.6 697.102 1305.29 699.358 1308.98 697.458ZM1320.37 694.806C1316.2 693.698 1313.62 691.164 1314.57 689.265C1315.52 687.404 1319.68 686.533 1323.85 687.681C1327.96 688.829 1330.55 691.323 1329.6 693.183C1328.65 695.083 1324.53 695.914 1320.37 694.806ZM1301.6 704.385C1301.6 701.1 1299.54 698.329 1296.74 698.289C1293.9 698.21 1291.47 700.822 1291.37 704.147C1291.26 707.472 1293.42 710.204 1296.22 710.243C1299.06 710.283 1301.6 707.67 1301.6 704.385ZM1317.1 704.662C1313.83 702.129 1312.88 698.844 1315.09 697.26C1317.26 695.717 1321.58 696.469 1324.8 698.923C1328.07 701.416 1329.02 704.741 1326.85 706.285C1324.69 707.868 1320.32 707.116 1317.1 704.662ZM1315.09 705.652C1313.14 702.485 1309.4 700.625 1306.66 701.574C1303.92 702.524 1303.28 705.85 1305.18 709.016C1307.08 712.183 1310.82 714.043 1313.57 713.093C1316.31 712.143 1316.99 708.858 1315.09 705.652ZM172.367 334.408C179.749 331.677 178.431 325.938 182.333 318.932C188.133 308.601 182.649 303.138 175.847 303.93C169.044 304.682 166.882 311.529 160.186 313.627C153.647 315.884 145.527 312.44 140.148 315.725C134.769 319.01 136.457 325.74 150.483 329.54C159.975 332.073 164.826 336.743 172.367 334.408ZM192.879 332.587C186.235 329.856 182.86 324.75 185.338 321.544C187.869 318.377 195.252 318.1 201.896 320.99C208.54 323.879 211.967 328.827 209.436 332.033C206.958 335.2 199.576 335.477 192.879 332.587ZM156.758 344.581C158.393 338.921 155.756 333.696 150.958 332.943C146.107 332.152 140.833 336.071 139.199 341.691C137.617 347.312 140.201 352.576 145.052 353.328C149.903 354.12 155.124 350.202 156.758 344.581ZM183.071 348.697C178.536 343.631 178.431 337.654 182.754 335.556C187.078 333.498 194.25 335.556 198.837 340.741C203.372 345.887 203.478 351.785 199.154 353.843C194.83 355.901 187.606 353.724 183.071 348.697ZM179.221 349.964C177.27 344.066 171.628 340.029 166.513 340.939C161.451 341.85 158.867 347.431 160.818 353.328C162.717 359.266 168.412 363.264 173.474 362.353C178.536 361.403 181.12 355.901 179.221 349.964ZM612.668 459.845C601.12 458.935 597.007 466.772 585.354 473.105C568.216 482.367 569.482 492.025 578.499 494.915C587.516 497.765 596.902 490.64 606.974 491.788H607.184C617.309 492.619 623.9 501.327 633.603 500.298C643.305 499.308 647.84 490.205 634.499 477.894C625.377 469.622 624.111 461.349 612.668 459.845ZM586.039 450.701C591.207 457.905 590.416 465.782 584.246 468.315C578.077 470.809 568.849 467.049 563.629 459.845C558.408 452.681 559.199 444.764 565.369 442.27C571.538 439.737 580.872 443.537 586.039 450.701ZM641.565 456.203C634.183 462.141 632.126 469.978 637.188 473.501C642.25 477.063 652.533 475.282 660.073 469.345C667.614 463.407 669.512 455.57 664.397 452.007C659.282 448.484 649.105 450.306 641.565 456.203ZM613.67 436.531C614.25 445.16 608.661 452.364 601.226 452.601C593.791 452.839 587.41 446.07 586.83 437.441C586.303 428.852 591.892 421.608 599.328 421.371C606.763 421.133 613.143 428.021 613.67 436.531ZM619.682 437.243C615.99 445.516 619.102 453.472 626.167 455.174C633.286 456.836 641.828 451.572 645.256 443.299C648.736 435.066 645.836 427.031 638.77 425.368C631.704 423.666 623.109 428.97 619.682 437.243ZM894.462 308.323C907.539 305.552 907.644 295.894 916.819 285.365C930.266 269.928 923.569 259.875 912.179 259.558C900.737 259.241 894.567 269.929 882.966 271.828H882.755C871.26 274.085 859.237 266.683 849.271 270.839C839.305 274.995 839.411 286.236 860.767 295.419C875.268 301.713 881.279 310.421 894.462 308.323ZM928.526 309.906C918.876 303.732 915.343 294.905 920.669 290.234C925.942 285.564 938.123 286.791 947.772 293.005C957.369 299.22 960.955 307.967 955.629 312.638C950.303 317.309 938.175 316.081 928.526 309.906ZM865.143 321.306C869.995 312.519 867.833 303.455 860.239 301.119C852.646 298.784 842.627 303.851 837.723 312.796C832.819 321.702 835.034 330.608 842.627 332.983C850.22 335.358 860.345 330.094 865.143 321.306ZM906.221 333.854C900.895 324.631 902.951 315.092 910.861 312.479C918.771 309.867 929.528 315.25 934.906 324.473C940.232 333.735 938.175 343.235 930.266 345.848C922.303 348.42 911.599 343.037 906.221 333.854ZM899.418 335.081C898.68 325.027 891.034 317.229 882.386 317.625C873.791 317.981 867.463 326.413 868.202 336.466C868.993 346.52 876.639 354.318 885.234 353.922C893.829 353.526 900.209 345.095 899.418 335.081ZM1302.33 41.9337C1307.82 43.4774 1311.14 40.0336 1317.89 38.0545C1327.8 35.1254 1328.91 30.2964 1324.9 28.0402C1320.84 25.784 1315.2 28.3965 1310.45 26.8923C1305.66 25.5069 1303.92 20.6382 1299.06 20.2424C1294.16 19.807 1290.36 23.8049 1294.85 31.0881C1297.96 35.8776 1296.96 40.0733 1302.33 41.9337ZM1313.83 48.7813C1312.46 44.7835 1314.2 41.0232 1317.52 40.5086C1320.79 39.9941 1324.85 42.5669 1326.17 46.6043C1327.49 50.6021 1325.8 54.3626 1322.48 55.0355C1319.21 55.7084 1315.15 52.7792 1313.83 48.7813ZM1287.62 40.8648C1292.26 38.6878 1294.53 35.0859 1292.68 32.8297C1290.79 30.6131 1285.3 30.5338 1280.82 32.7108C1276.29 34.8879 1273.91 38.49 1275.76 40.7462C1277.66 43.042 1282.98 43.0815 1287.62 40.8648ZM1297.96 52.9771C1299.12 48.6626 1303.07 45.694 1306.71 46.2877C1310.4 46.8419 1312.41 50.7606 1311.19 55.0355C1310.03 59.2708 1306.08 62.279 1302.44 61.7249C1298.8 61.1311 1296.74 57.3312 1297.96 52.9771ZM1295.16 52.2251C1298.17 48.5043 1298.12 44.3085 1294.95 42.844C1291.79 41.3398 1286.73 43.121 1283.61 46.8022C1280.56 50.4834 1280.66 54.6792 1283.83 56.1833C1286.99 57.6875 1292.05 55.8667 1295.16 52.2251ZM171.576 584.173C160.555 591.179 166.513 600.719 164.193 613.86C160.713 633.335 173.368 640.697 184.495 637.095C195.568 633.493 195.041 621.104 205.06 615.245C214.762 609.11 230.792 612.079 237.805 604.717C244.819 597.315 237.805 586.469 211.756 585.004C194.039 583.856 182.965 577.602 171.576 584.173ZM137.881 594.306C150.958 596.958 159.711 604.202 157.444 610.535C155.229 616.829 142.732 619.837 129.707 617.185C116.683 614.573 107.877 607.329 110.144 601.035C112.464 594.702 124.909 591.694 137.881 594.306ZM191.824 561.572C192.51 571.705 200.156 579.661 208.856 579.305C217.557 578.988 224.043 570.478 223.357 560.344C222.672 550.211 215.026 542.295 206.325 542.612C197.625 542.928 191.086 551.439 191.824 561.572ZM144.63 563.67C155.44 570.676 159.342 580.571 153.278 585.756C147.161 590.902 133.609 589.477 122.852 582.471C112.095 575.465 108.14 565.569 114.257 560.424C120.374 555.238 133.873 556.664 144.63 563.67ZM150.43 560.147C157.338 569.528 169.466 574.396 177.481 571.19C185.549 567.944 186.446 557.534 179.591 548.193C172.736 538.851 160.555 533.904 152.54 537.149C144.525 540.395 143.576 550.766 150.43 560.147ZM759.471 718.239C763.162 720.772 767.117 718.951 773.181 719.031C782.145 719.228 785.045 715.785 783.041 713.053C780.985 710.362 775.343 710.956 772.337 708.581C769.226 706.324 770.017 702.129 766.379 700.625C762.793 699.081 758.153 701.258 758.416 707.948C758.522 712.46 756.096 715.587 759.471 718.239ZM765.324 726.472C766.009 723.068 769.015 720.534 771.968 720.97C774.868 721.366 776.714 724.334 775.976 727.778C775.29 731.182 772.337 733.716 769.384 733.28C766.431 732.884 764.744 729.876 765.324 726.472ZM748.503 713.885C753.038 713.331 756.412 711.114 755.832 708.897C755.305 706.641 751.298 705.335 746.71 705.889C742.175 706.443 738.8 708.66 739.38 710.876C739.908 713.133 743.915 714.439 748.503 713.885ZM751.192 725.878C753.987 722.87 758.311 721.485 760.895 722.87C763.478 724.216 763.32 727.739 760.525 730.747C757.731 733.755 753.354 735.061 750.823 733.716C748.239 732.37 748.397 729.005 751.192 725.878ZM749.347 724.493C753.354 722.395 755.147 719.149 753.354 717.21C751.561 715.27 746.815 715.389 742.808 717.487C738.8 719.585 737.06 722.87 738.853 724.809C740.646 726.749 745.339 726.591 749.347 724.493ZM561.203 329.381C563.682 324.037 557.512 321.108 554.084 314.458C548.811 304.959 540.533 304.128 536.789 307.967C533.045 311.846 537.633 317.309 535.154 321.94C532.939 326.65 524.661 328.471 524.133 333.221C523.606 337.931 530.514 341.494 542.853 336.942C551.132 333.933 558.356 334.606 561.203 329.381ZM572.857 318.1C566.002 319.485 559.516 318.1 558.145 314.656C556.774 311.213 561.52 307.531 568.322 306.146C575.177 304.721 581.663 306.146 583.034 309.59C584.405 313.034 579.659 316.715 572.857 318.1ZM559.99 343.591C556.088 339.158 549.866 337.1 546.069 338.96C542.22 340.86 542.378 345.966 546.069 350.439C549.761 354.872 556.194 356.931 559.99 355.07C563.84 353.17 563.84 348.064 559.99 343.591ZM580.608 333.3C573.226 332.31 568.005 328.55 568.902 325.027C569.798 321.504 576.442 319.525 583.614 320.475C590.732 321.465 596.164 325.225 595.32 328.748C594.424 332.31 587.938 334.408 580.608 333.3ZM579.184 336.031C572.804 333.3 565.58 333.3 563.101 336.466C560.676 339.633 563.84 344.422 570.484 347.272C577.075 350.162 584.088 350.043 586.567 346.877C588.992 343.67 585.617 338.92 579.184 336.031ZM452.156 537.11C455.847 544.551 466.288 543.759 477.941 548.272C495.184 554.882 505.15 550.053 504.465 543.364C503.832 536.635 492.126 533.903 489.173 527.214C485.851 520.604 492.548 512.964 487.433 507.463C482.265 501.921 470.454 502.95 462.649 516.289C457.429 525.275 448.887 529.51 452.156 537.11ZM453.369 557.218C459.064 551.043 468.081 548.232 473.248 550.963C478.416 553.695 478.31 560.899 472.721 567.113C467.079 573.328 458.009 576.138 452.841 573.407C447.674 570.675 447.779 563.432 453.369 557.218ZM436.126 520.921C445.723 523.058 455.003 520.92 456.796 516.329C458.589 511.777 452.314 506.235 442.717 504.137C433.12 502.04 423.84 504.137 422.047 508.689C420.254 513.241 426.423 518.783 436.126 520.921ZM426.423 546.135C435.599 542.216 445.776 542.651 449.15 547.084C452.525 551.518 447.832 558.286 438.657 562.205C429.429 566.124 419.357 565.728 415.983 561.295C412.555 556.861 417.354 550.093 426.423 546.135ZM424.683 542.255C435.071 540.949 442.559 535.803 441.504 530.776C440.397 525.749 431.011 522.702 420.57 524.047C410.182 525.354 402.642 530.499 403.802 535.526C404.909 540.553 414.243 543.561 424.683 542.255ZM1124.63 156.921C1130.54 163.57 1140.24 161.116 1153.05 163.57C1171.83 167.212 1180.1 160.839 1177.52 154.427C1174.99 148.014 1162.81 147.223 1157.9 141.206C1152.74 135.309 1157.01 126.759 1150.57 122.207C1144.09 117.694 1132.44 120.505 1128.8 134.794C1126.27 144.531 1119.15 150.073 1124.63 156.921ZM1131.64 176.356C1135.34 169.389 1143.19 165.312 1149.2 166.974C1155.16 168.637 1157.06 175.881 1153.37 182.847C1149.63 189.814 1141.82 194.009 1135.81 192.228C1129.8 190.447 1127.95 183.322 1131.64 176.356ZM1104.22 143.779C1114.24 144.294 1122.63 140.771 1123.05 135.942C1123.47 131.113 1115.67 126.798 1105.75 126.323C1095.84 125.809 1087.4 129.332 1086.88 134.161C1086.4 138.99 1094.26 143.304 1104.22 143.779ZM1102.22 169.983C1109.97 164.639 1120.04 163.373 1124.63 167.212C1129.22 171.051 1126.64 178.255 1118.83 183.797C1111.03 189.299 1101.01 190.368 1096.42 186.528C1091.89 182.689 1094.42 175.326 1102.22 169.983ZM1099.37 166.499C1109.13 163.491 1114.98 157.237 1112.4 152.527C1109.87 147.817 1099.85 146.392 1090.04 149.36C1080.28 152.369 1074.38 158.623 1076.91 163.333C1079.49 168.043 1089.51 169.508 1099.37 166.499ZM1109.34 45.1399C1112.24 42.2108 1109.34 39.4399 1108.86 34.9671C1108.07 28.3568 1103.17 26.6944 1099.9 28.436C1096.63 30.2172 1098 34.2942 1095.31 36.7483C1092.73 39.2816 1087.19 39.2023 1085.61 42.0127C1084.03 44.8231 1087.4 47.9897 1096.1 47.0397C1101.96 46.4856 1106.23 47.9502 1109.34 45.1399ZM1119.41 39.9545C1114.82 39.9545 1111.24 37.8961 1111.4 35.6795C1111.55 33.4629 1115.3 31.8401 1119.83 31.9588C1124.42 32.1171 1127.95 33.9776 1127.85 36.1942C1127.74 38.3712 1123.95 40.0337 1119.41 39.9545ZM1104.91 53.6895C1103.64 50.4042 1100.38 48.148 1097.58 48.7813C1094.73 49.4146 1093.47 52.5418 1094.68 55.8271C1095.89 59.1125 1099.16 61.329 1102.01 60.6957C1104.86 60.0624 1106.12 56.9749 1104.91 53.6895ZM1120.2 50.3646C1115.93 48.6626 1113.72 45.6147 1115.19 43.596C1116.67 41.5377 1121.31 41.2608 1125.53 42.9628C1129.75 44.6649 1131.96 47.7126 1130.54 49.7709C1129.06 51.7896 1124.42 52.0667 1120.2 50.3646ZM1118.62 51.8689C1115.46 49.0981 1110.97 48.2272 1108.65 49.7709C1106.33 51.3146 1107.07 54.7584 1110.24 57.4104C1113.45 60.102 1117.88 61.0519 1120.2 59.5082C1122.52 57.9645 1121.84 54.5605 1118.62 51.8689ZM193.037 53.848C190.348 57.0146 193.617 59.7061 194.619 64.2581C196.148 70.9871 201.316 72.5308 204.48 70.3934C207.643 68.2559 205.798 64.2582 208.171 61.5666C210.491 58.7958 216.238 58.5582 217.557 55.55C218.875 52.5417 215.078 49.5335 206.272 51.0376C200.419 52.0272 195.937 50.8002 193.037 53.848ZM183.282 59.7854C187.922 59.6666 191.824 61.4082 191.93 63.6644C192.035 65.9206 188.291 67.8996 183.704 67.9788C179.169 68.0975 175.161 66.4351 175.003 64.1789C174.845 61.8831 178.589 59.9437 183.282 59.7854ZM196.675 44.8231C198.468 48.1084 201.896 50.2063 204.69 49.3751C207.538 48.5438 208.382 45.2982 206.905 41.9733C205.429 38.6483 201.685 36.6296 198.837 37.4213C196.043 38.2129 195.041 41.4982 196.675 44.8231ZM181.331 49.1375C185.866 50.6021 188.502 53.6105 187.184 55.7875C185.918 58.0041 181.225 58.5582 176.69 57.054C172.156 55.5895 169.519 52.5813 170.785 50.4043C172.103 48.2272 176.796 47.6334 181.331 49.1375ZM182.754 47.4356C186.446 50.0084 190.98 50.6813 193.195 48.9792C195.41 47.2772 194.355 43.7543 190.77 41.2211C187.184 38.6482 182.544 37.9357 180.329 39.6774C178.114 41.3794 179.169 44.9419 182.754 47.4356ZM286.687 301.515C271.975 298.745 264.645 308.165 247.93 314.617C223.357 324.156 222.461 336.704 233.218 341.85C243.922 346.956 258.054 339.079 270.868 341.85H271.078C283.998 344.422 290.272 356.653 303.086 356.772C315.847 356.891 324.126 345.729 310.047 327.916C300.766 315.923 301.399 304.959 286.687 301.515ZM254.732 285.761C259.583 295.855 256.525 305.948 247.877 308.284C239.229 310.619 228.261 304.405 223.41 294.311C218.506 284.257 221.564 274.164 230.212 271.789C238.913 269.453 249.933 275.707 254.732 285.761ZM325.18 301C313.896 307.611 309.308 317.348 315.003 322.811C320.645 328.273 334.355 327.323 345.64 320.752C356.924 314.182 361.459 304.405 355.817 298.942C350.122 293.48 336.412 294.43 325.18 301ZM294.069 271.631C292.487 282.872 283.417 291.382 273.715 290.59C264.065 289.838 257.527 280.101 259.003 268.899C260.532 257.658 269.655 249.108 279.357 249.9C289.007 250.652 295.757 260.389 294.069 271.631ZM301.768 273.253C295.124 283.386 296.758 294.232 305.406 297.438C314.054 300.644 326.604 295.024 333.248 284.891C339.892 274.718 338.205 263.912 329.61 260.706C320.962 257.499 308.412 263.12 301.768 273.253ZM1021.54 706.087C1021.81 701.773 1016.53 700.545 1012 696.389C1005.3 690.333 999.027 691.125 997.287 694.569C995.547 698.012 1000.66 701.218 1000.24 705.018C1000.03 708.779 994.492 711.47 995.494 715.033C996.496 718.595 1002.56 720.02 1010.21 714.677C1015.58 711.114 1021.07 710.362 1021.54 706.087ZM1026.71 695.914C1022.12 698.091 1016.96 698.052 1015.11 695.914C1013.21 693.737 1015.43 690.135 1019.96 687.958C1024.55 685.821 1029.77 685.86 1031.61 687.958C1033.51 690.096 1031.3 693.737 1026.71 695.914ZM1024.92 716.656C1020.8 714.043 1015.58 713.568 1013.37 715.587C1011.21 717.606 1012.68 721.326 1016.85 723.86C1021.02 726.433 1026.18 726.947 1028.4 724.928C1030.61 722.909 1029.08 719.228 1024.92 716.656ZM1036.83 705.691C1031.19 706.206 1026.29 704.346 1025.81 701.614C1025.39 698.883 1029.66 696.271 1035.31 695.796C1040.95 695.281 1045.9 697.181 1046.33 699.912C1046.8 702.643 1042.53 705.216 1036.83 705.691ZM1036.83 707.908C1031.35 706.918 1026.13 708.264 1025.29 710.916C1024.39 713.608 1028.19 716.576 1033.67 717.605C1039.21 718.635 1044.38 717.289 1045.27 714.637C1046.17 711.985 1042.21 708.937 1036.83 707.908ZM403.96 729.836C407.651 731.618 410.604 729.599 415.772 729.084C423.418 728.293 425.211 725.047 423.154 722.949C421.045 720.851 416.246 721.959 413.293 720.178C410.235 718.595 410.077 714.953 406.755 714.043C403.38 713.133 399.847 715.468 401.323 721.128C402.114 725.087 400.691 727.937 403.96 729.836ZM410.499 736.209C410.499 733.201 412.45 730.707 415.033 730.707C417.617 730.707 419.727 733.082 419.727 736.051C419.779 739.02 417.723 741.553 415.192 741.553C412.661 741.553 410.499 739.178 410.499 736.209ZM393.836 727.303C397.527 726.353 400.005 724.137 399.214 722.276C398.371 720.416 394.679 719.783 390.936 720.693C387.139 721.643 384.713 723.859 385.557 725.72C386.348 727.58 390.092 728.253 393.836 727.303ZM398.318 737.278C400.163 734.547 403.591 732.845 406.017 733.716C408.442 734.547 409.022 737.595 407.229 740.445C405.384 743.294 401.956 744.878 399.531 744.007C397.105 743.096 396.525 740.049 398.318 737.278ZM396.578 736.209C399.583 733.992 400.427 731.064 398.581 729.599C396.683 728.174 392.728 728.768 389.723 730.985C386.664 733.162 385.821 736.13 387.719 737.594C389.617 739.059 393.572 738.426 396.578 736.209ZM188.028 185.064C187.289 188.943 191.93 190.447 195.568 194.445C200.894 200.342 206.589 199.986 208.487 197.057C210.385 194.128 206.167 190.803 207.011 187.439C207.696 183.995 212.969 181.897 212.495 178.651C212.02 175.406 206.641 173.703 199.101 178.058C193.986 180.947 188.977 181.224 188.028 185.064ZM182.174 193.93C186.551 192.268 191.244 192.624 192.668 194.761C194.092 196.899 191.719 199.907 187.342 201.569C182.965 203.232 178.272 202.876 176.849 200.738C175.372 198.64 177.798 195.593 182.174 193.93ZM186.182 175.326C189.662 177.899 194.25 178.691 196.517 176.989C198.732 175.326 197.783 171.843 194.355 169.27C190.875 166.658 186.287 165.866 184.02 167.568C181.805 169.231 182.754 172.674 186.182 175.326ZM174.159 184.43C179.274 184.43 183.545 186.33 183.598 188.824C183.651 191.357 179.485 193.415 174.318 193.455C169.203 193.534 164.931 191.555 164.879 189.061C164.826 186.568 169.044 184.47 174.159 184.43ZM174.581 182.412C179.432 183.718 184.284 182.807 185.391 180.472C186.498 178.137 183.44 175.128 178.536 173.862C173.685 172.595 168.834 173.466 167.726 175.801C166.619 178.137 169.677 181.145 174.581 182.412ZM1474.45 69.2851C1469.17 63.2686 1460.37 65.3664 1448.71 63.0706C1431.74 59.6665 1424.19 65.3268 1426.41 71.185C1428.68 77.0036 1439.7 77.7953 1444.02 83.2577C1448.61 88.6013 1444.6 96.3199 1450.56 100.476C1456.52 104.632 1466.7 102.059 1470.23 89.1554C1472.6 80.566 1479.09 75.5392 1474.45 69.2851ZM1468.12 51.6313C1464.69 57.9249 1457.52 61.6852 1452.14 59.904C1446.76 58.1624 1445.13 51.7897 1448.5 45.5357C1451.83 39.2817 1459.05 35.4816 1464.43 37.2628C1469.86 39.0044 1471.6 45.3773 1468.12 51.6313ZM1492.53 81.3182C1483.52 80.764 1475.82 83.9306 1475.4 88.2847C1474.97 92.6388 1481.88 96.5574 1490.95 97.1115C1500.02 97.6657 1507.67 94.3407 1508.09 90.145C1508.51 85.9096 1501.6 81.8327 1492.53 81.3182ZM1494.7 57.6083C1487.58 62.3978 1478.51 63.4664 1474.34 60.0227C1470.23 56.579 1472.71 49.9293 1479.83 45.1399C1487 40.39 1496.01 39.2817 1500.13 42.7649C1504.24 46.2086 1501.81 52.9772 1494.7 57.6083ZM1497.33 60.8144C1488.47 63.5455 1483.1 69.0872 1485.31 73.3621C1487.58 77.637 1496.65 78.864 1505.51 76.3704C1514.36 73.8371 1519.74 68.0975 1517.48 63.8227C1515.21 59.5082 1506.19 58.1623 1497.33 60.8144ZM55.8315 214.671C58.9426 212.534 57.0443 209.842 57.5716 205.924C58.3098 200.184 54.5132 198.165 51.2966 199.313C48.0801 200.461 48.4492 204.103 45.6545 205.844C42.8597 207.744 38.2721 206.992 36.1629 209.209C34.1064 211.386 36.4266 214.513 44.1253 214.711C49.2929 214.948 52.6149 216.69 55.8315 214.671ZM65.534 211.386C61.6846 210.753 58.9953 208.655 59.5754 206.834C60.1027 205.053 63.7411 204.103 67.5904 204.657C71.4398 205.211 74.1291 207.388 73.549 209.209C72.969 211.03 69.3833 212.059 65.534 211.386ZM50.242 221.44C49.8729 218.511 47.5528 216.215 45.0217 216.413C42.4906 216.571 40.6978 219.144 41.0669 222.073C41.436 225.002 43.8089 227.298 46.34 227.1C48.871 226.902 50.6111 224.409 50.242 221.44ZM64.0048 220.411C60.7882 218.471 59.4699 215.621 61.21 214.038C62.8974 212.494 66.8522 212.771 70.1215 214.751C73.3908 216.69 74.6564 219.54 72.969 221.123C71.2816 222.706 67.2741 222.39 64.0048 220.411ZM62.3701 221.519C60.2081 218.748 56.6225 217.482 54.3023 218.55C51.9821 219.579 51.8767 222.588 54.0386 225.279C56.2006 227.971 59.839 229.277 62.1065 228.248C64.3739 227.258 64.5321 224.171 62.3701 221.519ZM500.879 46.446C503.305 40.4691 496.555 37.2629 492.284 30.2172C485.956 19.8862 476.728 19.1738 472.774 23.5674C468.819 27.9611 474.25 33.8589 471.772 39.0046C469.557 44.2691 460.54 46.5252 460.171 51.7896C459.802 57.0145 467.501 60.6956 481 55.3124C490.017 51.7896 498.032 52.3042 500.879 46.446ZM513.165 33.661C505.783 35.4026 498.454 33.938 496.872 30.2965C495.342 26.6945 500.194 22.3404 507.681 20.5988C515.117 18.8571 522.393 20.3217 523.923 23.9237C525.452 27.5257 520.601 31.9193 513.165 33.661ZM500.299 62.1997C495.817 57.4103 488.804 55.3124 484.691 57.4895C480.578 59.6665 481 65.3663 485.429 70.1162C489.858 74.9057 496.977 77.0037 501.09 74.8267C505.203 72.6101 504.834 66.9892 500.299 62.1997ZM522.499 50.2063C514.326 49.2959 508.367 45.3378 509.158 41.3795C509.896 37.4609 517.173 35.0066 525.346 35.8774C533.52 36.7482 539.478 40.7461 538.687 44.6648C537.843 48.623 530.672 51.1167 522.499 50.2063ZM521.128 53.2543C513.798 50.2856 505.941 50.721 503.41 54.2438C500.879 57.7271 504.676 62.9915 511.847 65.9206C519.071 68.8893 527.034 68.4934 529.565 65.0101C532.096 61.4873 528.352 56.2625 521.128 53.2543ZM419.463 281.328C407.809 281.328 404.751 289.443 394.099 296.686C378.28 307.334 380.917 316.794 390.408 318.971C399.9 321.108 408.073 313.271 418.303 313.627H418.514C428.796 313.627 436.548 321.9 446.092 320C455.583 318.14 458.853 308.956 443.772 297.636C433.437 289.996 431.064 281.764 419.463 281.328ZM391.568 274.322C397.791 281.091 398.107 289.007 392.307 292.016C386.506 295.024 376.751 292.015 370.529 285.207C364.307 278.359 363.99 270.522 369.79 267.514C375.644 264.506 385.346 267.553 391.568 274.322ZM447.727 275.391C441.082 281.922 440.397 289.799 445.828 293.005C451.26 296.211 461.331 293.559 467.87 287.028C474.408 280.536 475.252 272.62 469.768 269.414C464.337 266.168 454.371 268.86 447.727 275.391ZM417.195 258.093C418.936 266.643 414.401 274.243 407.018 275.114C399.689 275.985 392.307 269.612 390.566 261.141C388.879 252.671 393.361 244.952 400.743 244.121C408.073 243.25 415.403 249.543 417.195 258.093ZM423.259 258.212C420.939 266.683 424.947 274.48 432.224 275.589C439.553 276.697 447.305 270.72 449.625 262.249C451.892 253.779 447.885 245.981 440.608 244.873C433.331 243.764 425.527 249.741 423.259 258.212ZM43.0706 537.664C34.4228 535.843 29.9407 541.385 19.8691 544.947C5.15722 550.251 4.31353 557.732 10.694 560.859C17.0744 563.986 25.4058 559.474 32.9463 561.413H32.9991C40.5923 563.076 44.0198 570.398 51.5603 570.636C59.1535 570.834 64.2684 564.382 56.3061 553.655C51.033 546.372 51.5603 539.841 43.0706 537.664ZM24.4567 527.966C27.1459 533.983 25.0895 539.881 19.9218 541.187C14.7542 542.493 8.42653 538.653 5.73726 532.637C3.04799 526.62 5.10449 520.683 10.2721 519.377C15.387 518.07 21.9256 522.068 24.4567 527.966ZM65.7976 537.822C58.9953 541.583 56.0951 547.322 59.3117 550.607C62.5283 553.853 70.6488 553.497 77.4511 549.776C84.2534 546.016 87.1536 540.276 83.937 536.991C80.7204 533.666 72.5999 534.062 65.7976 537.822ZM48.1328 520.05C46.9727 526.7 41.3833 531.608 35.6883 531.093C30.0461 530.618 26.3023 524.72 27.5151 518.071C28.6751 511.421 34.2119 506.512 39.9068 507.027C45.6545 507.502 49.2929 513.439 48.1328 520.05ZM52.5622 521.118C48.3965 527.056 49.1347 533.468 54.2496 535.447C59.3117 537.466 66.7995 534.299 70.9652 528.401C75.131 522.504 74.34 516.052 69.2778 514.073C64.2157 512.054 56.6752 515.221 52.5622 521.118ZM1166.5 725.126C1172.14 726.432 1175.15 722.791 1181.79 720.455C1191.49 717.051 1192.13 712.183 1187.96 710.085C1183.8 707.987 1178.26 710.877 1173.25 709.61C1168.24 708.462 1165.87 703.633 1161.12 703.475C1156.32 703.277 1152.74 707.472 1157.85 714.479C1161.38 719.387 1160.91 723.622 1166.5 725.126ZM1178.63 731.618C1176.94 727.62 1178.31 723.78 1181.74 722.949C1185.17 722.118 1189.28 724.691 1190.97 728.61C1192.65 732.568 1191.28 736.447 1187.86 737.278C1184.43 738.109 1180.26 735.536 1178.63 731.618ZM1151.58 724.889C1156.11 722.474 1158.06 718.753 1155.95 716.616C1153.84 714.478 1148.62 714.637 1144.04 717.051C1139.5 719.506 1137.55 723.226 1139.66 725.324C1141.77 727.422 1147.15 727.343 1151.58 724.889ZM1163.02 736.645C1163.86 732.291 1167.55 729.084 1171.3 729.52C1175.04 729.916 1177.36 733.755 1176.57 738.07C1175.73 742.424 1171.98 745.63 1168.29 745.234C1164.55 744.838 1162.18 740.999 1163.02 736.645ZM1160.12 735.932C1162.91 732.053 1162.49 727.857 1159.17 726.511C1155.85 725.166 1150.89 727.184 1148.15 731.063C1145.35 734.903 1145.83 739.138 1149.1 740.484C1152.42 741.83 1157.38 739.811 1160.12 735.932ZM1305.55 554.526C1300.49 557.969 1303.49 562.324 1302.6 568.617C1301.33 577.84 1307.45 581.205 1312.62 579.384C1317.78 577.563 1317.26 571.705 1321.9 568.815C1326.33 565.847 1333.92 567.073 1337.14 563.511C1340.35 559.949 1336.82 554.922 1324.43 554.486C1316.31 554.17 1310.82 551.32 1305.55 554.526ZM1289.84 559.711C1296.06 560.78 1300.33 564.145 1299.38 567.113C1298.48 570.082 1292.68 571.665 1286.46 570.596C1280.24 569.528 1275.97 566.163 1276.92 563.155C1277.81 560.147 1283.61 558.603 1289.84 559.711ZM1314.67 543.68C1315.2 548.43 1318.94 552.111 1323 551.953C1327.12 551.755 1330.02 547.638 1329.49 542.849C1328.91 538.099 1325.22 534.418 1321.11 534.576C1316.99 534.735 1314.09 538.891 1314.67 543.68ZM1292.47 545.185C1297.69 548.351 1299.8 552.982 1296.96 555.515C1294.06 558.049 1287.73 557.495 1282.51 554.328C1277.29 551.122 1275.18 546.491 1278.03 543.958C1280.93 541.424 1287.25 541.978 1292.47 545.185ZM1295.11 543.443C1298.54 547.797 1304.34 549.974 1308.08 548.312C1311.83 546.61 1312.04 541.78 1308.61 537.466C1305.23 533.112 1299.38 530.895 1295.64 532.597C1291.95 534.299 1291.68 539.128 1295.11 543.443ZM629.595 103.088C630.966 100.318 627.855 98.6551 625.904 95.2511C623.215 90.2241 618.891 89.7096 616.887 91.7679C614.883 93.8657 617.309 96.6761 615.938 99.0906C614.778 101.545 610.401 102.455 610.085 104.949C609.768 107.442 613.407 109.303 619.84 106.967C624.322 105.384 628.118 105.82 629.595 103.088ZM635.764 97.1115C632.126 97.824 628.804 97.1115 628.171 95.2907C627.538 93.4699 629.964 91.57 633.55 90.8576C637.188 90.1451 640.563 90.8574 641.143 92.6782C641.723 94.5386 639.403 96.4782 635.764 97.1115ZM628.909 110.53C626.906 108.195 623.636 107.086 621.527 108.076C619.471 109.065 619.576 111.717 621.527 114.053C623.531 116.388 626.853 117.496 628.909 116.547C630.966 115.557 630.913 112.865 628.909 110.53ZM639.719 105.186C636.028 104.632 633.181 102.653 633.655 100.793C634.13 98.9718 637.61 97.9031 641.459 98.4573C645.361 99.0114 648.051 100.991 647.523 102.851C647.049 104.711 643.569 105.74 639.719 105.186ZM639.034 106.611C635.659 105.107 631.915 105.147 630.597 106.809C629.279 108.432 630.913 110.965 634.288 112.469C637.61 114.013 641.407 113.894 642.672 112.311C643.99 110.728 642.356 108.155 639.034 106.611ZM496.872 649.841C500.299 651.226 502.883 649.167 507.576 648.336C514.484 647.07 515.697 643.982 513.429 642.241C511.109 640.499 506.996 641.805 504.043 640.499C501.037 639.232 500.352 635.947 497.241 635.314C494.182 634.72 491.124 637.095 493.233 642.161C494.551 645.605 493.55 648.336 496.872 649.841ZM503.674 655.224C503.252 652.453 504.781 650.117 507.154 649.919C509.527 649.721 511.742 651.82 512.111 654.511C512.48 657.203 510.951 659.617 508.631 659.815C506.258 660.013 503.99 657.955 503.674 655.224ZM487.275 648.257C490.649 647.109 492.548 644.893 491.546 643.27C490.597 641.686 487.116 641.251 483.742 642.399C480.42 643.507 478.521 645.724 479.523 647.347C480.472 648.969 483.953 649.366 487.275 648.257ZM492.653 656.965C493.919 654.195 496.872 652.532 499.192 653.165C501.512 653.799 502.408 656.49 501.143 659.221C499.825 661.953 496.872 663.655 494.551 663.021C492.231 662.388 491.335 659.697 492.653 656.965ZM490.86 656.213C493.339 653.997 493.813 651.226 491.915 649.999C489.964 648.811 486.431 649.642 483.953 651.899C481.474 654.115 481.052 656.886 482.951 658.074C484.849 659.261 488.382 658.43 490.86 656.213ZM688.126 232.8C685.226 236.006 688.39 238.817 689.128 243.566C690.288 250.573 695.561 252.235 698.936 250.216C702.363 248.198 700.623 243.962 703.418 241.271C706.002 238.5 711.96 238.5 713.437 235.373C714.966 232.246 711.275 229.079 702.1 230.346C695.825 231.177 691.184 229.752 688.126 232.8ZM677.685 238.619C682.537 238.619 686.439 240.558 686.439 242.893C686.439 245.229 682.484 247.089 677.685 247.089C672.834 247.089 668.932 245.15 668.932 242.814C668.932 240.519 672.834 238.619 677.685 238.619ZM692.397 223.617C693.821 227.061 697.459 229.317 700.412 228.604C703.418 227.892 704.578 224.527 703.102 221.044C701.625 217.6 698.092 215.384 695.087 216.096C692.134 216.809 690.921 220.173 692.397 223.617ZM676.473 227.575C681.06 229.238 683.591 232.404 682.168 234.621C680.691 236.798 675.84 237.352 671.094 235.571C666.401 233.79 664.028 230.702 665.505 228.525C666.981 226.309 671.78 225.873 676.473 227.575ZM677.896 225.952C681.588 228.723 686.175 229.594 688.601 227.892C690.974 226.15 690.077 222.588 686.544 219.777C683.011 217.007 678.265 216.175 675.84 217.878C673.467 219.54 674.416 223.182 677.896 225.952ZM791.162 593.792C793.482 601.312 803.396 601.59 813.836 607.092C829.128 615.166 839.569 611.564 840.096 605.073C840.624 598.621 830.025 594.821 828.39 588.131C826.386 581.521 834.19 574.911 830.236 569.092C826.281 563.313 814.891 563.076 805.03 575.03C798.333 583.025 789.369 586.192 791.162 593.792ZM788.736 613.108C795.222 607.764 804.187 605.983 808.774 609.11C813.414 612.277 811.833 619.164 805.347 624.508C798.808 629.851 789.844 631.633 785.256 628.466C780.669 625.339 782.198 618.649 788.736 613.108ZM778.77 576.732C787.524 579.74 796.751 578.75 799.335 574.476C801.866 570.161 796.857 564.342 788.051 561.334C779.245 558.326 770.07 559.355 767.486 563.63C764.902 567.865 769.964 573.724 778.77 576.732ZM765.06 599.888C774.499 597.117 784.096 598.463 786.574 603.054C789 607.606 783.252 613.622 773.814 616.472C764.375 619.283 754.725 617.818 752.299 613.266C749.874 608.714 755.569 602.698 765.06 599.888ZM763.953 595.969C774.13 595.771 782.356 591.615 782.04 586.667C781.776 581.759 773.497 577.919 763.32 578.117C753.196 578.315 744.97 582.471 745.234 587.419C745.497 592.367 753.723 596.167 763.953 595.969ZM962.695 554.605C966.914 552.863 965.806 549.459 967.81 545.185C970.71 538.93 967.23 535.883 963.223 536.516C959.268 537.149 958.319 541.266 954.469 542.651C950.831 544.195 945.716 542.414 942.71 544.472C939.705 546.57 941.076 550.489 949.565 552.309C955.26 553.576 958.319 556.188 962.695 554.605ZM974.718 552.943C970.605 551.438 968.39 548.589 969.708 546.649C971.027 544.67 975.351 544.314 979.464 545.857C983.524 547.401 985.739 550.211 984.473 552.151C983.155 554.13 978.778 554.486 974.718 552.943ZM953.995 561.017C954.627 557.653 952.887 554.645 949.934 554.328C947.034 553.972 944.134 556.466 943.448 559.83C942.763 563.195 944.609 566.203 947.509 566.52C950.409 566.876 953.256 564.422 953.995 561.017ZM969.708 562.719C966.755 559.988 966.386 556.426 968.865 555.001C971.343 553.576 975.667 554.764 978.567 557.614C981.467 560.424 981.889 563.907 979.464 565.332C977.038 566.797 972.609 565.569 969.708 562.719ZM967.441 563.59C966.07 560.147 962.484 557.93 959.584 558.603C956.631 559.316 955.366 562.64 956.789 566.084C958.213 569.528 961.746 571.626 964.699 571.072C967.652 570.517 968.917 567.034 967.441 563.59ZM1014.79 405.854C1009.78 412.9 1017.17 418.204 1020.33 427.941C1024.81 442.072 1036.2 444.487 1042.37 439.856C1048.54 435.225 1043.9 426.714 1048.75 420.658C1053.23 414.484 1065.31 413.335 1067.52 406.883C1069.74 400.431 1061.04 394.336 1042.53 398.611C1030.03 401.144 1020.17 399.046 1014.79 405.854ZM995.177 419.629C1005.09 418.798 1013.53 422.044 1014.37 426.833C1015.22 431.623 1007.62 436.214 997.708 437.006C987.742 437.797 979.305 434.591 978.462 429.802C977.618 425.012 985.369 420.46 995.177 419.629ZM1020.54 386.222C1024.71 393.069 1032.72 396.988 1038.63 395.009C1044.48 393.03 1045.96 385.865 1041.84 379.018C1037.68 372.209 1029.66 368.291 1023.76 370.27C1017.9 372.249 1016.48 379.413 1020.54 386.222ZM988.85 397.146C998.763 399.917 1004.99 405.854 1002.72 410.644C1000.4 415.473 990.537 417.215 980.624 414.563C970.763 411.91 964.541 405.815 966.808 401.065C969.076 396.276 978.936 394.534 988.85 397.146ZM991.592 393.584C999.659 398.611 1009.73 399.561 1014.11 395.642C1018.43 391.724 1015.43 384.48 1007.31 379.413C999.238 374.307 989.166 373.397 984.842 377.316C980.466 381.234 983.524 388.517 991.592 393.584ZM1286.2 146.312C1279.45 153.635 1286.88 160.087 1288.73 171.131C1291.52 187.241 1303.71 191.08 1311.56 186.37C1319.37 181.699 1315.2 171.922 1321.69 165.668C1327.7 159.177 1341.3 159.018 1344.78 151.854C1348.26 144.689 1339.61 137.327 1318.36 140.336C1304.02 142.433 1293.42 139.227 1286.2 146.312ZM1262.21 159.81C1273.28 159.81 1282.45 164.204 1282.51 169.587C1282.51 175.01 1273.44 179.403 1262.31 179.403C1251.19 179.403 1242.06 175.049 1242.06 169.627C1242.01 164.204 1251.08 159.85 1262.21 159.81ZM1295.9 125.017C1299.33 132.973 1307.66 138.079 1314.52 136.417C1321.37 134.715 1324.11 126.957 1320.68 118.961C1317.2 111.005 1308.87 105.899 1302.02 107.561C1295.16 109.263 1292.42 117.061 1295.9 125.017ZM1258.88 134.279C1269.48 138.158 1275.34 145.323 1272.07 150.548C1268.74 155.812 1257.35 156.723 1246.91 152.843C1236.47 149.004 1230.41 141.8 1233.68 136.615C1237 131.39 1248.23 130.44 1258.88 134.279ZM1262.47 130.559C1270.64 136.892 1281.72 138.831 1287.15 134.913C1292.58 130.994 1290.42 122.603 1282.24 116.23C1274.12 109.857 1263.05 107.957 1257.57 111.876C1252.08 115.794 1254.3 124.225 1262.47 130.559ZM1474.08 213.998C1471.71 209.565 1465.54 210.08 1458.47 207.428C1447.98 203.549 1442.02 206.517 1442.49 210.555C1442.91 214.592 1449.82 216.057 1451.88 220.173C1453.94 224.131 1449.98 228.802 1453.14 232.088C1456.31 235.373 1463.37 234.66 1467.86 226.546C1471.07 221.282 1476.19 218.511 1474.08 213.998ZM1473.13 201.965C1469.81 205.765 1464.48 207.467 1461.26 205.884C1458 204.301 1458.1 199.907 1461.26 196.147C1464.38 192.347 1469.86 190.645 1473.13 192.268C1476.35 193.89 1476.45 198.126 1473.13 201.965ZM1483.94 223.617C1478.14 222.429 1472.55 223.617 1471.55 226.388C1470.49 229.159 1474.34 232.444 1480.14 233.671C1485.94 234.898 1491.48 233.671 1492.53 230.9C1493.59 228.169 1489.74 224.844 1483.94 223.617ZM1489.42 208.378C1483.94 210.792 1477.87 210.634 1475.77 207.982C1473.66 205.33 1476.4 201.213 1481.88 198.799C1487.37 196.384 1493.48 196.543 1495.59 199.195C1497.7 201.847 1494.91 205.963 1489.42 208.378ZM1490.58 210.713C1484.31 211.584 1479.88 214.711 1480.62 217.759C1481.36 220.767 1487 222.509 1493.27 221.677C1499.49 220.807 1503.98 217.68 1503.24 214.632C1502.5 211.584 1496.86 209.842 1490.58 210.713ZM982.575 191.278C979.305 193.099 980.729 195.87 979.674 199.551C978.145 205.092 981.573 207.309 984.789 206.438C988.006 205.567 988.217 202.084 991.17 200.54C994.07 198.997 998.552 200.065 1000.71 198.086C1002.88 196.107 1001.24 192.941 993.859 192.109C989.061 191.555 986.002 189.616 982.575 191.278ZM972.82 193.693C976.458 194.643 978.673 196.82 977.882 198.561C977.038 200.263 973.505 200.976 969.867 200.026C966.228 199.076 963.961 196.899 964.804 195.157C965.595 193.376 969.181 192.703 972.82 193.693ZM989.061 185.182C989.061 187.953 990.906 190.447 993.385 190.447C995.863 190.486 997.814 188.151 997.867 185.42C997.972 182.649 996.021 180.155 993.49 180.155C991.012 180.116 989.061 182.332 989.061 185.182ZM975.509 185.064C978.409 187.241 979.2 190.091 977.354 191.476C975.509 192.861 971.712 192.228 968.865 190.091C966.017 187.993 965.174 185.103 967.019 183.718C968.865 182.293 972.661 182.966 975.509 185.064ZM977.249 184.153C978.936 186.924 982.258 188.507 984.578 187.676C986.951 186.845 987.531 183.955 985.791 181.224C984.104 178.493 980.835 176.87 978.462 177.701C976.089 178.533 975.562 181.422 977.249 184.153ZM1133.6 495.627C1140.98 501.129 1149.41 497.369 1162.12 497.923C1180.74 498.675 1187.01 491.55 1182.95 485.811C1178.89 480.071 1167.19 481.061 1161.12 476.074C1154.79 471.245 1156.69 462.576 1149.31 459.211C1141.93 455.886 1132.07 460.201 1132.12 474.213C1132.07 483.634 1126.74 489.927 1133.6 495.627ZM1145.09 512.964C1146.88 505.879 1153.21 500.813 1159.33 501.644C1165.45 502.475 1168.98 508.967 1167.19 516.052C1165.44 523.137 1159.12 528.243 1153 527.372C1146.94 526.541 1143.51 520.089 1145.09 512.964ZM1111.08 486.167C1120.62 485.257 1127.74 480.665 1126.9 476.113C1126.11 471.561 1117.67 468.513 1108.18 469.463C1098.64 470.413 1091.52 474.965 1092.31 479.517C1093.1 484.069 1101.54 487.038 1111.08 486.167ZM1115.67 511.025C1121.73 504.89 1130.85 502.277 1136.18 505.206C1141.45 508.135 1140.82 515.419 1134.81 521.594C1128.8 527.729 1119.62 530.341 1114.35 527.412C1109.02 524.483 1109.71 517.239 1115.67 511.025ZM1112.03 508.254C1120.57 504.058 1124.47 497.369 1120.89 493.252C1117.3 489.136 1107.44 489.215 1098.79 493.411C1090.2 497.607 1086.4 504.454 1089.99 508.452C1093.57 512.45 1103.59 512.41 1112.03 508.254ZM823.802 461.507C826.175 452.482 815.576 448.485 807.825 438.629C796.382 424.221 782.725 424.3 777.821 431.148C772.917 437.995 782.04 446.07 779.509 453.947V454.105C777.294 462.062 764.428 466.415 764.955 474.173C765.482 481.932 777.768 486.444 796.33 476.944C808.88 470.651 820.797 470.453 823.802 461.507ZM839.147 441.32C828.601 444.724 817.58 443.339 814.627 438.233C811.674 433.087 817.897 426.16 828.495 422.716C839.147 419.273 850.062 420.658 853.015 425.764C855.968 430.91 849.799 437.876 839.147 441.32ZM826.175 484.703C818.529 478.211 807.772 475.915 802.235 479.596C796.751 483.278 798.281 491.55 805.927 498.081C813.573 504.573 824.33 506.869 829.866 503.188C835.403 499.467 833.821 491.234 826.175 484.703ZM856.285 464.555C844.156 464.12 834.559 459.014 834.876 453.155C835.245 447.258 845.422 442.825 857.603 443.22C869.784 443.616 879.328 448.722 879.011 454.659C878.642 460.557 868.465 464.951 856.285 464.555ZM854.914 469.226C843.682 465.663 832.081 467.207 829.181 472.63C826.228 478.053 832.819 485.375 843.893 488.898C854.914 492.421 866.672 490.917 869.625 485.454C872.578 480.032 866.145 472.749 854.914 469.226Z" fill="#F9F7F1"/>
</svg>
