<svg width="18" height="107" viewBox="0 0 18 107" fill="none" xmlns="http://www.w3.org/2000/svg">
<path d="M17.2423 9.41283C17.0521 7.70141 15.2456 6.32269 13.9145 6.84563C12.6785 7.32102 12.6781 9.60297 14.0092 10.9341C15.6731 12.693 17.575 11.8373 17.2423 9.41283ZM13.6768 13.4537C13.4391 11.5997 12.3453 10.2685 11.1568 10.4587C10.2536 10.6488 9.63575 11.9324 9.68329 13.4537C9.77837 15.4028 11.2045 16.8765 12.4405 16.3061C13.1536 15.9733 13.7719 14.5471 13.6768 13.4537ZM14.1522 2.32937C13.5817 0.808102 12.726 0.61799 9.87363 1.42616C8.73268 1.75894 7.92423 1.75896 6.73574 1.5688C5.88003 1.37865 4.88161 1.2835 4.50129 1.37858C3.59804 1.52119 2.8374 2.61458 2.8374 3.61291C2.88494 4.5637 3.69349 5.98998 4.40658 6.32276C4.69182 6.41784 5.40482 7.13091 5.97529 7.844C7.35394 9.55543 8.54234 10.1259 9.68329 9.698C10.3964 9.41276 10.7293 9.07998 11.4423 7.79641C11.9177 6.9407 12.6781 5.9424 13.0584 5.56208C14.1994 4.51621 14.5325 3.42278 14.1522 2.32937ZM8.68514 13.6914C8.73268 11.98 7.68681 10.6489 6.54586 10.839C5.11967 11.0767 4.31122 13.5963 5.07186 15.4503C5.59479 16.7339 6.11782 17.0667 7.06861 16.7339C7.97186 16.3536 8.68514 15.0225 8.68514 13.6914ZM4.78681 9.2226C4.50157 6.65547 1.50639 7.36856 0.793297 10.1734C0.555599 11.2668 0.983641 12.5029 1.69673 12.8357C2.02951 12.9783 2.55245 12.8831 3.12292 12.6454C4.21633 12.075 4.97696 10.5537 4.78681 9.2226ZM17.2423 39.3627C17.0521 37.6038 15.2456 36.2251 13.9145 36.7481C12.6785 37.271 12.6781 39.5053 14.0092 40.884C15.6731 42.643 17.575 41.7397 17.2423 39.3627ZM13.6768 43.4036C13.4391 41.502 12.3453 40.2184 11.1568 40.4086C10.2536 40.5512 9.63575 41.8348 9.68329 43.356C9.77837 45.3051 11.2045 46.8265 12.4405 46.256C13.1536 45.9232 13.7719 44.4495 13.6768 43.4036ZM14.1522 32.2793C13.5817 30.758 12.726 30.5679 9.87363 31.3285C8.73268 31.6613 7.92423 31.7088 6.73574 31.4711C5.88003 31.3285 4.88161 31.2335 4.50129 31.281C3.59804 31.4236 2.8374 32.517 2.8374 33.5628C2.88494 34.4661 3.69349 35.8923 4.40658 36.2251C4.69182 36.3677 5.40482 37.0332 5.97529 37.7463C7.35394 39.4578 8.54234 40.0758 9.68329 39.6004C10.3964 39.3152 10.7293 38.9824 11.4423 37.6989C11.9177 36.8432 12.6781 35.8447 13.0584 35.4644C14.1994 34.4185 14.5325 33.3727 14.1522 32.2793ZM8.68514 43.5937C8.73268 41.9298 7.68681 40.5512 6.54586 40.7413C5.11967 40.979 4.31122 43.4987 5.07186 45.4002C5.59479 46.6838 6.11782 47.0165 7.06861 46.6362C7.97186 46.2559 8.68514 44.9724 8.68514 43.5937ZM4.78681 39.125C4.50157 36.5579 1.50639 37.271 0.793297 40.0758C0.555599 41.1692 0.983641 42.4052 1.69673 42.738C2.02951 42.8806 2.55245 42.8331 3.12292 42.5479C4.21633 42.0249 4.97696 40.5037 4.78681 39.125ZM17.2423 69.2651C17.0521 67.5537 15.2456 66.1275 13.9145 66.698C12.6785 67.1734 12.6781 69.4552 14.0092 70.7863C15.6731 72.5453 17.575 71.6896 17.2423 69.2651ZM13.6768 73.3059C13.4391 71.4519 12.3453 70.1208 11.1568 70.3109C10.2536 70.5011 9.63575 71.7371 9.68329 73.3059C9.77837 75.2551 11.2045 76.7288 12.4405 76.1583C13.1536 75.8255 13.7719 74.3994 13.6768 73.3059ZM14.1522 62.1817C13.5817 60.6605 12.726 60.4702 9.87363 61.2784C8.73268 61.6112 7.92423 61.6112 6.73574 61.4211C5.88003 61.2309 4.88161 61.1359 4.50129 61.2309C3.59804 61.3736 2.8374 62.4669 2.8374 63.4653C2.88494 64.4161 3.69349 65.8422 4.40658 66.1274C4.69182 66.27 5.40482 66.9832 5.97529 67.6963C7.35394 69.4077 8.54234 69.9782 9.68329 69.5504C10.3964 69.2651 10.7293 68.9324 11.4423 67.6488C11.9177 66.7931 12.6781 65.7471 13.0584 65.4143C14.1994 64.3209 14.5325 63.2751 14.1522 62.1817ZM8.68514 73.5436C8.73268 71.8322 7.68681 70.5011 6.54586 70.6913C5.11967 70.929 4.31122 73.4485 5.07186 75.3026C5.59479 76.5861 6.11782 76.919 7.06861 76.5387C7.97186 76.2059 8.68514 74.8747 8.68514 73.5436ZM4.78681 69.075C4.50157 66.5078 1.50639 67.2209 0.793297 69.9782C0.555599 71.0716 0.983641 72.3551 1.69673 72.6879C2.02951 72.8305 2.55245 72.7355 3.12292 72.4978C4.21633 71.9273 4.97696 70.4061 4.78681 69.075ZM17.2423 99.215C17.0521 97.456 15.2456 96.0774 13.9145 96.6003C12.6785 97.0757 12.6781 99.3576 14.0092 100.736C15.6731 102.495 17.575 101.592 17.2423 99.215ZM13.6768 103.208C13.4391 101.354 12.3453 100.023 11.1568 100.261C10.2536 100.403 9.63575 101.687 9.68329 103.208C9.77837 105.157 11.2045 106.631 12.4405 106.108C13.1536 105.775 13.7719 104.302 13.6768 103.208ZM14.1522 92.0841C13.5817 90.5628 12.726 90.3727 9.87363 91.1809C8.73268 91.5136 7.92423 91.5611 6.73574 91.3234C5.88003 91.1332 4.88161 91.0857 4.50129 91.1333C3.59804 91.2759 2.8374 92.3693 2.8374 93.4152C2.88494 94.3185 3.69349 95.7446 4.40658 96.0774C4.69182 96.22 5.40482 96.8856 5.97529 97.5987C7.35394 99.3101 8.54234 99.9281 9.68329 99.4527C10.3964 99.1675 10.7293 98.8347 11.4423 97.5511C11.9177 96.6954 12.6781 95.6971 13.0584 95.3168C14.1994 94.2709 14.5325 93.1775 14.1522 92.0841ZM8.68514 103.446C8.73268 101.735 7.68681 100.403 6.54586 100.594C5.11967 100.831 4.31122 103.351 5.07186 105.205C5.59479 106.536 6.11782 106.869 7.06861 106.489C7.97186 106.108 8.68514 104.825 8.68514 103.446ZM4.78681 98.9773C4.50157 96.4102 1.50639 97.1233 0.793297 99.9281C0.555599 101.022 0.983641 102.258 1.69673 102.59C2.02951 102.733 2.55245 102.685 3.12292 102.4C4.21633 101.877 4.97696 100.308 4.78681 98.9773Z" fill="#0F0901"/>
</svg>
