<svg width="464" height="231" viewBox="0 0 464 231" fill="none" xmlns="http://www.w3.org/2000/svg">
<path fill-rule="evenodd" clip-rule="evenodd" d="M288.91 131.068C288.91 99.3231 314.658 73.5745 346.403 73.5745C378.148 73.5745 403.897 99.3231 403.897 131.068C403.897 162.813 378.148 188.491 346.403 188.491C314.658 188.491 288.91 162.813 288.91 131.068ZM243.903 3.10091C244.538 2.53656 245.173 2.04273 245.949 1.76056C246.725 1.40784 247.571 1.26678 248.418 1.26678C249.264 1.26678 250.04 1.40784 250.816 1.76056C251.592 2.04273 252.297 2.53656 252.932 3.10091L258.011 8.18014L263.02 3.10091C263.655 2.53656 264.361 2.04273 265.137 1.76056C265.912 1.40784 266.688 1.26678 267.535 1.26678C268.381 1.26678 269.228 1.40784 270.004 1.76056C270.78 2.04273 271.415 2.53656 272.05 3.10091C272.614 3.73581 273.108 4.44125 273.39 5.21724C273.743 5.99322 273.884 6.76922 273.884 7.61575C273.884 8.46228 273.743 9.30881 273.39 10.0848C273.108 10.7902 272.614 11.4957 272.05 12.1306L266.971 17.2097L272.05 22.289C272.614 22.8533 273.108 23.5587 273.39 24.3347C273.743 25.1107 273.884 25.9572 273.884 26.7332C273.884 27.5797 273.743 28.4262 273.39 29.2022C273.108 29.9782 272.614 30.6837 272.05 31.248C271.415 31.8829 270.78 32.3062 270.004 32.6589C269.228 32.9411 268.381 33.1527 267.535 33.1527C266.688 33.1527 265.912 32.9411 265.137 32.6589C264.361 32.3062 263.655 31.8829 263.02 31.248L258.011 26.1689L252.932 31.248C252.368 31.8829 251.663 32.3062 250.887 32.6589C250.111 32.9411 249.264 33.1527 248.418 33.1527C247.571 33.1527 246.795 32.9411 246.019 32.6589C245.243 32.3062 244.538 31.8829 243.973 31.248C243.338 30.6837 242.915 29.9782 242.562 29.2022C242.28 28.4262 242.069 27.5797 242.069 26.7332C242.069 25.9572 242.28 25.1107 242.562 24.3347C242.915 23.5587 243.338 22.8533 243.973 22.289L248.982 17.2097L243.903 12.1306C243.338 11.4957 242.845 10.7902 242.562 10.0848C242.21 9.30881 242.069 8.46228 242.069 7.61575C242.069 6.76922 242.21 5.99322 242.562 5.21724C242.845 4.44125 243.338 3.73581 243.903 3.10091ZM340.054 5.35838C340.054 2.88933 342.1 0.914062 344.499 0.914062C346.968 0.914062 349.013 2.88933 349.013 5.35838C349.013 7.82742 346.968 9.8026 344.499 9.8026C342.1 9.8026 340.054 7.82742 340.054 5.35838ZM348.943 28.6379C348.943 29.4845 348.731 30.4015 348.237 31.107C347.744 31.8124 347.038 32.4473 346.192 32.7294C345.416 33.0822 344.499 33.1527 343.652 33.0116C342.806 32.8705 341.959 32.4473 341.395 31.8124C340.76 31.1775 340.337 30.4015 340.125 29.4844C339.984 28.6379 340.054 27.7208 340.407 26.9449C340.76 26.0983 341.324 25.3929 342.03 24.8991C342.806 24.4052 343.652 24.1936 344.499 24.1936C345.698 24.1936 346.827 24.6169 347.673 25.4634C348.52 26.31 348.943 27.4387 348.943 28.6379ZM362.699 5.35838C362.699 2.88933 364.745 0.914062 367.214 0.914062C369.683 0.914062 371.658 2.88933 371.658 5.35838C371.658 7.82742 369.683 9.8026 367.214 9.8026C364.745 9.8026 362.699 7.82742 362.699 5.35838ZM371.658 28.6379C371.658 29.4845 371.376 30.4015 370.882 31.107C370.388 31.8124 369.683 32.4473 368.907 32.7294C368.06 33.0822 367.143 33.1527 366.297 33.0116C365.45 32.8705 364.604 32.3768 364.039 31.8124C363.404 31.1775 362.981 30.331 362.769 29.4844C362.628 28.6379 362.699 27.7209 363.052 26.8743C363.404 26.0983 363.969 25.3929 364.745 24.8991C365.45 24.4052 366.367 24.1936 367.214 24.1936C368.413 24.1936 369.542 24.6875 370.318 25.4634C371.164 26.31 371.658 27.4387 371.658 28.6379ZM294.201 5.35838C294.201 2.88933 296.176 0.914062 298.645 0.914062C301.114 0.914062 303.089 2.88933 303.089 5.35838C303.089 7.82742 301.114 9.8026 298.645 9.8026C296.176 9.8026 294.201 7.82742 294.201 5.35838ZM303.089 28.6379C303.089 29.4845 302.878 30.4015 302.384 31.107C301.89 31.8124 301.185 32.4473 300.409 32.7294C299.562 33.0822 298.645 33.1527 297.798 33.0116C296.952 32.8705 296.105 32.4473 295.541 31.8124C294.906 31.1775 294.483 30.4015 294.271 29.4844C294.13 28.6379 294.201 27.7208 294.553 26.9449C294.906 26.0983 295.47 25.3929 296.176 24.8991C296.881 24.4758 297.798 24.1936 298.645 24.1936C299.844 24.1936 300.973 24.6169 301.819 25.4634C302.666 26.31 303.089 27.4387 303.089 28.6379ZM316.845 5.35838C316.845 2.88933 318.891 0.914062 321.289 0.914062C323.759 0.914062 325.804 2.88933 325.804 5.35838C325.804 7.82742 323.759 9.8026 321.289 9.8026C318.891 9.8026 316.845 7.82742 316.845 5.35838ZM325.804 28.6379C325.804 29.4845 325.522 30.4015 325.028 31.107C324.535 31.8124 323.829 32.4473 323.053 32.7294C322.207 33.0822 321.36 33.1527 320.443 33.0116C319.596 32.8705 318.821 32.4473 318.186 31.8124C317.551 31.1775 317.127 30.4015 316.916 29.4844C316.775 28.6379 316.845 27.7208 317.198 26.9449C317.551 26.0983 318.115 25.3929 318.82 24.8991C319.596 24.4758 320.443 24.1936 321.289 24.1936C322.489 24.1936 323.617 24.6169 324.464 25.4634C325.311 26.31 325.804 27.4387 325.804 28.6379ZM431.691 5.35838C431.691 2.88933 433.737 0.914062 436.135 0.914062C438.604 0.914062 440.65 2.88933 440.65 5.35838C440.65 7.82742 438.604 9.8026 436.135 9.8026C433.737 9.8026 431.691 7.82742 431.691 5.35838ZM440.58 28.6379C440.58 29.4845 440.297 30.4015 439.804 31.107C439.31 31.8124 438.675 32.4473 437.828 32.7294C437.052 33.0822 436.135 33.1527 435.289 33.0116C434.372 32.8705 433.596 32.4473 432.961 31.8124C432.326 31.1775 431.903 30.4015 431.762 29.4844C431.55 28.6379 431.691 27.7208 431.973 26.9449C432.326 26.0983 432.89 25.3929 433.666 24.8991C434.372 24.4052 435.218 24.1936 436.135 24.1936C437.335 24.1936 438.463 24.6169 439.31 25.4634C440.086 26.31 440.58 27.4387 440.58 28.6379ZM463.295 5.35838C463.295 6.27545 463.013 7.12198 462.519 7.82742C462.025 8.6034 461.32 9.16769 460.473 9.52041C459.697 9.80258 458.78 9.94371 457.934 9.73207C457.087 9.59099 456.24 9.16776 455.676 8.53286C455.041 7.89796 454.618 7.12194 454.406 6.20487C454.265 5.35834 454.336 4.44128 454.688 3.6653C455.041 2.81877 455.606 2.11329 456.311 1.69003C457.087 1.19622 457.933 0.914062 458.85 0.914062C459.415 0.914062 459.979 1.03164 460.544 1.26678C461.061 1.50193 461.531 1.83115 461.955 2.25442C462.378 2.63065 462.707 3.10095 462.942 3.6653C463.177 4.22965 463.295 4.79402 463.295 5.35838ZM463.295 28.6379C463.295 29.4845 463.013 30.4015 462.519 31.107C462.025 31.8124 461.32 32.4473 460.544 32.7294C459.697 33.0822 458.78 33.1527 457.934 33.0116C457.087 32.8705 456.311 32.4473 455.676 31.8124C455.041 31.1775 454.618 30.4015 454.406 29.4844C454.265 28.6379 454.336 27.7208 454.688 26.9449C455.041 26.0983 455.606 25.3929 456.311 24.8991C457.087 24.4052 457.933 24.1936 458.85 24.1936C459.979 24.1936 461.108 24.6169 461.955 25.4634C462.801 26.31 463.295 27.4387 463.295 28.6379ZM385.837 5.35838C385.837 2.88933 387.813 0.914062 390.282 0.914062C392.751 0.914062 394.726 2.88933 394.726 5.35838C394.726 7.82742 392.751 9.8026 390.282 9.8026C387.813 9.8026 385.837 7.82742 385.837 5.35838ZM394.726 28.6379C394.726 29.4845 394.514 30.4015 394.021 31.107C393.527 31.8124 392.821 32.4473 392.045 32.7294C391.199 33.0822 390.282 33.1527 389.435 33.0116C388.589 32.8705 387.742 32.4473 387.178 31.8124C386.543 31.1775 386.12 30.4015 385.908 29.4844C385.767 28.6379 385.837 27.7208 386.19 26.9449C386.543 26.0983 387.107 25.3929 387.813 24.8991C388.518 24.4758 389.435 24.1936 390.282 24.1936C391.481 24.1936 392.61 24.6169 393.456 25.4634C394.303 26.31 394.726 27.4387 394.726 28.6379ZM408.482 5.35838C408.482 2.88933 410.457 0.914062 412.926 0.914062C415.395 0.914062 417.441 2.88933 417.441 5.35838C417.441 7.82742 415.395 9.8026 412.926 9.8026C410.457 9.8026 408.482 7.82742 408.482 5.35838ZM417.441 28.6379C417.441 29.4845 417.159 30.4015 416.665 31.107C416.171 31.8124 415.466 32.4473 414.69 32.7294C413.843 33.0822 412.926 33.1527 412.08 33.0116C411.233 32.8705 410.457 32.4473 409.822 31.8124C409.187 31.1775 408.764 30.4015 408.553 29.4844C408.412 28.6379 408.482 27.7208 408.835 26.9449C409.188 26.0983 409.752 25.3929 410.457 24.8991C411.233 24.4758 412.08 24.1936 412.926 24.1936C414.126 24.1936 415.254 24.6169 416.101 25.4634C416.947 26.31 417.441 27.4387 417.441 28.6379ZM168.985 61.3703C187.538 79.9234 197.908 105.037 197.908 131.209C197.908 150.75 192.123 169.867 181.259 186.092C170.396 202.317 155.017 215.015 136.958 222.493C118.899 229.971 99.0051 231.946 79.8876 228.066C60.6996 224.257 43.1342 214.874 29.3075 201.048C15.4809 187.292 6.0985 169.656 2.28912 150.538C-1.52026 131.35 0.454973 111.457 7.93265 93.4679C15.4103 75.4086 28.0377 59.9595 44.2629 49.0957C60.488 38.2319 79.6055 32.4472 99.1462 32.4472C125.318 32.4472 150.432 42.8878 168.985 61.3703ZM155.158 187.221C170.043 172.336 178.367 152.231 178.367 131.209C178.367 115.478 173.782 100.17 165.034 87.1189C156.357 74.1388 143.942 63.9805 129.48 57.9843C115.019 51.988 99.0757 50.3655 83.6971 53.4694C68.3185 56.5028 54.2097 64.051 43.1343 75.1264C32.0588 86.2018 24.5106 100.381 21.4066 115.689C18.3732 131.068 19.9251 147.011 25.9214 161.472C31.9176 176.005 42.0761 188.35 55.1268 197.097C68.1774 205.774 83.4854 210.43 99.1462 210.43C120.168 210.43 140.344 202.106 155.158 187.221Z" fill="#FFD394"/>
</svg>
