<svg width="210" height="101" viewBox="0 0 210 101" fill="none" xmlns="http://www.w3.org/2000/svg">
<path d="M206.885 57.3074C206.885 62.3712 204.418 67.4252 199.474 72.2671C194.522 77.1172 187.227 81.6002 178.01 85.4183C159.588 93.0499 133.965 97.8286 105.533 97.8286C77.1007 97.8286 51.4774 93.0499 33.055 85.4183C23.8381 81.6002 16.5432 77.1172 11.5912 72.2671C6.64744 67.4252 4.18066 62.3712 4.18066 57.3074C4.18066 52.2436 6.64744 47.1895 11.5912 42.3476C16.5432 37.4975 23.8381 33.0146 33.055 29.1964C51.4774 21.5649 77.1007 16.7861 105.533 16.7861C133.965 16.7861 159.588 21.5649 178.01 29.1964C187.227 33.0146 194.522 37.4975 199.474 42.3476C204.418 47.1895 206.885 52.2436 206.885 57.3074Z" fill="#D9D9D9" stroke="black" stroke-width="5"/>
<path d="M206.245 55.8992C206.245 78.5117 160.705 96.8219 104.463 96.8219C48.2727 96.8219 2.68066 78.5117 2.68066 55.8992C2.68066 33.2868 48.2727 14.9766 104.463 14.9766C160.705 14.9766 206.245 33.2868 206.245 55.8992Z" fill="#8298A5"/>
<path d="M204.146 43.2088C204.146 48.088 201.68 52.9673 196.801 57.6367C191.922 62.2536 184.734 66.5559 175.658 70.176C157.557 77.4686 132.374 82.0329 104.463 82.0329V86.2301C132.794 86.2301 158.502 81.6134 177.232 74.1109C186.57 70.3334 194.283 65.8211 199.687 60.6795C205.091 55.538 208.343 49.6095 208.343 43.2088H204.146ZM104.463 82.0329C76.5513 82.0329 51.4206 77.4686 33.2677 70.176C24.2438 66.5559 17.0036 62.2536 12.1243 57.6367C7.24508 52.9673 4.77923 48.088 4.77923 43.2088H0.582031C0.582031 49.6095 3.83486 55.538 9.23875 60.6795C14.6426 65.8211 22.355 70.3334 31.6938 74.1109C50.4238 81.6134 76.1841 86.2301 104.463 86.2301V82.0329ZM4.77923 43.2088C4.77923 38.3295 7.24508 33.4503 12.1243 28.7809C17.0036 24.164 24.2438 19.8617 33.2677 16.2416C51.4206 8.94895 76.5513 4.3847 104.463 4.3847V0.1875C76.1841 0.1875 50.4238 4.80421 31.6938 12.3067C22.355 16.0842 14.6426 20.5965 9.23875 25.738C3.83486 30.8796 0.582031 36.8081 0.582031 43.2088H4.77923ZM104.463 4.3847C132.374 4.3847 157.557 8.94895 175.658 16.2416C184.734 19.8617 191.922 24.164 196.801 28.7809C201.68 33.4503 204.146 38.3295 204.146 43.2088H208.343C208.343 36.8081 205.091 30.8796 199.687 25.738C194.283 20.5965 186.57 16.0842 177.232 12.3067C158.502 4.80421 132.794 0.1875 104.463 0.1875V4.3847Z" fill="#0F0901"/>
<path d="M206.245 41.2088C206.245 63.8212 160.705 82.1315 104.463 82.1315C48.2727 82.1315 2.68066 63.8212 2.68066 41.2088C2.68066 18.5964 48.2727 0.286133 104.463 0.286133C160.705 0.286133 206.245 18.5964 206.245 41.2088Z" fill="#D5E7F5"/>
</svg>
