<svg width="261" height="428" viewBox="0 0 261 428" fill="none" xmlns="http://www.w3.org/2000/svg">
<path d="M101.563 107.324C101.563 107.324 65.2853 1.50684 37.7397 1.50684C10.1941 1.50684 7.25695 88.4309 8.76521 107.324C10.1941 126.137 -1.39568 126.137 1.54146 146.459C4.39921 166.701 21.7839 179.799 31.9448 184.086C42.1057 188.452 116.01 192.818 101.563 107.324Z" fill="#E5D5BE"/>
<path d="M101.563 107.324L102.278 107.165V107.085V107.006L101.563 107.324ZM101.563 107.324C102.357 107.086 102.357 107.085 102.357 107.085C102.357 107.085 102.331 107.085 102.278 107.085C102.278 107.085 102.278 107.059 102.278 107.006C102.278 106.953 102.251 106.874 102.198 106.768C102.146 106.556 102.04 106.265 101.881 105.894C101.643 105.1 101.246 103.99 100.69 102.561C99.6582 99.6236 98.15 95.4956 96.2448 90.4945C92.3551 80.5718 86.9571 67.3151 80.686 54.1377C74.4942 40.8809 67.3497 27.5447 60.0466 17.6219C56.3156 12.6208 52.6641 8.41296 48.9331 5.47582C45.2021 2.53868 41.4712 0.712891 37.7402 0.712891V2.30053C40.9949 2.30053 44.4083 3.88818 47.9011 6.66655C51.4733 9.5243 55.1249 13.5728 58.6971 18.5739C65.9209 28.4172 73.0652 41.5951 79.257 54.7726C85.5282 67.95 90.9262 81.2067 94.7366 91.1294C96.6417 96.0511 98.15 100.179 99.182 103.037C99.7377 104.545 100.135 105.656 100.373 106.45C100.531 106.82 100.637 107.112 100.69 107.324C100.743 107.43 100.77 107.509 100.77 107.562C100.77 107.562 100.796 107.562 100.849 107.562C100.849 107.562 100.849 107.588 100.849 107.641C100.849 107.641 100.849 107.641 101.563 107.324ZM37.7402 0.712891C30.4371 0.712891 24.8803 6.58763 20.6731 15.0815C16.5452 23.6548 13.6081 35.1652 11.6235 47.2313C7.6544 71.4428 7.25748 97.9563 7.97192 107.403L9.55957 107.324C8.84513 97.9566 9.24204 71.522 13.2111 47.4693C15.1957 35.4826 18.0535 24.1306 22.102 15.7955C26.2298 7.38099 31.3896 2.30053 37.7402 2.30053V0.712891ZM7.97192 107.403C8.36883 112.007 7.89256 115.5 7.09874 118.357C6.30492 121.215 5.11419 123.597 3.92345 126.058C2.73272 128.518 1.54198 131.059 0.906921 134.314C0.192482 137.568 0.0337322 141.458 0.748171 146.618L2.33581 146.379C1.62137 141.378 1.78012 137.647 2.41518 134.631C3.05023 131.535 4.16159 129.153 5.35232 126.692C6.54306 124.311 7.73379 121.85 8.60699 118.754C9.4802 115.738 9.95648 112.087 9.55957 107.324L7.97192 107.403ZM0.748171 146.538C3.68531 167.257 21.3875 180.434 31.7072 184.879L32.2629 183.372C22.2607 179.085 5.19357 166.225 2.33581 146.3L0.748171 146.538ZM31.6278 184.879C33.0567 185.435 35.3588 185.991 38.3753 186.388C41.3918 186.785 45.0434 186.944 49.1713 186.785C57.427 186.467 67.2704 184.721 76.3199 180.116C85.4489 175.512 93.784 168.05 98.9438 156.302C104.104 144.633 105.929 128.677 102.357 107.165L100.77 107.482C104.342 128.756 102.437 144.315 97.5149 155.667C92.5139 167.019 84.4169 174.242 75.6055 178.688C66.7941 183.213 57.1888 184.88 49.0919 185.197C45.1228 185.356 41.4712 185.197 38.534 184.8C35.5969 184.483 33.4536 183.927 32.2629 183.451L31.6278 184.879Z" fill="#0F0901"/>
<path d="M36.6286 172.575C34.4059 172.654 32.2625 172.337 30.1986 171.702C25.8326 168.527 22.181 164.478 19.5614 159.794C16.8624 155.111 15.1954 149.872 14.7191 144.553C14.0047 140.108 14.5603 135.663 16.2274 131.535C19.1645 123.438 20.4346 114.864 19.7996 106.37C19.3233 88.9064 20.0377 71.5219 21.7047 54.1372C24.5625 26.3535 29.0079 16.7481 30.6749 15.0811C32.1038 16.113 39.5657 22.7813 52.505 62.8692C59.4906 84.5406 64.8092 105.815 65.9999 110.578C68.4608 132.408 66.635 148.76 60.602 159.08C58.1411 163.208 54.6483 166.701 50.441 169.082C46.2338 171.464 41.4709 172.654 36.6286 172.575Z" fill="#D48E4D"/>
<path fill-rule="evenodd" clip-rule="evenodd" d="M29.8027 172.417L29.7233 172.337C25.2779 169.083 21.5469 164.955 18.8479 160.192C16.1489 155.35 14.4819 150.111 13.9262 144.633C13.2118 140.109 13.7675 135.504 15.5139 131.217C18.3716 123.279 19.5624 114.865 19.0067 106.371C18.5304 88.907 19.2449 71.4426 20.9119 54.0579C22.3408 40.1661 24.1665 30.7199 25.8336 24.6075C26.7068 21.5116 27.5006 19.289 28.215 17.622C28.9295 16.0344 29.5645 15.0815 30.1202 14.5258L30.5965 14.0498L31.0728 14.4467C32.0254 15.0818 34.2481 17.0663 37.979 23.9726C41.6306 30.7994 46.7904 42.5474 53.2204 62.631C60.2854 84.3023 65.604 105.577 66.7947 110.419V110.499C69.2556 132.409 67.4298 148.919 61.238 159.477L60.6029 159.08L59.8885 158.604L61.238 159.477C58.7771 163.764 55.1256 167.336 50.8389 169.718C46.4729 172.179 41.6306 173.448 36.6295 173.369C34.3274 173.448 32.1048 173.132 29.9614 172.417H29.8027ZM59.8885 158.683C65.7628 148.602 67.5885 132.567 65.1277 110.816C63.937 105.894 58.6978 84.6997 51.7121 63.1078C45.2028 43.1035 40.1223 31.5139 36.5501 24.7664C33.6924 19.3684 31.7078 17.1456 30.7553 16.2723C30.4377 16.6693 30.1202 17.3834 29.6439 18.336C29.0089 19.8442 28.215 22.0669 27.3418 25.0835C25.6748 31.1165 23.849 40.404 22.4995 54.2959C20.7531 71.6012 20.1181 88.9864 20.5944 106.371C21.15 115.024 19.9593 123.676 16.9428 131.852C15.2758 135.821 14.7995 140.188 15.4345 144.474C15.9902 149.714 17.5778 154.794 20.1974 159.398C22.8171 163.923 26.3099 167.892 30.5171 170.988C32.5017 171.623 34.4862 171.941 36.5501 171.861C41.3131 171.941 45.9172 170.75 49.9657 168.368C54.0936 166.066 57.507 162.732 59.8885 158.683Z" fill="#0F0901"/>
<path d="M159.195 107.324C159.195 107.324 195.473 1.50684 223.018 1.50684C250.564 1.50684 253.501 88.4309 251.913 107.324C250.405 126.137 262.074 126.137 259.217 146.459C256.279 166.701 238.895 179.799 228.734 184.086C218.573 188.452 144.748 192.818 159.195 107.324Z" fill="#47423D"/>
<path d="M159.195 107.324L158.48 107.006V107.085V107.165L159.195 107.324ZM159.195 107.324C159.909 107.562 159.909 107.562 159.909 107.562C159.909 107.562 159.909 107.535 159.909 107.482C159.962 107.429 159.988 107.35 159.988 107.244C160.094 107.085 160.2 106.794 160.306 106.371C160.624 105.657 161.02 104.466 161.497 103.037C162.529 100.179 164.116 96.0514 166.022 91.0504C169.832 81.1276 175.23 67.95 181.422 54.7726C187.693 41.5158 194.758 28.3382 201.982 18.4948C205.633 13.5731 209.285 9.5243 212.778 6.66655C216.35 3.80879 219.763 2.30053 222.938 2.30053V0.712891C219.287 0.712891 215.477 2.45961 211.825 5.39675C208.094 8.41327 204.363 12.541 200.711 17.5421C193.408 27.5442 186.264 40.801 179.993 54.0578C173.722 67.3146 168.324 80.5718 164.513 90.4945C162.608 95.4956 161.1 99.6232 159.988 102.481C159.512 103.91 159.115 105.1 158.798 105.894C158.692 106.265 158.586 106.556 158.48 106.768C158.48 106.874 158.454 106.953 158.401 107.006C158.401 107.059 158.401 107.085 158.401 107.085C158.401 107.085 158.401 107.086 159.195 107.324ZM222.938 2.30053C229.368 2.30053 234.528 7.3813 238.577 15.7164C242.625 24.0515 245.562 35.4826 247.547 47.4693C251.516 71.522 251.834 97.8767 251.119 107.244L252.627 107.403C253.421 97.8769 253.104 71.3634 249.135 47.2313C247.071 35.1652 244.213 23.5749 240.006 15.0017C235.878 6.50778 230.321 0.712891 222.938 0.712891V2.30053ZM251.119 107.244C250.722 112.086 251.119 115.658 251.992 118.754C252.866 121.771 254.136 124.232 255.326 126.692C256.438 129.153 257.549 131.535 258.184 134.552C258.899 137.647 259.057 141.378 258.343 146.3L259.931 146.538C260.645 141.378 260.486 137.488 259.772 134.234C259.057 130.979 257.946 128.439 256.755 125.978C255.565 123.518 254.374 121.215 253.501 118.278C252.707 115.421 252.31 112.007 252.627 107.403L251.119 107.244ZM258.422 146.3C255.565 166.225 238.497 179.085 228.416 183.372L229.051 184.8C239.371 180.434 256.993 167.177 260.01 146.538L258.422 146.3ZM228.416 183.372C227.225 183.848 225.082 184.404 222.145 184.721C219.207 185.118 215.635 185.277 211.587 185.118C203.569 184.88 193.885 183.133 185.073 178.688C176.262 174.242 168.244 167.019 163.243 155.667C158.321 144.315 156.416 128.677 159.988 107.403L158.401 107.165C154.829 128.598 156.654 144.553 161.814 156.302C166.974 168.05 175.309 175.512 184.359 180.116C193.488 184.721 203.331 186.388 211.507 186.706C215.635 186.865 219.366 186.706 222.303 186.309C225.32 185.991 227.701 185.435 229.051 184.8L228.416 183.372Z" fill="#0F0901"/>
<path d="M224.13 172.575C226.353 172.655 228.496 172.338 230.56 171.703C234.926 168.527 238.578 164.479 241.197 159.795C243.896 155.112 245.563 149.872 246.119 144.554C246.754 140.108 246.198 135.584 244.531 131.456C241.594 123.438 240.403 114.865 240.959 106.291C241.435 88.9067 240.8 71.4432 239.054 54.138C236.196 26.2748 231.83 16.669 230.163 15.002C228.655 16.0339 221.272 22.7022 208.333 62.7901C201.268 84.4614 195.949 105.815 194.917 110.578C192.457 132.408 194.203 148.761 200.315 159.08C202.697 163.208 206.269 166.702 210.476 169.083C214.684 171.465 219.446 172.655 224.289 172.575H224.13Z" fill="#D48E4D"/>
<path fill-rule="evenodd" clip-rule="evenodd" d="M230.956 172.417H230.797C228.654 173.131 226.431 173.448 224.129 173.369C219.207 173.448 214.365 172.178 210.078 169.718C205.712 167.257 202.14 163.764 199.6 159.477C193.408 148.919 191.662 132.408 194.122 110.499V110.419C195.234 105.577 200.552 84.3024 207.538 62.5517C214.047 42.4681 219.128 30.7194 222.859 23.8925C226.51 16.9862 228.812 14.9223 229.686 14.3666L230.241 13.9697L230.638 14.4465C231.194 15.0022 231.829 15.9543 232.543 17.5419C233.258 19.2089 234.052 21.4315 234.925 24.5274C236.592 30.6398 238.418 40.0864 239.847 54.0577C241.593 71.4424 242.228 88.9067 241.752 106.371C241.196 114.785 242.387 123.279 245.245 131.217C246.991 135.424 247.547 140.108 246.912 144.633C246.356 150.111 244.609 155.349 241.91 160.192C239.212 164.955 235.481 169.082 231.035 172.337L230.956 172.417ZM224.208 171.781L224.129 173.369L224.208 172.575V173.369H224.288V171.781H224.208C224.208 171.781 224.235 171.781 224.288 171.781C226.272 171.861 228.336 171.622 230.241 170.987C234.449 167.891 237.941 163.923 240.561 159.398C243.181 154.794 244.768 149.713 245.324 144.474L246.118 144.553L245.324 144.394C245.959 140.108 245.483 135.822 243.816 131.773C240.799 123.597 239.608 114.944 240.164 106.291C240.64 88.9063 240.005 71.5219 238.259 54.2166C236.909 40.3247 235.084 30.9573 233.417 24.9243C232.623 21.9078 231.829 19.7649 231.115 18.2567C230.718 17.2247 230.321 16.5895 230.003 16.1132C229.051 17.0658 227.145 19.2886 224.208 24.6072C220.636 31.3547 215.556 43.0234 209.046 63.0277C202.061 84.6196 196.821 105.815 195.71 110.737C193.249 132.488 195.075 148.602 201.029 158.604V158.683C203.41 162.732 206.744 166.066 210.872 168.368C214.921 170.67 219.525 171.861 224.208 171.781Z" fill="#0F0901"/>
<path d="M130.379 426.836C219.129 426.836 268.425 240.605 236.593 167.891C204.84 95.2566 130.379 93.748 130.379 93.748C130.379 93.748 55.919 95.1769 24.0868 167.97C-7.66603 240.684 41.6302 426.836 130.379 426.836Z" fill="#F7F0E4"/>
<path d="M130.38 427.63C152.845 427.63 172.77 415.881 189.44 397.146C206.19 378.412 219.685 352.772 229.449 324.909C239.134 296.966 245.167 266.801 246.675 239.097C248.263 211.313 245.325 185.911 237.308 167.573L235.879 168.208C243.738 186.228 246.675 211.392 245.087 239.017C243.579 266.563 237.625 296.649 227.941 324.353C218.256 352.137 204.761 377.619 188.25 396.115C171.738 414.611 152.21 426.042 130.38 426.042V427.63ZM237.308 167.573C221.352 131.058 194.6 112.323 171.897 102.877C160.545 98.1139 150.146 95.6532 142.605 94.3038C138.874 93.6687 135.778 93.3509 133.714 93.1921C132.656 93.0863 131.835 93.007 131.253 92.9541C130.989 92.9541 130.777 92.9541 130.618 92.9541C130.512 92.9541 130.459 92.9541 130.459 92.9541C130.407 92.9541 130.38 92.9541 130.38 92.9541C130.38 92.9541 130.38 92.9541 130.38 93.7479C130.38 94.5417 130.38 94.5417 130.38 94.5417C130.433 94.5417 130.486 94.5417 130.539 94.5417C130.698 94.5417 130.909 94.5417 131.174 94.5417C131.703 94.5947 132.497 94.6739 133.555 94.7797C135.619 94.9385 138.636 95.2563 142.367 95.8914C149.829 97.1615 160.069 99.622 171.262 104.306C193.727 113.673 220.082 132.089 235.879 168.208L237.308 167.573ZM130.301 93.7479C130.301 92.9541 130.301 92.9541 130.301 92.9541C130.301 92.9541 130.274 92.9541 130.221 92.9541C130.221 92.9541 130.168 92.9541 130.063 92.9541C129.957 92.9541 129.745 92.9541 129.427 92.9541C128.898 93.007 128.078 93.0863 126.967 93.1921C124.903 93.3509 121.807 93.6687 118.076 94.3038C110.535 95.5739 100.215 98.1142 88.7838 102.798C66.0806 112.324 39.3288 131.058 23.373 167.653L24.8019 168.288C40.5989 132.09 66.9538 113.673 89.4189 104.306C100.691 99.622 110.931 97.1615 118.314 95.8914C122.045 95.2563 125.062 94.9385 127.125 94.7797C128.184 94.6739 128.978 94.5947 129.507 94.5417C129.772 94.5417 129.983 94.5417 130.142 94.5417C130.195 94.5417 130.248 94.5417 130.301 94.5417C130.301 94.5417 130.327 94.5417 130.38 94.5417C130.38 94.5417 130.38 94.5417 130.301 93.7479ZM23.373 167.653C15.3554 185.99 12.4977 211.393 14.0059 239.097C15.5936 266.881 21.5472 297.046 31.2318 324.909C40.9958 352.772 54.5702 378.492 71.2404 397.146C87.9107 415.881 107.836 427.63 130.301 427.63V426.042C108.471 426.042 88.9426 414.611 72.4312 396.115C55.9197 377.619 42.5041 352.137 32.7401 324.433C23.0555 296.649 17.1018 266.642 15.5936 239.017C14.0853 211.392 16.9431 186.308 24.8019 168.288L23.373 167.653Z" fill="#0F0901"/>
<path d="M199.919 273.709C211.429 262.198 211.429 243.544 199.919 232.033C188.409 220.523 169.674 220.523 158.164 232.033C146.654 243.544 146.654 262.198 158.164 273.709C169.674 285.299 188.409 285.299 199.919 273.709Z" fill="#C4B8A9"/>
<path d="M199.362 232.589C210.555 243.782 210.555 261.96 199.362 273.153L200.474 274.265C212.302 262.437 212.302 243.305 200.474 231.477L199.362 232.589ZM199.362 273.153C188.169 284.346 169.991 284.346 158.719 273.153L157.607 274.265C169.435 286.093 188.646 286.093 200.474 274.265L199.362 273.153ZM158.798 273.153C147.526 261.96 147.526 243.782 158.798 232.589L157.607 231.477C145.779 243.305 145.779 262.437 157.607 274.265L158.798 273.153ZM158.798 232.589C170.07 221.396 188.249 221.396 199.442 232.589L200.553 231.477C188.725 219.649 169.515 219.649 157.687 231.477L158.798 232.589Z" fill="#0F0901"/>
<path d="M174.755 336.261C152.925 295.935 132.444 222.824 130.38 195.278C128.395 222.824 107.835 295.935 86.0848 336.261C72.2723 361.822 58.6186 403.339 91.0065 416.199C123.394 428.979 130.38 397.703 130.38 397.703C130.38 397.703 137.445 428.979 169.833 416.199C202.221 403.339 188.488 361.822 174.755 336.261Z" fill="#C4B8A9"/>
<path fill-rule="evenodd" clip-rule="evenodd" d="M175.468 335.864C182.374 348.724 189.28 365.633 190.392 380.953C190.947 388.653 190.074 395.957 186.899 402.228C183.723 408.5 178.405 413.659 170.149 416.914C161.893 420.169 155.225 420.644 149.827 419.454C144.429 418.263 140.381 415.485 137.364 412.309C134.427 409.134 132.443 405.483 131.252 402.704C130.934 401.858 130.643 401.117 130.379 400.482C130.167 401.117 129.876 401.858 129.506 402.704C128.394 405.483 126.41 409.134 123.472 412.309C120.456 415.485 116.407 418.342 111.009 419.454C105.611 420.644 98.9434 420.169 90.6877 416.914C82.4319 413.659 77.1133 408.5 73.9381 402.228C70.7628 395.957 69.8896 388.574 70.4452 380.953C71.5566 365.553 78.4628 348.645 85.3691 335.864C96.2444 315.781 106.802 287.521 114.899 260.769C122.996 234.018 128.632 208.853 129.585 195.199H131.173C132.205 208.853 137.841 234.018 145.938 260.769C154.035 287.521 164.592 315.781 175.468 335.864ZM144.429 261.166C137.523 238.542 132.443 216.95 130.379 202.503C128.394 216.95 123.234 238.542 116.407 261.166C108.311 287.997 97.6733 316.416 86.7979 336.579C79.8917 349.36 73.0648 366.03 72.0329 381.033C71.4772 388.575 72.3504 395.56 75.3669 401.514C78.3041 407.467 83.3845 412.31 91.3227 415.406C99.2609 418.581 105.612 418.978 110.692 417.946C115.693 416.835 119.424 414.215 122.282 411.198C125.06 408.182 126.965 404.768 128.077 402.069C128.632 400.72 129.029 399.608 129.267 398.814C129.426 398.391 129.532 398.074 129.585 397.862C129.585 397.757 129.585 397.677 129.585 397.624C129.638 397.571 129.664 397.545 129.664 397.545L130.379 394.131L131.173 397.545C131.173 397.545 131.173 397.571 131.173 397.624C131.225 397.677 131.252 397.757 131.252 397.862C131.305 398.074 131.411 398.391 131.569 398.814C131.808 399.608 132.205 400.72 132.76 402.069C133.872 404.768 135.697 408.182 138.555 411.198C141.333 414.215 145.144 416.835 150.145 417.946C155.225 418.978 161.576 418.581 169.514 415.406C177.452 412.31 182.533 407.467 185.47 401.514C188.486 395.639 189.36 388.575 188.804 381.033C187.693 366.03 180.866 349.36 174.039 336.579C163.084 316.416 152.526 287.997 144.429 261.166Z" fill="#0F0901"/>
<path d="M130.379 387.701C144.589 387.701 156.178 379.366 156.178 369.046C156.178 358.727 144.589 350.312 130.379 350.312C116.09 350.312 104.58 358.727 104.58 369.046C104.58 379.366 116.09 387.701 130.379 387.701Z" fill="#47423D"/>
<path d="M155.385 369.046C155.385 373.889 152.686 378.335 148.161 381.589C143.636 384.844 137.365 386.907 130.379 386.907V388.495C137.682 388.495 144.271 386.352 149.113 382.859C153.876 379.366 156.972 374.524 156.972 369.046H155.385ZM130.379 386.907C123.394 386.907 117.122 384.844 112.598 381.589C108.073 378.335 105.374 373.889 105.374 369.046H103.786C103.786 374.524 106.882 379.366 111.645 382.859C116.487 386.352 123.076 388.495 130.379 388.495V386.907ZM105.374 369.046C105.374 364.204 108.073 359.759 112.598 356.425C117.122 353.17 123.394 351.106 130.379 351.106V349.519C123.076 349.519 116.487 351.662 111.645 355.154C106.882 358.647 103.786 363.569 103.786 369.046H105.374ZM130.379 351.106C137.365 351.106 143.636 353.17 148.161 356.425C152.686 359.759 155.385 364.204 155.385 369.046H156.972C156.972 363.569 153.876 358.647 149.113 355.154C144.271 351.662 137.682 349.519 130.379 349.519V351.106Z" fill="#0F0901"/>
<path d="M88.0688 267.437C96.0864 263.944 99.7379 254.577 96.2451 246.56C92.7523 238.542 83.4646 234.891 75.447 238.304C67.35 241.797 63.6985 251.164 67.1913 259.182C70.6841 267.199 79.9718 270.85 88.0688 267.437Z" fill="#47423D"/>
<path d="M95.5307 246.876C98.8647 254.497 95.3719 263.387 87.7512 266.642L88.3863 268.151C96.8008 264.499 100.611 254.656 96.9596 246.241L95.5307 246.876ZM87.7512 266.642C80.1306 269.976 71.2398 266.483 67.9851 258.863L66.4768 259.498C70.1284 267.912 79.9718 271.802 88.3863 268.151L87.7512 266.642ZM67.9851 258.784C64.6511 251.163 68.1439 242.351 75.7646 239.017L75.1295 237.588C66.715 241.24 62.8253 251.004 66.4768 259.419L67.9851 258.784ZM75.8439 239.017C83.4646 235.683 92.276 239.176 95.6101 246.796L97.039 246.162C93.3874 237.747 83.6234 233.937 75.2089 237.588L75.8439 239.017Z" fill="#0F0901"/>
<path d="M81.1621 245.208C81.1621 244.256 81.4003 243.304 81.9559 242.51C82.5116 241.716 83.3054 241.081 84.1786 240.684C85.0518 240.287 86.0838 240.207 87.0364 240.445C87.989 240.604 88.8622 241.08 89.4972 241.795C90.2117 242.43 90.688 243.304 90.8467 244.256C91.0849 245.209 91.0055 246.24 90.6086 247.114C90.2117 247.987 89.5766 248.781 88.7828 249.336C87.989 249.892 87.0364 250.13 86.0838 250.13C84.7343 250.13 83.4642 249.654 82.591 248.701C81.6384 247.828 81.1621 246.558 81.1621 245.208Z" fill="white"/>
<path fill-rule="evenodd" clip-rule="evenodd" d="M88.3074 248.703C89.0218 248.227 89.5775 247.592 89.895 246.798C90.2125 246.083 90.2919 245.21 90.1331 244.416C89.9744 243.622 89.5775 242.908 88.9424 242.353C88.3867 241.718 87.6723 241.321 86.8785 241.162C86.0847 241.003 85.2115 241.082 84.497 241.4C83.7032 241.717 83.0681 242.273 82.5918 242.988C82.1949 243.623 81.9568 244.416 81.9568 245.21C81.9568 246.321 82.3537 247.354 83.1475 248.147C83.9413 248.941 84.9733 249.338 86.0847 249.338C86.8785 249.338 87.6723 249.1 88.3074 248.703ZM81.3217 242.035C81.9568 241.162 82.83 240.368 83.862 239.971C84.8939 239.495 86.0846 239.415 87.196 239.653C88.3073 239.892 89.2599 240.368 90.1331 241.241C90.927 242.035 91.4033 242.988 91.6414 244.099C91.8796 245.211 91.8002 246.401 91.3239 247.433C90.927 248.465 90.1331 249.338 89.2599 249.973C88.3074 250.608 87.196 250.926 86.0847 250.926C84.5764 250.926 83.0681 250.37 82.0361 249.259C80.9248 248.227 80.3691 246.718 80.3691 245.21C80.3691 244.099 80.6867 242.987 81.3217 242.035Z" fill="#0F0901"/>
<path d="M190.233 264.103C196.425 257.911 196.425 247.83 190.233 241.717C184.041 235.525 174.039 235.525 167.847 241.717C161.655 247.83 161.655 257.911 167.847 264.103C174.039 270.295 184.041 270.295 190.233 264.103Z" fill="#47423D"/>
<path d="M189.678 242.273C195.552 248.147 195.552 257.673 189.678 263.547L190.789 264.658C197.299 258.149 197.299 247.592 190.789 241.082L189.678 242.273ZM189.678 263.626C183.804 269.501 174.278 269.501 168.404 263.626L167.292 264.738C173.801 271.168 184.28 271.168 190.789 264.738L189.678 263.626ZM168.404 263.626C162.529 257.752 162.529 248.226 168.404 242.352L167.292 241.161C160.783 247.671 160.783 258.229 167.292 264.738L168.404 263.626ZM168.404 242.352C174.278 236.478 183.804 236.478 189.678 242.352L190.789 241.24C184.28 234.731 173.801 234.731 167.292 241.24L168.404 242.352Z" fill="#0F0901"/>
<path d="M179.596 245.208C179.596 244.256 179.358 243.304 178.802 242.51C178.246 241.716 177.453 241.081 176.579 240.684C175.706 240.287 174.674 240.207 173.722 240.445C172.769 240.604 171.896 241.08 171.181 241.795C170.546 242.43 170.07 243.383 169.911 244.335C169.673 245.288 169.753 246.24 170.149 247.114C170.546 248.066 171.181 248.781 171.975 249.336C172.769 249.892 173.801 250.13 174.754 250.13C176.024 250.13 177.294 249.654 178.167 248.701C179.12 247.749 179.596 246.558 179.596 245.208Z" fill="white"/>
<path fill-rule="evenodd" clip-rule="evenodd" d="M171.579 249.973C170.626 249.417 169.912 248.465 169.435 247.433C169.038 246.401 168.88 245.29 169.118 244.178C169.277 243.067 169.832 242.035 170.626 241.241C171.42 240.447 172.452 239.892 173.563 239.653C174.675 239.415 175.865 239.495 176.897 239.971C177.929 240.368 178.802 241.162 179.437 242.035C180.072 242.987 180.39 244.099 180.39 245.21C180.39 246.718 179.834 248.227 178.723 249.259C177.691 250.37 176.262 250.926 174.754 250.926C173.643 250.926 172.531 250.608 171.579 249.973ZM178.802 245.21C178.802 244.416 178.564 243.623 178.167 242.909C177.691 242.273 177.056 241.717 176.262 241.4C175.548 241.082 174.674 241.003 173.881 241.162C173.087 241.4 172.372 241.718 171.737 242.353C171.182 242.908 170.785 243.622 170.626 244.416C170.467 245.29 170.547 246.084 170.864 246.878C171.182 247.592 171.737 248.227 172.452 248.703C173.087 249.1 173.881 249.338 174.754 249.338C175.786 249.338 176.897 248.941 177.612 248.147C178.405 247.354 178.802 246.321 178.802 245.21Z" fill="#0F0901"/>
<path d="M64.8305 112.313C118.242 83.675 137.25 78.8765 196.95 113.442C216.445 130.052 224.835 140.285 234.223 160.546C155.509 127.308 110.056 125.581 25.9883 160.546C38.3323 136.442 46.4945 128.622 64.8305 112.313Z" fill="#7F4629"/>
</svg>
