<svg width="301" height="427" viewBox="0 0 301 427" fill="none" xmlns="http://www.w3.org/2000/svg">
<path d="M100.396 92.517C100.396 92.517 63.7675 30.9934 3.03652 1.5C3.03652 1.5 -5.05037 138.184 16.1183 194.555C16.1183 194.555 107.373 231.58 100.396 92.517Z" fill="#47423D"/>
<path d="M100.397 92.5168L101.19 92.4379L101.11 92.2791L101.031 92.0414L100.397 92.5168ZM3.03704 1.57954L3.43346 0.865685L2.32337 0.310547L2.24421 1.4998L3.03704 1.57954ZM16.1188 194.634L15.4051 194.951L15.5636 195.268L15.8809 195.427L16.1188 194.634ZM100.318 92.5168C101.031 92.1204 101.031 92.1204 101.031 92.1204C101.031 92.1204 101.031 92.0943 101.031 92.0414C100.978 92.0414 100.952 92.0153 100.952 91.9625C100.846 91.8039 100.74 91.6187 100.635 91.4073C100.317 90.9316 99.8683 90.2709 99.2868 89.4252C98.1769 87.681 96.5119 85.1436 94.292 81.9723C89.9314 75.7882 83.4301 67.1465 75.0261 57.5532C58.2973 38.4459 33.8782 15.6124 3.3541 0.865685L2.64062 2.29263C32.9268 16.96 57.1081 39.635 73.8368 58.5837C82.2409 68.0977 88.663 76.7398 93.0235 82.9239C95.2435 86.0159 96.9083 88.5531 98.0182 90.2181C98.5468 91.1166 98.9697 91.8034 99.2868 92.2791C99.3926 92.4906 99.4982 92.6496 99.6039 92.7553C99.6039 92.8082 99.6039 92.8604 99.6039 92.9132C99.6568 92.9132 99.6833 92.9132 99.6833 92.9132C99.6833 92.9132 99.6833 92.9132 100.318 92.5168ZM2.95768 1.57954C2.24413 1.50026 2.24421 1.4998 2.24421 1.4998C2.19135 1.4998 2.16485 1.4998 2.16485 1.4998C2.16485 1.55265 2.16485 1.57954 2.16485 1.57954C2.16485 1.68525 2.16485 1.7905 2.16485 1.89621C2.16485 2.16049 2.13834 2.55691 2.08549 3.08546C2.08549 4.11614 2.00624 5.54371 1.92696 7.52579C1.68911 11.3314 1.45122 16.8812 1.29265 23.7789C0.816954 37.4949 0.499937 56.364 0.81707 76.9776C1.45134 118.126 4.70199 166.568 15.3259 194.872L16.8322 194.317C6.28758 166.251 3.037 118.126 2.40274 76.8986C2.0856 56.3643 2.40262 37.4949 2.87832 23.7789C3.03689 16.9605 3.27477 11.4104 3.51262 7.60476C3.59191 5.62268 3.67115 4.19589 3.67115 3.16521C3.72401 2.63665 3.75051 2.24024 3.75051 1.97596C3.75051 1.87025 3.75051 1.79035 3.75051 1.73749C3.75051 1.68464 3.75051 1.65852 3.75051 1.65852C3.75051 1.60566 3.75051 1.57954 3.75051 1.57954C3.75051 1.57954 3.75051 1.57954 2.95768 1.57954ZM16.1188 194.634C15.8016 195.348 15.8015 195.347 15.8015 195.347C15.8015 195.347 15.828 195.347 15.8809 195.347C15.9337 195.4 15.9866 195.427 16.0394 195.427C16.2508 195.533 16.5151 195.638 16.8322 195.744C17.5458 195.982 18.4972 196.299 19.7657 196.695C22.3028 197.409 25.8706 198.361 30.1519 198.995C38.6352 200.343 49.9726 200.58 61.1515 196.458C72.3305 192.335 83.1923 183.772 90.8827 167.519C98.4939 151.266 102.934 127.322 101.11 92.5168L99.5247 92.5966C101.348 127.243 96.9084 150.869 89.4558 166.805C81.9239 182.741 71.3791 190.987 60.5966 195.031C49.814 198.995 38.7145 198.757 30.3898 197.409C26.1878 196.775 22.6992 195.902 20.2415 195.189C18.9729 194.792 18.0215 194.476 17.3872 194.238C17.0701 194.132 16.8058 194.052 16.5944 193.999C16.5415 193.947 16.4887 193.92 16.4358 193.92C16.4358 193.868 16.4358 193.841 16.4358 193.841C16.383 193.841 16.3565 193.841 16.3565 193.841C16.3565 193.841 16.3566 193.841 16.1188 194.634Z" fill="#0F0901"/>
<path d="M35.6225 182.504C31.0241 182.424 26.5051 181.949 22.0652 180.839C15.4847 158.402 11.679 122.09 10.8862 74.9958C10.5691 55.7299 10.8861 37.8911 11.2033 24.4922C48.7042 49.3078 79.7834 91.4077 86.6017 101.873C88.0288 138.581 75.6607 158.322 62.8961 171.721C56.0777 178.778 46.8808 182.504 35.6225 182.504Z" fill="#D48E4D"/>
<path d="M22.0651 180.839L21.2722 181.077L21.4308 181.553L21.9064 181.632L22.0651 180.839ZM11.2031 24.4924L11.6789 23.8583L10.4896 23.0654L10.4103 24.4924H11.2031ZM86.6016 101.873H87.3944V101.635L87.2359 101.397L86.6016 101.873ZM35.5432 181.711C31.0241 181.711 26.5842 181.156 22.2236 180.046L21.8272 181.632C26.3463 182.663 30.9448 183.297 35.5432 183.297V181.711ZM22.7786 180.601C16.198 158.323 12.3924 122.09 11.5995 74.996L10.0139 75.0749C10.8067 122.169 14.6124 158.56 21.1929 181.077L22.7786 180.601ZM11.6789 74.996C11.3618 55.7301 11.6788 37.8912 11.996 24.4924H10.4103C10.0932 37.812 9.7761 55.7301 10.0932 74.996H11.6789ZM10.8067 25.2062C48.1491 49.9426 79.1489 91.8833 85.9673 102.349L87.2359 101.477C80.4175 90.9322 49.2592 48.7532 11.6789 23.8583L10.8067 25.2062ZM85.8087 101.952C87.1566 138.343 74.9469 157.926 62.3408 171.166L63.5301 172.277C76.374 158.719 88.8215 138.819 87.3944 101.873L85.8087 101.952ZM62.3408 171.166C55.681 178.143 46.7221 181.711 35.6224 181.711V183.297C47.1185 183.297 56.474 179.571 63.4509 172.277L62.3408 171.166Z" fill="#0F0901"/>
<path d="M200.532 92.517C200.532 92.517 237.081 30.9934 297.891 1.5C297.891 1.5 305.899 138.184 284.73 194.555C284.73 194.555 193.475 231.58 200.532 92.517Z" fill="#47423D"/>
<path d="M200.532 92.5168L199.818 92.0414L199.739 92.2791V92.4379L200.532 92.5168ZM297.892 1.57954L298.685 1.4998L298.605 0.310547L297.495 0.865685L297.892 1.57954ZM284.81 194.634L285.127 195.347L285.444 195.189L285.523 194.872L284.81 194.634ZM200.611 92.5966C201.245 92.993 201.246 92.993 201.246 92.993C201.246 92.9401 201.272 92.9132 201.325 92.9132C201.325 92.9132 201.351 92.861 201.404 92.7553C201.457 92.6496 201.563 92.4906 201.721 92.2791C201.985 91.8034 202.382 91.1427 202.91 90.2971C204.02 88.5528 205.685 86.0159 207.905 82.9239C212.266 76.7398 218.688 68.1775 227.092 58.6635C243.741 39.6355 268.002 16.96 298.288 2.29263L297.575 0.865685C267.051 15.6917 242.631 38.5249 225.902 57.6322C217.498 67.1462 210.997 75.7887 206.637 82.0521C204.417 85.1441 202.752 87.681 201.642 89.4252C201.061 90.3238 200.638 90.9845 200.373 91.4073C200.215 91.6716 200.083 91.8568 199.977 91.9625C199.977 92.0153 199.95 92.0676 199.898 92.1204C199.898 92.1204 199.898 92.1209 200.611 92.5966ZM297.971 1.57954C297.178 1.65883 297.178 1.65852 297.178 1.65852C297.178 1.65852 297.178 1.68464 297.178 1.73749C297.178 1.79035 297.178 1.89637 297.178 2.05493C297.178 2.31921 297.205 2.68951 297.257 3.16521C297.257 4.19589 297.337 5.70196 297.416 7.60476C297.654 11.4896 297.892 17.0395 298.05 23.8578C298.526 37.5738 298.843 56.364 298.526 76.9776C297.892 118.205 294.641 166.33 284.097 194.396L285.603 194.951C296.227 166.568 299.477 118.205 300.112 76.9776C300.429 56.364 300.112 37.4949 299.636 23.7789C299.477 16.9605 299.239 11.4107 299.002 7.52579C298.922 5.62299 298.843 4.11614 298.843 3.08546C298.79 2.60976 298.764 2.24024 298.764 1.97596C298.764 1.81739 298.764 1.71137 298.764 1.65852C298.764 1.60566 298.764 1.57954 298.764 1.57954C298.764 1.57954 298.764 1.57954 297.971 1.57954ZM284.81 194.634C284.572 193.921 284.572 193.92 284.572 193.92C284.519 193.92 284.493 193.92 284.493 193.92C284.44 193.92 284.387 193.947 284.334 193.999C284.123 194.052 283.859 194.132 283.541 194.238C282.907 194.476 281.956 194.872 280.687 195.189C278.23 195.902 274.741 196.854 270.539 197.488C262.214 198.757 251.115 198.995 240.332 195.031C229.549 191.067 219.005 182.742 211.473 166.885C204.02 150.949 199.581 127.323 201.404 92.5966L199.818 92.5168C197.995 127.401 202.435 151.266 210.046 167.519C217.736 183.852 228.598 192.414 239.777 196.537C250.956 200.659 262.294 200.342 270.777 199.074C275.058 198.36 278.626 197.488 281.163 196.695C282.431 196.378 283.383 195.982 284.097 195.744C284.414 195.638 284.678 195.559 284.889 195.506C284.942 195.453 284.995 195.427 285.048 195.427C285.101 195.427 285.127 195.4 285.127 195.347C285.127 195.347 285.127 195.348 284.81 194.634Z" fill="#0F0901"/>
<path d="M265.148 182.504C269.746 182.425 274.265 181.949 278.705 180.839C285.444 158.481 289.329 122.169 290.043 75.0751C290.281 55.8093 290.043 37.8919 289.646 24.5723C252.145 49.3879 221.066 91.4077 214.248 101.952C212.9 138.581 225.189 158.323 237.954 171.722C244.772 178.778 253.969 182.504 265.148 182.504Z" fill="#D48E4D"/>
<path fill-rule="evenodd" clip-rule="evenodd" d="M265.147 183.297C253.73 183.297 244.375 179.491 237.398 172.277H237.319C224.475 158.719 212.107 138.819 213.454 101.873V101.715L213.613 101.477C220.431 90.9322 251.59 48.8325 289.17 23.8583L290.359 23.0654L290.439 24.4924C290.835 37.8912 291.073 55.8091 290.835 75.0749C290.121 122.169 286.236 158.56 279.497 181.077L279.339 181.553L278.942 181.632C274.423 182.663 269.825 183.217 265.147 183.297ZM278.07 180.205C284.651 157.847 288.536 121.852 289.249 75.0749C289.487 56.4434 289.249 39.1601 288.853 25.9991C252.303 50.7354 221.938 91.566 215.04 102.19C213.692 138.422 225.902 157.926 238.508 171.166C245.168 178.064 254.127 181.711 265.147 181.711C269.508 181.632 273.868 181.156 278.07 180.205Z" fill="#D48E4D"/>
<path d="M150.425 80.7041C262.531 80.7041 324.769 241.887 284.651 321.725C244.534 401.563 150.425 403.228 150.425 403.228C150.425 403.228 56.3948 401.643 16.1982 321.725C-23.9984 241.887 38.3183 80.7041 150.425 80.7041Z" fill="#F7F0E4"/>
<path d="M150.425 81.4968C206.082 81.4968 249.45 121.535 273.949 171.642C298.447 221.749 303.918 281.766 283.938 321.408L285.365 322.121C305.582 281.846 299.953 221.352 275.376 170.928C250.719 120.504 206.875 79.9111 150.425 79.9111V81.4968ZM283.938 321.408C264.038 361.049 230.66 381.346 202.197 391.653C188.006 396.886 175.082 399.501 165.648 400.929C160.97 401.642 157.164 402.039 154.469 402.198C153.147 402.303 152.143 402.356 151.456 402.356C151.139 402.409 150.875 402.435 150.663 402.435C150.61 402.435 150.557 402.435 150.505 402.435C150.452 402.435 150.425 402.435 150.425 402.435C150.425 402.435 150.425 402.435 150.425 403.228C150.425 404.021 150.425 404.021 150.425 404.021C150.425 404.021 150.452 404.021 150.505 404.021C150.557 404.021 150.637 404.021 150.742 404.021C150.901 404.021 151.165 403.995 151.535 403.942C152.275 403.942 153.306 403.889 154.627 403.783C157.323 403.545 161.128 403.228 165.885 402.514C175.399 401.087 188.481 398.392 202.752 393.159C231.453 382.773 265.227 362.239 285.365 322.121L283.938 321.408ZM150.425 403.228C150.425 402.435 150.425 402.435 150.425 402.435C150.425 402.435 150.399 402.435 150.346 402.435C150.346 402.435 150.293 402.435 150.187 402.435C150.029 402.435 149.764 402.409 149.394 402.356C148.707 402.356 147.703 402.303 146.382 402.198C143.765 402.039 139.96 401.642 135.203 400.929C125.847 399.501 112.845 396.886 98.6532 391.653C70.2698 381.346 36.8916 361.049 16.9123 321.408L15.4851 322.121C35.7024 362.239 69.477 382.773 98.0983 393.159C112.449 398.392 125.53 401.087 134.965 402.514C139.722 403.228 143.607 403.545 146.223 403.783C147.597 403.889 148.628 403.942 149.315 403.942C149.685 403.995 149.95 404.021 150.108 404.021C150.214 404.021 150.293 404.021 150.346 404.021C150.346 404.021 150.372 404.021 150.425 404.021C150.425 404.021 150.425 404.021 150.425 403.228ZM16.9123 321.408C-3.06712 281.766 2.40331 221.749 26.9018 171.642C51.4004 121.535 94.8476 81.4968 150.425 81.4968V79.9111C93.9755 79.9111 50.1318 120.504 25.4747 170.928C0.896892 221.352 -4.7321 281.846 15.4851 322.121L16.9123 321.408Z" fill="#0F0901"/>
<path d="M150.425 80.7041C64.561 80.7041 7.95281 175.289 4.2265 255.444C4.2265 255.444 45.9295 158.164 89.0596 161.811C132.19 165.537 139.246 250.132 131.476 272.886H169.453C161.683 250.132 168.66 165.537 211.869 161.811C255.158 158.164 296.702 255.444 296.702 255.444C292.897 175.289 236.288 80.7041 150.425 80.7041Z" fill="#7F4629"/>
<path d="M4.22688 255.444H3.43405L3.27533 259.805L5.01972 255.761L4.22688 255.444ZM131.397 272.886L130.684 272.57L130.287 273.679H131.397V272.886ZM169.453 272.886V273.679H170.563L170.167 272.57L169.453 272.886ZM296.703 255.524L295.989 255.84L297.654 259.884L297.496 255.444L296.703 255.524ZM150.425 79.9902C107.136 79.9902 71.3005 103.855 45.8506 137.629C20.4007 171.483 5.25757 215.248 3.43405 255.524L5.01972 255.603C6.84323 215.644 21.9069 172.118 47.119 138.581C72.4104 105.044 107.771 81.5759 150.425 81.5759V79.9902ZM4.22688 255.524C4.94043 255.841 4.94036 255.84 4.94036 255.84C4.94036 255.84 4.96686 255.814 5.01972 255.761C5.01972 255.761 5.04603 255.708 5.09888 255.603C5.15174 255.391 5.25757 255.127 5.41613 254.81C5.73327 254.07 6.20881 253.04 6.84308 251.718C8.03232 249.102 9.85599 245.296 12.1552 240.777C16.6744 231.738 23.2548 219.688 31.1038 207.795C39.0322 195.903 48.2291 184.169 58.1395 175.606C68.0499 167.044 78.5152 161.81 88.9806 162.683L89.1391 161.097C78.0395 160.145 67.0985 165.696 57.1088 174.417C47.0398 183.059 37.7635 194.951 29.8352 206.923C21.9069 218.895 15.3265 230.946 10.7281 240.063C8.42886 244.583 6.60538 248.388 5.41613 251.083C4.78187 252.405 4.30613 253.436 3.98899 254.176C3.83043 254.493 3.69829 254.757 3.59258 254.969C3.59258 255.074 3.56607 255.153 3.51322 255.206C3.51322 255.206 3.51333 255.207 4.22688 255.524ZM88.9806 162.683C99.446 163.634 107.85 169.422 114.351 178.064C120.852 186.785 125.451 198.281 128.543 210.491C131.635 222.621 133.141 235.386 133.379 246.565C133.617 257.664 132.586 267.099 130.684 272.728L132.19 273.204C134.172 267.416 135.203 257.743 134.965 246.485C134.727 235.227 133.221 222.383 130.129 210.095C126.957 197.806 122.28 186.071 115.62 177.112C108.881 168.233 100.16 162.048 89.1391 161.097L88.9806 162.683ZM131.397 273.759H169.453V272.173H131.397V273.759ZM170.167 272.728C168.264 267.178 167.233 257.664 167.471 246.565C167.709 235.386 169.215 222.621 172.228 210.491C175.32 198.281 179.998 186.785 186.499 178.064C193 169.422 201.404 163.634 211.949 162.683L211.79 161.097C200.691 162.048 191.969 168.233 185.23 177.112C178.491 186.071 173.814 197.806 170.722 210.095C167.63 222.383 166.123 235.227 165.885 246.485C165.648 257.743 166.678 267.416 168.66 273.204L170.167 272.728ZM211.949 162.762C222.414 161.89 232.88 167.123 242.869 175.606C252.701 184.169 261.897 195.902 269.826 207.874C277.675 219.766 284.255 231.738 288.774 240.777C291.074 245.296 292.818 249.102 294.086 251.797C294.668 253.119 295.117 254.123 295.434 254.81C295.593 255.18 295.725 255.444 295.831 255.603C295.883 255.708 295.91 255.787 295.91 255.84C295.91 255.84 295.91 255.867 295.91 255.92C295.91 255.92 295.91 255.92 296.703 255.603C297.416 255.286 297.416 255.286 297.416 255.286C297.416 255.286 297.39 255.259 297.337 255.206C297.337 255.153 297.311 255.074 297.258 254.969C297.205 254.81 297.099 254.546 296.941 254.176C296.623 253.436 296.148 252.405 295.513 251.083C294.324 248.467 292.501 244.662 290.202 240.063C285.603 231.025 279.023 218.895 271.174 206.923C263.245 195.031 253.89 183.138 243.9 174.417C233.831 165.775 222.89 160.225 211.79 161.177L211.949 162.762ZM297.496 255.603C295.593 215.327 280.45 171.483 255 137.708C229.47 103.934 193.634 80.07 150.425 80.07V81.6556C193 81.6556 228.44 105.123 253.731 138.66C278.943 172.197 294.007 215.724 295.91 255.682L297.496 255.603Z" fill="#0F0901"/>
<path d="M199.105 339.089C175.161 297.148 152.645 220.878 150.425 192.257C148.205 220.957 125.61 297.148 101.745 339.089C86.6021 365.728 71.5382 409.096 107.136 422.416C142.735 435.736 150.425 403.229 150.425 403.229C150.425 403.229 158.116 435.815 193.714 422.416C229.312 409.096 214.248 365.807 199.105 339.089Z" fill="#C4B8A9"/>
<path d="M150.425 192.256L151.218 192.176H149.632L150.425 192.256ZM150.425 403.228L151.218 403.069L150.425 399.819L149.632 403.069L150.425 403.228ZM199.818 338.691C187.926 317.76 176.271 288.268 167.392 260.439C158.512 232.531 152.328 206.367 151.218 192.176L149.632 192.256C150.821 206.685 157.005 233.007 165.885 260.915C174.765 288.822 186.42 318.474 198.471 339.484L199.818 338.691ZM149.632 192.176C148.522 206.447 142.338 232.611 133.458 260.439C124.499 288.347 112.924 317.84 101.031 338.691L102.379 339.484C114.43 318.474 126.006 288.822 134.965 260.915C143.844 233.007 150.108 206.764 151.218 192.256L149.632 192.176ZM101.031 338.771C93.4203 352.09 85.8091 369.77 84.6199 385.786C83.9856 393.793 85.0163 401.404 88.4255 407.985C91.914 414.486 97.7809 419.798 106.819 423.208L107.374 421.701C98.653 418.45 93.1032 413.376 89.8526 407.192C86.602 401.008 85.5713 393.714 86.2055 385.865C87.3948 370.246 94.8473 352.804 102.379 339.564L101.031 338.771ZM106.899 423.208C115.858 426.537 123.152 427.092 129.098 425.824C134.965 424.634 139.405 421.701 142.735 418.371C145.985 415.041 148.126 411.315 149.394 408.46C150.029 406.954 150.504 405.765 150.821 404.814C150.927 404.391 151.033 404.047 151.138 403.783C151.138 403.677 151.165 403.598 151.218 403.545C151.218 403.493 151.218 403.466 151.218 403.466C151.218 403.466 151.218 403.44 151.218 403.387C151.218 403.387 151.218 403.387 150.425 403.228C149.711 403.069 149.711 403.069 149.711 403.069C149.711 403.069 149.685 403.069 149.632 403.069C149.632 403.069 149.632 403.096 149.632 403.149C149.632 403.202 149.606 403.281 149.553 403.387C149.5 403.598 149.421 403.915 149.315 404.338C148.998 405.21 148.601 406.399 147.967 407.747C146.699 410.601 144.717 414.09 141.545 417.261C138.453 420.433 134.33 423.128 128.781 424.317C123.231 425.427 116.254 425.031 107.453 421.701L106.899 423.208ZM150.425 403.228C149.711 403.466 149.711 403.466 149.711 403.466C149.711 403.466 149.711 403.493 149.711 403.545C149.711 403.598 149.738 403.704 149.791 403.862C149.844 404.074 149.949 404.417 150.108 404.893C150.346 405.765 150.821 407.033 151.456 408.46C152.804 411.394 154.944 415.121 158.195 418.451C161.445 421.78 165.885 424.713 171.831 425.903C177.698 427.092 184.992 426.617 194.031 423.208L193.476 421.781C184.675 425.031 177.698 425.506 172.148 424.317C166.599 423.207 162.397 420.432 159.305 417.34C156.213 414.169 154.151 410.601 152.962 407.826C152.328 406.399 151.852 405.21 151.614 404.417C151.456 403.942 151.35 403.598 151.297 403.387C151.297 403.281 151.271 403.202 151.218 403.149C151.218 403.096 151.218 403.069 151.218 403.069C151.218 403.069 151.218 403.069 150.425 403.228ZM194.031 423.208C203.069 419.798 208.936 414.486 212.424 407.985C215.913 401.404 216.864 393.793 216.23 385.786C215.041 369.77 207.43 352.17 199.818 338.771L198.471 339.564C206.003 352.883 213.455 370.246 214.644 385.865C215.279 393.714 214.327 401.008 210.997 407.192C207.747 413.376 202.197 418.451 193.476 421.781L194.031 423.208Z" fill="#0F0901"/>
<path d="M150.425 397.996C166.044 397.996 178.729 388.799 178.729 377.461C178.729 366.124 166.044 356.927 150.425 356.927C134.806 356.927 122.121 366.124 122.121 377.461C122.121 388.799 134.806 397.996 150.425 397.996Z" fill="#47423D"/>
<path d="M177.936 377.462C177.936 382.774 175.003 387.69 170.008 391.337C165.013 394.905 158.115 397.204 150.425 397.204V398.79C158.433 398.79 165.647 396.411 170.959 392.605C176.192 388.799 179.522 383.409 179.522 377.462H177.936ZM150.425 397.204C142.735 397.204 135.837 394.905 130.842 391.337C125.847 387.69 122.914 382.774 122.914 377.462H121.328C121.328 383.409 124.658 388.799 129.891 392.605C135.203 396.411 142.417 398.79 150.425 398.79V397.204ZM122.914 377.462C122.914 372.071 125.847 367.235 130.842 363.588C135.837 360.02 142.735 357.72 150.425 357.72V356.135C142.417 356.135 135.203 358.514 129.891 362.319C124.658 366.125 121.328 371.437 121.328 377.462H122.914ZM150.425 357.72C158.115 357.72 165.013 360.02 170.008 363.588C175.003 367.235 177.936 372.071 177.936 377.462H179.522C179.522 371.437 176.192 366.125 170.959 362.319C165.647 358.514 158.433 356.135 150.425 356.135V357.72Z" fill="#0F0901"/>
<path d="M96.9872 272.886C106.58 272.886 114.35 265.037 114.35 255.444C114.35 245.85 106.58 238.081 96.9872 238.081C87.3939 238.081 79.5449 245.85 79.5449 255.444C79.5449 265.037 87.3939 272.886 96.9872 272.886Z" fill="#47423D"/>
<path d="M113.558 255.444C113.558 264.641 106.185 272.094 96.988 272.094V273.68C107.057 273.68 115.144 265.513 115.144 255.444H113.558ZM96.988 272.094C87.7912 272.094 80.3385 264.641 80.3385 255.444H78.7529C78.7529 265.513 86.919 273.68 96.988 273.68V272.094ZM80.3385 255.444C80.3385 246.327 87.7912 238.875 96.988 238.875V237.289C86.919 237.289 78.7529 245.375 78.7529 255.444H80.3385ZM96.988 238.875C106.185 238.875 113.558 246.327 113.558 255.444H115.144C115.144 245.375 107.057 237.289 96.988 237.289V238.875Z" fill="#0F0901"/>
<path d="M96.3535 247.042C96.3535 246.011 96.6705 244.98 97.2256 244.108C97.8599 243.236 98.7322 242.522 99.6837 242.126C100.715 241.729 101.745 241.571 102.776 241.809C103.886 242.047 104.838 242.522 105.551 243.315C106.344 244.029 106.82 245.06 107.058 246.091C107.217 247.121 107.137 248.232 106.741 249.183C106.344 250.135 105.631 251.007 104.758 251.641C103.807 252.196 102.776 252.514 101.745 252.514C101.005 252.514 100.318 252.382 99.6837 252.117C98.9965 251.8 98.3886 251.404 97.86 250.928C97.3842 250.399 97.0142 249.818 96.7499 249.183C96.4856 248.496 96.3535 247.782 96.3535 247.042Z" fill="white"/>
<path fill-rule="evenodd" clip-rule="evenodd" d="M104.282 250.926C105.075 250.451 105.63 249.737 105.947 248.864C106.343 248.072 106.423 247.12 106.264 246.248C106.106 245.297 105.63 244.504 104.996 243.87C104.361 243.235 103.568 242.76 102.617 242.601C101.745 242.443 100.793 242.522 100 242.839C99.1283 243.156 98.4148 243.79 97.9391 244.504C97.3841 245.297 97.1462 246.169 97.1462 247.041C97.1462 247.675 97.2519 248.283 97.4633 248.864C97.6747 249.446 98.0183 249.948 98.4941 250.371C98.9169 250.794 99.3927 251.138 99.9213 251.402C100.503 251.613 101.111 251.719 101.745 251.719C102.617 251.719 103.568 251.481 104.282 250.926ZM95.5605 247.041C95.5605 245.852 95.8777 244.663 96.5913 243.632C97.3048 242.601 98.2563 241.808 99.3663 241.412C100.556 240.936 101.745 240.778 102.934 241.016C104.123 241.253 105.234 241.887 106.106 242.759C106.978 243.631 107.533 244.741 107.771 245.931C108.008 247.12 107.929 248.389 107.454 249.499C106.978 250.609 106.185 251.56 105.154 252.274C104.123 252.908 102.934 253.305 101.745 253.305C100.899 253.305 100.106 253.146 99.3663 252.829C98.5734 252.512 97.8862 252.062 97.3048 251.481C96.7233 250.899 96.2741 250.212 95.9569 249.42C95.6926 248.68 95.5605 247.887 95.5605 247.041Z" fill="#0F0901"/>
<path d="M203.861 272.886C213.454 272.886 221.303 265.037 221.303 255.444C221.303 245.85 213.454 238.081 203.861 238.081C194.268 238.081 186.498 245.85 186.498 255.444C186.498 265.037 194.268 272.886 203.861 272.886Z" fill="#47423D"/>
<path d="M220.51 255.444C220.51 264.641 213.058 272.094 203.861 272.094V273.68C213.93 273.68 222.096 265.513 222.096 255.444H220.51ZM203.861 272.094C194.664 272.094 187.291 264.641 187.291 255.444H185.705C185.705 265.513 193.792 273.68 203.861 273.68V272.094ZM187.291 255.444C187.291 246.327 194.664 238.875 203.861 238.875V237.289C193.792 237.289 185.705 245.375 185.705 255.444H187.291ZM203.861 238.875C213.058 238.875 220.51 246.327 220.51 255.444H222.096C222.096 245.375 213.93 237.289 203.861 237.289V238.875Z" fill="#0F0901"/>
<path d="M204.498 247.042C204.498 246.011 204.181 244.98 203.626 244.108C202.991 243.156 202.198 242.522 201.168 242.125C200.216 241.65 199.106 241.571 198.075 241.809C197.044 241.967 196.093 242.522 195.3 243.236C194.586 244.029 194.031 244.98 193.793 246.011C193.635 247.042 193.714 248.152 194.111 249.103C194.507 250.134 195.221 251.007 196.093 251.562C197.044 252.196 198.075 252.513 199.106 252.513C200.533 252.513 201.961 251.879 202.912 250.928C203.943 249.897 204.498 248.469 204.498 247.042Z" fill="white"/>
<path fill-rule="evenodd" clip-rule="evenodd" d="M205.289 247.041C205.289 248.706 204.655 250.292 203.466 251.481C202.356 252.591 200.77 253.305 199.105 253.305C197.915 253.305 196.726 252.908 195.696 252.195C194.665 251.561 193.872 250.609 193.396 249.42C192.92 248.31 192.841 247.041 193.079 245.852C193.317 244.663 193.872 243.553 194.744 242.68C195.616 241.808 196.726 241.254 197.915 241.016C199.105 240.778 200.373 240.857 201.483 241.332C202.593 241.808 203.624 242.601 204.258 243.632C204.972 244.663 205.289 245.852 205.289 247.041ZM203.703 247.041C203.703 246.169 203.466 245.297 202.99 244.504C202.435 243.79 201.721 243.156 200.849 242.839C200.056 242.443 199.105 242.363 198.233 242.522C197.361 242.76 196.488 243.157 195.854 243.791C195.22 244.425 194.744 245.297 194.585 246.169C194.427 247.042 194.506 247.993 194.903 248.865C195.22 249.658 195.775 250.372 196.568 250.927C197.281 251.402 198.233 251.719 199.105 251.719C200.373 251.719 201.483 251.164 202.356 250.371C203.228 249.499 203.703 248.31 203.703 247.041Z" fill="#0F0901"/>
</svg>
