<svg width="341" height="427" viewBox="0 0 341 427" fill="none" xmlns="http://www.w3.org/2000/svg">
<path d="M96.0751 112.089C117.457 112.089 134.773 93.1618 134.773 69.7916C134.773 46.4215 117.457 27.4053 96.0751 27.4053C74.6123 27.4053 57.2957 46.4215 57.2957 69.7916C57.2957 93.1618 74.6123 112.089 96.0751 112.089Z" fill="#47423D"/>
<path d="M133.96 69.7935C133.96 92.7194 116.968 111.202 96.0747 111.202V112.979C117.863 112.979 135.586 93.6968 135.586 69.7935H133.96ZM96.0747 111.202C75.0997 111.202 58.1083 92.7194 58.1083 69.7935H56.4824C56.4824 93.6968 74.2054 112.979 96.0747 112.979V111.202ZM58.1083 69.7935C58.1083 46.8677 75.0997 28.2958 96.0747 28.2958V26.5186C74.2054 26.5186 56.4824 45.8902 56.4824 69.7935H58.1083ZM96.0747 28.2958C116.968 28.2958 133.96 46.8677 133.96 69.7935H135.586C135.586 45.8902 117.863 26.5186 96.0747 26.5186V28.2958Z" fill="black"/>
<path d="M244.851 112.089C266.313 112.089 283.63 93.1618 283.63 69.7916C283.63 46.4215 266.313 27.4053 244.851 27.4053C223.469 27.4053 206.071 46.4215 206.071 69.7916C206.071 93.1618 223.469 112.089 244.851 112.089Z" fill="#47423D"/>
<path d="M282.819 69.7935C282.819 92.7194 265.827 111.202 244.852 111.202V112.979C266.722 112.979 284.445 93.6968 284.445 69.7935H282.819ZM244.852 111.202C223.877 111.202 206.886 92.7194 206.886 69.7935H205.26C205.26 93.6968 222.983 112.979 244.852 112.979V111.202ZM206.886 69.7935C206.886 46.8677 223.877 28.2958 244.852 28.2958V26.5186C222.983 26.5186 205.26 45.8902 205.26 69.7935H206.886ZM244.852 28.2958C265.827 28.2958 282.819 46.8677 282.819 69.7935H284.445C284.445 45.8902 266.722 26.5186 244.852 26.5186V28.2958Z" fill="black"/>
<path d="M170.462 405.682C262.655 405.682 313.873 194.195 280.866 111.644C247.859 29.1823 170.462 27.4053 170.462 27.4053C170.462 27.4053 92.9849 29.0934 60.059 111.644C27.0518 194.284 78.2699 405.682 170.462 405.682Z" fill="#C57D48"/>
<path d="M170.463 406.573C193.795 406.573 214.526 393.155 231.843 371.917C249.16 350.68 263.224 321.534 273.387 289.9C283.549 258.266 289.728 223.965 291.353 192.509C292.898 160.963 289.971 132.085 281.598 111.291L280.134 112.002C288.345 132.44 291.272 161.052 289.728 192.331C288.102 223.698 281.923 257.821 271.842 289.278C261.761 320.823 247.778 349.703 230.624 370.762C213.47 391.733 193.226 404.796 170.463 404.796V406.573ZM281.598 111.291C265.013 69.7937 237.209 48.6449 213.551 37.8039C201.763 32.3835 191.031 29.5396 183.226 28.1179C179.324 27.407 176.072 26.9627 173.877 26.785C172.793 26.6665 171.953 26.6071 171.357 26.6071C171.086 26.5478 170.869 26.5186 170.707 26.5186C170.652 26.5186 170.598 26.5186 170.544 26.5186C170.49 26.5186 170.463 26.5186 170.463 26.5186C170.463 26.5186 170.463 26.5186 170.463 27.4072C170.463 28.2958 170.463 28.2958 170.463 28.2958C170.517 28.2958 170.571 28.2958 170.625 28.2958C170.788 28.2958 171.005 28.325 171.276 28.3843C171.872 28.3843 172.712 28.4437 173.796 28.5622C175.91 28.7399 179.08 29.1842 182.901 29.8951C190.625 31.3168 201.275 34.0716 212.982 39.4032C236.314 50.0664 263.712 71.0376 280.134 112.002L281.598 111.291ZM170.381 27.4072C170.381 26.5186 170.381 26.5186 170.381 26.5186C170.327 26.5186 170.246 26.5186 170.138 26.5186C170.029 26.5186 169.812 26.5478 169.487 26.6071C168.891 26.6071 168.051 26.6665 166.967 26.785C164.772 26.9627 161.601 27.407 157.699 28.1179C149.813 29.5396 139.081 32.3835 127.212 37.8039C103.635 48.556 75.8312 69.7937 59.2463 111.291L60.7097 112.002C77.132 71.0376 104.53 50.0664 127.862 39.4032C139.569 34.0716 150.219 31.3168 157.943 29.8951C161.764 29.0953 164.934 28.7399 167.129 28.5622C168.213 28.4437 169.026 28.3843 169.568 28.3843C169.839 28.325 170.056 28.2958 170.219 28.2958C170.273 28.2958 170.327 28.2958 170.381 28.2958C170.381 28.2958 170.408 28.2958 170.463 28.2958C170.463 28.2958 170.463 28.2958 170.381 27.4072ZM59.2463 111.291C50.9538 132.173 47.9458 160.963 49.5718 192.509C51.1978 224.054 57.3765 258.266 67.4575 289.9C77.6198 321.623 91.6843 350.68 109.001 371.917C126.399 393.155 147.049 406.573 170.381 406.573V404.796C147.699 404.796 127.374 391.733 110.22 370.762C93.0664 349.791 79.0831 320.823 69.0021 289.366C58.9211 257.821 52.7425 223.788 51.1978 192.42C49.5718 161.053 52.5798 132.529 60.7097 112.002L59.2463 111.291Z" fill="black"/>
<path d="M170.463 82.6768C170.463 82.6768 155.26 274.169 129.488 312.29H211.518C185.665 274.169 170.463 82.6768 170.463 82.6768Z" fill="#AD5F2A"/>
<path d="M170.462 82.6802L171.275 82.5908H169.649L170.462 82.6802ZM129.487 312.294L128.837 311.761L127.861 313.182H129.487V312.294ZM211.518 312.294V313.182H213.062L212.168 311.761L211.518 312.294ZM170.462 82.6802C169.649 82.5913 169.649 82.5908 169.649 82.5908C169.649 82.5908 169.649 82.621 169.649 82.6802C169.649 82.6802 169.649 82.7095 169.649 82.7687C169.649 82.828 169.649 82.9468 169.649 83.1245C169.595 83.4799 169.54 84.0129 169.486 84.7238C169.324 86.1456 169.161 88.2786 168.917 90.8555C168.511 96.1871 167.779 103.829 166.885 113.07C165.015 131.642 162.332 156.789 158.836 183.092C155.34 209.394 151.031 236.852 145.991 260.134C143.471 271.774 140.788 282.349 137.861 291.235C135.016 300.121 132.008 307.14 128.837 311.761L130.138 312.827C133.471 308.029 136.56 300.742 139.406 291.856C142.333 282.881 145.015 272.219 147.536 260.578C152.657 237.208 156.966 209.661 160.462 183.358C163.958 156.967 166.641 131.82 168.511 113.337C169.405 104.007 170.137 96.3641 170.543 91.0325C170.787 88.3667 170.95 86.3235 171.112 84.9017C171.166 84.1908 171.193 83.6578 171.193 83.3024C171.248 83.1247 171.275 82.9766 171.275 82.8581C171.275 82.8581 171.275 82.828 171.275 82.7687C171.275 82.7687 171.275 82.7691 170.462 82.6802ZM129.487 313.182H211.518V311.405H129.487V313.182ZM212.168 311.761C208.997 307.14 205.989 300.121 203.063 291.235C200.217 282.349 197.534 271.774 194.933 260.134C189.892 236.852 185.583 209.394 182.088 183.092C178.592 156.789 175.909 131.642 174.039 113.07C173.145 103.829 172.413 96.1871 172.006 90.8555C171.762 88.2786 171.6 86.1456 171.437 84.7238C171.383 84.0129 171.356 83.4799 171.356 83.1245C171.302 82.9468 171.275 82.828 171.275 82.7687C171.275 82.7095 171.275 82.6802 171.275 82.6802C171.275 82.621 171.275 82.5908 171.275 82.5908C171.275 82.5908 171.275 82.5913 170.462 82.6802C169.649 82.7691 169.649 82.7687 169.649 82.7687C169.649 82.828 169.649 82.8581 169.649 82.8581C169.649 82.9766 169.676 83.1247 169.73 83.3024C169.73 83.6578 169.757 84.1908 169.811 84.9017C169.974 86.3235 170.137 88.3667 170.38 91.0325C170.787 96.3641 171.519 104.007 172.413 113.337C174.283 131.82 176.966 156.967 180.462 183.358C184.039 209.661 188.347 237.208 193.388 260.578C195.908 272.219 198.672 282.881 201.518 291.856C204.445 300.742 207.534 308.029 210.867 312.827L212.168 311.761Z" fill="black"/>
<path d="M250.379 327.666C256.639 328.377 262.818 330.065 268.671 332.641C247.778 285.368 195.99 293.987 195.99 293.987C195.99 283.235 208.429 273.283 208.429 273.283C190.137 276.127 178.349 291.854 178.349 291.854L170.463 273.283L162.577 291.854C162.577 291.854 150.788 276.127 132.496 273.283C132.496 273.283 144.935 283.235 144.935 293.987C144.935 293.987 93.1478 285.368 72.1728 332.641C78.1076 330.065 84.2861 328.377 90.5461 327.666C90.5461 327.666 65.6689 350.591 80.0587 418.48L94.5299 401.33C94.5299 401.33 94.5298 411.371 102.334 424.256L114.773 398.486C114.773 398.486 114.773 414.215 121.358 424.256C121.358 424.256 127.212 401.33 134.447 397.776L143.553 417.769L151.439 394.932L158.674 409.239C158.674 409.239 161.276 397.065 170.463 392.089C179.568 397.065 182.251 409.239 182.251 409.239L189.405 394.932L197.291 417.769L206.478 397.776C213.632 401.33 219.567 424.256 219.567 424.256C226.071 414.215 226.071 398.486 226.071 398.486L238.591 424.256C246.395 411.371 246.395 401.33 246.395 401.33L260.785 418.48C275.256 350.502 250.379 327.666 250.379 327.666Z" fill="#FDD1A2"/>
<path fill-rule="evenodd" clip-rule="evenodd" d="M224.364 296.477C216.64 294.611 209.567 294.256 204.445 294.256C201.844 294.345 199.811 294.434 198.348 294.612C197.643 294.671 197.101 294.73 196.722 294.79C196.505 294.849 196.343 294.878 196.234 294.878C196.18 294.878 196.153 294.878 196.153 294.878L195.177 295.056V293.99C195.177 288.302 198.511 282.882 201.6 278.972C202.982 277.284 204.445 275.862 205.502 274.707C197.942 276.573 191.6 280.571 186.966 284.303C184.365 286.436 182.413 288.48 181.031 289.991C180.3 290.702 179.812 291.324 179.487 291.768C179.27 292.005 179.135 292.153 179.08 292.212C179.026 292.272 178.999 292.331 178.999 292.39C178.945 292.39 178.918 292.39 178.918 292.39L178.105 293.545L177.536 292.212L170.463 275.329L163.308 292.212L162.821 293.545L162.008 292.39C161.953 292.39 161.926 292.39 161.926 292.39C161.926 292.331 161.899 292.272 161.845 292.212C161.736 292.153 161.601 292.005 161.438 291.768C161.113 291.324 160.544 290.702 159.894 289.991C158.512 288.48 156.479 286.436 153.959 284.303C149.325 280.571 142.984 276.573 135.423 274.707C136.48 275.862 137.943 277.284 139.325 278.972C142.415 282.882 145.748 288.302 145.748 293.99V295.056L144.772 294.878C144.718 294.878 144.691 294.878 144.691 294.878C144.583 294.878 144.42 294.849 144.203 294.79C143.824 294.73 143.282 294.671 142.577 294.612C141.114 294.434 139.081 294.345 136.48 294.256C131.358 294.256 124.285 294.611 116.562 296.477C101.684 300.121 84.3674 309.184 73.8799 330.955C79.2456 328.822 84.7741 327.49 90.4649 326.779L90.5461 327.668L91.2779 328.112L91.1152 328.556H90.8714C90.8714 328.556 90.8443 328.586 90.7901 328.645C90.6275 328.823 90.3837 329.09 90.0585 329.445C89.4894 330.156 88.595 331.311 87.5381 332.821C85.5057 336.02 82.8229 340.908 80.7091 347.928C76.4003 361.701 73.7986 383.738 80.5464 416.616L93.8794 400.799L95.3429 399.111V401.332C95.3429 401.391 95.3429 401.422 95.3429 401.422C95.3429 401.481 95.3429 401.599 95.3429 401.776C95.3429 402.073 95.3698 402.488 95.424 403.021C95.5053 404.087 95.7492 405.775 96.237 407.73C97.1313 411.462 98.92 416.616 102.253 422.481L114.123 398.044L115.586 394.846V398.488C115.586 398.548 115.586 398.607 115.586 398.666C115.586 398.726 115.613 398.874 115.667 399.111C115.667 399.585 115.694 400.207 115.749 400.977C115.83 402.666 115.993 404.887 116.399 407.464C117.131 411.996 118.513 417.594 121.033 422.126C121.196 421.593 121.385 421 121.602 420.349C122.253 418.127 123.228 415.105 124.448 411.995C125.667 408.885 127.049 405.597 128.675 402.931C130.301 400.266 132.09 397.956 134.122 396.979L134.854 396.623L135.179 397.333L143.472 415.55L150.707 394.579L151.276 392.802L152.17 394.49L158.43 406.93C158.837 405.686 159.487 403.998 160.382 402.132C162.252 398.4 165.259 393.868 170.056 391.291L170.463 392.091L170.788 391.291C175.584 393.957 178.674 398.4 180.462 402.132C181.438 403.998 182.007 405.686 182.413 406.93L188.673 394.49L189.568 392.802L190.218 394.579L197.372 415.55L205.746 397.333L206.071 396.623L206.803 396.979C208.835 397.956 210.624 400.266 212.25 402.931C213.795 405.597 215.258 408.885 216.478 411.995C217.616 415.105 218.591 418.127 219.323 420.349C219.486 421 219.648 421.593 219.811 422.126C222.412 417.594 223.794 411.996 224.445 407.464C224.851 404.887 225.095 402.666 225.177 400.977C225.231 400.207 225.258 399.585 225.258 399.111C225.258 398.874 225.258 398.726 225.258 398.666C225.258 398.607 225.258 398.548 225.258 398.488V394.846L226.803 398.044L238.591 422.481C242.005 416.616 243.713 411.462 244.607 407.73C245.095 405.686 245.339 404.087 245.501 403.021C245.555 402.488 245.582 402.073 245.582 401.776C245.582 401.599 245.582 401.481 245.582 401.422C245.582 401.422 245.582 401.391 245.582 401.332V399.111L246.965 400.799L260.379 416.616C267.127 383.738 264.525 361.701 260.216 347.928C258.102 340.908 255.42 336.02 253.387 332.821C252.33 331.311 251.436 330.156 250.867 329.445C250.542 329.09 250.298 328.823 250.135 328.645C250.027 328.526 249.945 328.467 249.891 328.467C249.891 328.408 249.891 328.378 249.891 328.378L247.859 326.512L250.46 326.779C256.151 327.49 261.68 328.822 267.045 330.955C256.558 309.184 239.241 300.121 224.364 296.477ZM260.216 419.104L247.046 403.465C246.964 404.62 246.639 406.22 246.233 408.175C245.176 412.351 243.225 418.215 239.241 424.702L238.591 424.258L237.859 424.614L226.803 401.776C226.64 403.376 226.477 405.42 226.071 407.73C225.258 412.973 223.55 419.548 220.217 424.702L219.242 426.213L218.754 424.436C218.754 424.376 218.727 424.288 218.673 424.169C218.618 424.051 218.564 423.814 218.51 423.459C218.348 422.837 218.104 421.948 217.778 420.881C217.047 418.66 216.152 415.727 214.933 412.706C213.795 409.596 212.413 406.486 210.868 403.909C209.486 401.599 208.185 399.91 206.803 398.933L198.023 418.216L197.21 419.993L196.56 418.127L189.324 397.067L182.901 409.685L181.926 411.729L181.438 409.419C181.438 409.419 181.438 409.389 181.438 409.33C181.384 409.27 181.33 409.152 181.275 408.975C181.221 408.619 181.086 408.145 180.869 407.552C180.544 406.397 179.893 404.709 179.08 402.931C177.373 399.466 174.609 395.556 170.463 393.068C166.235 395.468 163.552 399.466 161.845 402.931C160.951 404.709 160.3 406.397 159.975 407.552C159.758 408.145 159.623 408.619 159.569 408.975C159.514 409.152 159.487 409.27 159.487 409.33C159.433 409.389 159.406 409.419 159.406 409.419L158.918 411.729L157.943 409.685L151.601 397.067L144.366 418.127L143.634 419.993L142.821 418.216L134.122 399.022C132.74 399.911 131.358 401.688 130.057 403.909C128.513 406.486 127.13 409.596 125.911 412.706C124.773 415.727 123.797 418.66 123.147 420.881C122.822 421.948 122.578 422.837 122.415 423.459C122.307 423.814 122.226 424.051 122.171 424.169C122.171 424.288 122.171 424.376 122.171 424.436C122.171 424.436 122.144 424.436 122.09 424.436H122.171L121.683 426.213L120.708 424.702C117.293 419.548 115.667 412.973 114.855 407.73C114.448 405.42 114.285 403.376 114.123 401.776L103.066 424.614L102.334 424.258L101.684 424.702C97.7004 418.215 95.668 412.351 94.6924 408.175C94.2046 406.22 93.9607 404.62 93.7981 403.465L80.7091 419.104L80.0587 418.482L79.3269 418.66C72.01 384.626 74.6929 361.701 79.1643 347.305C81.3594 340.108 84.0422 335.131 86.2373 331.844C87.0503 330.599 87.782 329.622 88.3511 328.911C82.9041 329.711 77.6197 331.222 72.4979 333.444L72.1728 332.644L71.441 332.288C82.0911 308.296 100.546 298.521 116.237 294.7C124.122 292.834 131.277 292.479 136.48 292.479C139.081 292.568 141.276 292.657 142.74 292.835C143.282 292.894 143.715 292.953 144.041 293.012C143.715 288.303 140.951 283.771 138.106 280.216C136.561 278.35 135.016 276.751 133.878 275.685C133.282 275.092 132.821 274.677 132.496 274.44C132.334 274.263 132.198 274.144 132.09 274.085C132.09 274.025 132.063 273.996 132.008 273.996L129.407 271.863L132.577 272.397C141.927 273.818 149.569 278.528 154.935 282.882C157.536 285.104 159.65 287.147 161.032 288.746C161.574 289.339 162.035 289.843 162.414 290.257L169.731 272.841L170.463 271.152L171.194 272.841L178.511 290.257C178.89 289.843 179.351 289.339 179.893 288.746C181.275 287.147 183.389 285.104 185.991 282.882C191.356 278.528 198.998 273.818 208.348 272.397L211.518 271.863L208.917 273.996C208.863 273.996 208.835 274.025 208.835 274.085C208.727 274.144 208.592 274.263 208.429 274.44C208.104 274.677 207.643 275.092 207.047 275.685C205.909 276.751 204.364 278.35 202.819 280.216C199.974 283.771 197.21 288.303 196.885 293.012C197.21 292.953 197.643 292.894 198.185 292.835C199.649 292.657 201.763 292.568 204.445 292.479C209.649 292.479 216.803 292.834 224.689 294.7C240.379 298.521 258.834 308.296 269.403 332.288L268.671 332.644L268.427 333.444C263.306 331.222 258.021 329.711 252.574 328.911C253.143 329.622 253.875 330.599 254.688 331.844C256.883 335.042 259.566 340.108 261.761 347.305C266.232 361.701 268.834 384.538 261.598 418.66L260.785 418.482L260.216 419.104ZM269.484 332.288L270.378 334.332L268.427 333.444L268.752 332.644L269.484 332.288ZM72.4979 333.532L70.5468 334.332L71.5224 332.288L72.254 332.732L72.4979 333.532ZM80.6278 419.104L79.6522 420.349L79.2457 418.749L80.0587 418.571L80.6278 419.104ZM102.985 424.614L102.416 425.947L101.603 424.702L102.334 424.169L102.985 424.614ZM169.975 391.291L170.3 391.113L170.707 391.291L170.3 392.091L169.975 391.291ZM239.16 424.702L238.347 425.947L237.778 424.614L238.428 424.169L239.16 424.702ZM261.598 418.749L261.192 420.349L260.216 419.104L260.785 418.571L261.598 418.749Z" fill="black"/>
<path d="M170.464 304.475C152.172 304.475 137.295 316.204 137.295 330.688C137.295 345.172 152.172 364.01 170.464 364.01C188.756 364.01 203.633 345.172 203.633 330.688C203.633 316.204 188.756 304.475 170.464 304.475Z" fill="#47423D"/>
<path d="M170.462 303.586C161.113 303.586 152.658 306.518 146.561 311.405C140.382 316.293 136.479 323.046 136.479 330.688H138.105C138.105 323.757 141.683 317.448 147.536 312.828C153.308 308.207 161.438 305.363 170.462 305.363V303.586ZM136.479 330.688C136.479 338.241 140.382 346.772 146.479 353.437C152.577 360.013 161.032 364.899 170.462 364.899V363.122C161.601 363.122 153.471 358.502 147.617 352.104C141.682 345.706 138.105 337.619 138.105 330.688H136.479ZM170.462 364.899C179.893 364.899 188.348 360.013 194.445 353.437C200.543 346.772 204.445 338.241 204.445 330.688H202.819C202.819 337.619 199.242 345.706 193.307 352.104C187.454 358.502 179.324 363.122 170.462 363.122V364.899ZM204.445 330.688C204.445 323.135 200.543 316.293 194.364 311.405C188.267 306.518 179.812 303.586 170.462 303.586V305.363C179.486 305.363 187.616 308.207 193.388 312.828C199.242 317.448 202.819 323.846 202.819 330.688H204.445Z" fill="black"/>
<path d="M119.895 226.099C129 226.099 136.398 218.013 136.398 208.061C136.398 198.198 129 190.111 119.895 190.111C110.789 190.111 103.473 198.198 103.473 208.061C103.473 218.013 110.789 226.099 119.895 226.099Z" fill="#47423D"/>
<path d="M135.586 208.062C135.586 217.57 128.513 225.211 119.895 225.211V226.989C129.407 226.989 137.211 218.547 137.211 208.062H135.586ZM119.895 225.211C111.278 225.211 104.286 217.57 104.286 208.062H102.66C102.66 218.547 110.383 226.989 119.895 226.989V225.211ZM104.286 208.062C104.286 198.643 111.278 191.001 119.895 191.001V189.224C110.383 189.224 102.66 197.665 102.66 208.062H104.286ZM119.895 191.001C128.513 191.001 135.586 198.643 135.586 208.062H137.211C137.211 197.665 129.407 189.224 119.895 189.224V191.001Z" fill="black"/>
<path d="M119.327 199.44C119.327 198.285 119.571 197.219 120.14 196.331C120.709 195.442 121.522 194.732 122.416 194.287C123.391 193.843 124.448 193.755 125.423 193.933C126.399 194.199 127.293 194.732 128.024 195.442C128.756 196.242 129.244 197.309 129.406 198.375C129.569 199.441 129.488 200.596 129.081 201.573C128.756 202.55 128.106 203.438 127.212 204.06C126.399 204.682 125.423 205.038 124.367 205.038C123.066 205.038 121.765 204.416 120.79 203.35C119.815 202.284 119.327 200.862 119.327 199.44Z" fill="white"/>
<path fill-rule="evenodd" clip-rule="evenodd" d="M126.805 203.351C127.456 202.817 128.025 202.106 128.35 201.218C128.675 200.418 128.756 199.441 128.594 198.552C128.431 197.575 128.025 196.776 127.456 196.154C126.805 195.443 126.073 194.999 125.261 194.821C124.448 194.643 123.554 194.732 122.741 195.088C122.009 195.443 121.277 196.064 120.79 196.775C120.383 197.575 120.139 198.463 120.139 199.441C120.139 200.685 120.546 201.84 121.359 202.728C122.172 203.617 123.228 204.151 124.367 204.151C125.261 204.151 126.074 203.884 126.805 203.351ZM119.489 195.798C120.139 194.732 121.034 193.933 122.172 193.488C123.228 192.955 124.448 192.866 125.586 193.044C126.724 193.311 127.781 193.933 128.594 194.821C129.406 195.799 129.976 196.953 130.219 198.197C130.463 199.441 130.301 200.774 129.894 201.929C129.407 203.084 128.675 204.15 127.699 204.772C126.724 205.483 125.586 205.928 124.367 205.928C122.822 205.928 121.277 205.217 120.221 203.973C119.083 202.818 118.514 201.129 118.514 199.441C118.514 198.108 118.839 196.864 119.489 195.798Z" fill="black"/>
<path d="M221.031 226.099C230.136 226.099 237.453 218.013 237.453 208.061C237.453 198.198 230.136 190.111 221.031 190.111C211.925 190.111 204.527 198.198 204.527 208.061C204.527 218.013 211.925 226.099 221.031 226.099Z" fill="#47423D"/>
<path d="M236.639 208.062C236.639 217.57 229.648 225.211 221.03 225.211V226.989C230.542 226.989 238.265 218.547 238.265 208.062H236.639ZM221.03 225.211C212.413 225.211 205.34 217.57 205.34 208.062H203.714C203.714 218.547 211.518 226.989 221.03 226.989V225.211ZM205.34 208.062C205.34 198.643 212.413 191.001 221.03 191.001V189.224C211.518 189.224 203.714 197.665 203.714 208.062H205.34ZM221.03 191.001C229.648 191.001 236.639 198.643 236.639 208.062H238.265C238.265 197.665 230.542 189.224 221.03 189.224V191.001Z" fill="black"/>
<path d="M221.598 199.44C221.598 198.285 221.354 197.219 220.785 196.331C220.216 195.442 219.404 194.732 218.509 194.287C217.534 193.843 216.559 193.755 215.502 193.933C214.526 194.199 213.632 194.732 212.901 195.442C212.169 196.242 211.682 197.22 211.519 198.375C211.356 199.441 211.438 200.507 211.844 201.573C212.169 202.55 212.819 203.438 213.714 204.06C214.526 204.682 215.502 205.038 216.559 205.038C217.859 205.038 219.16 204.416 220.135 203.35C221.111 202.284 221.598 200.862 221.598 199.44Z" fill="white"/>
<path fill-rule="evenodd" clip-rule="evenodd" d="M222.413 199.441C222.413 201.129 221.844 202.818 220.706 203.973C219.568 205.217 218.105 205.928 216.56 205.928C215.341 205.928 214.203 205.483 213.227 204.772C212.252 204.061 211.52 203.084 211.032 201.929C210.626 200.685 210.463 199.441 210.707 198.197C210.951 196.865 211.52 195.799 212.333 194.821C213.146 193.933 214.203 193.311 215.341 193.044C216.56 192.866 217.698 192.955 218.755 193.488C219.893 193.933 220.787 194.732 221.438 195.798C222.088 196.864 222.413 198.108 222.413 199.441ZM220.787 199.441C220.787 198.463 220.543 197.575 220.137 196.775C219.649 196.064 218.918 195.443 218.186 195.088C217.373 194.732 216.56 194.643 215.666 194.821C214.853 194.999 214.121 195.443 213.471 196.065C212.902 196.775 212.496 197.575 212.333 198.552C212.17 199.441 212.252 200.329 212.577 201.218C212.902 202.106 213.471 202.817 214.121 203.351C214.853 203.884 215.666 204.151 216.56 204.151C217.698 204.151 218.755 203.617 219.568 202.728C220.381 201.84 220.787 200.685 220.787 199.441Z" fill="black"/>
<path d="M132.333 38.335C132.333 38.335 102.822 -5.82855 64.8557 1.72454C31.9298 8.30018 0.304668 19.7636 1.44285 76.9006C2.41843 123.463 25.6696 186.554 43.9618 185.132C70.1399 183.088 73.2293 102.492 76.3186 64.5487C79.9771 19.7633 98.1881 32.2042 115.667 47.3104C122.659 53.3529 133.553 45.6215 132.333 38.335Z" fill="#AD5F2A"/>
<path fill-rule="evenodd" clip-rule="evenodd" d="M132.985 37.8033L133.066 37.9812L133.148 38.1583C133.879 42.3347 131.115 46.4224 127.457 48.555C123.798 50.7765 119.002 51.3101 115.18 48.0222C110.79 44.2901 106.4 40.7352 102.254 38.1583C98.1079 35.5813 94.2056 34.0714 90.8723 34.4268C87.6204 34.6934 84.6123 36.6476 82.2546 41.2684C79.8156 45.9779 78.027 53.5317 77.1328 64.6392C75.5881 83.5664 74.0434 113.245 69.5719 138.481C67.3769 151.1 64.4503 162.651 60.3854 171.182C56.3204 179.712 51.036 185.488 44.0443 186.022C39.0038 186.377 33.8821 182.378 29.0854 175.891C24.2888 169.404 19.5735 160.075 15.4272 149.323C7.2161 127.907 1.11875 100.36 0.630956 76.9902C0.0618666 48.1996 7.78511 30.6942 19.8173 19.6756C31.9308 8.65693 48.2717 4.12542 64.694 0.926466C84.0431 -2.98337 101.116 6.34692 113.311 16.477C119.408 21.542 124.367 26.8734 127.7 30.961C129.408 32.9159 130.708 34.6931 131.603 35.8482C132.091 36.4406 132.443 36.9142 132.66 37.2697C132.768 37.4474 132.849 37.5662 132.904 37.6254C132.958 37.6847 132.985 37.714 132.985 37.714C132.985 37.7732 132.985 37.8033 132.985 37.8033C132.985 37.8033 132.985 37.803 132.335 38.3362L132.985 37.8033ZM131.359 38.3362C131.142 38.04 130.817 37.5957 130.383 37.0033C129.489 35.7592 128.188 34.0709 126.562 32.116C123.229 28.1173 118.351 22.8745 112.335 17.8984C100.303 7.85719 83.6366 -1.11783 64.938 2.61428C48.5157 5.9021 32.5812 10.3453 20.8742 21.0085C9.24852 31.6717 1.68784 48.5554 2.25693 76.9017C2.74472 100.005 8.76069 127.374 16.9718 148.7C21.0368 159.364 25.6708 168.428 30.3861 174.826C35.1014 181.223 39.7355 184.511 43.8817 184.244C50.0604 183.711 54.9383 178.646 58.922 170.293C62.8243 162.029 65.751 150.655 68.0274 138.126C72.4175 113.067 73.9621 83.4773 75.5068 64.4613C76.4011 53.265 78.2709 45.4448 80.7912 40.3798C83.3927 35.3147 86.8072 32.9162 90.7096 32.6496C94.6119 32.2942 98.7583 33.982 103.067 36.559C107.376 39.2248 111.766 42.8684 116.156 46.6893C119.327 49.3551 123.392 48.9992 126.725 47.0443C129.895 45.0893 132.009 41.7132 131.522 38.6919C131.522 38.5735 131.467 38.4546 131.359 38.3362Z" fill="black"/>
<path d="M208.593 38.335C208.593 38.335 238.105 -5.82855 276.153 1.72454C308.916 8.38904 340.622 19.8521 339.484 76.9891C338.59 123.552 315.339 186.642 296.965 185.22C270.868 183.088 267.698 102.492 264.608 64.6381C260.95 19.8527 242.658 32.2035 225.26 47.4874C218.349 53.3522 207.293 45.6215 208.593 38.335Z" fill="#AD5F2A"/>
<path fill-rule="evenodd" clip-rule="evenodd" d="M207.861 37.9812L207.942 37.8033L208.592 38.3362C207.942 37.803 207.942 37.8033 207.942 37.8033C207.942 37.8033 207.942 37.7732 207.942 37.714C207.942 37.714 207.969 37.6847 208.023 37.6254C208.077 37.5662 208.159 37.4474 208.267 37.2697C208.484 36.9142 208.836 36.4406 209.324 35.8482C210.218 34.6931 211.519 32.9159 213.226 30.9609C216.56 26.8734 221.519 21.542 227.616 16.477C239.811 6.34692 256.884 -2.98337 276.233 0.926465C292.655 4.21428 308.996 8.74631 321.028 19.7649C333.223 30.7836 340.865 48.289 340.296 77.0796C339.808 100.45 333.792 127.907 325.5 149.411C321.353 160.163 316.719 169.494 311.841 175.981C307.045 182.467 301.923 186.465 296.883 186.11C289.972 185.488 284.688 179.712 280.623 171.182C276.558 162.651 273.631 151.1 271.355 138.481C266.965 113.334 265.339 83.566 263.794 64.7277C262.9 53.5314 261.111 46.0673 258.672 41.3577C256.315 36.6482 253.306 34.6934 250.055 34.4268C246.721 34.1603 242.819 35.6707 238.673 38.2476C234.445 40.8246 230.136 44.3791 225.746 48.2001C221.925 51.3991 217.129 50.8659 213.47 48.6444C209.893 46.4229 207.048 42.3347 207.779 38.1583L207.861 37.9812ZM237.86 36.6483C242.169 34.0714 246.396 32.3831 250.217 32.6496C254.12 33.0051 257.534 35.4041 260.136 40.4691C262.737 45.5341 264.607 53.3535 265.501 64.5498C267.046 83.5659 268.591 113.068 273.062 138.215C275.257 150.744 278.184 162.03 282.086 170.383C286.07 178.735 290.948 183.8 297.045 184.333C301.191 184.688 305.907 181.312 310.622 174.914C315.337 168.516 319.971 159.452 324.036 148.789C332.247 127.462 338.264 100.183 338.751 76.9902C339.32 48.6439 331.76 31.761 320.053 21.0978C308.346 10.4347 292.411 5.99096 275.989 2.61428C257.372 -1.11783 240.705 7.85719 228.592 17.8984C222.576 22.8745 217.779 28.1173 214.446 32.116C212.739 34.1597 211.519 35.8481 210.625 37.0033C210.191 37.5956 209.866 38.04 209.649 38.3362C209.541 38.5139 209.459 38.6327 209.405 38.6919C208.999 41.7132 211.031 45.0893 214.283 47.0443C217.535 49.088 221.681 49.4436 224.771 46.7778C229.161 42.9569 233.632 39.3141 237.86 36.6483Z" fill="black"/>
<path d="M146.48 197.311C146.48 197.311 141.114 153.236 111.603 145.86C82.0913 138.396 55.1815 157.679 33.7187 197.311C33.7187 197.311 59.2463 182.559 69.9777 182.559C69.9777 182.559 33.7187 198.732 33.7187 254.447C33.7187 254.447 64.6121 200.154 84.6928 199.443C84.6928 199.443 75.3435 214.905 75.3435 229.567C75.2622 229.567 104.855 182.56 146.48 197.311Z" fill="#FDD1A2"/>
<path fill-rule="evenodd" clip-rule="evenodd" d="M147.293 197.131L147.456 198.553L146.236 198.109L146.48 197.309L147.293 197.131ZM34.0445 198.02L31.5244 199.441L32.9876 196.776L33.7194 197.22L34.0445 198.02ZM32.9064 196.776C54.4505 157.055 81.6854 137.418 111.685 144.882C126.806 148.703 135.749 161.854 140.789 173.939C143.31 179.982 144.936 185.757 145.911 190.023C146.399 192.155 146.724 193.932 146.968 195.176C147.022 195.769 147.077 196.243 147.131 196.599C147.185 196.776 147.212 196.894 147.212 196.954C147.212 197.013 147.212 197.043 147.212 197.043C147.212 197.102 147.212 197.131 147.212 197.131C147.212 197.131 147.212 197.131 146.399 197.22L146.155 198.109C125.668 190.822 108.189 198.731 95.6688 208.595C89.4901 213.482 84.531 218.813 81.1164 222.989C79.4092 225.033 78.1082 226.81 77.2953 228.055C76.8075 228.706 76.4553 229.181 76.2385 229.477C76.1843 229.595 76.13 229.684 76.0758 229.743V229.477H75.9132C75.9945 229.743 75.9946 229.832 75.9946 229.921C75.9946 229.921 75.9946 229.95 75.9946 230.01C75.9946 230.01 75.9946 229.98 75.9946 229.921C75.9946 229.921 75.9946 229.891 75.9946 229.832C76.0488 229.832 76.0758 229.802 76.0758 229.743V230.365H75.2628C74.8563 230.188 74.6939 229.832 74.6126 229.477H74.4498C74.4498 222.013 76.8889 214.282 79.2465 208.595C80.3847 205.662 81.6042 203.263 82.4985 201.574C82.7153 201.16 82.9321 200.775 83.1489 200.419C78.7588 201.219 73.7994 204.329 68.7589 208.95C63.068 214.104 57.3773 220.946 52.2555 227.7C47.1337 234.542 42.6621 241.384 39.4914 246.449C37.8655 249.026 36.5647 251.07 35.6705 252.58C35.2369 253.35 34.9117 253.913 34.6949 254.268C34.5865 254.505 34.5052 254.683 34.451 254.802C34.3968 254.802 34.3698 254.831 34.3698 254.89C34.3698 254.89 34.3697 254.89 33.638 254.446L34.3698 254.89L32.825 257.556V254.446C32.825 226.366 42.0118 208.15 51.1986 196.954C55.7513 191.444 60.3853 187.623 63.7998 185.224C64.396 184.75 64.965 184.336 65.507 183.98C63.7997 184.425 61.93 184.957 59.9788 185.668C56.0765 187.09 51.9302 188.867 48.1092 190.733C44.2068 192.511 40.711 194.377 38.1908 195.71C36.89 196.421 35.8331 196.954 35.1014 197.398C34.7762 197.576 34.5052 197.724 34.2884 197.842C34.2342 197.901 34.1801 197.932 34.1259 197.932C34.0717 197.991 34.0445 198.02 34.0445 198.02C34.0445 198.02 34.0445 198.02 33.638 197.22L32.9064 196.776ZM79.897 221.834C83.3115 217.569 88.352 212.149 94.6933 207.172C107.132 197.309 124.774 189.223 145.342 195.976C145.342 195.799 145.315 195.651 145.261 195.532C145.098 194.288 144.773 192.6 144.285 190.467C143.31 186.291 141.765 180.604 139.245 174.65C134.286 162.832 125.749 150.302 111.359 146.659C82.9863 139.55 56.8895 157.322 35.7518 194.998C36.2396 194.761 36.7816 194.465 37.3778 194.11C39.9794 192.777 43.4752 190.912 47.3776 189.046C51.2799 187.268 55.5073 185.402 59.4096 183.98C63.3119 182.647 67.0518 181.669 69.8972 181.669H74.0433L70.1411 183.358C70.1411 183.358 70.114 183.387 70.0598 183.447C70.0056 183.447 69.9242 183.477 69.8158 183.536C69.5448 183.655 69.1655 183.862 68.6777 184.158C67.7022 184.691 66.3201 185.491 64.6128 186.735C61.2796 189.045 56.8081 192.777 52.3367 198.198C43.719 208.595 35.1014 225.478 34.451 251.336C35.3453 249.914 36.5647 247.871 38.1094 245.472C41.2801 240.318 45.8328 233.475 50.9546 226.633C56.0764 219.791 61.8486 212.859 67.6208 207.617C73.393 202.374 79.3277 198.642 84.6121 198.464V199.353C85.3438 199.886 85.3439 199.886 85.3439 199.886L86.1569 198.464H84.6121V199.353L85.3439 199.886C85.3439 199.886 85.3168 199.886 85.2626 199.886C85.2626 199.945 85.2626 200.004 85.2626 200.064C85.1542 200.182 85.0458 200.36 84.9374 200.597C84.6664 201.012 84.3141 201.634 83.8805 202.463C82.9862 204.151 81.8481 206.462 80.71 209.305C78.6775 214.193 76.645 220.413 76.1572 226.633C77.0514 225.389 78.271 223.7 79.897 221.834Z" fill="black"/>
<path d="M194.445 197.308C194.445 197.308 199.811 153.234 229.322 145.858C258.834 138.394 285.744 157.588 307.206 197.308C307.206 197.308 281.76 182.557 270.947 182.557C270.947 182.557 307.206 198.73 307.206 254.445C307.206 254.445 276.313 200.151 256.232 199.441C256.232 199.441 265.582 214.902 265.582 229.564C265.663 229.564 235.989 182.558 194.445 197.308Z" fill="#FDD1A2"/>
<path fill-rule="evenodd" clip-rule="evenodd" d="M194.69 198.106L193.471 198.551L193.633 197.129L194.446 197.307L194.69 198.106ZM193.633 197.129C193.633 197.129 193.633 197.1 193.633 197.041C193.633 197.041 193.633 197.01 193.633 196.951C193.633 196.892 193.66 196.774 193.715 196.596C193.769 196.241 193.85 195.766 193.958 195.174C194.121 193.93 194.446 192.153 194.934 190.02C195.91 185.755 197.535 179.979 200.056 173.937C205.178 161.852 214.039 148.701 229.161 144.88C259.16 137.415 286.395 156.964 307.939 196.773L309.402 199.439L306.882 198.018L307.207 197.218C306.882 198.017 306.882 198.018 306.882 198.018C306.882 198.018 306.855 198.018 306.801 198.018C306.801 198.018 306.801 197.988 306.801 197.929C306.746 197.929 306.665 197.899 306.557 197.84C306.394 197.721 306.123 197.573 305.744 197.396C305.012 196.951 303.955 196.419 302.736 195.708C300.134 194.375 296.638 192.508 292.817 190.731C288.996 188.865 284.769 186.999 280.948 185.666C278.915 184.955 277.045 184.422 275.338 183.978C275.88 184.333 276.449 184.748 277.046 185.222C280.541 187.621 285.094 191.442 289.728 196.951C298.915 208.148 308.02 226.364 308.02 254.444V257.554L306.557 254.888L307.207 254.444C306.557 254.888 306.557 254.888 306.557 254.888C306.503 254.829 306.476 254.769 306.476 254.71C306.421 254.651 306.34 254.503 306.232 254.266C305.961 253.91 305.608 253.348 305.175 252.578C304.28 251.067 303.061 249.023 301.435 246.446C298.183 241.381 293.712 234.539 288.671 227.697C283.549 220.944 277.859 214.101 272.168 208.947C267.046 204.327 262.168 201.217 257.778 200.417C257.94 200.773 258.13 201.157 258.347 201.572C259.241 203.26 260.461 205.66 261.68 208.592C264.038 214.279 266.395 222.01 266.395 229.474H266.314C266.233 229.83 265.989 230.185 265.582 230.363H264.769V229.741C264.715 229.682 264.661 229.593 264.607 229.474C264.39 229.178 264.065 228.704 263.631 228.052C262.737 226.808 261.436 225.031 259.729 222.987C256.314 218.811 251.355 213.48 245.176 208.592C232.656 198.729 215.096 190.82 194.69 198.106L194.446 197.218C193.633 197.129 193.633 197.129 193.633 197.129ZM256.233 198.462C261.517 198.64 267.452 202.372 273.224 207.614C278.997 212.857 284.769 219.7 289.891 226.631C295.012 233.473 299.565 240.315 302.736 245.469C304.28 247.868 305.5 249.823 306.394 251.334C305.744 225.475 297.126 208.592 288.509 198.196C284.037 192.775 279.566 189.043 276.233 186.644C274.525 185.489 273.143 184.689 272.168 184.156C271.68 183.86 271.3 183.652 271.029 183.534C270.921 183.474 270.84 183.444 270.785 183.444C270.731 183.385 270.704 183.356 270.704 183.356L266.802 181.667H270.948C273.794 181.667 277.533 182.645 281.436 183.978C285.338 185.4 289.565 187.266 293.468 189.043C297.37 190.909 300.866 192.775 303.468 194.108C304.064 194.463 304.606 194.759 305.094 194.996C283.875 157.231 257.859 139.548 229.486 146.657C215.096 150.3 206.56 162.829 201.519 174.648C199.08 180.601 197.454 186.199 196.56 190.465C196.072 192.508 195.747 194.285 195.503 195.44C195.503 195.618 195.476 195.796 195.422 195.974C215.99 189.221 233.632 197.307 246.071 207.17C252.493 212.146 257.534 217.567 260.948 221.832C262.574 223.698 263.794 225.387 264.688 226.631C264.2 220.411 262.168 214.19 260.135 209.303C258.997 206.46 257.859 204.149 256.965 202.461C256.531 201.631 256.179 200.98 255.908 200.506C255.8 200.328 255.691 200.18 255.583 200.061C255.583 200.002 255.583 199.943 255.583 199.883C255.528 199.883 255.501 199.883 255.501 199.883L256.233 199.351V198.462ZM256.152 199.351L256.233 198.462H254.607L255.501 199.883C255.501 199.883 255.501 199.884 256.152 199.351ZM264.851 229.829C264.851 229.889 264.851 229.919 264.851 229.919C264.851 229.978 264.851 229.978 264.851 229.919V229.829C264.797 229.77 264.797 229.652 264.851 229.474H264.769V229.741C264.769 229.8 264.797 229.829 264.851 229.829Z" fill="black"/>
</svg>
