<svg width="270" height="427" viewBox="0 0 270 427" fill="none" xmlns="http://www.w3.org/2000/svg">
<path d="M103.201 97.1903C103.201 97.1903 74.5865 1.6123 52.8529 1.6123C31.1192 1.6123 28.8536 80.1555 30.0283 97.2739C31.1192 114.392 22.0566 114.224 24.3222 132.518C26.5879 150.895 40.3497 162.642 48.3215 166.586C56.2933 170.53 114.529 174.475 103.201 97.1903Z" fill="#A39789"/>
<path d="M103.201 97.1906L104.04 97.1062V97.0226V96.9382L103.201 97.1906ZM103.201 97.1906C103.956 96.9388 103.956 96.9382 103.956 96.9382C103.956 96.9382 103.956 96.9105 103.956 96.8546C103.956 96.8546 103.928 96.7985 103.872 96.6866C103.816 96.5188 103.732 96.2391 103.62 95.8475C103.397 95.1762 103.089 94.1695 102.697 92.8269C101.858 90.2256 100.684 86.4491 99.1731 82.0017C96.1522 73.0229 91.8725 61.0231 86.9216 49.1074C81.9707 37.1077 76.3485 25.1082 70.5585 16.1295C67.7054 11.5981 64.6845 7.82235 61.7476 5.13711C58.8945 2.45187 55.8736 0.773438 52.8527 0.773438V2.45171C55.2023 2.45171 57.8875 3.794 60.6567 6.31141C63.4258 8.91274 66.2789 12.5212 69.132 16.9686C74.8381 25.9474 80.4603 37.7792 85.3273 49.6949C90.2782 61.6946 94.5578 73.6108 97.5787 82.5057C99.0891 87.037 100.264 90.7287 101.103 93.3301C101.495 94.6727 101.802 95.6801 102.026 96.3514C102.138 96.743 102.222 97.0228 102.278 97.1906C102.334 97.2465 102.362 97.3018 102.362 97.3577C102.362 97.4137 102.362 97.4422 102.362 97.4422C102.362 97.4422 102.362 97.4423 103.201 97.1906ZM52.8527 0.773438C49.8318 0.773438 47.2305 2.11638 44.9648 4.46597C42.6992 6.73164 40.7691 10.0036 39.1748 13.8636C35.9022 21.5837 33.5526 31.9895 31.9582 42.8983C28.8534 64.7158 28.6017 88.7146 29.1051 97.3577L30.7834 97.1906C30.2799 88.7153 30.5317 64.8835 33.6365 43.1498C35.2308 32.325 37.4965 22.0039 40.6852 14.5356C42.2796 10.7595 44.1257 7.73811 46.1396 5.64027C48.1535 3.54242 50.4192 2.45171 52.8527 2.45171V0.773438ZM29.1051 97.3577C29.6925 105.665 27.7625 109.777 25.9164 114.14C24.9934 116.322 24.0703 118.672 23.5668 121.526C22.9794 124.463 22.8955 127.987 23.4829 132.686L25.1612 132.434C24.5738 127.903 24.7416 124.63 25.1612 121.861C25.6647 119.092 26.5877 116.994 27.5108 114.812C29.3569 110.365 31.3708 106.002 30.7834 97.1906L29.1051 97.3577ZM23.4829 132.686C25.7486 151.399 39.7622 163.398 47.9018 167.426L48.657 165.915C40.8531 162.055 27.3429 150.475 25.0773 132.518L23.4829 132.686ZM47.9857 167.342C49.0766 167.929 51.0066 168.433 53.3562 168.769C55.7058 169.104 58.6427 169.272 61.9154 169.104C68.4606 168.852 76.2646 167.258 83.4812 163.063C90.6978 158.867 97.3269 152.154 101.355 141.497C105.383 130.924 106.893 116.49 104.04 97.1062L102.446 97.3577C105.215 116.574 103.704 130.672 99.7605 140.909C95.9004 151.147 89.523 157.608 82.6421 161.636C75.6772 165.664 68.125 167.174 61.8315 167.426C58.7267 167.594 55.8736 167.426 53.6079 167.091C51.2583 166.755 49.5801 166.335 48.7409 165.832L47.9857 167.342Z" fill="#0F0901"/>
<path d="M52.0128 156.183C50.2506 156.267 48.5723 155.932 46.9779 155.344C43.8731 153.162 35.9013 144.603 34.7265 130.841C34.2231 126.897 34.6426 122.869 35.9852 119.093C38.3348 111.709 39.2579 103.989 38.7544 96.2686C38.4188 80.5768 38.9222 64.8008 40.2648 49.109C42.4466 23.9349 45.971 15.2918 47.3136 13.8652C48.4045 14.7883 54.2784 20.8304 64.5159 56.9972C69.9703 76.633 74.166 95.8492 75.089 100.213C77.019 119.932 75.5925 134.701 70.8933 143.931C65.1872 155.008 55.7889 156.183 52.0128 156.183Z" fill="#A86526"/>
<path fill-rule="evenodd" clip-rule="evenodd" d="M52.8525 155.343C56.8803 155.175 65.0199 153.497 70.1387 143.595C74.7539 134.532 76.1805 120.015 74.2505 100.379C73.3274 95.9318 69.1317 76.7992 63.6773 57.2473C58.5586 39.2058 54.6147 28.6329 51.7616 22.5911C49.6638 18.2276 48.2372 16.1299 47.3981 15.2069C47.2303 15.5425 47.0065 16.0458 46.7268 16.7171C46.2233 18.1437 45.552 20.0739 44.9646 22.7591C43.622 28.2135 42.1954 36.6049 41.1046 49.1919C39.7619 64.7998 39.2585 80.5753 39.5941 96.2672C40.0976 104.071 39.0906 111.875 36.741 119.343C35.4823 123.036 35.0628 126.896 35.5662 130.672L34.7271 130.84L35.5662 130.756C36.741 144.098 44.3772 152.405 47.3142 154.587C48.8246 155.175 50.419 155.427 51.9294 155.343H52.8525ZM51.1742 157.021C49.6637 157.021 48.1533 156.685 46.7268 156.182L46.5589 156.097H46.475C43.2863 153.748 35.1467 144.937 33.9719 130.923C33.3845 126.895 33.8041 122.7 35.2306 118.84C37.4963 111.54 38.4193 103.988 37.9158 96.3516C37.5802 80.5758 38.0837 64.7994 39.5102 49.1075C40.6011 36.4365 42.0276 27.9614 43.3702 22.4231C44.0415 19.654 44.6289 17.6405 45.2163 16.214C45.7757 14.7595 46.2792 13.8081 46.7268 13.3606L47.3142 13.9482L47.9016 13.277C48.5729 13.7805 50.419 15.7103 53.272 21.92C56.209 28.1296 60.2369 38.7024 65.3556 56.8277C70.8939 76.4635 75.0896 95.6798 76.0126 100.043V100.128V100.211C77.9426 119.931 76.5161 134.867 71.6492 144.35C65.7752 155.846 55.9573 157.105 52.0133 157.105H51.1742V157.021C51.4539 157.077 51.7336 157.077 52.0133 157.021V156.265H51.1742V157.021ZM46.7268 13.277L47.2302 12.6895L47.9016 13.1926L47.3142 13.7802L46.7268 13.277Z" fill="#0F0901"/>
<path d="M167.562 97.1903C167.562 97.1903 196.177 1.6123 217.827 1.6123C239.56 1.6123 241.826 80.1555 240.651 97.2739C239.56 114.392 248.707 114.308 246.441 132.601C244.092 150.978 230.414 162.642 222.358 166.586C214.302 170.53 156.15 174.475 167.562 97.1903Z" fill="#A39789"/>
<path d="M167.563 97.1906L166.807 96.9382V97.0226L166.724 97.1062L167.563 97.1906ZM167.563 97.1906C168.402 97.3584 168.402 97.3577 168.402 97.3577C168.458 97.3018 168.486 97.2181 168.486 97.1062C168.542 96.9383 168.626 96.6871 168.737 96.3514C168.961 95.6242 169.269 94.6167 169.66 93.3301C170.5 90.7287 171.674 86.9531 173.185 82.5057C176.206 73.5269 180.485 61.6107 185.352 49.6949C190.303 37.7792 195.842 25.8635 201.548 16.9686C204.401 12.5212 207.254 8.82882 210.023 6.31141C212.792 3.71009 215.477 2.45171 217.827 2.45171V0.773438C214.806 0.773438 211.785 2.36747 208.932 5.05271C205.995 7.73795 203.058 11.5146 200.121 16.0459C194.331 25.1086 188.709 37.1081 183.842 49.0238C178.891 61.0235 174.611 72.9394 171.59 81.9181C170.08 86.4495 168.905 90.1417 168.066 92.8269C167.675 94.1136 167.367 95.1202 167.143 95.8475C167.031 96.1831 166.947 96.4352 166.891 96.603C166.835 96.7149 166.807 96.7987 166.807 96.8546C166.807 96.9105 166.807 96.9382 166.807 96.9382C166.807 96.9382 166.807 96.9388 167.563 97.1906ZM217.827 2.45171C220.26 2.45171 222.526 3.54275 224.54 5.55668C226.554 7.65452 228.4 10.6751 229.994 14.4512C233.183 22.0034 235.449 32.2411 237.043 43.1498C240.148 64.7996 240.4 88.7153 239.896 97.1906L241.491 97.2742C242.078 88.715 241.826 64.7158 238.638 42.8983C237.127 31.9895 234.778 21.5001 231.505 13.7801C229.827 9.92003 227.98 6.64723 225.715 4.38156C223.449 2.11589 220.848 0.773438 217.827 0.773438V2.45171ZM239.896 97.1906C239.309 105.918 241.323 110.365 243.169 114.812C244.176 116.994 245.015 119.175 245.518 121.861C246.022 124.63 246.106 127.987 245.602 132.518L247.281 132.686C247.868 128.071 247.7 124.546 247.113 121.609C246.609 118.672 245.686 116.322 244.763 114.14C242.917 109.777 240.987 105.666 241.491 97.2742L239.896 97.1906ZM245.686 132.518C243.421 150.475 229.994 161.972 222.107 165.832L222.778 167.342C231.001 163.314 245.015 151.399 247.365 132.686L245.686 132.518ZM222.107 165.832C221.183 166.335 219.505 166.755 217.156 167.091C214.89 167.426 212.037 167.594 208.932 167.426C202.639 167.174 195.086 165.664 188.205 161.636C181.241 157.608 174.947 151.147 171.087 140.909C167.143 130.672 165.633 116.574 168.486 97.3577L166.807 97.1062C163.954 116.49 165.465 130.924 169.493 141.497C173.521 152.154 180.15 158.867 187.366 163.063C194.499 167.258 202.303 168.852 208.848 169.104C212.121 169.272 215.058 169.104 217.407 168.769C219.757 168.433 221.687 167.929 222.778 167.342L222.107 165.832Z" fill="#0F0901"/>
<path d="M218.749 156.181C220.428 156.265 222.19 155.929 223.784 155.342C226.889 153.16 234.777 144.601 236.036 130.839C236.539 126.895 236.12 122.867 234.777 119.091C232.427 111.707 231.504 103.986 232.008 96.2663C232.343 80.5744 231.84 64.799 230.413 49.191C228.232 24.0169 224.707 15.3738 223.449 13.9473C222.274 14.7864 216.4 20.9116 206.246 57.0784C200.708 76.6303 196.512 95.9304 195.589 100.294C193.659 120.014 195.086 134.699 199.869 144.013C205.491 155.09 214.973 156.265 218.749 156.265V156.181Z" fill="#A86526"/>
<path fill-rule="evenodd" clip-rule="evenodd" d="M218.078 155.343H218.75C220.344 155.427 221.938 155.175 223.365 154.588C226.386 152.406 234.022 144.099 235.197 130.757V130.672C235.7 126.896 235.281 123.036 234.022 119.344C231.588 111.875 230.665 104.072 231.169 96.2675C231.505 80.5757 231.001 64.8842 229.574 49.1923C228.484 36.6892 227.057 28.2975 225.798 22.8431C225.127 20.0739 224.54 18.1437 223.952 16.8011C223.673 16.1298 223.449 15.5989 223.281 15.2073C222.442 16.1303 221.015 18.228 219.001 22.5915C216.148 28.7172 212.12 39.2062 207.002 57.2477C201.547 76.7996 197.352 95.9322 196.429 100.38C194.499 120.099 195.925 134.533 200.624 143.595C205.743 153.665 214.134 155.259 218.078 155.427V155.343ZM194.75 100.212V100.128V100.044C195.673 95.6802 199.869 76.4639 205.407 56.8281L206.246 57.0797L206.163 56.9961L205.407 56.8281C210.526 38.7028 214.554 28.13 217.407 21.9204C220.344 15.7107 222.19 13.7809 222.861 13.2774L223.533 12.7734L224.036 13.361C224.484 13.8085 224.987 14.7599 225.547 16.2144C226.05 17.6409 226.721 19.6544 227.393 22.4235C228.735 27.9618 230.162 36.4369 231.253 49.1079C232.595 64.7998 233.183 80.5762 232.763 96.352C232.344 103.904 233.267 111.54 235.532 118.841C236.959 122.701 237.378 126.812 236.791 130.924C235.616 144.937 227.477 153.665 224.288 156.014L223.784 155.343L224.036 156.098C222.526 156.685 221.015 157.021 219.421 157.021L219.337 157.105H218.75C214.806 157.105 204.988 155.846 199.114 144.35C194.247 134.868 192.82 119.931 194.75 100.212ZM224.288 156.014L224.204 156.098H224.036L223.784 155.343L224.288 156.014Z" fill="#D48E4D"/>
<path d="M135.339 404.736C224.12 404.736 273.377 234.727 241.658 168.351C209.855 101.976 135.339 100.633 135.339 100.633C135.339 100.633 60.908 101.976 29.1047 168.351C-2.69857 234.727 46.6427 404.736 135.339 404.736Z" fill="#C4B8A9"/>
<path d="M135.339 405.575C157.828 405.575 177.715 394.75 194.414 377.715C211.113 360.597 224.707 337.184 234.441 311.759C244.175 286.249 250.133 258.726 251.727 233.384C253.237 208.042 250.384 184.797 242.329 168.015L240.818 168.686C248.706 185.133 251.559 208.042 250.049 233.216C248.538 258.39 242.58 285.83 232.846 311.172C223.196 336.43 209.77 359.673 193.239 376.54C176.708 393.407 157.24 403.896 135.339 403.896V405.575ZM242.329 168.015C226.385 134.533 199.617 117.499 176.876 108.772C165.464 104.492 155.142 102.226 147.59 101.052C143.814 100.464 140.793 100.129 138.695 99.961C137.632 99.905 136.821 99.8489 136.262 99.793C135.926 99.793 135.702 99.793 135.59 99.793C135.534 99.793 135.479 99.793 135.423 99.793C135.423 99.793 135.395 99.793 135.339 99.793C135.339 99.793 135.339 99.793 135.339 100.632C135.339 101.471 135.339 101.471 135.339 101.471C135.395 101.471 135.451 101.471 135.507 101.471C135.674 101.471 135.898 101.471 136.178 101.471C136.681 101.527 137.465 101.583 138.527 101.639C140.625 101.807 143.646 102.143 147.338 102.73C154.807 103.821 165.044 106.086 176.289 110.366C198.694 118.925 225.126 135.792 240.818 168.686L242.329 168.015ZM135.339 100.716C135.339 99.8766 135.339 99.8766 135.339 99.8766C135.283 99.8766 135.255 99.8766 135.255 99.8766C135.199 99.8766 135.143 99.8766 135.087 99.8766C134.919 99.8766 134.695 99.8766 134.416 99.8766C133.856 99.8766 133.045 99.9327 131.982 100.045C129.884 100.212 126.863 100.548 123.087 101.135C115.535 102.31 105.214 104.492 93.8014 108.855C71.0608 117.583 44.2924 134.617 28.3488 168.015L29.8592 168.77C45.635 135.792 71.9839 119.009 94.3888 110.45C105.633 106.171 115.871 103.905 123.339 102.73C127.031 102.143 130.052 101.891 132.15 101.723C133.213 101.611 133.996 101.555 134.5 101.555C134.779 101.555 135.003 101.555 135.171 101.555C135.227 101.555 135.283 101.555 135.339 101.555C135.339 101.555 135.339 101.555 135.339 100.716ZM28.3488 168.015C20.2931 184.797 17.44 208.042 18.9505 233.384C20.5448 258.726 26.5027 286.333 36.2367 311.759C45.9707 337.268 59.5647 360.68 76.2635 377.799C92.9623 394.833 112.85 405.575 135.339 405.575V403.896C113.437 403.896 93.9693 393.491 77.4383 376.625C60.9073 359.758 47.4811 336.514 37.831 311.172C28.097 285.83 22.1392 258.473 20.6287 233.299C19.1183 208.125 21.9713 185.217 29.8592 168.77L28.3488 168.015Z" fill="#0F0901"/>
<path d="M152.961 392.989C148.766 362.276 135.339 361.102 135.339 361.102C135.339 361.102 121.913 362.192 117.718 392.989C113.522 423.785 135.339 426.05 135.339 426.05C135.339 426.05 157.157 423.701 152.961 392.989Z" fill="#F76D6D"/>
<path d="M135.339 361.103L135.423 360.264H135.339H135.255L135.339 361.103ZM135.339 426.052L135.255 426.891H135.339H135.423L135.339 426.052ZM153.8 392.906C151.702 377.382 147.255 369.242 143.227 364.963C141.213 362.781 139.283 361.606 137.856 361.018C137.185 360.683 136.598 360.515 136.178 360.431C135.954 360.375 135.787 360.32 135.675 360.264C135.619 360.264 135.563 360.264 135.507 360.264C135.451 360.264 135.423 360.264 135.423 360.264C135.423 360.264 135.423 360.264 135.339 361.103C135.339 361.942 135.339 361.942 135.339 361.942C135.283 361.942 135.283 361.942 135.339 361.942C135.339 361.942 135.367 361.942 135.423 361.942C135.479 361.942 135.591 361.97 135.759 362.026C136.094 362.109 136.598 362.277 137.185 362.529C138.444 363.116 140.122 364.124 141.968 366.138C145.744 370.082 150.108 377.885 152.206 393.074L153.8 392.906ZM135.339 361.186C135.255 360.347 135.255 360.347 135.255 360.347C135.255 360.347 135.227 360.347 135.171 360.347C135.115 360.347 135.059 360.347 135.003 360.347C134.892 360.347 134.724 360.375 134.5 360.431C134.08 360.515 133.493 360.767 132.822 361.018C131.395 361.69 129.465 362.865 127.451 364.963C123.423 369.242 118.976 377.465 116.878 392.906L118.556 393.157C120.57 377.885 124.934 370.082 128.71 366.138C130.556 364.124 132.234 363.117 133.493 362.613C134.08 362.277 134.584 362.193 134.919 362.109C135.087 362.053 135.199 362.026 135.255 362.026C135.311 362.026 135.339 362.026 135.339 362.026C135.395 362.026 135.395 362.026 135.339 362.026C135.339 362.026 135.339 362.026 135.339 361.186ZM116.878 392.906C114.696 408.514 119.228 417.073 124.346 421.772C126.948 424.038 129.633 425.38 131.647 426.052C132.738 426.387 133.577 426.639 134.248 426.807C134.528 426.863 134.752 426.891 134.919 426.891C135.031 426.891 135.115 426.891 135.171 426.891C135.171 426.947 135.171 426.975 135.171 426.975C135.227 426.975 135.255 426.975 135.255 426.975C135.255 426.975 135.255 426.975 135.339 426.136C135.423 425.297 135.423 425.297 135.423 425.297C135.367 425.297 135.339 425.297 135.339 425.297C135.339 425.297 135.283 425.268 135.171 425.212C135.059 425.212 134.864 425.185 134.584 425.129C133.996 425.045 133.157 424.793 132.234 424.458C130.304 423.786 127.871 422.611 125.521 420.514C120.822 416.318 116.458 408.346 118.556 393.157L116.878 392.906ZM135.255 426.052C135.423 426.891 135.423 426.891 135.423 426.891C135.479 426.891 135.563 426.891 135.675 426.891C135.843 426.835 136.094 426.779 136.43 426.723C137.017 426.639 137.856 426.387 138.947 426.052C140.961 425.296 143.646 423.953 146.248 421.688C151.367 417.073 155.898 408.514 153.716 392.906L152.122 393.157C154.136 408.262 149.772 416.233 145.073 420.429C142.723 422.527 140.29 423.786 138.36 424.458C137.437 424.793 136.598 424.961 136.01 425.129C135.731 425.185 135.535 425.212 135.423 425.212C135.367 425.212 135.311 425.212 135.255 425.212C135.255 425.212 135.227 425.212 135.171 425.212C135.171 425.212 135.171 425.212 135.255 426.052Z" fill="#0F0901"/>
<path d="M135.339 201.329C135.339 201.329 110.836 302.361 69.3829 322.416H201.379C159.842 302.361 135.339 201.329 135.339 201.329Z" fill="#A39789"/>
<path d="M135.339 201.33L136.178 201.162L135.339 197.806L134.5 201.162L135.339 201.33ZM69.3827 322.417L68.9631 321.663L65.6905 323.257H69.3827V322.417ZM201.379 322.417V323.257H205.071L201.798 321.663L201.379 322.417ZM135.339 201.33C134.5 201.078 134.5 201.079 134.5 201.079C134.5 201.135 134.5 201.162 134.5 201.162C134.5 201.218 134.472 201.302 134.416 201.414C134.36 201.582 134.304 201.861 134.248 202.253C134.024 202.98 133.744 204.044 133.409 205.442C132.654 208.295 131.479 212.239 130.052 217.19C127.115 226.924 122.752 240.182 117.13 254.028C111.423 267.874 104.543 282.307 96.4029 294.558C88.3472 306.809 79.1167 316.712 68.9631 321.663L69.7183 323.173C80.2915 318.054 89.6898 307.817 97.8294 295.482C106.053 283.062 113.018 268.545 118.64 254.615C124.346 240.686 128.71 227.428 131.647 217.61C133.157 212.743 134.248 208.715 135.003 205.862C135.395 204.463 135.675 203.4 135.842 202.672C135.954 202.281 136.038 202.001 136.094 201.833C136.094 201.721 136.094 201.638 136.094 201.582C136.094 201.526 136.094 201.498 136.094 201.498C136.094 201.498 136.122 201.498 136.178 201.498C136.178 201.498 136.178 201.498 135.339 201.33ZM69.2988 323.257H201.379V321.578H69.2988V323.257ZM201.715 321.663C191.561 316.712 182.33 306.809 174.191 294.558C166.135 282.307 159.17 267.874 153.548 254.028C147.926 240.182 143.562 226.924 140.625 217.19C139.115 212.239 138.024 208.295 137.269 205.442C136.877 204.044 136.598 202.98 136.43 202.253C136.318 201.861 136.234 201.582 136.178 201.414C136.178 201.302 136.178 201.218 136.178 201.162C136.178 201.162 136.178 201.135 136.178 201.079C136.178 201.079 136.178 201.078 135.339 201.33C134.5 201.498 134.5 201.498 134.5 201.498C134.5 201.498 134.5 201.526 134.5 201.582C134.556 201.638 134.584 201.721 134.584 201.833C134.64 202.001 134.723 202.281 134.835 202.672C135.003 203.4 135.283 204.463 135.675 205.862C136.43 208.715 137.521 212.743 139.031 217.61C141.968 227.428 146.332 240.686 151.954 254.615C157.66 268.545 164.625 283.062 172.848 295.482C180.988 307.817 190.386 318.054 200.959 323.173L201.715 321.663Z" fill="#0F0901"/>
<path d="M212.287 336.012C218.329 336.683 224.287 338.11 229.909 340.376C209.77 298.755 160.009 306.391 160.009 306.391C160.009 296.908 171.925 288.098 171.925 288.098C154.303 290.615 142.891 304.544 142.891 304.544L135.338 288.181L127.786 304.544C127.786 304.544 116.458 290.699 98.8359 288.181C98.8359 288.181 110.752 296.992 110.752 306.474C110.752 306.474 60.9909 298.838 40.8516 340.459C46.4738 338.194 52.4317 336.767 58.4735 336.096C58.4735 336.096 34.4742 356.235 48.4039 416.15L62.2496 401.045C62.2496 401.045 62.2496 409.856 69.8018 421.184L81.8015 398.444C81.8015 398.444 81.8015 412.29 88.095 421.184C88.095 421.184 93.8011 401.045 100.682 397.857L109.577 415.478L117.129 395.339L124.01 407.926C124.01 407.926 126.527 379.647 135.338 375.2C144.233 379.647 146.751 407.926 146.751 407.926L153.632 395.171L161.184 415.31L169.995 397.689C176.96 400.793 182.666 421.016 182.666 421.016C188.959 412.122 188.959 398.276 188.959 398.276L200.875 421.016C208.511 409.604 208.511 400.877 208.511 400.877L222.357 415.982C236.203 356.151 212.287 336.012 212.287 336.012Z" fill="#F7F0E4"/>
<path fill-rule="evenodd" clip-rule="evenodd" d="M187.198 308.571C179.813 306.977 173.016 306.641 168.065 306.641C165.632 306.725 163.618 306.809 162.191 306.977C161.52 307.033 161.016 307.088 160.681 307.144C160.457 307.144 160.317 307.144 160.261 307.144C160.205 307.144 160.149 307.144 160.093 307.144L159.17 307.312V306.39C159.17 301.271 162.275 296.572 165.296 293.132C166.639 291.705 167.897 290.446 168.988 289.523C161.688 291.117 155.646 294.641 151.282 297.914C148.849 299.76 146.919 301.606 145.576 302.949C144.905 303.62 144.402 304.124 144.066 304.46C143.898 304.684 143.786 304.851 143.73 304.963C143.674 304.963 143.618 304.991 143.562 305.047L142.723 306.138L142.136 304.879L135.339 290.195L128.542 304.879L128.038 306.138L127.115 305.047C127.115 304.991 127.087 304.963 127.031 304.963C126.976 304.851 126.864 304.711 126.696 304.543C126.304 304.152 125.801 303.62 125.185 302.949C123.843 301.606 121.913 299.844 119.395 297.998C115.032 294.726 109.074 291.201 101.773 289.607C102.864 290.53 104.123 291.789 105.382 293.215C108.403 296.656 111.591 301.355 111.591 306.473V307.397L110.668 307.229C110.668 307.229 110.64 307.229 110.584 307.229C110.584 307.229 110.556 307.229 110.5 307.229C110.445 307.229 110.305 307.229 110.081 307.229C109.745 307.173 109.242 307.117 108.57 307.061C107.144 306.893 105.13 306.809 102.696 306.725C97.7456 306.725 90.9485 307.061 83.5641 308.656C69.2149 311.844 52.6 319.816 42.5304 338.948C47.6491 337.102 52.9357 335.843 58.3901 335.256L58.474 336.095H59.3131V336.85L58.8096 336.934C58.6418 337.102 58.3901 337.354 58.0544 337.689C57.467 338.277 56.6278 339.283 55.6209 340.71C53.607 343.479 51.0896 347.759 48.9917 353.969C44.8799 366.052 42.3625 385.437 48.8239 414.387L61.6627 400.457L63.0892 398.863V401.044C63.0892 401.044 63.0892 401.072 63.0892 401.128C63.0892 401.184 63.0892 401.268 63.0892 401.38C63.1452 401.604 63.2011 401.967 63.257 402.471C63.3409 403.478 63.5927 404.82 64.0123 406.667C64.8514 409.939 66.5297 414.386 69.7184 419.505L81.0467 398.107L82.6411 395.087V398.443C82.6411 398.443 82.6411 398.471 82.6411 398.527C82.6411 398.527 82.6411 398.554 82.6411 398.61C82.6411 398.722 82.6411 398.862 82.6411 399.03C82.6411 399.422 82.669 399.981 82.725 400.708C82.8089 402.135 83.0607 404.065 83.3963 406.331C84.0676 410.358 85.4103 415.141 87.8438 419.169C87.9556 418.722 88.1234 418.218 88.3472 417.659C88.9346 415.729 89.8577 413.127 91.0325 410.358C92.2073 407.589 93.5499 404.736 95.1443 402.386C96.6547 400.037 98.4169 397.939 100.347 397.1L101.102 396.765L101.438 397.436L109.41 413.38L116.29 395.002L116.962 393.324L117.801 394.919L123.507 405.24C123.563 404.68 123.647 404.037 123.759 403.31C124.094 400.625 124.682 396.932 125.605 393.072C126.444 389.212 127.619 385.184 129.129 381.828C130.64 378.555 132.486 375.702 135.003 374.443L135.339 374.275L135.758 374.443C138.192 375.702 140.122 378.555 141.632 381.828C143.143 385.184 144.318 389.212 145.157 393.072C146.08 396.932 146.667 400.625 147.003 403.31C147.115 404.037 147.199 404.653 147.255 405.156L152.877 394.751L153.8 393.156L154.387 394.834L161.268 413.212L169.24 397.268L169.66 396.597L170.331 396.932C172.345 397.771 174.107 399.786 175.617 402.219C177.128 404.569 178.554 407.422 179.729 410.191C180.82 412.96 181.827 415.561 182.414 417.491C182.638 418.05 182.806 418.554 182.918 419.002C185.351 414.974 186.61 410.19 187.365 406.163C187.701 403.897 187.869 401.968 188.037 400.541C188.037 399.814 188.065 399.254 188.121 398.863C188.121 398.695 188.121 398.555 188.121 398.443C188.121 398.387 188.121 398.359 188.121 398.359C188.121 398.303 188.121 398.275 188.121 398.275V394.919L189.715 397.939L200.959 419.337C204.232 414.218 205.826 409.688 206.749 406.415C207.169 404.653 207.421 403.226 207.505 402.303C207.561 401.799 207.589 401.436 207.589 401.212C207.645 401.1 207.672 401.017 207.672 400.961C207.672 400.905 207.672 400.876 207.672 400.876V398.695L209.099 400.289L221.854 414.219C228.315 385.269 225.798 365.968 221.686 353.801C219.588 347.675 217.071 343.312 215.141 340.626C214.134 339.2 213.295 338.193 212.707 337.606C212.372 337.27 212.12 337.018 211.952 336.85C211.896 336.794 211.84 336.738 211.784 336.682L209.686 334.92L212.372 335.172C217.826 335.759 223.113 337.018 228.231 338.864C218.162 319.732 201.547 311.76 187.198 308.571ZM222.777 417.659L221.686 416.485L209.183 402.806C209.015 403.813 208.763 405.24 208.344 406.835C207.337 410.527 205.407 415.729 201.631 421.435L200.792 422.61L200.204 421.351L189.631 401.38C189.547 402.723 189.295 404.485 188.96 406.499C188.205 411.114 186.61 416.904 183.338 421.435L182.331 422.862L181.827 421.183C181.827 421.128 181.799 421.071 181.743 421.015C181.687 420.848 181.631 420.624 181.575 420.344C181.408 419.841 181.156 419.002 180.82 418.078C180.233 416.148 179.31 413.547 178.135 410.862C177.044 408.093 175.701 405.408 174.191 403.058C172.932 401.128 171.673 399.618 170.415 398.863L161.94 415.645L161.1 417.407L160.429 415.645L153.464 397.184L147.422 408.345L146.164 410.778L145.912 408.009H146.164C145.912 408.009 145.912 408.009 145.912 408.009C145.912 408.009 145.912 407.981 145.912 407.925C145.856 407.869 145.828 407.813 145.828 407.757C145.828 407.533 145.8 407.226 145.744 406.835C145.66 406.079 145.576 404.904 145.325 403.562C144.989 400.876 144.402 397.184 143.562 393.408C142.639 389.632 141.549 385.688 140.122 382.5C138.695 379.479 137.185 377.213 135.339 376.122C133.577 377.213 131.982 379.479 130.64 382.5C129.213 385.688 128.038 389.632 127.199 393.408C126.36 397.184 125.773 400.876 125.353 403.562C125.185 404.904 125.101 406.079 125.018 406.835C124.962 407.226 124.906 407.533 124.85 407.757C124.85 407.813 124.85 407.869 124.85 407.925C124.85 407.981 124.85 408.009 124.85 408.009C124.85 408.009 124.85 408.009 124.598 408.009H124.85L124.598 410.778L123.255 408.345L117.214 397.352L110.333 415.813L109.661 417.575L108.822 415.813L100.347 399.03C99.0882 399.869 97.7456 401.296 96.4869 403.31C95.0603 405.576 93.7177 408.345 92.6268 411.03C91.4521 413.715 90.529 416.316 89.9416 418.246C89.6059 419.17 89.3542 420.009 89.1864 420.512C89.0745 420.792 89.0185 421.016 89.0185 421.183C88.9626 421.239 88.9346 421.295 88.9346 421.351L88.4312 423.03L87.4242 421.603C84.1516 417.072 82.5572 411.282 81.802 406.667C81.3824 404.653 81.2146 402.89 81.1307 401.547L70.5575 421.519L69.8862 422.778L69.131 421.603C65.271 415.897 63.3409 410.778 62.4179 407.086C61.9983 405.408 61.7466 403.981 61.5788 402.974L48.9917 416.652L47.9848 417.827L47.5652 416.317C40.6004 386.276 43.1178 366.052 47.3974 353.381C49.5791 347.088 52.1804 342.557 54.2783 339.704C55.0055 338.697 55.6489 337.885 56.2083 337.27C51.0056 337.941 45.9708 339.284 41.1038 341.214L39.0899 342.053L40.0969 340.123C50.3343 318.977 68.0401 310.417 83.1446 307.061C90.7807 305.383 97.6617 305.047 102.696 305.047C105.214 305.131 107.228 305.215 108.654 305.383C109.158 305.439 109.577 305.466 109.913 305.466C109.493 301.438 106.892 297.411 104.123 294.306C102.696 292.628 101.186 291.285 100.095 290.362C99.5357 289.858 99.0882 289.467 98.7525 289.187C98.6407 289.076 98.5287 288.992 98.4169 288.936C98.3609 288.88 98.333 288.851 98.333 288.851L95.6477 286.838L98.9204 287.341C107.899 288.6 115.284 292.795 120.402 296.655C123.004 298.501 125.017 300.348 126.36 301.774C126.864 302.278 127.255 302.698 127.535 303.033L134.584 287.844L135.339 286.166L136.094 287.844L143.143 303.033C143.478 302.642 143.898 302.194 144.402 301.69C145.744 300.347 147.758 298.502 150.276 296.572C155.394 292.712 162.779 288.516 171.841 287.258L175.114 286.754L172.429 288.768C172.429 288.768 172.401 288.795 172.345 288.851C172.233 288.907 172.093 288.991 171.925 289.103C171.646 289.383 171.226 289.775 170.667 290.278C169.492 291.201 168.065 292.544 166.555 294.222C163.87 297.327 161.184 301.355 160.849 305.383C161.184 305.383 161.604 305.355 162.107 305.299C163.534 305.131 165.548 305.047 168.065 304.963C173.1 304.963 179.981 305.299 187.617 306.977C202.722 310.334 220.511 318.893 230.665 340.039L231.672 341.969L229.658 341.129C224.791 339.199 219.672 337.857 214.553 337.186C215.113 337.802 215.756 338.612 216.483 339.619C218.581 342.472 221.183 346.92 223.28 353.297C227.644 365.968 230.077 386.108 223.197 416.149L222.777 417.659Z" fill="#0F0901"/>
<path d="M135.339 315.537C117.718 315.537 103.452 325.943 103.452 338.698C103.452 351.453 117.801 367.983 135.339 367.983C152.961 367.983 167.227 351.453 167.227 338.698C167.227 325.943 152.961 315.537 135.339 315.537Z" fill="#47423D"/>
<path d="M135.34 314.697C126.361 314.697 118.221 317.383 112.347 321.663C106.389 325.942 102.613 331.984 102.613 338.697H104.292C104.292 332.655 107.648 327.117 113.27 323.005C118.893 318.977 126.697 316.376 135.34 316.376V314.697ZM102.613 338.697C102.613 345.326 106.306 352.878 112.263 358.752C118.137 364.542 126.277 368.822 135.34 368.822V367.143C126.864 367.143 119.06 363.115 113.438 357.493C107.732 351.871 104.292 344.823 104.292 338.697H102.613ZM135.34 368.822C144.402 368.822 152.626 364.542 158.5 358.752C164.374 352.878 168.066 345.326 168.066 338.697H166.388C166.388 344.739 162.947 351.871 157.325 357.493C151.619 363.115 143.899 367.143 135.34 367.143V368.822ZM168.066 338.697C168.066 331.984 164.374 325.942 158.416 321.663C152.458 317.383 144.318 314.697 135.34 314.697V316.376C143.983 316.376 151.787 318.977 157.409 323.005C163.031 327.117 166.388 332.655 166.388 338.697H168.066Z" fill="#0F0901"/>
<path d="M86.6684 246.56C95.4793 246.56 102.528 239.427 102.528 230.7C102.528 221.973 95.4793 214.84 86.6684 214.84C77.9414 214.84 70.8926 221.973 70.8926 230.7C70.8926 239.427 77.9414 246.56 86.6684 246.56Z" fill="#47423D"/>
<path d="M101.689 230.7C101.689 239.008 94.9761 245.721 86.6687 245.721V247.399C95.8992 247.399 103.368 239.931 103.368 230.7H101.689ZM86.6687 245.721C78.4451 245.721 71.732 239.008 71.732 230.7H70.0538C70.0538 239.931 77.5221 247.399 86.6687 247.399V245.721ZM71.732 230.7C71.732 222.393 78.4451 215.679 86.6687 215.679V214.001C77.5221 214.001 70.0538 221.47 70.0538 230.7H71.732ZM86.6687 215.679C94.9761 215.679 101.689 222.393 101.689 230.7H103.368C103.368 221.47 95.8992 214.001 86.6687 214.001V215.679Z" fill="#0F0901"/>
<path d="M86.1661 223.063C86.1661 222.056 86.4178 221.132 86.9213 220.293C87.5087 219.538 88.2639 218.867 89.1869 218.531C90.11 218.112 91.0331 218.027 92.04 218.195C92.9631 218.447 93.8022 218.867 94.5574 219.538C95.2288 220.294 95.6483 221.133 95.9 222.056C96.0679 223.063 95.984 224.069 95.5644 224.908C95.2288 225.831 94.5574 226.587 93.8022 227.174C92.9631 227.678 92.04 227.93 91.0331 227.93C89.6904 227.93 88.5157 227.426 87.5926 226.503C86.6696 225.58 86.1661 224.322 86.1661 223.063Z" fill="white"/>
<path fill-rule="evenodd" clip-rule="evenodd" d="M93.298 226.419C93.9693 226 94.4728 225.328 94.8085 224.657C95.1441 223.902 95.228 223.063 95.0602 222.224C94.8924 221.469 94.4728 220.713 93.9693 220.126C93.3819 219.622 92.6267 219.202 91.8715 219.034C91.0324 218.867 90.1932 218.951 89.5219 219.287C88.7667 219.622 88.0954 220.126 87.6758 220.797C87.1723 221.468 87.0045 222.224 87.0045 223.063C87.0045 224.154 87.424 225.16 88.1793 225.915C88.9345 226.671 89.9415 227.091 91.0324 227.091C91.8715 227.091 92.6267 226.923 93.298 226.419ZM85.3262 223.063C85.3262 221.888 85.6619 220.797 86.2493 219.873C86.9206 218.867 87.7597 218.196 88.8506 217.692C89.9415 217.272 91.0324 217.189 92.2072 217.44C93.298 217.608 94.305 218.196 95.1441 218.951C95.8994 219.79 96.4868 220.797 96.6546 221.971C96.9063 223.062 96.8224 224.237 96.3189 225.244C95.8993 226.335 95.1441 227.174 94.2211 227.845C93.298 228.433 92.2071 228.769 91.0324 228.769C89.5219 228.769 88.0115 228.181 87.0045 227.091C85.9136 226 85.3262 224.573 85.3262 223.063Z" fill="#0F0901"/>
<path d="M184.009 246.56C192.736 246.56 199.869 239.427 199.869 230.7C199.869 221.973 192.736 214.84 184.009 214.84C175.282 214.84 168.149 221.973 168.149 230.7C168.149 239.427 175.282 246.56 184.009 246.56Z" fill="#47423D"/>
<path d="M199.03 230.7C199.03 239.008 192.317 245.721 184.009 245.721V247.399C193.24 247.399 200.708 239.931 200.708 230.7H199.03ZM184.009 245.721C175.702 245.721 168.989 239.008 168.989 230.7H167.311C167.311 239.931 174.779 247.399 184.009 247.399V245.721ZM168.989 230.7C168.989 222.393 175.702 215.679 184.009 215.679V214.001C174.779 214.001 167.311 221.47 167.311 230.7H168.989ZM184.009 215.679C192.317 215.679 199.03 222.393 199.03 230.7H200.708C200.708 221.47 193.24 214.001 184.009 214.001V215.679Z" fill="#0F0901"/>
<path d="M184.597 223.063C184.597 222.056 184.345 221.132 183.758 220.293C183.255 219.538 182.499 218.867 181.576 218.531C180.653 218.112 179.646 218.027 178.723 218.195C177.8 218.447 176.877 218.867 176.206 219.538C175.535 220.294 175.031 221.133 174.863 222.056C174.695 223.063 174.779 224.069 175.115 224.908C175.535 225.831 176.122 226.587 176.961 227.174C177.716 227.678 178.723 227.93 179.646 227.93C180.989 227.93 182.248 227.426 183.171 226.503C184.094 225.58 184.597 224.322 184.597 223.063Z" fill="white"/>
<path fill-rule="evenodd" clip-rule="evenodd" d="M176.457 227.845C175.534 227.174 174.779 226.335 174.359 225.244C173.94 224.237 173.772 223.063 174.024 221.888C174.275 220.797 174.779 219.79 175.618 218.951C176.373 218.196 177.464 217.608 178.555 217.44C179.646 217.189 180.821 217.272 181.911 217.692C182.918 218.196 183.841 218.867 184.429 219.873C185.1 220.797 185.436 221.888 185.436 223.063C185.436 224.573 184.848 226 183.758 227.091C182.667 228.181 181.24 228.769 179.646 228.769C178.555 228.769 177.464 228.433 176.457 227.845ZM183.086 220.797C182.583 220.126 181.995 219.622 181.24 219.287C180.485 218.951 179.646 218.867 178.891 219.034C178.135 219.202 177.38 219.622 176.793 220.126C176.205 220.713 175.87 221.469 175.702 222.224C175.534 223.063 175.618 223.902 175.954 224.573C176.205 225.328 176.709 226 177.38 226.419C178.051 226.923 178.891 227.091 179.646 227.091C180.737 227.091 181.828 226.671 182.583 225.915C183.338 225.16 183.758 224.154 183.758 223.063C183.758 222.224 183.506 221.468 183.086 220.797Z" fill="#0F0901"/>
<path d="M112.263 213.832C112.263 213.832 107.144 189.497 78.6976 185.385C50.3348 181.357 24.3215 191.931 3.67877 213.832C3.67877 213.832 28.2655 205.692 38.5869 205.692C38.5869 205.692 3.67877 214.587 3.67877 245.467C3.67877 245.467 33.4681 215.342 52.8522 215.006C52.8522 215.006 43.7895 223.565 43.7895 231.621C43.7895 231.621 72.2362 205.693 112.263 213.832Z" fill="#FFF3ED"/>
<path fill-rule="evenodd" clip-rule="evenodd" d="M113.102 213.666L113.353 214.84L112.095 214.589C92.2911 210.645 75.3406 215.008 63.3409 220.463C57.3831 223.148 52.6 226.169 49.3273 228.435C47.733 229.525 46.4743 230.532 45.6352 231.204C45.1876 231.539 44.852 231.819 44.6282 232.043C44.5163 232.099 44.4324 232.155 44.3764 232.211C44.3764 232.211 44.3764 232.239 44.3764 232.295C44.3764 232.295 44.3765 232.294 43.7891 231.623V232.462H42.9499V231.623C42.9499 227.344 45.2995 222.98 47.6491 219.792C48.74 218.197 49.8308 216.939 50.67 216.015C46.5582 216.519 42.0269 218.197 37.3277 220.631C31.8733 223.484 26.4189 227.26 21.468 231.036C16.601 234.812 12.3214 238.505 9.21662 241.358C7.70618 242.784 6.44748 243.959 5.60835 244.714C5.16081 245.162 4.82514 245.497 4.60137 245.721C4.48949 245.833 4.40558 245.917 4.34964 245.973C4.34964 246.029 4.34964 246.056 4.34964 246.056C4.34964 246.056 4.32166 246.056 4.26572 246.056C4.26572 246.056 4.26571 246.056 3.67832 245.469L4.26572 246.056L2.83918 247.483V245.469C2.83918 229.609 11.818 219.456 20.7128 213.33C24.5728 210.561 28.5168 208.631 31.7055 207.288C27.2581 208.043 22.1393 209.302 17.5241 210.561C13.8319 211.568 10.3914 212.575 7.95792 213.33C6.69921 213.75 5.69225 214.002 5.02094 214.254C4.68529 214.366 4.43355 214.449 4.26572 214.505C4.15384 214.561 4.06991 214.589 4.01397 214.589C4.01397 214.589 4.01397 214.589 3.67832 213.834L4.01397 214.589L0.825256 215.596L3.09094 213.247C23.9015 191.177 50.1665 180.436 78.865 184.548C93.2981 186.646 101.857 193.862 106.808 200.659C109.326 204.016 110.836 207.205 111.843 209.638C112.263 210.813 112.598 211.82 112.766 212.491C112.878 212.827 112.962 213.106 113.018 213.33C113.074 213.442 113.102 213.526 113.102 213.582C113.102 213.582 113.102 213.61 113.102 213.666C113.102 213.666 113.102 213.666 112.263 213.834L113.102 213.666ZM48.4043 227.008C51.677 224.742 56.5439 221.722 62.6696 218.952C74.6693 213.498 91.452 209.05 111.172 212.743C110.92 212.071 110.668 211.232 110.249 210.225C109.326 207.959 107.815 204.855 105.466 201.667C100.766 195.205 92.5429 188.24 78.6132 186.226C51.593 182.366 26.7546 191.932 6.61529 211.988C6.89501 211.932 7.17472 211.848 7.45443 211.736C9.97184 210.981 13.3284 209.973 17.1045 208.966C24.4889 206.952 33.2998 204.855 38.5864 204.855H45.2995L38.8381 206.533C38.7822 206.533 38.7542 206.533 38.7542 206.533C38.6983 206.533 38.5864 206.561 38.4186 206.617C38.1948 206.673 37.8592 206.785 37.4116 206.953C36.4047 207.205 35.062 207.708 33.4677 208.38C30.2789 209.638 25.9154 211.736 21.6358 214.673C13.4962 220.379 5.35659 229.525 4.60137 243.371C5.44051 242.532 6.61531 241.442 8.12576 240.099C11.2306 237.246 15.5101 233.469 20.545 229.693C25.412 225.917 31.0342 222.057 36.5725 219.204C42.1947 216.267 47.8169 214.253 52.8517 214.169V215.008C53.4391 215.596 53.4391 215.596 53.4391 215.596L55.0335 214.086L52.8517 214.169V215.008L53.4391 215.596C53.3832 215.652 53.3552 215.68 53.3552 215.68C53.2993 215.735 53.1874 215.82 53.0196 215.932C52.7958 216.212 52.4601 216.575 52.0126 217.023C51.2574 217.946 50.0826 219.204 48.9917 220.799C47.1456 223.4 45.3834 226.505 44.796 229.693C45.6352 229.022 46.8939 228.099 48.4043 227.008Z" fill="#6B3B22"/>
<path d="M158.416 213.832C158.416 213.832 163.619 189.497 191.982 185.385C220.428 181.357 246.274 191.931 267 213.832C267 213.832 242.414 205.692 232.092 205.692C232.092 205.692 267 214.587 267 245.467C267 245.467 237.211 215.342 217.827 215.006C217.827 215.006 226.89 223.565 226.89 231.621C226.974 231.621 198.527 205.693 158.416 213.832Z" fill="#FFF3ED"/>
<path fill-rule="evenodd" clip-rule="evenodd" d="M157.324 214.84L157.66 213.666L158.415 213.834C157.66 213.666 157.66 213.666 157.66 213.666C157.66 213.61 157.66 213.582 157.66 213.582C157.66 213.526 157.688 213.442 157.744 213.33C157.744 213.106 157.8 212.827 157.912 212.491C158.163 211.82 158.415 210.813 158.919 209.638C159.842 207.205 161.436 204.016 163.87 200.659C168.904 193.862 177.464 186.646 191.897 184.548C220.595 180.436 246.776 191.177 267.587 213.247L269.852 215.596L266.748 214.589L266.999 213.834C266.748 214.589 266.748 214.589 266.748 214.589C266.692 214.589 266.664 214.589 266.664 214.589C266.608 214.589 266.524 214.561 266.412 214.505C266.244 214.449 265.992 214.366 265.657 214.254C264.986 214.002 263.979 213.75 262.72 213.33C260.286 212.575 256.846 211.568 253.154 210.561C248.538 209.302 243.42 208.043 238.972 207.288C242.161 208.631 246.105 210.561 249.965 213.33C258.86 219.456 267.839 229.609 267.839 245.469V247.483L266.412 246.056L266.999 245.469C266.412 246.056 266.412 246.056 266.412 246.056C266.412 246.056 266.384 246.056 266.328 246.056C266.328 246.056 266.328 246.029 266.328 245.973C266.272 245.917 266.188 245.833 266.076 245.721C265.853 245.497 265.517 245.162 265.069 244.714C264.23 243.959 262.972 242.784 261.461 241.358C258.356 238.505 254.077 234.812 249.21 231.036C244.259 227.26 238.804 223.484 233.35 220.631C228.651 218.197 224.12 216.519 220.008 216.015C220.847 216.939 221.938 218.197 223.029 219.792C225.378 222.98 227.728 227.344 227.728 231.623H227.56C227.476 231.959 227.308 232.294 226.889 232.462H226.05V232.043C226.161 232.099 226.245 232.155 226.301 232.211C226.301 232.211 226.273 232.183 226.217 232.127C226.217 232.127 226.217 231.875 226.301 231.623H226.05V232.043C226.05 232.043 226.05 232.015 226.05 231.959C225.826 231.791 225.518 231.539 225.127 231.204C224.287 230.532 223.029 229.525 221.35 228.435C218.162 226.169 213.379 223.148 207.337 220.463C195.337 215.008 178.471 210.645 158.583 214.589L157.324 214.84ZM234.105 219.204C239.644 222.057 245.266 225.917 250.217 229.693C255.168 233.469 259.447 237.246 262.552 240.099C264.062 241.442 265.237 242.532 266.076 243.371C265.321 229.525 257.265 220.379 249.042 214.673C244.762 211.736 240.399 209.638 237.21 208.38C235.616 207.708 234.273 207.205 233.35 206.953C232.847 206.785 232.483 206.673 232.259 206.617C232.091 206.561 231.979 206.533 231.924 206.533C231.868 206.533 231.84 206.533 231.84 206.533L225.378 204.855H232.091C237.378 204.855 246.189 206.952 253.573 208.966C257.349 209.973 260.706 210.981 263.223 211.736C263.503 211.792 263.783 211.876 264.062 211.988C243.923 191.849 219.169 182.366 192.148 186.226C178.219 188.24 169.995 195.205 165.296 201.582C162.863 204.855 161.352 207.959 160.513 210.225C160.093 211.232 159.758 212.071 159.59 212.743C179.31 209.05 196.092 213.498 208.092 218.952C214.134 221.722 219.001 224.742 222.357 227.008C223.868 228.099 225.043 229.022 225.882 229.693C225.294 226.505 223.532 223.316 221.686 220.799C220.595 219.204 219.504 217.946 218.665 217.023C218.218 216.575 217.882 216.212 217.658 215.932C217.546 215.82 217.462 215.735 217.406 215.68C217.351 215.68 217.323 215.652 217.323 215.596L217.826 215.008L217.91 214.169L215.728 214.086L217.239 215.596C217.323 215.596 217.323 215.596 217.826 215.008L217.91 214.169C222.945 214.253 228.567 216.267 234.105 219.204ZM217.323 215.596C217.267 215.596 217.239 215.596 217.239 215.596H217.323Z" fill="#0F0901"/>
</svg>
