<svg width="303" height="247" viewBox="0 0 303 247" fill="none" xmlns="http://www.w3.org/2000/svg">
<path d="M296.282 165.054C287.487 148.899 286.601 134.484 286.601 134.484C288.83 110.632 304.833 94.7518 301.626 73.6182C298.42 52.5152 267.086 47.3845 250.533 39.8107C233.981 32.2062 230.896 12.4164 194.829 3.19342C159.586 -5.81583 128.282 11.3475 113.196 23.8078C94.3222 39.4747 99.4224 47.0791 101.224 73.7709C102.812 97.5614 99.3307 107.64 99.3307 107.64C99.3307 107.64 75.4792 115.305 62.1943 123.887C48.9095 132.499 52.0246 162.062 52.0246 162.062C52.0246 162.062 52.8186 180.538 59.9649 186.28C68.0885 192.815 76.7924 190.83 76.7924 190.83C82.8698 208.39 87.5424 214.743 119.609 218.53C151.676 222.347 162.273 220.209 175.864 199.564C196.173 168.75 193.913 175.316 207.625 165.848C221.337 156.412 223.078 147.25 223.078 147.25C217.978 183.256 220.268 185.699 240.761 201.519C261.222 217.308 259.451 223.508 269.285 218.56C288.25 209.001 305.047 181.241 296.282 165.054Z" fill="#7F4629"/>
<path d="M296.955 165.299C292.404 156.717 289.137 147.494 287.671 137.874C286.418 129.628 289.992 120.802 292.893 113.228C298.665 98.111 309.781 77.3134 297.046 62.5932C287.213 51.1713 271.057 47.2316 257.467 42.2537C250.748 39.7799 245.19 36.787 240.029 31.809C235.661 27.564 231.63 22.9525 227.049 18.9518C199.563 -5.05252 159.067 -4.10579 128.375 12.6606C116.556 19.1045 101.5 28.9078 98.9346 43.1088C97.4076 51.5072 99.4537 60.6692 100.187 69.0676C101.042 78.9625 101.317 89.0101 100.217 98.905C100.065 100.157 99.7286 106.815 98.4459 107.242C92.7655 109.105 87.1767 111.213 81.649 113.442C74.2278 116.465 65.6156 119.703 59.5076 125.017C54.2853 129.598 52.5446 137.446 51.6284 144.043C50.3762 153.052 50.8343 162.733 52.6056 171.681C53.7356 177.484 55.7512 183.989 60.943 187.409C65.6767 190.555 71.693 192.54 77.404 191.318C76.9764 191.095 76.5489 190.86 76.1213 190.616C79.9082 201.458 84.7335 209.673 95.8195 214.01C104.248 217.308 113.594 218.316 122.542 219.324C130.635 220.27 138.881 221.034 147.035 220.331C160.564 219.11 169.298 210.895 176.536 199.992C183.133 190.066 189.485 177.698 200.082 171.407C209.122 166.032 221.491 158.794 223.781 147.585C223.313 147.362 222.845 147.127 222.376 146.883C220.727 158.641 216.818 174.583 223.445 185.546C226.011 189.853 229.798 193.181 233.615 196.327C240.639 202.099 247.847 207.505 254.382 213.887C256.978 216.422 259.849 219.995 263.636 220.667C268.675 221.553 274.783 216.331 278.295 213.551C290.144 204.145 301.261 187.532 299.093 171.742C298.787 169.483 297.993 167.314 296.955 165.299C296.771 164.902 295.336 164.321 295.611 164.84C302.727 178.706 293.076 195.686 283.884 206.069C279.089 211.505 272.92 216.728 265.987 219.232C260.948 221.064 257.314 215.75 254.138 212.635C248.305 206.985 241.891 202.068 235.539 197.029C231.386 193.701 227.141 190.127 224.453 185.424C221.979 181.118 221.491 176.079 221.46 171.223C221.43 163.313 222.682 155.373 223.781 147.585C223.842 147.158 222.499 146.394 222.376 146.883C221.338 152.044 217.093 156.686 213.459 160.198C208.939 164.566 203.503 167.65 198.158 170.857C195.074 172.72 192.539 175.071 190.188 177.82C184.599 184.417 179.957 191.929 175.192 199.137C171.314 205 166.947 210.65 160.991 214.529C155.525 218.071 149.05 219.232 142.668 219.537C133.048 219.965 123.244 218.652 113.716 217.338C105.378 216.147 96.3387 214.651 89.1924 209.948C82.7179 205.703 79.9082 198.068 77.4651 191.074C77.3124 190.647 76.6099 190.28 76.1824 190.372C73.0673 191.013 69.6774 190.494 66.654 189.578C60.1184 187.623 57.0339 182.828 55.1099 176.782C53.6135 172.017 53.1554 167.1 52.6973 162.153C51.5673 150.273 51.8422 132.865 62.1035 124.864C69.1582 119.367 78.6256 116.068 86.8408 112.831C90.0169 111.579 93.2541 110.419 96.4608 109.289C96.9189 109.136 99.8507 108.525 100.034 108.036C101.103 104.86 101.439 101.348 101.775 98.0194C102.844 87.7274 102.294 77.3134 101.347 67.052C100.584 58.7146 98.7513 49.797 100.828 41.5207C102.844 33.4582 109.776 27.3808 116.067 22.4944C129.016 12.3857 144.592 5.36156 160.747 2.46027C181.423 -1.26559 204.297 3.19323 221.521 15.4397C231.325 22.4028 237.982 33.5498 248.671 39.2302C258.749 44.6052 270.263 47.0484 280.646 51.8126C286.846 54.6528 292.862 58.3481 297.016 63.8453C301.505 69.8006 301.841 77.5882 300.925 84.704C299.825 93.0414 296.161 100.921 293.015 108.647C289.839 116.435 287.151 124.314 286.083 132.652C285.594 136.164 286.663 139.951 287.457 143.371C289.167 150.853 292.007 158.061 295.611 164.84C295.794 165.207 297.23 165.787 296.955 165.299Z" fill="#3F1D0F"/>
<path d="M296.282 165.054C287.487 148.899 286.601 134.484 286.601 134.484C288.83 110.632 304.833 94.7518 301.626 73.6182C298.42 52.5152 267.086 47.3845 250.533 39.8107C233.981 32.2062 230.896 12.4164 194.829 3.19342C159.586 -5.81583 128.282 11.3475 113.196 23.8078C94.3222 39.4747 99.4224 47.0791 101.224 73.7709C102.812 97.5614 99.3307 107.64 99.3307 107.64C99.3307 107.64 75.4792 115.305 62.1943 123.887C48.9095 132.499 52.0246 162.062 52.0246 162.062C52.0246 162.062 52.8186 180.538 59.9649 186.28C68.0885 192.815 76.7924 190.83 76.7924 190.83C82.8698 208.39 87.5424 214.743 119.609 218.53C151.676 222.347 162.273 220.209 175.864 199.564C196.173 168.75 193.913 175.316 207.625 165.848C221.337 156.412 223.078 147.25 223.078 147.25C217.978 183.256 220.268 185.699 240.761 201.519C261.222 217.308 259.451 223.508 269.285 218.56C288.25 209.001 305.047 181.241 296.282 165.054Z" fill="#7F4629"/>
<path d="M297.046 165.115C292.495 156.534 289.228 147.28 287.762 137.66C286.571 129.842 289.838 121.413 292.526 114.175C298.481 98.1414 310.086 77.4049 296.71 61.8906C286.693 50.316 269.255 46.7734 255.603 41.5206C249.434 39.169 244.456 35.9013 239.753 31.2897C235.203 26.8004 231.019 22.0362 226.102 17.9438C198.524 -5.05264 158.517 -3.6478 128.313 12.8742C116.494 19.3487 101.408 29.0909 98.8424 43.3224C97.3154 51.7209 99.3616 60.8828 100.095 69.2813C100.95 79.1762 101.224 89.2238 100.125 99.1187C99.8807 101.318 99.5143 103.486 99.0562 105.654C98.9035 106.326 98.4148 107.456 98.6897 107.364C93.5895 109.014 88.581 110.876 83.603 112.862C75.7848 115.946 67.7223 119.367 60.7592 124.161C54.7734 128.284 52.7273 136.622 51.6584 143.31C50.3146 152.105 50.7116 161.45 52.2081 170.215C53.3991 177.24 55.5369 183.989 61.6754 188.051C66.0121 190.891 72.2117 192.235 77.3118 191.166C76.8843 191.044 76.4567 190.921 76.0291 190.799C77.8921 196.174 79.9077 201.549 83.5419 206.008C86.9319 210.161 91.9404 212.757 96.9489 214.406C105.531 217.247 114.631 218.346 123.58 219.323C131.551 220.178 139.674 220.911 147.676 220.056C160.93 218.682 169.512 210.467 176.627 199.778C183.193 189.883 189.546 177.484 200.112 171.193C209.183 165.818 221.582 158.58 223.872 147.372C223.343 147.29 222.814 147.199 222.284 147.097C220.605 159.129 216.787 174.888 223.536 186.096C226.254 190.555 230.469 194.006 234.5 197.213C241.433 202.801 248.365 208.207 254.748 214.468C257.344 217.033 259.97 220.148 263.818 220.545C268.674 221.064 274.08 216.605 277.622 213.918C289.808 204.603 301.382 187.562 299.184 171.529C298.878 169.269 298.084 167.131 297.046 165.115C296.832 164.657 295.305 164.657 295.488 165.024C302.635 178.919 292.984 195.899 283.822 206.283C279.027 211.719 272.644 217.308 265.62 219.568C260.948 221.064 256.611 214.773 253.71 211.994C247.724 206.222 241.097 201.335 234.683 196.144C230.835 192.998 227.049 189.608 224.544 185.241C222.101 180.935 221.582 175.865 221.551 171.009C221.521 163.1 222.773 155.159 223.872 147.372C223.933 146.913 222.376 146.669 222.284 147.097C221.246 152.288 217.031 156.9 213.397 160.412C208.877 164.779 203.441 167.864 198.127 171.07C187.866 177.24 181.483 189.7 175.131 199.35C171.252 205.214 166.855 210.894 160.93 214.742C155.28 218.407 148.561 219.507 141.934 219.72C131.825 220.056 121.533 218.652 111.577 217.125C103.515 215.872 94.7195 214.162 88.1229 209.001C82.4425 204.573 79.8772 197.457 77.5867 190.891C77.434 190.494 76.5789 190.463 76.2735 190.524C72.5171 191.318 68.4858 190.402 65.0348 188.936C59.8125 186.737 57.2472 182.584 55.5064 177.484C53.7962 172.506 53.3075 167.284 52.7883 162.092C51.6584 150.426 52.0248 134.362 60.9425 125.658C64.027 122.665 68.6385 120.741 72.456 118.878C76.8537 116.71 81.3736 114.816 85.924 113.014C89.2223 111.701 92.5512 110.479 95.9106 109.288C96.9184 108.952 99.331 108.647 100.095 107.853C101.652 106.204 101.56 100.615 101.805 98.5995C102.935 88.5213 102.446 78.26 101.56 68.1513C100.827 59.8445 99.0562 51.1101 100.553 42.7727C102.08 34.4353 108.737 28.2052 115.059 23.1051C127.886 12.7826 143.492 5.57522 159.647 2.46016C180.659 -1.5711 203.777 2.97934 221.277 15.409C231.355 22.5859 238.134 34.0383 249.282 39.6271C260.001 45.0021 271.973 47.4758 282.692 52.8814C288.342 55.6911 293.686 59.4169 297.351 64.6392C301.444 70.5029 301.718 78.0462 300.833 84.9177C299.794 92.858 296.404 100.371 293.381 107.731C290.052 115.885 287.12 124.1 285.99 132.865C285.563 136.133 286.479 139.584 287.151 142.73C288.861 150.517 291.762 157.999 295.488 165.024C295.733 165.451 297.26 165.482 297.046 165.115Z" fill="#3F1D0F"/>
<g style="mix-blend-mode:multiply" opacity="0.5">
<path fill-rule="evenodd" clip-rule="evenodd" d="M269.285 218.56C259.451 223.508 261.222 217.308 240.761 201.519C220.268 185.699 217.978 183.256 223.078 147.25C223.078 147.25 221.337 156.412 207.625 165.848C193.913 175.316 196.173 168.75 175.864 199.564C162.273 220.209 151.676 222.347 119.609 218.53C87.5424 214.743 82.8698 208.39 76.7924 190.83C76.7924 190.83 68.0885 192.815 59.9649 186.28C52.8186 180.538 52.0246 162.062 52.0246 162.062C52.0246 162.062 48.9095 132.499 62.1943 123.887C75.4792 115.305 99.3307 107.64 99.3307 107.64C99.3307 107.64 102.812 97.5614 101.224 73.7709C99.4224 47.0791 94.3222 39.4747 113.196 23.8078C128.282 11.3475 159.586 -5.81583 194.829 3.19342C230.896 12.4164 233.981 32.2062 250.533 39.8107C267.086 47.3845 298.42 52.5152 301.626 73.6182C304.833 94.7518 288.83 110.632 286.601 134.484C286.601 134.484 287.487 148.899 296.282 165.054C305.047 181.241 288.25 209.001 269.285 218.56ZM122.755 46.224C130.604 51.5074 131.367 63.2958 129.687 61.3107C127.977 59.3561 123.885 59.4172 127.916 64.3036C131.947 69.2205 132.589 73.7098 134.085 70.6559C134.085 70.6559 142.575 54.1338 148.714 40.6963C154.822 27.2588 158.334 24.327 156.99 37.8256C155.646 51.3242 149.569 73.0991 150.729 91.5451C151.89 109.991 170.824 124.834 170.824 124.834C172.443 121.413 176.719 120.191 176.719 120.191C176.719 120.191 168.962 117.076 165.358 106.876C165.358 106.876 159.433 90.2624 171.893 75.3895C184.964 59.8142 204.449 76.7028 204.449 76.7028C201.425 59.1729 234.5 44.3916 234.5 44.3916C225.124 52.0266 212.328 75.4812 227.69 86.7504C243.021 98.0501 236.18 99.8825 238.104 117.137C243.021 161.42 282.264 179.378 280.615 157.786C279.332 140.928 279.913 129.659 290.479 106.449C307.307 69.5564 292.953 58.9897 276.645 53.0344C260.337 47.0791 253.099 47.4456 220.207 20.0514C187.285 -7.34282 147.797 2.85748 121.533 21.7616C104.981 33.6722 101.53 39.8717 101.377 49.278C101.255 58.7148 102.14 55.9968 104.095 51.3547C106.05 46.7432 112.157 39.1082 122.755 46.224ZM210.343 122.604C187.56 112.098 175.1 127.582 175.1 127.582C160.93 149.998 233.095 133.11 210.343 122.604Z" fill="#7D5039"/>
</g>
<path d="M229.401 48.6367C229.401 48.6367 228.088 50.011 225.98 52.6069C224.911 53.859 223.659 55.4471 222.316 57.3406C220.972 59.2035 219.567 61.4024 218.193 63.8761C216.818 66.3498 215.566 69.1595 214.925 72.2745C214.711 73.038 214.65 73.8321 214.62 74.6566C214.497 75.4507 214.65 76.2447 214.711 77.0388L214.772 77.619L214.925 78.2603L215.261 79.5125C215.505 80.337 215.78 81.1311 216.116 81.9251C217.46 85.1318 219.536 88.1247 221.735 91.1176C223.934 94.141 226.286 97.3172 227.66 101.043C228.362 102.875 228.759 104.799 228.912 106.815L228.973 109.655C228.973 110.602 229.034 111.549 228.912 112.495C228.759 114.389 228.668 116.282 228.485 118.115C228.261 119.947 228.037 121.749 227.813 123.52C226.805 130.606 225.522 137.172 224.545 142.791C223.537 148.38 222.621 153.052 222.132 156.351C221.613 159.649 221.308 161.512 221.308 161.512C221.308 161.512 221.491 159.618 221.827 156.32C221.98 154.64 222.255 152.655 222.56 150.334C222.835 148.044 223.201 145.448 223.629 142.638C224.056 139.798 224.514 136.744 225.003 133.507C225.461 130.3 225.919 126.88 226.408 123.337C226.612 121.586 226.825 119.805 227.049 117.993C227.202 116.16 227.294 114.358 227.416 112.495C227.507 111.61 227.477 110.663 227.446 109.716L227.355 106.876C227.202 105.135 226.805 103.272 226.133 101.593C224.911 98.1112 222.682 95.0572 220.544 92.0033C218.345 88.9798 216.208 85.8648 214.833 82.4443C214.497 81.5892 214.192 80.7035 213.948 79.8484L213.642 78.5657L213.49 77.9549L213.429 77.222C213.337 76.3363 213.215 75.4201 213.367 74.565C213.459 73.6794 213.52 72.8243 213.764 72.0302C214.558 68.7625 215.933 65.9223 217.399 63.418C220.361 58.4705 223.507 54.8668 225.736 52.3931C227.996 49.9194 229.401 48.6367 229.401 48.6367Z" fill="#3F1D0F"/>
<path d="M13.2393 163.069C12.6591 159.71 17.2706 140.683 40.7557 127.246C64.2408 113.839 65.493 104.921 77.8616 72.5795C86.1379 50.9878 94.4447 41.5205 100.217 40.7875C101.805 35.2293 105.5 30.1902 113.196 23.8074C106.63 20.2037 89.8943 15.2868 82.2288 35.9011C74.5633 56.5155 63.8438 76.1526 53.8878 92.6136C43.9319 109.105 7.25353 128.62 3.64983 142.119C0.0461345 155.617 1.57313 168.963 9.87996 169.269C16.4766 169.513 22.4929 169.116 27.8068 168.413C19.3778 167.192 13.8196 166.428 13.2393 163.069Z" fill="#7F4629"/>
<path d="M13.9114 163.467C13.4838 159.955 15.3468 155.985 16.7821 152.9C19.9583 146.059 24.9973 140.195 30.6472 135.248C36.9384 129.751 44.6344 126.269 51.3227 121.352C55.7509 118.115 59.599 114.237 62.714 109.717C70.7765 98.0505 74.4413 83.2998 79.6331 70.2593C82.5649 62.8381 86.1075 55.4475 90.8717 49.0036C93.2844 45.7664 96.5827 41.9794 100.797 41.3075C100.858 41.2872 100.889 41.2465 100.889 41.1854C103.057 34.1002 108.34 28.9389 113.838 24.2969C114.113 24.0525 113.318 23.5028 113.196 23.4418C103.729 18.3721 92.5209 18.7386 85.6189 27.7479C82.5649 31.718 81.1295 36.696 79.3277 41.277C76.8234 47.5682 73.9832 53.7372 71.0208 59.8452C65.6458 70.9006 59.599 81.6201 53.2467 92.1563C49.307 98.6613 43.1685 103.792 37.3965 108.617C30.6777 114.267 23.6231 119.52 16.9043 125.2C11.9568 129.384 6.33752 134.026 3.55839 140.043C0.382254 146.945 -0.198002 157.878 3.13084 164.811C4.35243 167.376 6.64292 169.147 9.42204 169.727C15.2857 170.919 22.4931 169.697 28.3873 168.933C28.8454 168.872 27.6238 167.895 27.3489 167.865C24.4476 167.437 14.9497 167.254 13.9114 163.345C13.7892 162.948 12.4455 162.215 12.5982 162.795C14.0946 168.353 23.9284 168.323 28.2651 168.964C27.9393 168.597 27.6034 168.241 27.2573 167.895C21.3326 168.628 15.4078 168.903 9.42204 168.72C2.36734 168.506 2.3368 157.909 2.55058 153.022C2.9476 144.471 5.4824 138.394 11.346 132.408C23.1039 120.406 37.9768 111.855 49.5208 99.5775C56.2396 92.4007 60.6678 82.9028 65.3099 74.3516C71.5095 63.0214 77.0677 51.3246 81.7709 39.3225C84.7943 31.5653 88.3064 23.9915 97.0102 21.6399C102.355 20.174 108.402 21.6094 113.196 24.1747C112.972 23.8897 112.759 23.6046 112.555 23.3196C108.951 26.3736 105.561 29.5803 102.843 33.4283C101.225 35.7188 100.706 39.75 98.0486 40.6662C93.1622 42.3459 89.6501 47.7209 86.9932 51.8132C77.0677 67.2358 73.3419 85.6819 65.2794 102.051C62.6835 107.335 59.3546 112.099 55.1096 116.191C49.0933 121.933 41.6415 125.323 34.9228 130.026C27.2573 135.431 20.6607 142.119 16.2324 150.426C14.4306 153.786 12.0485 158.703 12.5676 162.673C12.6287 163.161 13.9725 163.833 13.9114 163.467Z" fill="#3F1D0F"/>
<path d="M99.3316 107.64C99.3316 107.64 102.813 97.5616 101.225 73.7711C100.156 57.9515 97.9268 48.8506 100.217 40.7881C94.4453 41.521 86.1385 50.9884 77.8622 72.58C65.4935 104.922 64.2414 113.839 40.7563 127.246C17.2712 140.684 12.6596 159.71 13.2399 163.07C13.8202 166.429 19.3784 167.192 27.8074 168.414C42.6803 166.459 52.0255 162.062 52.0255 162.062C52.0255 162.062 48.9104 132.499 62.1952 123.887C75.4801 115.305 99.3316 107.64 99.3316 107.64Z" fill="#60321E"/>
<path d="M100.126 107.762C102.508 100.738 102.416 92.5529 102.416 85.2844C102.416 76.4584 101.53 67.6935 100.645 58.9286C100.064 52.9427 99.4536 46.8042 101.011 40.9101C101.133 40.452 99.9117 40.4214 99.698 40.4825C95.0559 41.2155 91.6049 45.491 88.9785 49.0031C83.2065 56.7908 79.5111 66.0749 76.0907 75.0841C70.6546 89.3462 66.3485 105.563 54.9877 116.466C48.6659 122.512 40.7256 126.147 33.6098 131.155C26.1581 136.408 19.8364 143.402 15.6829 151.556C14.0949 154.671 11.102 160.535 12.8733 164.138C13.8506 166.093 16.9045 166.734 18.7369 167.192C22.9209 168.292 27.1048 168.933 31.3499 168.292C38.5267 167.192 46.0395 165.421 52.6667 162.336C52.7481 162.296 52.799 162.245 52.8194 162.184C51.6588 150.823 52.1169 136.011 59.7824 126.88C62.4699 123.673 66.7455 121.749 70.4103 119.886C74.808 117.626 79.3585 115.672 83.9394 113.809C89.1617 111.671 94.4757 109.686 99.8812 107.945C100.675 107.701 99.2093 107.212 98.8123 107.334C85.8634 111.488 71.9984 116.404 60.7597 124.162C54.7739 128.284 52.7277 136.622 51.6588 143.341C50.7732 149.143 50.7121 155.129 51.1397 160.993C51.2313 162.245 51.1702 161.909 49.7654 162.459C46.0395 163.986 42.161 165.115 38.2519 166.062C32.8769 167.406 12.5068 170.796 14.217 160.535C15.347 153.663 19.4699 147.25 23.8065 141.966C30.8001 133.476 40.237 128.773 49.1546 122.726C62.1645 113.87 67.906 101.165 73.3116 86.8725C77.5261 75.7865 81.313 64.4868 87.3293 54.1949C90.1695 49.4001 94.6589 42.0706 100.736 41.0933C100.309 40.9508 99.871 40.8083 99.4231 40.6657C97.9572 46.1935 98.4458 51.9044 98.965 57.5237C99.759 66.2581 100.675 74.962 100.828 83.7574C100.95 91.3924 101.042 100.127 98.5375 107.517C98.4153 107.884 99.9728 108.25 100.126 107.762Z" fill="#3F1D0F"/>
<g style="mix-blend-mode:multiply" opacity="0.5">
<path d="M99.3316 107.639C99.3316 107.639 102.813 97.5606 101.225 73.7701C100.156 57.9505 97.9268 48.8496 100.217 40.7871C94.4453 41.5201 86.1385 50.9874 77.8622 72.5791C65.4935 104.921 64.2414 113.838 40.7563 127.245C17.2712 140.683 12.6596 159.709 13.2399 163.069C13.8202 166.428 19.3784 167.191 27.8074 168.413C42.6803 166.458 52.0255 162.061 52.0255 162.061C52.0255 162.061 48.9104 132.498 62.1952 123.886C75.4801 115.304 99.3316 107.639 99.3316 107.639Z" fill="#7F4629"/>
</g>
<path d="M103.301 202.069C112.157 204.299 118.174 203.596 122.144 202.039C118.907 198.954 116.983 194.74 115.639 189.975C111.608 175.652 96.7653 175.286 95.1773 170.857C95.1773 170.857 94.0168 171.682 89.9244 172.018C85.8626 172.384 84.5189 175.896 82.7476 184.356C82.2895 186.616 81.4038 188.082 80.4571 189.059C83.8776 193.243 90.5658 198.893 103.301 202.069Z" fill="#490000"/>
<path d="M183.408 160.534C179.682 171.742 165.358 172.017 161.449 185.76C157.54 199.503 157.357 206.436 140.774 207.321C131.765 207.779 126.023 205.703 122.145 202.038C118.174 203.595 112.158 204.298 103.302 202.068C90.5665 198.892 83.8783 193.242 80.4578 189.058C78.717 190.799 76.793 190.83 76.793 190.83C82.8705 208.39 87.543 214.742 119.61 218.529C151.677 222.347 162.274 220.209 175.864 199.564C188.416 180.538 192.325 175.774 196.753 172.658C192.6 175.224 181.484 171.467 183.408 160.534Z" fill="#F7E8DA"/>
<path d="M182.735 160.077C180.384 166.521 174.52 169.636 169.328 173.545C163.495 177.943 161.266 183.379 159.433 190.22C157.876 195.961 156.257 201.855 150.546 204.696C142.514 208.727 129.199 207.902 122.511 201.916C122.297 201.703 121.869 201.428 121.564 201.519C114.234 204.237 106.202 202.68 98.9645 200.42C92.0931 198.282 85.5576 194.617 80.9461 189.059C80.7323 188.815 80.0909 188.326 79.7855 188.601C78.7472 189.487 77.6783 190.22 76.304 190.311C76.1513 190.342 76.0597 190.433 76.1208 190.586C79.6634 200.725 84.0916 208.941 94.2919 213.43C101.866 216.728 110.417 217.858 118.51 218.866C126.817 219.935 135.246 220.821 143.644 220.546C156.318 220.149 165.694 214.682 173.268 204.665C178.643 197.58 183.132 189.853 188.416 182.676C191.012 179.195 193.76 175.713 197.333 173.178C197.761 172.873 196.539 171.957 196.142 172.171C193.546 173.545 190.401 172.873 187.988 171.407C184.293 169.178 183.529 164.811 184.079 160.901C184.14 160.443 182.766 159.68 182.705 160.169C182.033 165.024 183.59 169.117 187.622 171.926C190.279 173.789 194.371 174.767 197.333 173.178C196.946 172.832 196.549 172.496 196.142 172.171C193.333 174.156 191.042 176.721 188.904 179.409C183.713 185.914 179.254 193.029 174.642 199.931C167.618 210.498 159.006 217.95 146.026 219.294C138.788 220.057 131.367 219.324 124.16 218.591C114.784 217.614 105.164 216.514 96.216 213.399C90.2912 211.323 85.5576 207.841 82.2898 202.436C80.885 200.084 79.8161 197.488 78.8388 194.892C78.5334 194.129 77.2202 191.38 77.831 191.289C79.1747 191.105 80.152 190.342 81.1293 189.487C80.7424 189.344 80.3556 189.202 79.9688 189.059C87.3594 197.977 99.3005 202.497 110.539 203.84C113.288 204.146 116.22 204.146 118.938 203.596C119.457 203.505 122.144 202.497 122.511 202.802C123.305 203.535 124.282 204.207 125.229 204.726C131.184 208.055 138.056 208.269 144.713 207.536C149.264 207.017 153.661 205.551 156.532 201.825C159.464 198.038 160.35 192.663 161.571 188.143C163.526 180.966 167.465 176.66 173.451 172.446C177.879 169.33 182.124 166.276 184.048 160.993C184.232 160.504 182.857 159.741 182.735 160.077Z" fill="#AF9C8B"/>
<path d="M203.411 94.7517C203.166 99.8519 201.212 105.502 198.341 109.686C197.058 111.488 195.745 113.015 194.249 114.297C193.943 114.542 193.628 114.796 193.302 115.061C191.134 116.71 188.69 117.901 185.728 118.573C183.346 118.848 181.055 118.542 178.582 117.748C172.474 115.702 170.275 109.228 168.901 103.272C168.901 103.242 168.901 103.211 168.87 103.181C167.893 97.9584 168.565 92.7361 169.969 87.697C172.474 78.7488 180.2 69.4953 190.675 72.1828C199.685 74.5038 203.808 86.6892 203.411 94.7517Z" fill="white"/>
<path d="M202.891 94.599C202.005 102.387 199.165 109.869 192.782 114.877C184.415 121.443 172.962 115.091 170.091 105.929C168.87 102.051 168.9 97.9889 169.236 93.9576C169.786 87.4221 172.626 81.3142 177.054 76.5194C184.14 68.8539 196.386 73.8014 200.57 82.4441C202.372 86.1394 202.861 90.5372 202.891 94.599C202.891 94.9655 203.96 95.1487 203.96 94.8738C203.929 86.5975 200.417 73.6487 190.584 71.9384C178.337 69.8006 171.343 79.7872 168.687 90.5983C165.999 101.379 169.175 115.458 180.933 118.603C194.401 122.176 202.769 105.41 203.96 94.8738C203.991 94.5379 202.922 94.3241 202.891 94.599Z" fill="#3F1D0F"/>
<g style="mix-blend-mode:multiply">
<path d="M200.418 96.9504C199.96 99.7601 199.258 102.539 198.005 105.135C195.226 110.907 190.126 113.472 183.866 114.725C175.65 116.374 169.451 105.96 168.443 97.5306C168.382 99.3936 168.535 101.287 168.87 103.181C168.901 103.211 168.901 103.242 168.901 103.272C170.275 109.227 172.474 115.702 178.582 117.748C181.056 118.542 183.346 118.847 185.728 118.573C188.691 117.901 191.134 116.71 193.302 115.061C193.628 114.796 193.944 114.541 194.249 114.297C195.746 113.014 197.059 111.487 198.341 109.685C201.212 105.502 203.167 99.8517 203.411 94.7515C203.594 91.2089 202.892 86.8723 201.273 82.9326C201.09 87.5747 201.121 92.3389 200.418 96.9504Z" fill="#D7D7D7"/>
</g>
<path d="M200.601 100.585C198.983 110.663 191.501 117.779 183.957 116.496C176.383 115.214 171.589 106.021 173.238 95.943C174.887 85.8954 182.339 78.7491 189.913 80.0317C197.456 81.3144 202.251 90.5069 200.601 100.585Z" fill="#60321E"/>
<path d="M199.838 101.592C198.219 109.197 192.294 114.388 186.583 113.136C180.842 111.915 177.513 104.738 179.132 97.1334C180.72 89.4984 186.645 84.3372 192.386 85.5283C198.097 86.7804 201.426 93.9572 199.838 101.592Z" fill="#7F543E"/>
<path d="M199.288 101.807C198.036 107.823 193.333 111.915 188.813 110.938C184.293 109.991 181.666 104.311 182.919 98.2641C184.171 92.2783 188.874 88.1554 193.394 89.1327C197.914 90.11 200.54 95.7904 199.288 101.807Z" fill="#231717"/>
<g style="mix-blend-mode:multiply">
<path d="M174.124 93.3164C173.849 94.2326 173.604 95.2099 173.452 96.1871C171.803 106.265 176.597 115.458 184.171 116.74C191.715 118.023 199.166 110.907 200.815 100.799C200.968 99.8825 201.029 98.9357 201.09 98.0501C191.959 102.112 179.773 101.348 174.124 93.3164Z" fill="#896852"/>
</g>
<path d="M189.577 95.2094C188.63 98.2329 186.004 100.126 183.744 99.3934C181.453 98.691 180.384 95.637 181.331 92.583C182.278 89.5596 184.904 87.6966 187.195 88.399C189.485 89.132 190.554 92.186 189.577 95.2094Z" fill="white"/>
<path d="M184.996 104.31C184.537 105.746 183.285 106.662 182.216 106.295C181.117 105.959 180.628 104.494 181.086 103.058C181.514 101.623 182.797 100.737 183.866 101.073C184.965 101.409 185.454 102.875 184.996 104.31Z" fill="white"/>
<path d="M175.742 123.154C175.742 123.154 177.086 121.841 179.499 120.375C180.72 119.611 182.156 118.848 183.805 118.206C184.629 117.87 185.515 117.595 186.401 117.29C187.317 117.107 188.233 116.801 189.18 116.679C190.127 116.527 191.043 116.374 191.989 116.343C192.936 116.282 193.852 116.282 194.738 116.374C195.196 116.404 195.654 116.435 196.082 116.466C196.479 116.557 196.906 116.618 197.303 116.71C198.097 116.863 198.861 117.015 199.533 117.29C200.205 117.534 200.815 117.718 201.335 117.962C201.823 118.206 202.281 118.451 202.648 118.634C203.381 119.031 203.778 119.275 203.778 119.275C203.778 119.275 203.32 119.153 202.526 118.909C202.129 118.787 201.671 118.664 201.151 118.481C200.602 118.359 199.991 118.237 199.319 118.115C198.647 117.962 197.914 117.901 197.151 117.809C196.754 117.779 196.357 117.748 195.929 117.687C195.532 117.687 195.135 117.687 194.707 117.687C194.28 117.687 193.852 117.657 193.394 117.687C192.967 117.718 192.539 117.748 192.081 117.779C191.195 117.809 190.31 117.992 189.424 118.145C188.508 118.237 187.653 118.512 186.798 118.695C185.943 118.97 185.087 119.153 184.263 119.428C183.469 119.703 182.675 119.947 181.942 120.283C181.239 120.558 180.506 120.833 179.896 121.108C178.613 121.688 177.575 122.176 176.872 122.543C176.17 122.909 175.742 123.154 175.742 123.154Z" fill="#3F1D0F"/>
<path d="M129.658 80.9777C129.261 85.2838 127.459 90.048 125.046 93.5296C124.008 95.026 122.908 96.3087 121.687 97.4081C121.442 97.6219 121.168 97.8357 120.923 98.0494C119.183 99.4237 117.197 100.401 114.876 100.981C113.013 101.165 111.273 100.92 109.379 100.187C104.707 98.477 103.271 93.0104 102.477 88.0019C102.477 87.9713 102.477 87.9408 102.477 87.9102C101.928 83.543 102.691 79.1148 104.004 74.9003C106.325 67.418 112.708 59.6609 120.74 61.9514C127.642 63.9365 130.299 74.2284 129.658 80.9777Z" fill="white"/>
<path d="M129.138 80.8863C128.436 85.62 127.092 89.2848 124.588 93.3771C120.953 99.2713 112.891 103.669 106.569 97.8665C101.744 93.4077 102.538 83.4517 103.79 77.5575C105.225 70.7471 109.318 64.2421 115.792 62.0433C126.512 58.409 129.535 73.7706 129.138 80.8863C129.107 81.2528 130.146 81.3444 130.176 81.0696C130.604 72.3657 127.642 63.0816 118.938 61.3714C110.356 59.6917 104.798 70.1363 102.782 77.3743C100.583 85.2841 101.652 99.6378 111.181 100.982C121.961 102.478 128.619 91.1172 130.176 81.0696C130.207 80.7642 129.199 80.5809 129.138 80.8863Z" fill="#3F1D0F"/>
<g style="mix-blend-mode:multiply">
<path d="M127.214 82.8106C126.756 85.1927 126.054 87.5137 124.985 89.7126C122.603 94.5379 118.51 96.6756 113.624 97.714C107.18 99.0577 102.813 90.2623 102.355 83.177C102.233 84.7651 102.263 86.3532 102.477 87.9107C102.477 87.9412 102.477 87.9718 102.477 88.0023C103.271 93.0109 104.706 98.4775 109.379 100.188C111.272 100.921 113.013 101.165 114.876 100.982C117.197 100.401 119.182 99.4242 120.923 98.0499C121.167 97.8362 121.442 97.6224 121.686 97.4086C122.908 96.3092 124.007 95.0265 125.046 93.53C127.458 90.0485 129.26 85.2843 129.657 80.9782C129.932 78.0158 129.596 74.3816 128.497 71.0527C128.13 74.9313 127.978 78.9625 127.214 82.8106Z" fill="#D7D7D7"/>
</g>
<path d="M127.244 86.0483C125.29 94.4773 119.06 100.249 113.288 98.9972C107.485 97.745 104.37 89.8963 106.294 81.4673C108.249 73.0383 114.479 67.2358 120.251 68.5184C126.053 69.7706 129.168 77.6193 127.244 86.0483Z" fill="#60321E"/>
<path d="M126.603 87.0252C125.107 93.4691 120.343 97.8974 115.914 96.9201C111.517 95.9734 109.135 89.9571 110.6 83.5437C112.066 77.0998 116.861 72.6715 121.259 73.6488C125.687 74.6261 128.069 80.6119 126.603 87.0252Z" fill="#7F543E"/>
<path d="M126.176 87.0861C125.015 92.1557 121.228 95.6373 117.747 94.9043C114.265 94.1408 112.402 89.3766 113.532 84.307C114.693 79.2679 118.48 75.7558 121.961 76.5193C125.443 77.2828 127.336 82.0165 126.176 87.0861Z" fill="#231717"/>
<g style="mix-blend-mode:multiply">
<path d="M106.722 79.7266C106.509 80.5206 106.325 81.3146 106.173 82.1392C104.707 90.6598 108.28 98.2642 114.144 99.1804C120.007 100.036 125.901 93.8665 127.367 85.3764C127.489 84.5824 127.581 83.7884 127.612 83.0249C120.465 86.6591 110.998 86.3537 106.722 79.7266Z" fill="#896852"/>
</g>
<path d="M118.602 81.7115C117.9 84.3379 115.884 86.0482 114.113 85.5901C112.311 85.132 111.425 82.6582 112.128 80.0318C112.83 77.4359 114.815 75.6952 116.617 76.1838C118.388 76.6114 119.274 79.1156 118.602 81.7115Z" fill="white"/>
<path d="M115.181 89.6517C114.845 90.8733 113.898 91.6979 113.074 91.4841C112.219 91.2704 111.791 90.0793 112.097 88.8577C112.432 87.6056 113.41 86.781 114.234 87.0253C115.089 87.2086 115.517 88.3996 115.181 89.6517Z" fill="white"/>
<path d="M98.751 96.1262C98.751 96.1262 99.0259 96.0041 99.5451 95.9124C100.064 95.8208 100.797 95.7292 101.683 95.7903C102.141 95.8514 102.63 95.8514 103.118 96.0041C103.627 96.0855 104.146 96.2178 104.676 96.4011C105.225 96.5538 105.745 96.7981 106.294 97.0119C106.783 97.2867 107.333 97.5616 107.852 97.867C108.341 98.2335 108.86 98.5389 109.287 98.9053C109.745 99.3024 110.203 99.6688 110.6 100.066C110.997 100.432 111.364 100.86 111.7 101.226C112.026 101.634 112.321 102.02 112.586 102.387C113.166 103.089 113.471 103.792 113.777 104.219C114.021 104.708 114.174 104.952 114.174 104.952C114.174 104.952 113.929 104.738 113.532 104.403C113.166 104.067 112.677 103.547 112.005 102.967C111.7 102.692 111.333 102.387 110.998 102.051C110.6 101.746 110.203 101.41 109.806 101.074C109.409 100.707 108.921 100.432 108.493 100.066C108.066 99.7299 107.577 99.4551 107.119 99.1497C106.63 98.8443 106.172 98.5694 105.684 98.2945C105.195 98.0808 104.737 97.7754 104.218 97.5921C103.729 97.4089 103.301 97.1951 102.843 97.0424C102.385 96.8592 101.958 96.7676 101.53 96.6149C99.9116 96.1873 98.751 96.1262 98.751 96.1262Z" fill="#3F1D0F"/>
<path d="M82.7476 184.355C84.5189 175.896 85.8627 172.384 89.9245 172.017C94.0168 171.681 95.1773 170.857 95.1773 170.857C96.7654 175.285 111.608 175.651 115.639 189.975C118.571 200.389 124.16 208.176 140.773 207.321C157.356 206.436 157.54 199.503 161.449 185.76C165.358 172.017 179.681 171.742 183.407 160.534C187.102 149.326 175.802 142.485 157.143 116.007C142.758 95.576 145.202 88.0632 146.27 77.9545C147.37 67.8458 156.776 33.3969 155.493 32.9694C154.211 32.5723 142.85 58.4701 135.49 74.6867C128.16 90.9034 125.564 96.2479 118.052 99.3018C110.539 102.356 99.3307 107.639 99.3307 107.639C99.3307 107.639 75.4792 115.305 62.1943 123.886C48.9095 132.499 52.0246 162.061 52.0246 162.061C52.0246 162.061 52.8186 180.538 59.9649 186.279C68.0885 192.815 76.7924 190.83 76.7924 190.83C76.7924 190.83 81.4039 190.769 82.7476 184.355Z" fill="#D58E4D"/>
<path d="M83.4497 184.752C84.2437 181.026 84.7934 176.262 87.7558 173.575C89.8325 171.681 93.3751 172.842 95.7572 171.406C95.35 171.121 94.9428 170.846 94.5356 170.582C96.2764 174.46 102.629 175.957 105.958 177.942C110.813 180.843 113.684 185.241 115.242 190.616C116.188 193.792 117.532 197.09 119.609 199.747C123.976 205.275 130.176 207.474 137.078 207.901C143.735 208.298 152.134 207.504 156.501 201.855C161.021 196.021 160.624 187.654 164.197 181.332C168.014 174.613 175.863 171.895 180.933 166.367C189.82 156.717 180.902 146.058 174.58 138.148C167.587 129.384 160.502 120.649 154.424 111.212C149.996 104.31 146.27 96.706 146.117 88.3686C145.843 76.1527 149.782 63.5703 152.531 51.7819C153.844 46.1931 155.401 40.5738 156.196 34.8934C156.409 33.3053 155.34 31.4424 154.058 33.3359C150.271 38.8025 147.828 45.5518 145.079 51.5681C141.017 60.3941 137.108 69.2812 133.077 78.1378C130.145 84.5817 127.244 92.2166 121.411 96.6449C118.509 98.8438 114.692 99.9126 111.394 101.348C107.607 103.028 103.85 104.738 100.094 106.479C96.368 108.219 92.3062 109.319 88.4582 110.754C79.846 113.961 71.2948 117.565 63.385 122.268C51.2302 129.475 50.4972 146.486 51.1386 159.129C51.6272 168.139 52.3907 180.08 59.5981 186.401C66.042 192.021 80.6095 195.686 83.4497 184.752C83.5413 184.325 82.2281 183.47 82.0754 183.958C80.2125 191.196 73.8602 191.379 67.6301 189.852C56.5136 187.134 54.1315 175.865 53.0015 166.062C51.7799 155.739 51.8715 144.684 55.3225 134.82C58.3459 126.116 65.5228 122.42 73.4021 118.634C80.8538 115.03 88.6109 112.067 96.4291 109.349C100.552 107.914 104.4 106.082 108.401 104.28C114.478 101.501 121.502 99.7294 125.961 94.4766C131.458 87.9716 134.451 78.9623 137.872 71.3274C141.72 62.7762 145.537 54.2251 149.507 45.735C150.912 42.7421 152.347 39.7492 153.874 36.8174C154.333 35.9623 154.821 35.1072 155.34 34.2826C155.89 33.3969 155.004 32.2059 154.913 33.4885C154.577 38.7414 152.806 44.1469 151.615 49.2471C148.774 61.4019 145.232 73.7706 144.774 86.2919C144.529 92.7358 146.637 98.7521 149.477 104.402C154.394 114.144 161.509 122.909 168.259 131.399C174.672 139.523 187.102 150.273 182.063 161.786C179.436 167.772 172.656 170.796 167.862 174.705C161.784 179.713 160.593 186.493 158.455 193.609C156.684 199.656 153.783 203.962 147.492 205.764C138.024 208.451 125.472 207.321 119.731 198.495C117.624 195.258 116.83 191.563 115.516 187.989C114.509 185.241 112.707 182.859 110.661 180.752C108.676 178.766 106.232 177.27 103.789 175.926C101.529 174.735 96.9483 173.605 95.8488 171.162C95.7267 170.857 94.9937 170.093 94.6273 170.337C92.123 171.834 88.8858 170.887 86.4731 172.597C83.3886 174.766 82.7778 180.69 82.0754 183.958C81.9838 184.386 83.3275 185.21 83.4497 184.752Z" fill="#AF9C8B"/>
<g style="mix-blend-mode:multiply">
<path fill-rule="evenodd" clip-rule="evenodd" d="M161.449 185.76C157.54 199.503 157.356 206.436 140.773 207.321C124.16 208.176 118.571 200.389 115.639 189.975C111.608 175.651 96.7654 175.285 95.1773 170.857C95.1773 170.857 94.0168 171.681 89.9245 172.017C85.8627 172.384 84.5189 175.896 82.7476 184.355C81.4039 190.769 76.7924 190.83 76.7924 190.83C76.7924 190.83 68.0885 192.815 59.9649 186.279C52.8186 180.538 52.0246 162.061 52.0246 162.061C52.0246 162.061 48.9095 132.499 62.1943 123.886C75.4792 115.305 99.3307 107.639 99.3307 107.639C99.3307 107.639 110.539 102.356 118.052 99.3018C125.564 96.2479 128.16 90.9034 135.49 74.6867C142.85 58.4701 154.211 32.5723 155.493 32.9694C156.776 33.3969 147.37 67.8458 146.27 77.9545C145.202 88.0632 142.758 95.576 157.143 116.007C175.802 142.485 187.102 149.326 183.407 160.534C179.681 171.742 165.358 172.017 161.449 185.76ZM161.479 129.475C146.179 111.609 139.582 109.349 142.728 81.0085C145.873 52.6675 142.85 65.2499 133.26 85.7727C123.64 106.326 113.654 104.707 88.9167 113.594C58.9266 124.344 52.33 129.536 53.9486 161.053C55.0175 182.156 79.1439 185.485 80.4571 176.384C81.7704 167.283 89.7718 168.658 89.0999 162.855C88.428 157.053 84.1525 158.763 73.9827 146.7C63.8435 134.667 66.928 121.107 88.7029 121.138C110.508 121.199 123.946 127.398 123.06 139.034C122.205 150.639 115.456 154.182 103.515 157.877C96.46 160.046 94.4444 166.978 109.287 172.2C124.129 177.423 116.769 193.456 136.009 195.716C155.219 197.976 152.653 170.704 162.579 165.359C179.834 156.014 176.749 147.31 161.479 129.475Z" fill="#E2D3C7"/>
</g>
<path d="M73.1583 135.156C72.6697 127.185 83.6335 121.108 101.438 125.567C119.212 130.026 122.908 137.172 118.357 144.715C113.837 152.258 101.438 158.305 92.5511 157.084C83.6335 155.832 73.5859 141.783 73.1583 135.156Z" fill="#3A2928"/>
<path d="M73.9531 135.278C73.7088 125.414 86.6882 124.009 93.8651 124.559C101.622 125.169 119.427 128.681 119.335 139.309C119.305 143.341 116.159 146.853 113.38 149.387C108.555 153.755 101.836 156.473 95.3921 156.87C85.6193 157.511 74.9304 144.471 73.9531 135.278C73.9226 134.759 72.3345 134.637 72.3651 135.003C73.3118 144.012 83.2678 156.412 92.7046 157.419C102.996 158.519 120.007 151.525 120.923 139.584C121.778 128.651 102.325 124.986 94.9951 124.009C87.3296 123.001 72.0902 124.131 72.3651 135.003C72.3956 135.522 73.9837 135.675 73.9531 135.278Z" fill="#332220"/>
<path d="M94.4753 157.236C94.4753 157.236 94.628 158.275 94.7502 159.802C94.8418 161.329 94.9639 163.344 95.1166 165.39C95.1472 166.368 95.2693 167.376 95.3609 168.292C95.4526 168.719 95.4831 169.208 95.5747 169.605C95.6969 170.002 95.7274 170.399 95.8801 170.735C96.0023 171.071 96.0634 171.407 96.2161 171.651C96.3688 171.895 96.4298 172.201 96.6131 172.323C96.8879 172.689 97.0712 172.873 97.0712 172.873C97.0712 172.873 96.8269 172.781 96.3993 172.567C96.155 172.476 95.9717 172.262 95.7274 172.018C95.4526 171.804 95.2693 171.468 95.025 171.132C94.7807 170.796 94.628 170.368 94.4448 169.941C94.231 169.513 94.1394 169.055 93.9867 168.567C93.7423 167.589 93.5896 166.551 93.498 165.482C93.4369 164.444 93.4369 163.405 93.498 162.428C93.5591 161.451 93.6813 160.535 93.834 159.771C94.1088 158.214 94.4753 157.236 94.4753 157.236Z" fill="#AF9C8B"/>
<g style="mix-blend-mode:screen" opacity="0.3">
<path d="M81.2209 134.698C88.4283 137.233 87.3899 140.409 92.826 142.303C99.4226 144.593 101.072 139.34 108.249 140.531C113.807 141.447 119.884 140.318 120.068 138.21C120.037 138.088 120.068 137.966 120.037 137.874C120.037 137.834 120.027 137.793 120.006 137.752C119.151 132.927 113.593 128.59 101.438 125.567C88.6726 122.36 79.419 124.59 75.4183 129.048C75.1434 129.598 74.1967 132.255 81.2209 134.698Z" fill="#473731"/>
</g>
<path d="M103.729 152.716C103.729 152.716 100.706 147.769 101.133 144.562C101.53 141.325 109.654 141.508 111.15 143.738C112.036 145.081 108.188 145.6 106.63 146.883C105.103 148.166 103.454 149.937 103.729 152.716Z" fill="#231717"/>
<path d="M84.9471 148.868C84.9471 148.868 87.146 143.615 85.7412 139.981C84.2447 136.011 77.8619 135.369 76.9152 137.874C76.3349 139.401 79.8165 140.256 81.4045 141.874C82.9926 143.462 84.7334 145.661 84.9471 148.868Z" fill="#231717"/>
<g style="mix-blend-mode:screen">
<path d="M77.3419 129.475C77.3419 129.475 86.0152 121.016 104.278 127.582C104.278 127.582 89.344 124.803 77.3419 129.475Z" fill="#483431"/>
</g>
<path d="M171.314 63.7229C171.314 63.7229 175.498 51.8735 186.461 53.3699C197.395 54.8664 198.189 69.556 198.189 69.556C198.189 69.556 195.745 61.0965 185.667 60.0276C175.559 58.9587 171.314 63.7229 171.314 63.7229Z" fill="#33201A"/>
<path d="M171.985 64.1812C173.787 59.2337 177.879 55.0192 183.132 53.9503C192.233 52.0874 197.058 61.5242 197.516 69.1591C197.964 69.3831 198.412 69.6071 198.86 69.831C197.486 65.4027 193.302 61.5547 188.904 60.2721C183.407 58.6534 174.978 58.6229 170.672 63.2344C170.397 63.5398 171.649 64.5476 171.985 64.1812C178.673 57.0043 194.646 59.814 197.547 69.2508C197.639 69.5562 198.891 70.4113 198.86 69.9226C198.463 63.2955 195.318 56.424 189.026 53.6144C181.3 50.1939 173.298 56.027 170.672 63.2344C170.489 63.7231 171.863 64.5171 171.985 64.1812Z" fill="#231713"/>
<path d="M127.55 57.2181C127.55 57.2181 124.954 45.8267 115.67 45.3381C106.417 44.8189 104.89 56.5156 104.89 56.5156C104.89 56.5156 109.257 49.7053 115.579 50.8352C121.87 51.9652 127.55 57.2181 127.55 57.2181Z" fill="#33201A"/>
<path d="M128.314 57.2787C126.787 50.8958 122.206 45.6735 115.518 45.0016C108.982 44.3298 104.92 50.621 104.096 56.3625C104.035 56.79 105.439 57.0343 105.653 56.7289C106.966 54.7133 108.829 53.0947 110.906 51.9342C116.006 49.1551 123 53.7666 126.817 57.2481C127.153 57.5535 128.68 57.5535 128.253 57.187C121.229 50.8042 110.387 46.834 104.157 56.2708C104.666 56.393 105.175 56.5152 105.684 56.6373C106.264 52.545 108.31 48.3305 112.097 46.3759C119.274 42.6501 125.321 51.1707 126.756 57.1565C126.848 57.6146 128.436 57.7673 128.314 57.2787Z" fill="#231713"/>
<path d="M291.977 113.411C291.977 113.411 291.641 114.327 291.122 115.976C290.572 117.595 289.9 119.947 289.137 122.756C288.74 124.161 288.343 125.719 287.976 127.337C287.579 128.956 287.274 130.697 286.877 132.499C286.541 134.27 286.205 136.133 285.899 138.026C285.655 139.92 285.319 141.844 285.166 143.768L284.83 146.669C284.769 147.616 284.708 148.593 284.647 149.54C284.586 150.497 284.535 151.443 284.495 152.38C284.474 153.317 284.454 154.243 284.433 155.159C284.433 156.075 284.423 156.971 284.403 157.847C284.444 158.722 284.474 159.577 284.495 160.412C284.525 162.092 284.586 163.649 284.769 165.115C284.892 166.581 285.044 167.894 285.136 169.085C285.319 170.276 285.472 171.284 285.625 172.139C285.869 173.819 285.991 174.796 285.991 174.796C285.991 174.796 285.747 173.849 285.319 172.2C285.105 171.376 284.831 170.337 284.556 169.177C284.311 168.016 284.098 166.673 283.884 165.207C283.609 163.771 283.456 162.183 283.334 160.473C283.253 159.638 283.171 158.773 283.09 157.877C283.029 156.991 283.059 156.075 283.029 155.159C283.008 154.243 282.998 153.306 282.998 152.349C282.998 151.403 283.059 150.425 283.12 149.479C283.151 148.501 283.181 147.524 283.273 146.547L283.548 143.584C283.731 141.63 284.098 139.706 284.372 137.782C284.678 135.858 285.136 133.995 285.502 132.193C285.93 130.391 286.327 128.651 286.846 127.062C287.304 125.413 287.793 123.886 288.251 122.512C289.167 119.702 290.144 117.442 290.816 115.854C291.519 114.266 291.977 113.411 291.977 113.411Z" fill="#3F1D0F"/>
<g style="mix-blend-mode:multiply">
<path fill-rule="evenodd" clip-rule="evenodd" d="M196.753 172.659C192.325 175.775 188.416 180.539 175.864 199.565C162.274 220.21 151.677 222.348 119.61 218.53C87.543 214.743 82.8705 208.391 76.793 190.831C76.793 190.831 78.717 190.8 80.4578 189.059C83.8783 193.243 90.5665 198.893 103.302 202.069C112.158 204.299 118.174 203.596 122.145 202.039C126.023 205.704 131.765 207.78 140.774 207.322C157.357 206.437 157.54 199.504 161.449 185.761C165.358 172.018 179.682 171.743 183.408 160.535C181.484 171.468 192.6 175.225 196.753 172.659ZM82.107 193.243C79.7249 189.762 78.5033 191.136 79.1141 193.365C80.2135 197.275 82.4124 203.657 86.3214 200.848C90.2305 198.038 84.6112 196.939 82.107 193.243ZM176.109 176.63C167.924 179.989 165.481 180.6 161.419 197.946C157.388 215.293 142.423 212.88 129.566 209.093C122.114 206.925 111.669 213.674 125.932 215.843C140.163 217.981 151.341 220.821 166 207.169C180.689 193.518 184.293 173.27 176.109 176.63Z" fill="#E2D3C7"/>
</g>
<path d="M115.64 189.974C114.571 186.157 112.708 183.317 110.54 181.148C104.706 184.019 90.5359 192.876 82.3818 213.307C75.8158 229.768 76.6709 241.648 89.3144 245.252C101.988 248.855 108.707 231.478 112.616 219.232C116.403 207.321 122.145 202.038 122.145 202.038C118.907 198.953 116.983 194.739 115.64 189.974Z" fill="#B55050"/>
<path d="M116.311 190.249C115.211 186.768 113.532 183.805 111.028 181.148C110.844 180.935 110.295 180.446 109.959 180.629C98.8727 186.187 90.3215 195.716 84.5801 206.588C79.7853 215.597 72.7306 232.761 81.8925 241.434C85.2519 244.641 90.0772 246.687 94.7498 246.137C100.278 245.496 104.095 240.273 106.66 235.876C112.829 225.309 113.562 211.169 122.816 202.496C122.938 202.404 122.724 202.129 122.663 202.038C119.365 198.709 117.594 194.677 116.311 190.249C116.189 189.822 114.814 189.119 114.967 189.699C115.975 193.089 117.227 196.204 119.182 199.136C119.426 199.503 121.258 201.793 121.381 201.671C121.014 202.038 120.648 202.435 120.312 202.832C116.158 207.626 113.593 213.673 111.669 219.629C108.584 229.249 102.476 248.122 89.0083 244.732C71.4785 240.365 81.1596 216.422 86.5041 206.344C91.9707 196.021 100.613 186.951 111.119 181.637C110.753 181.474 110.396 181.301 110.05 181.118C112.432 183.653 113.959 186.401 114.967 189.699C115.089 190.127 116.464 190.829 116.311 190.249Z" fill="#8E3333"/>
<path d="M112.922 189.639C112.922 189.639 112.219 190.158 111.12 191.135C110.57 191.654 109.929 192.265 109.226 193.029C108.554 193.792 107.791 194.678 106.997 195.655C106.59 196.144 106.182 196.653 105.775 197.182C105.368 197.752 104.961 198.332 104.554 198.923C103.698 200.083 102.966 201.427 102.08 202.771C101.347 204.145 100.492 205.519 99.7589 207.016C99.0259 208.512 98.2319 210.009 97.6211 211.566C96.9187 213.124 96.2468 214.651 95.6971 216.208C95.1168 217.796 94.4755 219.293 94.0174 220.82C93.5593 222.316 93.0096 223.752 92.582 225.156C92.185 226.561 91.8185 227.875 91.4826 229.096C90.7496 231.539 90.3221 233.647 89.925 235.082C89.5586 236.517 89.3448 237.342 89.3448 237.342C89.3448 237.342 89.4364 236.487 89.6196 235.021C89.7418 234.288 89.864 233.372 89.9861 232.364C90.1388 231.326 90.2915 230.165 90.5969 228.913C90.8718 227.661 91.1466 226.286 91.452 224.851C91.788 223.416 92.2155 221.919 92.6736 220.392C93.1012 218.835 93.6509 217.277 94.2312 215.689C94.7809 214.071 95.4527 212.482 96.1246 210.925C96.7965 209.337 97.6211 207.81 98.3846 206.313C99.1175 204.786 100.095 203.412 100.889 202.007C101.805 200.694 102.66 199.381 103.607 198.22C104.075 197.65 104.523 197.09 104.951 196.541C105.419 196.032 105.867 195.533 106.294 195.044C107.149 194.097 108.035 193.303 108.829 192.601C109.623 191.929 110.326 191.349 110.936 190.891C112.158 190.036 112.922 189.639 112.922 189.639Z" fill="#8E3333"/>
<g style="mix-blend-mode:multiply" opacity="0.5">
<path fill-rule="evenodd" clip-rule="evenodd" d="M112.616 219.234C108.707 231.48 101.988 248.857 89.3144 245.253C76.6709 241.65 75.8158 229.77 82.3818 213.309C90.5359 192.878 104.706 184.021 110.54 181.15C112.708 183.319 114.571 186.159 115.64 189.976C116.983 194.741 118.907 198.955 122.145 202.04C122.145 202.04 116.403 207.323 112.616 219.234ZM99.3314 209.614C94.1396 220.516 90.7192 230.289 90.7192 230.289C90.7192 230.289 96.1247 207.812 102.63 197.062C109.165 186.281 102.935 185.854 96.9188 192.756C83.6645 207.995 72.2121 236.366 88.0622 241.161C103.912 245.986 106.875 223.356 110.387 213.095C114.968 199.78 115.64 194.771 111.364 194.313C109.318 194.099 104.523 198.741 99.3314 209.614Z" fill="#B55050"/>
</g>
<g style="mix-blend-mode:screen" opacity="0.6">
<path d="M95.8498 195.595C95.8498 195.595 85.1608 207.23 82.1374 224.241C80.0302 236.243 87.9094 241.985 86.2297 234.075C85.0998 228.608 84.8554 214.468 95.8498 195.595Z" fill="#B55050"/>
</g>
<g style="mix-blend-mode:screen" opacity="0.6">
<path d="M85.3748 120.038C93.6511 119.214 111.944 117.717 142.332 137.385C153.509 144.592 159.342 144.837 148.073 122.604C136.773 100.371 126.268 105.807 103.821 111.09C81.3741 116.374 75.2967 121.016 85.3748 120.038Z" fill="white"/>
</g>
<g style="mix-blend-mode:screen" opacity="0.6">
<path d="M58.2866 137.69C53.7972 149.601 55.9656 168.719 65.0359 173.819C74.1062 178.95 80.9471 172.933 71.3882 167.253C61.8292 161.542 56.6374 149.662 58.2866 137.69Z" fill="#F7E8DA"/>
</g>
<g style="mix-blend-mode:screen" opacity="0.7">
<path d="M134.879 18.6163C134.879 18.6163 161.51 0.506148 188.873 8.08002C216.237 15.6234 230.53 33.2754 230.53 33.2754C230.53 33.2754 185.85 -5.2048 134.879 18.6163Z" fill="#FBFAFA"/>
</g>
<g style="mix-blend-mode:screen" opacity="0.7">
<path d="M254.504 48.332C254.504 48.332 283.853 55.57 290.724 66.8697C299.947 81.9869 291.64 92.9202 282.967 112.802C274.294 132.652 276.432 153.175 276.432 153.175C276.432 153.175 265.895 130.545 277.409 104.647C288.922 78.7497 295.488 61.4336 254.504 48.332Z" fill="#ECE5E2"/>
</g>
<g style="mix-blend-mode:multiply" opacity="0.5">
<path d="M296.282 165.056C287.486 148.9 286.601 134.485 286.601 134.485C286.601 134.485 280.92 161.116 286.906 176.355C286.906 176.355 286.509 169.27 288.525 162.551C290.571 155.833 306.726 175.531 276.828 203.902C270.018 210.346 266.719 210.896 248.854 191.473C230.988 172.019 233.003 170.217 233.309 140.196C233.645 110.206 239.233 104.312 223.902 90.4164C208.602 76.5208 222.192 57.0059 222.192 57.0059C222.192 57.0059 203.624 75.1465 213.091 90.9967C222.589 106.847 228.209 113.81 217.978 137.112C207.747 160.383 201.089 165.667 190.981 154.917C180.902 144.166 175.863 140.349 175.863 140.349C175.863 140.349 183.651 150.091 183.59 157.909C183.498 165.758 183.559 174.248 196.753 172.66C199.471 170.736 202.372 169.453 207.625 165.85C221.337 156.413 223.078 147.251 223.078 147.251C217.978 183.257 220.268 185.701 240.76 201.52C261.222 217.309 259.451 223.509 269.285 218.561C288.25 209.003 305.047 181.242 296.282 165.056Z" fill="#7F4629"/>
</g>
<g style="mix-blend-mode:multiply" opacity="0.5">
<path d="M170.794 61.8602C169.084 67.1436 169.328 66.9909 174.062 64.2118C178.765 61.4326 191.256 58.6535 196.967 69.8311C198.372 72.6102 201.853 66.9909 195.562 56.1798C191.5 49.2167 175.833 46.346 170.794 61.8602Z" fill="#7F4629"/>
</g>
<g style="mix-blend-mode:screen" opacity="0.6">
<path d="M123.916 176.507C137.109 183.47 146.302 177.942 149.997 168.017C153.723 158.061 157.998 179.256 142.881 189.517C127.794 199.778 111.15 169.788 123.916 176.507Z" fill="#F7E8DA"/>
</g>
<g style="mix-blend-mode:multiply" opacity="0.5">
<path d="M83.4819 32.9405C94.1403 16.052 105.929 27.3517 99.3015 31.2302C92.6744 35.0783 89.0096 34.1926 75.1751 64.9462C61.3405 95.6998 56.6679 112.466 35.1679 125.415C13.6373 138.364 16.2027 145.144 11.2247 156.413C6.27723 167.682 5.20834 146.579 9.57553 138.73C15.1643 128.683 22.7993 121.353 22.8298 121.353C13.393 128.927 5.26942 136.104 3.65081 142.12C0.047111 155.619 1.5741 168.965 9.88093 169.27C16.4775 169.515 22.4939 169.118 27.8078 168.415C19.3788 167.193 13.8206 166.43 13.2403 163.071C12.6601 159.711 17.2716 140.685 40.7567 127.247C64.2418 113.84 65.4939 104.923 77.8626 72.5812C86.1389 50.9895 94.4457 41.5222 100.218 40.7892C101.806 35.231 105.501 30.1919 113.197 23.8091C106.967 20.3886 91.5749 15.7771 83.4819 32.9405Z" fill="#7F4629"/>
</g>
<g style="mix-blend-mode:multiply" opacity="0.5">
<path d="M99.3313 107.639C99.3313 107.639 102.813 97.5606 101.225 73.7701C100.156 57.9505 97.9265 48.8496 100.217 40.7871C94.6282 41.5201 86.6267 50.4682 78.6253 70.6856C90.658 52.6366 97.2851 52.8503 95.8498 73.4342C94.0174 99.6373 82.5649 101.531 68.6693 111.09C54.8042 120.679 52.0251 122.237 48.849 140.377C45.6728 158.549 38.4044 166.458 38.4044 166.458C46.9555 164.443 52.0251 162.061 52.0251 162.061C52.0251 162.061 48.9101 132.498 62.1949 123.886C75.4797 115.304 99.3313 107.639 99.3313 107.639Z" fill="#7F4629"/>
</g>
<g style="mix-blend-mode:screen" opacity="0.7">
<path d="M10.0626 140.714C10.0626 140.714 14.5214 128.468 31.5931 116.038C48.6954 103.608 55.3531 95.4542 61.0641 84.582C61.0641 84.582 54.498 107.059 36.7544 117.168C19.0107 127.307 12.7806 135.187 10.0626 140.714Z" fill="#7F4629"/>
</g>
</svg>
