<svg width="233" height="231" viewBox="0 0 233 231" fill="none" xmlns="http://www.w3.org/2000/svg">
<path opacity="0.5" d="M198.57 39.6468H199.179V39.0377H198.57V39.6468ZM133.768 40.2558H198.57V39.0377H133.768V40.2558ZM197.961 39.6468V101.464H199.179V39.6468H197.961Z" fill="#42A2B5"/>
<path d="M215.014 23.7503H215.623V23.1412H215.014V23.7503ZM133.768 24.3593H215.014V23.1412H133.768V24.3593ZM214.405 23.7503V101.464H215.623V23.7503H214.405Z" fill="#0E879E"/>
<path opacity="0.5" d="M34.8608 185.694H34.2518V186.303H34.8608V185.694ZM99.6625 185.085H34.8608V186.303H99.6625V185.085ZM35.4698 185.694V123.877H34.2518V185.694H35.4698Z" fill="#42A2B5"/>
<path d="M16.0405 203.905H15.4315V204.514H16.0405V203.905ZM99.6614 203.296H16.0405V204.514H99.6614V203.296ZM16.6495 203.905V123.877H15.4315V203.905H16.6495Z" fill="#0E879E"/>
<path d="M54.2884 103.29C82.9132 103.29 106.057 80.6336 106.057 52.6178C106.057 24.602 82.9132 1.94568 54.2884 1.94568C25.7245 1.94568 2.58105 24.602 2.58105 52.6178C2.58105 80.6336 25.7245 103.29 54.2884 103.29ZM54.2884 96.2861C78.9545 96.2861 98.931 76.7358 98.931 52.6178C98.931 28.4999 78.9545 8.94963 54.2884 8.94963C29.6832 8.94963 9.70678 28.4999 9.70678 52.6178C9.70678 76.7358 29.6832 96.2861 54.2884 96.2861Z" fill="#00DD80"/>
<path d="M54.5926 1.9469C55.161 4.26125 55.5671 6.5959 55.8107 8.95085C64.0327 9.19446 72.0112 11.7527 78.8934 16.1987C85.7755 20.6446 91.2568 26.8568 94.7284 34.1653C98.2608 41.4738 99.6006 49.6349 98.6262 57.6133C97.7126 65.6526 94.4847 73.2654 89.3688 79.5994C84.3138 85.9943 77.4926 90.8057 69.7578 93.6073C62.023 96.4089 53.6792 97.0791 45.5789 95.4957C37.4787 93.9121 30.0485 90.1356 23.9581 84.6543C17.9286 79.1729 13.5434 72.1691 11.3508 64.3734C9.03649 64.6982 6.70184 64.8605 4.34689 64.8605C4.26568 64.8605 4.18454 64.8605 4.10333 64.8605C6.41768 74.057 11.3509 82.4619 18.294 89.0395C25.2979 95.6171 34.0072 100.185 43.4473 102.195C52.9483 104.144 62.7538 103.535 71.8894 100.307C81.025 97.0788 89.0033 91.4151 94.9719 83.9239C101.001 76.4936 104.717 67.5405 105.752 58.1004C106.787 48.6603 105.143 39.0983 100.88 30.5717C96.6772 22.0452 90.0997 14.7975 81.9385 9.74248C73.7165 4.68746 64.2763 2.0078 54.5926 1.9469ZM54.2881 96.2873C65.9816 96.2264 77.1271 91.7194 85.41 83.6801C93.693 75.6407 98.3825 64.7391 98.6262 53.35C98.8089 41.961 94.4238 30.9374 86.4454 22.5936C78.4061 14.3106 67.4433 9.43808 55.8107 8.95085C55.9731 10.6968 56.0746 12.443 56.1152 14.1889C56.1152 26.4306 51.5474 38.2455 43.3254 47.5029C35.1034 56.6994 23.7143 62.729 11.3508 64.3734C13.9697 73.5699 19.5729 81.6703 27.3686 87.4562C35.1034 93.1812 44.5435 96.2873 54.2881 96.2873Z" fill="#00A962"/>
<path d="M70.3678 29.902H38.2715C36.8098 29.902 35.4699 30.4501 34.4345 31.4246C33.4601 32.399 32.9119 33.7387 32.9119 35.1395C32.9119 36.5403 33.4601 37.8805 34.4345 38.855C35.4699 39.8294 36.8098 40.3776 38.2715 40.3776H48.9297V77.1025C48.9297 78.5033 49.5386 79.782 50.5131 80.8174C51.5485 81.7919 52.8883 82.34 54.2891 82.34C55.7508 82.34 57.0908 81.7919 58.0653 80.8174C59.1006 79.782 59.6487 78.5033 59.6487 77.1025V40.3776H70.3678C71.7686 40.3776 73.1694 39.8294 74.1438 38.855C75.1792 37.8805 75.7274 36.5403 75.7274 35.1395C75.7274 33.7387 75.1792 32.399 74.1438 31.4246C73.1694 30.4501 71.7686 29.902 70.3678 29.902Z" fill="#F1F2F2"/>
<path fill-rule="evenodd" clip-rule="evenodd" d="M54.2887 105.057C43.6914 105.057 33.3379 101.951 24.5677 96.2263C15.7367 90.4405 8.91533 82.2798 4.83477 72.657C0.815112 63.0951 -0.281158 52.5586 1.78957 42.3876C3.86031 32.2167 8.97629 22.898 16.4675 15.5287C23.9587 8.2202 33.4597 3.22608 43.8742 1.21625C54.2279 -0.854481 65.0079 0.181123 74.8134 4.20078C84.5581 8.15953 92.9627 14.8591 98.8095 23.5074C104.717 32.0949 107.823 42.2657 107.823 52.6194C107.823 66.5055 102.159 79.8433 92.1711 89.6488C82.1219 99.5153 68.4793 105.057 54.2887 105.057ZM54.2887 3.65241C44.4223 3.65241 34.7386 6.57615 26.5166 11.9357C18.3555 17.2952 11.8997 24.9691 8.12367 33.8611C4.34763 42.814 3.37311 52.6804 5.32203 62.1814C7.21005 71.6824 11.9605 80.3914 18.9644 87.2127C25.9684 94.0948 34.8604 98.7235 44.5441 100.612C54.2278 102.5 64.277 101.525 73.4126 97.8102C82.5482 94.156 90.3439 87.8825 95.8253 79.7823C101.368 71.743 104.291 62.3031 104.291 52.6194C104.291 39.6469 98.9922 27.2226 89.613 18.0261C80.2338 8.8296 67.5658 3.71331 54.2887 3.65241Z" fill="#231F20"/>
<path fill-rule="evenodd" clip-rule="evenodd" d="M54.2885 98.053C45.1529 98.053 36.1393 95.3735 28.5263 90.3794C20.9133 85.3853 14.9447 78.3202 11.4122 70.0372C7.94071 61.6934 7.02712 52.5583 8.79334 43.7272C10.5595 34.9571 15.0056 26.8567 21.5223 20.4618C27.9782 14.1278 36.2611 9.80339 45.2749 8.03718C54.2277 6.27097 63.6069 7.18441 72.0726 10.6559C80.5382 14.0665 87.7858 19.9136 92.9017 27.3438C97.9567 34.835 100.697 43.6052 100.697 52.619C100.697 64.6779 95.8251 76.1889 87.1158 84.7154C78.4066 93.242 66.5911 98.053 54.2885 98.053ZM54.2885 10.6559C45.8229 10.6559 37.5399 13.1533 30.536 17.7211C23.4711 22.3498 17.9899 28.9271 14.7619 36.5401C11.4731 44.214 10.6205 52.6801 12.3258 60.7803C13.9702 68.9414 18.0507 76.4325 24.0193 82.2793C29.9879 88.126 37.6618 92.1453 45.9447 93.7897C54.2276 95.3733 62.8761 94.5206 70.6718 91.3536C78.5284 88.1866 85.2277 82.8272 89.9173 75.945C94.6069 69.002 97.165 60.9019 97.165 52.619C97.104 41.4735 92.5972 30.8152 84.5579 22.9586C76.5186 15.102 65.6776 10.6559 54.2885 10.6559Z" fill="#231F20"/>
<path fill-rule="evenodd" clip-rule="evenodd" d="M61.4755 64.4941V77.1014C61.4755 78.9285 60.6837 80.6945 59.3438 82.0344C58.0039 83.3133 56.1768 84.1053 54.2888 84.1053C52.4008 84.1053 50.5738 83.3133 49.2339 82.0344C47.894 80.6945 47.1631 78.9285 47.1631 77.1014V64.4941C38.2711 63.7024 29.3182 61.0836 29.3182 56.0895C29.3182 52.4962 34.4341 49.5728 43.3261 48.172C43.7524 48.1111 44.2397 48.2327 44.6051 48.5372C44.9705 48.7808 45.2141 49.207 45.3359 49.6334C45.3968 50.1206 45.275 50.5473 45.0314 50.9127C44.7269 51.2781 44.3615 51.5219 43.8743 51.6437C35.6523 52.9226 32.9116 55.2369 32.9116 56.0895C32.9116 57.4294 37.662 60.048 47.1631 61.0225V42.1423H38.2712C36.3222 42.1423 34.556 41.4118 33.2161 40.0719C31.8762 38.7929 31.0845 36.9655 31.0845 35.1383C31.0845 33.3112 31.8762 31.4844 33.2161 30.2054C34.556 28.8655 36.3222 28.1344 38.2712 28.1344H70.3675C72.2555 28.1344 74.0827 28.8655 75.4226 30.2054C76.7624 31.4844 77.4932 33.3112 77.4932 35.1383C77.4932 36.9655 76.7624 38.7929 75.4226 40.0719C74.0827 41.4118 72.2555 42.1423 70.3675 42.1423H61.4755V61.0225C70.9765 60.048 75.7271 57.4294 75.7271 56.0895C75.7271 55.2369 72.9254 52.9226 64.7034 51.6437C64.2771 51.5219 63.8507 51.2781 63.6071 50.9127C63.3635 50.5473 63.2417 50.1206 63.3026 49.6334C63.3635 49.207 63.6072 48.7808 63.9726 48.5372C64.3989 48.2327 64.8252 48.1111 65.3124 48.172C74.2044 49.5728 79.3203 52.4962 79.3203 56.0895C79.3203 61.0836 70.3674 63.7024 61.4755 64.4941ZM48.9294 38.61C49.4166 38.61 49.9037 38.7929 50.2082 39.1584C50.5737 39.4629 50.7565 39.9501 50.7565 40.3764V61.2051C53.1114 61.3269 55.4866 61.3269 57.8822 61.2051V40.3764C57.8822 39.9501 58.0649 39.4629 58.3695 39.1584C58.7349 38.7929 59.1611 38.61 59.6484 38.61H70.3675C71.342 38.61 72.1945 38.2448 72.8645 37.6358C73.5344 36.9658 73.9608 36.0519 73.9608 35.1383C73.9608 34.2248 73.5344 33.3115 72.8645 32.6415C72.1945 32.0325 71.342 31.6667 70.3675 31.6667H38.2712C37.2967 31.6667 36.383 32.0325 35.7131 32.6415C35.0431 33.3115 34.6777 34.2248 34.6777 35.1383C34.6777 36.0519 35.0431 36.9658 35.7131 37.6358C36.383 38.2448 37.2967 38.61 38.2712 38.61H48.9294ZM56.7859 79.5375C57.4558 78.9285 57.8212 78.0149 57.8212 77.1014V64.738C56.6438 64.8192 55.446 64.8593 54.228 64.8593C53.0505 64.8593 51.873 64.8192 50.6955 64.738V77.1014C50.6955 78.0149 51.0609 78.9285 51.7308 79.5375C52.4008 80.2075 53.3144 80.573 54.228 80.573C55.2024 80.573 56.116 80.2075 56.7859 79.5375Z" fill="#231F20"/>
<path d="M159.226 221.627L161.541 209.446L176.158 203.964L190.775 209.446L193.15 221.627L176.158 225.463L159.226 221.627Z" fill="#365E7D"/>
<path d="M130.785 207.984C161.034 210.136 191.283 210.136 221.532 207.984C225.43 207.679 228.596 204.695 229.084 200.797C231.682 179.481 231.682 158.164 229.084 136.848C228.596 132.95 225.43 129.905 221.532 129.661C191.283 127.51 161.034 127.51 130.785 129.661C126.887 129.905 123.72 132.95 123.294 136.848C120.654 158.164 120.654 179.481 123.294 200.797C123.72 204.695 126.887 207.679 130.785 207.984Z" fill="#407093"/>
<path d="M132.734 208.106C132.084 208.065 131.455 208.024 130.846 207.984C126.887 207.679 123.72 204.695 123.294 200.797C120.654 179.481 120.654 158.165 123.294 136.848C123.72 132.95 126.887 129.905 130.846 129.662C131.455 129.621 132.084 129.58 132.734 129.54C131.333 130.88 130.358 132.707 130.115 134.778C127.354 157.475 127.354 180.171 130.115 202.868C130.358 204.939 131.333 206.766 132.734 208.106Z" fill="#365E7D"/>
<path d="M129.078 193.125C129.261 195.013 130.844 196.535 132.732 196.657C147.166 197.631 161.783 198.058 176.157 198.058C190.591 198.058 205.147 197.631 219.581 196.657C221.53 196.535 223.053 195.013 223.235 193.125C225.002 174.671 224.758 156.034 222.505 137.641C222.444 136.91 221.835 136.301 221.043 136.24C206.182 135.205 191.078 134.657 176.157 134.657C161.296 134.657 146.192 135.205 131.271 136.24C130.54 136.301 129.931 136.91 129.809 137.641C127.555 156.034 127.312 174.671 129.078 193.125Z" fill="#80B4FB"/>
<path d="M202.102 229.301H150.272C148.141 229.301 146.435 227.596 146.435 225.464C146.435 223.333 148.141 221.628 150.272 221.628H202.102C204.233 221.628 205.938 223.333 205.938 225.464C205.938 227.596 204.233 229.301 202.102 229.301Z" fill="#407093"/>
<path d="M160.566 229.301H150.272C148.141 229.301 146.435 227.596 146.435 225.465C146.435 224.429 146.862 223.455 147.532 222.785C148.263 222.054 149.176 221.628 150.272 221.628H160.566C159.469 221.628 158.556 222.054 157.825 222.785C157.155 223.455 156.729 224.429 156.729 225.465C156.729 227.596 158.434 229.301 160.566 229.301Z" fill="#365E7D"/>
<path d="M198.752 146.411C183.689 145.68 168.646 145.68 153.623 146.411C149.664 146.594 146.375 149.639 145.888 153.598C145.157 160.053 145.157 166.509 145.888 172.965C146.375 176.985 149.664 180.03 153.623 180.213C168.646 180.944 183.689 180.944 198.752 180.213C202.711 180.03 206 176.985 206.426 172.965C207.198 166.509 207.198 160.053 206.426 153.598C206 149.639 202.711 146.594 198.752 146.411Z" fill="#FFD064"/>
<path d="M154.902 180.273C154.455 180.233 154.029 180.213 153.623 180.213C149.664 180.03 146.375 176.984 145.888 172.965C145.157 166.509 145.157 160.053 145.888 153.597C146.375 149.639 149.664 146.594 153.623 146.411C154.029 146.37 154.455 146.35 154.902 146.35C152.526 147.69 150.882 150.065 150.577 152.928C149.765 159.83 149.765 166.753 150.577 173.696C150.882 176.497 152.526 178.933 154.902 180.273Z" fill="#FFC250"/>
<path d="M214.161 176.01L202.346 172.843C200.702 172.417 199.24 173.878 199.666 175.522L202.833 187.338C203.26 188.982 205.331 189.53 206.488 188.312L208.376 186.425L212.639 190.688C213.979 192.028 216.171 192.028 217.511 190.688C218.851 189.348 218.851 187.155 217.511 185.815L213.248 181.552L215.136 179.664C216.354 178.446 215.806 176.436 214.161 176.01Z" fill="#ECECEC"/>
<path d="M143.695 143.122L144 142.757C145.157 141.66 145.218 139.833 144.182 138.615L140.894 134.839C139.737 133.56 137.727 133.438 136.448 134.717L135.656 135.509C134.377 136.788 134.438 138.798 135.778 140.016L139.554 143.244C140.772 144.279 142.538 144.218 143.695 143.122ZM156.79 135.387L157.216 135.265C158.799 134.9 159.774 133.317 159.469 131.733L158.495 126.861C158.129 125.156 156.424 124.059 154.719 124.485L153.623 124.79C151.917 125.277 150.943 127.104 151.491 128.749L153.075 133.438C153.623 134.961 155.267 135.814 156.79 135.387ZM136.204 156.338L136.326 155.851C136.752 154.328 135.899 152.684 134.377 152.197L129.687 150.552C127.982 150.004 126.216 150.978 125.729 152.684L125.424 153.78C124.998 155.485 126.094 157.252 127.799 157.556L132.672 158.531C134.255 158.835 135.778 157.861 136.204 156.338Z" fill="#F6EE6D"/>
<path fill-rule="evenodd" clip-rule="evenodd" d="M230.727 200.982C230.178 205.671 226.341 209.325 221.652 209.63C212.07 210.32 202.447 210.787 192.783 211.031L194.489 219.984H202.102C205.147 219.984 207.583 222.42 207.583 225.465C207.583 226.927 207.035 228.266 205.999 229.302C204.964 230.337 203.563 230.946 202.102 230.946H160.139C159.225 230.946 158.433 230.215 158.433 229.302C158.433 228.388 159.225 227.597 160.139 227.597H202.102C202.711 227.597 203.198 227.414 203.624 226.988C204.051 226.561 204.294 226.013 204.294 225.465C204.294 224.247 203.32 223.273 202.102 223.273H150.272C149.663 223.273 149.115 223.516 148.75 223.942C148.323 224.369 148.08 224.856 148.08 225.465C148.08 226.622 149.054 227.597 150.272 227.597H153.5C154.414 227.597 155.145 228.388 155.145 229.302C155.145 230.215 154.414 230.946 153.5 230.946H150.272C147.227 230.946 144.791 228.449 144.791 225.465C144.791 224.003 145.339 222.603 146.375 221.568C147.41 220.532 148.811 219.984 150.272 219.984H157.824L159.53 211.031C149.907 210.787 140.304 210.32 130.722 209.63C126.033 209.325 122.196 205.671 121.648 200.982C119.029 179.665 119.029 157.984 121.648 136.607C122.196 131.978 126.033 128.323 130.722 128.019C136.995 127.532 143.451 127.166 149.724 126.923C149.846 126.435 150.008 125.969 150.211 125.522C150.82 124.426 151.917 123.573 153.196 123.208L154.292 122.903C155.51 122.599 156.911 122.781 158.007 123.451C159.103 124.182 159.895 125.278 160.139 126.557C176.4 126.192 192.905 126.374 209.166 127.227C210.08 127.288 210.811 128.08 210.75 128.994C210.689 129.846 209.958 130.516 209.106 130.516C209.065 130.516 209.045 130.516 209.045 130.516C193.027 129.724 176.826 129.481 160.748 129.907L161.052 131.43C161.174 132.039 161.195 132.627 161.113 133.196C166.107 133.074 171.223 133.013 176.157 133.013C191.078 133.013 206.243 133.561 221.164 134.596C222.748 134.718 223.966 135.936 224.149 137.459C226.402 155.913 226.646 174.732 224.941 193.247C224.636 195.988 222.444 198.119 219.703 198.302C205.208 199.277 190.591 199.763 176.157 199.763C161.783 199.763 147.105 199.277 132.671 198.302C129.87 198.119 127.677 195.988 127.433 193.247C126.337 181.858 126.033 170.286 126.459 158.897C125.606 158.471 124.875 157.862 124.388 157.07C123.718 155.974 123.536 154.573 123.84 153.355L124.145 152.258C124.449 150.979 125.302 149.944 126.459 149.274C126.662 149.193 126.865 149.112 127.068 149.031C127.372 145.194 127.738 141.296 128.225 137.459C128.408 135.936 129.626 134.718 131.149 134.596C132.306 134.535 133.402 134.475 134.437 134.353C134.437 134.353 134.458 134.353 134.498 134.353L135.29 133.561C136.204 132.648 137.483 132.099 138.762 132.16C140.102 132.221 141.319 132.769 142.172 133.805L142.294 133.927C145.339 133.744 148.384 133.622 151.369 133.5L150.272 130.212C143.817 130.516 137.361 130.821 130.905 131.308C127.799 131.551 125.302 133.926 124.936 137.032C122.317 158.105 122.317 179.483 124.936 200.616C125.302 203.722 127.799 206.098 130.905 206.342C160.931 208.473 191.383 208.473 221.408 206.342C224.514 206.098 227.072 203.722 227.438 200.616C230.056 179.483 230.056 158.105 227.438 137.032C227.072 133.926 224.514 131.551 221.408 131.308C219.52 131.186 217.571 131.064 215.561 130.881C214.648 130.881 213.978 130.09 213.978 129.176C214.039 128.263 214.831 127.531 215.744 127.592C217.815 127.714 219.764 127.836 221.652 128.019C226.341 128.323 230.178 131.978 230.727 136.607C233.345 157.984 233.345 179.665 230.727 200.982ZM136.386 137.763C136.447 138.129 136.569 138.495 136.874 138.738L140.65 142.027C141.198 142.514 141.989 142.453 142.538 141.966L142.842 141.6C143.39 141.113 143.39 140.261 142.903 139.712L139.675 135.936C139.432 135.632 139.066 135.51 138.64 135.449C138.213 135.449 137.909 135.632 137.604 135.876L136.813 136.667C136.508 136.972 136.386 137.337 136.386 137.763ZM132.976 156.887C133.707 157.07 134.437 156.583 134.62 155.913V155.852L134.742 155.426C134.925 154.756 134.559 153.964 133.828 153.72L129.139 152.137C129.017 152.096 128.875 152.076 128.712 152.076C128.469 152.076 128.245 152.117 128.042 152.198C127.677 152.441 127.433 152.746 127.312 153.111L127.068 154.207C126.946 154.573 127.007 154.999 127.19 155.304C127.433 155.669 127.738 155.852 128.103 155.974L132.976 156.887ZM157.703 136.85L157.215 136.972C156.809 137.094 156.403 137.154 155.997 137.154C155.327 137.154 154.597 136.972 153.988 136.667C151.064 136.789 148.08 136.911 145.035 137.032L145.461 137.459C147.045 139.347 146.984 142.149 145.217 143.915L144.913 144.22C143.999 145.133 142.781 145.62 141.563 145.62C140.467 145.62 139.371 145.255 138.457 144.463L134.742 141.174C133.707 140.322 133.158 139.104 133.098 137.825C133.098 137.784 133.098 137.763 133.098 137.763C132.57 137.804 132.042 137.845 131.514 137.885C131.027 141.54 130.661 145.315 130.357 149.031L134.925 150.553C137.239 151.345 138.579 153.842 137.97 156.278L137.848 156.705C137.3 158.776 135.351 160.176 133.28 160.176C132.955 160.176 132.651 160.156 132.367 160.115L129.748 159.628C129.382 170.652 129.687 181.858 130.722 192.943C130.844 194.039 131.758 194.891 132.854 194.952C147.288 195.927 161.844 196.414 176.218 196.414C190.53 196.414 205.086 195.927 219.52 194.952C220.616 194.891 221.53 194.039 221.652 192.943C223.357 174.611 223.113 156.096 220.86 137.885C206.06 136.789 191.017 136.302 176.218 136.302C170.371 136.302 164.463 136.363 158.555 136.545C158.271 136.667 157.987 136.769 157.703 136.85ZM153.074 128.201L154.657 132.891C154.901 133.561 155.693 133.987 156.363 133.805L156.85 133.683C157.52 133.439 158.007 132.77 157.824 132.039L156.911 127.166C156.789 126.801 156.606 126.436 156.241 126.253C155.997 126.091 155.754 126.009 155.51 126.009C155.388 126.009 155.267 126.029 155.145 126.07L154.048 126.374C153.683 126.496 153.378 126.74 153.135 127.045C152.952 127.41 152.952 127.836 153.074 128.201ZM189.434 211.092C185.008 211.173 180.603 211.214 176.218 211.214C171.792 211.214 167.366 211.173 162.94 211.092L161.235 219.923H191.139L189.434 211.092ZM176.157 202.322C177.131 202.322 177.862 203.052 177.862 203.966V204.088C177.862 205.002 177.131 205.733 176.157 205.733C175.243 205.733 174.512 205.002 174.512 204.088V203.966C174.512 203.052 175.243 202.322 176.157 202.322Z" fill="#0F0901"/>
<path fill-rule="evenodd" clip-rule="evenodd" d="M153.561 144.766C168.544 144.035 183.77 144.035 198.813 144.766C203.624 145.009 207.522 148.603 208.07 153.414C208.801 159.809 208.862 166.265 208.131 172.659L214.587 174.426C215.927 174.73 216.963 175.766 217.328 177.106C217.693 178.446 217.328 179.846 216.292 180.821L215.562 181.552L218.668 184.658C219.642 185.632 220.129 186.911 220.129 188.251C220.129 189.591 219.642 190.87 218.668 191.844C217.693 192.819 216.414 193.306 215.074 193.306C213.734 193.306 212.456 192.819 211.481 191.844L208.375 188.738L207.644 189.469C206.67 190.444 205.269 190.809 203.929 190.505C202.589 190.139 201.615 189.104 201.249 187.764L199.605 181.795C199.361 181.836 199.097 181.856 198.813 181.856C191.322 182.222 183.77 182.404 176.157 182.404C168.605 182.404 161.053 182.222 153.561 181.856C148.689 181.613 144.791 177.958 144.243 173.208C143.512 166.63 143.512 159.992 144.243 153.414C144.791 148.603 148.689 145.009 153.561 144.766ZM213.735 177.593L201.919 174.426C201.676 174.365 201.493 174.487 201.432 174.548C201.31 174.67 201.188 174.852 201.249 175.096L204.416 186.911C204.477 187.155 204.721 187.276 204.782 187.276C204.903 187.337 205.147 187.338 205.33 187.155L207.218 185.206C207.583 184.901 207.949 184.78 208.375 184.78C208.801 184.78 209.228 184.901 209.593 185.206L213.856 189.469C214.526 190.2 215.623 190.2 216.353 189.469C217.023 188.799 217.023 187.703 216.353 186.972L212.09 182.709C211.42 182.1 211.42 181.064 212.09 180.394L213.978 178.507C214.161 178.324 214.161 178.08 214.1 177.958C214.1 177.836 213.978 177.654 213.735 177.593ZM153.683 148.055C150.516 148.237 147.897 150.612 147.532 153.779C146.801 160.113 146.801 166.508 147.532 172.781C147.897 175.948 150.516 178.384 153.683 178.567C168.605 179.237 183.77 179.237 198.63 178.567C198.671 178.567 198.712 178.547 198.752 178.507L198.082 175.948C197.717 174.609 198.082 173.208 199.057 172.234C200.031 171.259 201.432 170.893 202.772 171.259L204.903 171.807C205.513 165.839 205.513 159.748 204.782 153.779C204.416 150.612 201.858 148.237 198.63 148.055C183.77 147.324 168.605 147.324 153.683 148.055Z" fill="#0F0901"/>
</svg>
