<svg width="231" height="232" viewBox="0 0 231 232" fill="none" xmlns="http://www.w3.org/2000/svg">
<path opacity="0.5" d="M197.1 39.8571H197.704V39.2526H197.1V39.8571ZM132.78 40.4616H197.1V39.2526H132.78V40.4616ZM196.495 39.8571V101.215H197.704V39.8571H196.495Z" fill="#42A2B5"/>
<path d="M213.42 24.0797H214.025V23.4752H213.42V24.0797ZM132.779 24.6842H213.42V23.4752H132.779V24.6842ZM212.816 24.0797V101.215H214.025V24.0797H212.816Z" fill="#0E879E"/>
<path opacity="0.5" d="M34.6082 184.818H34.0037V185.423H34.6082V184.818ZM98.9279 184.214H34.6082V185.423H98.9279V184.214ZM35.2127 184.818V123.461H34.0037V184.818H35.2127Z" fill="#42A2B5"/>
<path d="M15.9285 202.893H15.324V203.498H15.9285V202.893ZM98.9275 202.289H15.9285V203.498H98.9275V202.289ZM16.5331 202.893V123.461H15.324V202.893H16.5331Z" fill="#0E879E"/>
<path d="M55.1 107.502C84.056 107.502 107.511 84.0474 107.511 55.0915C107.511 26.1356 84.056 2.61975 55.1 2.61975C26.1441 2.61975 2.62872 26.1356 2.62872 55.0915C2.62872 84.0474 26.1441 107.502 55.1 107.502Z" fill="#2488FF"/>
<path d="M55.1006 100.248C80.0668 100.248 100.257 80.0577 100.257 55.0915C100.257 30.1253 80.0668 9.87385 55.1006 9.87385C30.1344 9.87385 9.88338 30.1253 9.88338 55.0915C9.88338 80.0577 30.1344 100.248 55.1006 100.248ZM55.3424 2.61975C55.9469 5.03778 56.3701 7.47632 56.6119 9.93465C64.9541 10.1765 73.0545 12.7757 80.0063 17.37C86.9582 21.9642 92.5196 28.4324 96.0862 35.9887C99.5924 43.5451 100.922 51.9478 99.9551 60.2901C99.0483 68.5718 95.784 76.4302 90.6456 83.0193C85.4469 89.548 78.616 94.5657 70.7574 97.4673C62.8988 100.369 54.4357 101.034 46.2748 99.4018C38.0535 97.7697 30.4971 93.9008 24.3311 88.2184C18.2256 82.5361 13.8127 75.2818 11.576 67.2419C9.1983 67.5643 6.82054 67.7254 4.44281 67.7254C4.36221 67.7254 4.28159 67.7254 4.20099 67.7254C6.55857 77.2766 11.576 85.9213 18.5883 92.7522C25.6611 99.5832 34.4868 104.298 44.0985 106.354C53.7102 108.409 63.6846 107.744 72.8732 104.359C82.1221 101.034 90.2225 95.1702 96.328 87.4929C102.373 79.7552 106.121 70.5064 107.209 60.7133C108.237 50.9807 106.544 41.1273 102.313 32.3014C98.0207 23.4152 91.3711 15.9796 83.0289 10.7204C74.7471 5.52163 65.1355 2.6802 55.3424 2.61975Z" fill="#006DF0"/>
<path d="M55.1006 100.247C66.8885 100.187 78.1928 95.472 86.5954 87.1902C94.9376 78.9084 99.7737 67.6039 99.955 55.816C100.136 44.0281 95.7235 32.6031 87.623 24.0191C79.5226 15.4351 68.3997 10.4178 56.6118 9.9342C56.773 11.7074 56.8738 13.5004 56.9141 15.314C56.9141 27.9482 52.3198 40.2197 43.9776 49.7709C35.6354 59.3221 24.0893 65.5488 11.576 67.2414C14.2358 76.7322 19.9182 85.1351 27.7768 91.0593C35.6354 97.0439 45.1866 100.247 55.1006 100.247Z" fill="#005ECE"/>
<path d="M78.5561 62.2853L55.1012 71.2927L31.6463 62.2853L55.1012 89.3671L78.5561 62.2853ZM75.1709 56.3612L55.1012 20.7555L35.0315 56.3612L55.1012 64.0386L75.1709 56.3612Z" fill="#BDDBFF"/>
<path fill-rule="evenodd" clip-rule="evenodd" d="M55.1007 109.316C44.3404 109.316 33.8824 106.112 24.9357 100.188C16.0494 94.2032 9.09759 85.7402 4.98694 75.8263C0.876282 65.9123 -0.211817 55.0313 1.90396 44.5129C3.95929 33.9944 9.15806 24.3223 16.7144 16.7055C24.3312 9.14914 34.0033 3.95037 44.5218 1.89505C55.0402 -0.220732 65.9213 0.867146 75.8353 4.9778C85.7492 9.08846 94.2123 16.0403 100.197 24.9266C106.121 33.8733 109.325 44.3315 109.325 55.0917C109.325 69.479 103.582 83.2615 93.4265 93.4172C83.2708 103.573 69.488 109.316 55.1007 109.316ZM55.1007 4.43351C45.0658 4.43351 35.2728 7.39595 26.9306 12.9574C18.6488 18.5189 12.1201 26.4377 8.31173 35.6867C4.50333 44.9357 3.47564 55.1521 5.41006 64.9451C7.40494 74.7381 12.1806 83.8054 19.3137 90.8782C26.3865 97.9509 35.3937 102.787 45.1867 104.722C55.0402 106.656 65.196 105.689 74.4449 101.82C83.6939 98.0117 91.6129 91.5436 97.1744 83.2014C102.736 74.8592 105.698 65.0661 105.698 55.0917C105.698 41.6717 100.318 28.7955 90.8875 19.3048C81.3967 9.81398 68.5208 4.49396 55.1007 4.43351Z" fill="#231F20"/>
<path fill-rule="evenodd" clip-rule="evenodd" d="M55.1012 102.061C45.7918 102.061 36.7241 99.3414 28.9864 94.1426C21.2487 89.0043 15.2036 81.629 11.637 73.045C8.07044 64.461 7.16366 55.031 8.97719 45.903C10.7907 36.7749 15.2641 28.4328 21.8532 21.8437C28.4424 15.2545 36.7845 10.7807 45.9126 8.96718C55.0407 7.15366 64.471 8.06065 73.055 11.6273C81.639 15.1938 89.0141 21.239 94.1524 28.9767C99.3512 36.7145 102.071 45.7822 102.071 55.0916C102.071 67.5445 97.1145 79.4529 88.2887 88.2787C79.4629 97.1046 67.554 102.061 55.1012 102.061ZM55.1012 11.6875C46.5172 11.6875 38.1145 14.2268 30.9813 19.0024C23.8481 23.778 18.2866 30.5486 15.0223 38.4676C11.6975 46.3867 10.8512 55.0916 12.5438 63.5547C14.176 71.9574 18.3471 79.6946 24.3921 85.7397C30.4977 91.8452 38.175 95.956 46.6381 97.6486C55.0407 99.2808 63.7457 98.4347 71.6647 95.1704C79.5838 91.8456 86.4147 86.2841 91.1298 79.1509C95.9054 72.0177 98.4444 63.6756 98.4444 55.0916C98.4444 43.5455 93.8501 32.543 85.7497 24.3821C77.5888 16.2817 66.5868 11.6875 55.1012 11.6875Z" fill="#231F20"/>
<path fill-rule="evenodd" clip-rule="evenodd" d="M55.1003 91.1801C54.8182 91.1801 54.5562 91.1198 54.3144 90.9989C54.0726 90.9183 53.8711 90.7771 53.7099 90.5756L30.255 63.4938C30.0132 63.1915 29.8318 62.8289 29.8318 62.4058C29.8318 61.9826 29.8923 61.6197 30.1341 61.257C30.3759 60.9547 30.7386 60.7132 31.1013 60.5923C31.464 60.4714 31.8872 60.4714 32.2499 60.5923L55.1003 69.3576L77.8902 60.5923C78.2529 60.4714 78.6761 60.4714 79.0388 60.5923C79.462 60.7132 79.7642 60.9547 80.006 61.257C80.2478 61.6197 80.3687 61.9826 80.3083 62.4058C80.3083 62.8289 80.1874 63.1915 79.8851 63.4938L56.4302 90.5756C56.269 90.7771 56.0675 90.9183 55.8257 90.9989C55.5839 91.1198 55.3421 91.1801 55.1003 91.1801ZM37.7509 66.5771L55.1003 86.5861L72.4497 66.5771L55.7048 72.9847C55.2817 73.1056 54.8585 73.1056 54.4354 72.9847L37.7509 66.5771Z" fill="#231F20"/>
<path fill-rule="evenodd" clip-rule="evenodd" d="M55.1005 65.8503C54.8586 65.8503 54.637 65.8099 54.4355 65.7293L34.3658 58.0519C34.124 57.931 33.9024 57.7898 33.7009 57.6286C33.4994 57.4271 33.3583 57.2057 33.2777 56.9639C33.1971 56.7221 33.1769 56.4603 33.2172 56.1782C33.2172 55.9364 33.2777 55.6945 33.3986 55.4527L53.5287 19.9077C53.6899 19.6256 53.9116 19.4036 54.1937 19.2424C54.4758 19.1215 54.778 19.0612 55.1005 19.0612C55.4229 19.0612 55.705 19.1215 55.9468 19.2424C56.2289 19.4036 56.4707 19.6256 56.6722 19.9077L76.7418 55.4527C76.8627 55.6945 76.9433 55.9364 76.9836 56.1782C76.9836 56.4603 76.9433 56.7221 76.8627 56.9639C76.7821 57.2057 76.641 57.4271 76.4395 57.6286C76.2783 57.7898 76.0768 57.931 75.835 58.0519L55.705 65.7293C55.5035 65.8099 55.302 65.8503 55.1005 65.8503ZM37.5697 55.3924L55.1005 62.1022L72.5707 55.3924L55.1005 24.4415L37.5697 55.3924Z" fill="#231F20"/>
<path d="M221.159 188.446H127.46C123.894 188.446 120.992 185.544 120.992 181.917V129.144C120.992 125.577 123.894 122.675 127.46 122.675H221.159C224.726 122.675 227.627 125.577 227.627 129.144V181.917C227.627 185.544 224.726 188.446 221.159 188.446Z" fill="#FFE454"/>
<path d="M227.446 199.508L191.054 186.028C187.488 184.698 184.042 188.144 185.312 191.71L198.792 228.041C199.457 229.794 201.875 229.855 202.601 228.162L207.618 216.676L217.955 227.013C219.406 228.464 221.763 228.464 223.214 227.013L226.297 223.87C227.748 222.479 227.748 220.122 226.297 218.671L216.081 208.455L227.567 203.316C229.259 202.591 229.138 200.173 227.446 199.508Z" fill="#3BDCFF"/>
<path d="M149.042 186.209H127.521C125.103 186.209 123.169 184.275 123.169 181.917V129.204C123.169 126.786 125.103 124.851 127.521 124.851H221.099C223.456 124.851 225.391 126.786 225.391 129.204V181.917C225.391 184.275 223.456 186.209 221.099 186.209H214.51C213.301 186.209 212.273 187.176 212.273 188.446C212.273 189.655 213.301 190.622 214.51 190.622H221.099C225.935 190.622 229.804 186.693 229.804 181.917V129.204C229.804 124.368 225.935 120.499 221.099 120.499H127.521C122.685 120.499 118.756 124.368 118.756 129.204V181.917C118.756 186.693 122.685 190.622 127.521 190.622H149.042C150.251 190.622 151.278 189.655 151.278 188.446C151.278 187.176 150.251 186.209 149.042 186.209Z" fill="#0F0901"/>
<path fill-rule="evenodd" clip-rule="evenodd" d="M228.474 205.312L219.89 209.12L227.869 217.099C229.018 218.248 229.622 219.699 229.622 221.27C229.622 222.842 229.018 224.353 227.869 225.442L224.786 228.585C222.489 230.882 218.741 230.882 216.444 228.585L208.344 220.484L204.596 229.008C203.931 230.58 202.42 231.608 200.727 231.608C200.687 231.608 200.646 231.608 200.606 231.608C198.853 231.547 197.342 230.459 196.737 228.827L183.257 192.496C182.35 190.017 182.954 187.357 184.828 185.483C186.642 183.609 189.362 183.065 191.841 183.972L228.172 197.453C229.804 198.057 230.892 199.568 230.952 201.321C231.013 203.014 230.046 204.586 228.474 205.312ZM226.358 201.442L190.269 188.083C189.987 187.962 189.725 187.901 189.483 187.901C188.637 187.901 188.093 188.385 187.911 188.567C187.67 188.808 186.944 189.715 187.428 190.985L200.727 226.953L205.624 215.769C205.865 215.104 206.47 214.621 207.195 214.5C207.921 214.379 208.646 214.56 209.19 215.104L219.527 225.442C219.829 225.744 220.192 225.865 220.615 225.865C220.978 225.865 221.341 225.744 221.643 225.442L224.786 222.358C225.33 221.754 225.33 220.787 224.786 220.242L214.51 209.966C214.026 209.482 213.784 208.757 213.905 208.032C214.026 207.306 214.51 206.702 215.175 206.4L226.358 201.442ZM181.504 179.015C182.35 179.862 182.35 181.252 181.504 182.098C181.08 182.521 180.476 182.763 179.932 182.763C179.388 182.763 178.844 182.521 178.36 182.098L172.194 175.932C171.287 175.025 171.287 173.635 172.194 172.789C173.041 171.942 174.431 171.942 175.277 172.789L181.504 179.015ZM175.398 190.682H166.633C165.424 190.682 164.396 189.655 164.396 188.446C164.396 187.237 165.424 186.27 166.633 186.27H175.398C176.607 186.27 177.635 187.237 177.635 188.446C177.635 189.655 176.607 190.682 175.398 190.682ZM188.032 164.87C189.241 164.87 190.209 165.837 190.209 167.046V175.872C190.209 177.081 189.241 178.048 188.032 178.048C186.823 178.048 185.856 177.081 185.856 175.872V167.046C185.856 165.837 186.823 164.87 188.032 164.87ZM197.16 178.29C196.314 177.383 196.314 175.993 197.16 175.146L203.387 168.92C204.233 168.074 205.624 168.074 206.53 168.92C207.377 169.827 207.377 171.217 206.53 172.064L200.304 178.29C199.881 178.713 199.276 178.894 198.732 178.894C198.188 178.894 197.584 178.713 197.16 178.29ZM178.965 196.485C179.811 197.332 179.811 198.722 178.965 199.569L172.738 205.795C172.315 206.218 171.771 206.46 171.167 206.46C170.623 206.46 170.078 206.218 169.655 205.795C168.749 204.949 168.749 203.558 169.655 202.712L175.821 196.485C176.728 195.639 178.118 195.639 178.965 196.485ZM155.631 188.446C155.631 187.237 156.658 186.27 157.867 186.27C159.076 186.27 160.044 187.237 160.044 188.446C160.044 189.655 159.076 190.682 157.867 190.682C156.658 190.682 155.631 189.655 155.631 188.446Z" fill="#0F0901"/>
</svg>
