<svg width="104" height="81" viewBox="0 0 104 81" fill="none" xmlns="http://www.w3.org/2000/svg">
<path fill-rule="evenodd" clip-rule="evenodd" d="M88.0495 6.87075C99.7547 24.3881 105.567 44.0845 103.468 66.7683C94.5075 73.4685 85.7892 77.506 77.2323 80.1699C75.1335 77.2638 73.2768 74.1959 71.6622 70.9669C74.7298 69.783 77.6897 68.3562 80.542 66.6879C79.7886 66.1497 79.0621 65.5849 78.3625 64.9929C61.5716 72.904 43.0855 72.904 26.0525 64.9929C25.3529 65.5849 24.6264 66.1497 23.8729 66.6879C26.7252 68.3562 29.6851 69.783 32.7527 70.9669C31.1382 74.1959 29.2546 77.2638 27.1019 80.1699C18.6258 77.506 9.90744 73.4685 0.946934 66.7683C-0.829022 47.2327 2.80361 27.2939 16.2847 6.95116C23.0657 3.72215 30.2502 1.46153 37.5962 0.169922C38.5649 1.86515 39.6951 4.12672 40.4216 5.90268C48.2251 4.71871 56.0823 4.71871 63.9934 5.90268C64.8006 4.12672 65.8501 1.86515 66.738 0.169922C74.1647 1.46153 81.2686 3.72246 88.0495 6.87075ZM44.2964 44.1652C44.4578 38.353 40.2601 33.5905 35.013 33.5905C29.8465 33.5905 25.7296 38.353 25.7296 44.1652C25.7296 49.9774 29.9273 54.7415 35.013 54.7415C40.2601 54.7415 44.3771 49.9774 44.2964 44.1652ZM78.6854 44.1652C78.7661 38.353 74.5684 33.5905 69.402 33.5905C64.1549 33.5905 60.1186 38.353 60.1186 44.1652C60.1186 49.9774 64.2356 54.7415 69.402 54.7415C74.5684 54.7415 78.6854 49.9774 78.6854 44.1652Z" fill="#5865F2"/>
</svg>
