<svg width="81" height="81" viewBox="0 0 81 81" fill="none" xmlns="http://www.w3.org/2000/svg">
<path d="M40.5604 0.168945C29.9354 0.168945 19.7479 4.35596 12.2479 11.856C4.74789 19.356 0.560425 29.5439 0.560425 40.1689C0.560425 50.7939 4.74789 60.9819 12.2479 68.4819C19.7479 75.9819 29.9354 80.1689 40.5604 80.1689C51.1854 80.1689 61.373 75.9819 68.873 68.4819C76.373 60.9819 80.5604 50.7939 80.5604 40.1689C80.5604 29.5439 76.373 19.356 68.873 11.856C61.373 4.35596 51.1854 0.168945 40.5604 0.168945Z" fill="url(#paint0_linear_1_8724)"/>
<path d="M18.6859 39.7319C30.3526 34.6486 38.1235 31.2935 41.9985 29.6685C53.1235 25.106 55.4359 24.2939 56.9359 24.2314C57.2484 24.2314 57.9984 24.3569 58.4359 24.7319C58.8734 25.0444 58.9984 25.4814 59.0609 25.7939C59.0609 26.1064 59.1234 26.7939 59.1234 27.3564C58.4984 33.6689 55.8734 49.0439 54.5609 56.1064C53.9984 59.1064 52.8734 60.1062 51.8109 60.2312C49.4984 60.4187 47.7484 58.6694 45.4984 57.2319C41.9984 54.9194 39.9984 53.481 36.5609 51.231C32.6234 48.606 35.1859 47.1689 37.4359 44.8564C37.9984 44.2314 48.2484 34.9194 48.4359 34.1069C48.4984 33.9819 48.4985 33.6062 48.2485 33.3562C48.061 33.1687 47.6859 33.2314 47.4359 33.2939C47.1026 33.3773 41.4776 37.1067 30.5609 44.4817C28.9776 45.565 27.5401 46.0859 26.2484 46.0442C24.8109 46.0442 22.0609 45.2312 19.9984 44.6062C17.4984 43.7937 15.4984 43.3567 15.6859 41.9817C15.7692 41.2317 16.7693 40.4819 18.6859 39.7319Z" fill="#F9F7F1"/>
<defs>
<linearGradient id="paint0_linear_1_8724" x1="135841" y1="1.40992e+06" x2="135841" y2="1.42016e+06" gradientUnits="userSpaceOnUse">
<stop stop-color="#2AABEE"/>
<stop offset="0.2" stop-color="#28A8EA"/>
<stop offset="0.4" stop-color="#27A6E6"/>
<stop offset="0.6" stop-color="#25A3E1"/>
<stop offset="0.8" stop-color="#24A1DD"/>
</linearGradient>
</defs>
</svg>
