<svg width="99" height="81" viewBox="0 0 99 81" fill="none" xmlns="http://www.w3.org/2000/svg">
<path d="M98.9421 9.63206C95.2498 11.2474 91.3268 12.3241 87.3268 12.7856C91.4806 10.3241 94.7114 6.32407 96.2498 1.63176C92.2498 3.93945 87.9421 5.63206 83.4037 6.55514C79.7114 2.55514 74.4806 0.169922 68.6344 0.169922C57.4806 0.169922 48.4806 9.17082 48.4806 20.3247C48.4806 21.9144 48.6344 23.4529 48.9421 24.9401C32.1729 24.0939 17.3268 16.0936 7.32676 3.86283C5.63446 6.78591 4.63446 10.3238 4.63446 14.0161C4.63446 21.0161 8.1729 27.1705 13.5575 30.7859C10.4037 30.709 7.2498 29.8622 4.40365 28.2468C4.40365 28.3494 4.40365 28.4523 4.40365 28.5548C4.40365 38.3241 11.4037 46.4788 20.6344 48.325C17.6344 49.1711 14.5575 49.248 11.4806 48.7096C14.096 56.7096 21.5575 62.5551 30.4037 62.709C23.4806 68.1705 14.7883 71.4019 5.32674 71.4019C3.68571 71.4019 2.07033 71.299 0.480591 71.0939C9.40367 76.7862 20.019 80.1699 31.4806 80.1699C68.6344 80.1699 88.9421 49.4013 88.9421 22.709C88.9421 21.8372 88.9165 20.9651 88.8652 20.0933C92.7883 17.2471 96.2498 13.6321 98.9421 9.63206Z" fill="#55ACEE"/>
</svg>
